<svg width="18" height="16" viewBox="0 0 18 16" fill="none" xmlns="http://www.w3.org/2000/svg">
<path d="M10.849 0.916375C9.66479 0.361209 8.33774 0.361208 7.15357 0.916374L1.57764 3.53049C0.680971 3.95087 0.447191 5.13627 0.876302 5.95555L0.876302 10.0833C0.876302 10.4285 1.15612 10.7083 1.5013 10.7083C1.84648 10.7083 2.1263 10.4285 2.1263 10.0833V6.89336L7.15364 9.25029C8.33781 9.80546 9.66487 9.80546 10.849 9.25029L16.425 6.63617C17.6379 6.06754 17.6379 4.09916 16.425 3.53053L10.849 0.916375Z" fill="white"/>
<path d="M3.16797 8.76227V11.8545C3.16797 12.6945 3.58755 13.481 4.32241 13.888C5.54605 14.5656 7.50463 15.5 9.0013 15.5C10.498 15.5 12.4565 14.5656 13.6802 13.888C14.415 13.481 14.8346 12.6945 14.8346 11.8545V8.76231L11.3796 10.3821C9.85929 11.0949 8.14339 11.0949 6.62303 10.3821L3.16797 8.76227Z" fill="white"/>
</svg>
