<svg width="144" height="141" viewBox="0 0 144 141" fill="none" xmlns="http://www.w3.org/2000/svg">
<path fill-rule="evenodd" clip-rule="evenodd" d="M63.3662 0.341797L126.256 63.2314L116.809 72.6784L63.3662 19.2357L21.327 61.2749H30.4777V114.297H79.1735V127.657H17.1177V74.6349H11.3715C7.6358 74.6349 4.26791 72.3846 2.8383 68.9332C1.40869 65.4818 2.19891 61.5091 4.84048 58.8675L63.3662 0.341797Z" fill="#E75B54"/>
<mask id="path-2-outside-1_6602_28530" maskUnits="userSpaceOnUse" x="39.5039" y="43.4297" width="105" height="97" fill="black">
<rect fill="white" x="39.5039" y="43.4297" width="105" height="97"/>
<path fill-rule="evenodd" clip-rule="evenodd" d="M59.5026 59.7543C69.5041 52.1297 83.9603 55.3327 89.8052 66.4684L91.9768 70.6058L94.5338 65.9547C100.537 55.036 114.867 52.0507 124.731 59.6642C134.421 67.1445 135.337 81.4355 126.681 90.0918L91.9768 124.796L57.4541 90.2735C48.7582 81.5776 49.7226 67.2101 59.5026 59.7543ZM95.5964 96.7185C95.2687 97.0171 94.9403 97.3086 94.6114 97.5929C100.456 101.222 105.841 102.606 108.734 100.974L108.756 100.962C109.472 98.9297 109.171 96.2077 108.002 93.169C107.852 93.2446 107.7 93.3194 107.546 93.3934L107.083 93.6114L106.406 93.9081C106.321 93.9479 106.231 93.9849 106.143 94.0214L106.143 94.0215C106.077 94.0486 106.012 94.0754 105.95 94.1029C105.473 94.2991 104.975 94.4837 104.47 94.6703C103.96 94.8541 103.408 95.0275 102.843 95.2002C102.615 95.271 102.387 95.3344 102.159 95.3981L102.159 95.3981L102.159 95.3981L102.048 95.4289L101.931 95.4618C101.636 95.5448 101.369 95.6125 101.082 95.6854L101.082 95.6854L101.082 95.6855L101.049 95.6938C99.719 96.0245 98.3294 96.3071 96.885 96.5447C96.46 96.6059 96.0307 96.6647 95.5964 96.7185ZM94.1571 94.4453C95.3192 93.3473 96.4735 92.1601 97.6018 90.8928C99.5594 88.6984 101.267 86.4529 102.687 84.257C101.297 82.5132 99.7041 80.7768 97.9315 79.1027C96.4991 77.7416 94.9856 76.4668 93.3974 75.2879C92.7465 75.3005 92.0887 75.3263 91.425 75.3658L91.2464 75.3771L91.2463 75.3771C90.9477 75.3959 90.6466 75.4149 90.3485 75.4449L90.3348 75.4566C88.5705 76.9717 86.9064 78.6053 85.364 80.3429C83.8877 82.002 82.5158 83.7482 81.2663 85.5854L81.2689 85.5884C82.8755 87.6144 84.6202 89.5179 86.5038 91.286C87.7861 92.4975 89.091 93.6177 90.3969 94.6387C91.1652 94.6315 91.9434 94.6044 92.7295 94.5565C93.2093 94.5267 93.6853 94.4895 94.1571 94.4453ZM97.3437 75.7886C97.1684 75.6392 96.9942 75.4907 96.8193 75.3448C100.38 75.5353 103.643 76.132 106.389 77.048C105.774 78.726 104.915 80.5259 103.837 82.3839C102.996 81.3616 102.089 80.343 101.118 79.3383C100.581 78.7858 100.023 78.2347 99.4463 77.6928L99.4428 77.6638C98.9873 77.2391 98.5136 76.8106 98.0492 76.401C97.8388 76.2054 97.6224 76.0198 97.4032 75.8393L97.3437 75.7886ZM93.7489 73.0086C98.7488 72.9603 103.338 73.7062 107.025 75.038C107.73 72.3467 107.69 70.0933 106.787 68.6024L106.789 68.6083C103.597 67.635 98.743 69.3202 93.6021 72.9021L93.4514 73.0124L93.4769 73.012C93.5221 72.9799 93.5672 72.9479 93.6123 72.9162C93.6579 72.9468 93.7035 72.9776 93.7489 73.0086ZM109.034 70.0532C109.597 71.6076 109.602 73.6123 109.103 75.8957C112.137 77.3214 114.332 79.2047 115.309 81.3853L115.309 81.3961C115.622 82.0806 115.807 82.8242 115.856 83.5751C116.024 86.763 113.704 89.7979 109.78 92.1864C110.445 93.9455 110.821 95.5968 110.88 97.0707C110.88 97.0707 110.882 97.0917 110.889 97.1026C110.889 97.1664 110.887 97.2299 110.884 97.2934C110.922 99.1644 110.442 100.734 109.353 101.863C108.743 102.488 107.99 102.963 107.156 103.23C103.653 104.412 98.1756 102.924 92.4341 99.3656C86.697 103.752 81.0774 105.821 77.5642 104.648C76.9332 104.445 76.3512 104.123 75.8493 103.685C74.4992 102.491 73.9324 100.599 74.057 98.2448C74.0566 98.115 74.0589 97.983 74.0641 97.849C74.1591 96.6866 74.415 95.4205 74.8223 94.0804C74.3762 93.8651 73.9491 93.6397 73.5422 93.4049L73.4209 93.3348C70.3382 91.5078 68.4406 89.1454 68.2758 86.4896C68.2268 85.5802 68.3731 84.6647 68.713 83.8139C68.7115 83.8057 68.7101 83.7971 68.709 83.7881C69.513 81.7185 71.3552 79.7766 73.9191 78.1369L73.9811 78.1019L73.9682 78.0647C72.9871 75.2003 72.7967 72.624 73.5464 70.7185C73.7809 70.079 74.1454 69.4943 74.6116 69.0019C75.9638 67.6338 78.0531 67.0969 80.593 67.338L80.6526 67.3404C83.8667 67.6507 87.765 69.1666 91.7806 71.7013L91.8059 71.6831C95.7899 68.7743 99.716 67.0046 102.843 66.7007C102.934 66.6943 103.026 66.6907 103.117 66.6898C104.955 66.5589 106.505 66.9672 107.617 67.9549C108.263 68.5166 108.753 69.2441 109.034 70.0532ZM105.514 84.5495C106.867 82.2316 107.895 79.9748 108.563 77.8883C111.974 79.4089 114.253 81.5065 114.799 83.9443L114.795 83.9533C113.888 86.2311 111.796 88.339 108.866 90.0706C108.003 88.2854 106.877 86.4238 105.514 84.5495ZM91.7077 74.3224C91.4156 74.5476 91.1304 74.7832 90.8441 75.0246C91.1323 74.7843 91.4202 74.551 91.7077 74.3224ZM85.8681 94.4441C85.4274 94.0536 84.989 93.652 84.5537 93.2397C82.8248 91.6033 81.2143 89.8545 79.7273 87.9962L79.7105 88.0225C78.7867 89.5721 78.0101 91.097 77.3918 92.5632C79.8572 93.4896 82.7342 94.1393 85.8681 94.4441ZM75.6257 91.8191C76.3379 90.0563 77.2786 88.2036 78.4297 86.3193L78.4384 86.3058L78.4217 86.2829C76.9692 84.3045 75.7295 82.1888 74.7166 79.9571L74.6848 79.9739C71.7158 81.7658 69.7822 83.9212 69.3272 86.2156L69.3345 86.2315C70.3425 88.4594 72.5688 90.3789 75.6257 91.8191ZM107.066 91.0363C106.334 89.549 105.418 88.0105 104.334 86.4596C102.976 88.5442 101.368 90.6536 99.5372 92.711L99.5503 92.7118C99.2175 93.0856 98.8821 93.4522 98.5445 93.8116C101.723 93.1843 104.614 92.2294 107.066 91.0363ZM76.5479 94.8264C80.0052 96.1632 84.3265 96.9678 89.0583 97.0522C89.4246 97.3276 89.7912 97.595 90.1577 97.8545C84.3871 102.252 78.9383 104.164 76.0648 102.448L76.0373 102.432C75.3759 100.477 75.5822 97.8288 76.5479 94.8264ZM76.3189 68.741C76.6763 68.3662 77.0987 68.0703 77.5793 67.8485C77.1007 68.0706 76.6808 68.3661 76.3278 68.7385C76.1555 68.9085 76.0055 69.0982 75.8758 69.2996C79.2641 68.1956 84.5289 69.6317 90.0621 73.0279L89.8563 73.1924L89.8068 73.2323C85.0669 73.6205 80.4347 74.8625 76.1375 76.8974L76.1005 76.9031L76.0941 76.9067L76.0907 76.8979C74.8815 73.7401 74.735 71.0409 75.8668 69.3021C75.9966 69.1008 76.1466 68.9111 76.3189 68.741ZM76.9176 78.7966C77.7947 80.5875 78.8229 82.2909 80.0002 83.899L80.0011 83.9002L80.0054 83.8935C80.2567 83.5399 80.5051 83.1914 80.7644 82.8357C80.7841 82.8133 80.8066 82.7859 80.8212 82.7606C81.103 82.3775 81.3841 82.0074 81.6811 81.6331C81.7107 81.5818 81.7464 81.5398 81.7849 81.4945L81.7947 81.483C81.9195 81.3258 82.0471 81.1688 82.1754 81.0109L82.1755 81.0108L82.1756 81.0107L82.1756 81.0107L82.1756 81.0107L82.1756 81.0107L82.1756 81.0106L82.1757 81.0106L82.1757 81.0105C82.3265 80.8249 82.4784 80.6381 82.6281 80.448L83.2641 79.6966L83.318 79.6266L83.911 78.9379L84.0891 78.7408L84.0892 78.7408L84.0894 78.7405L84.0895 78.7404C84.3998 78.3967 84.7054 78.0583 85.0217 77.7261L85.0639 77.6763L85.5898 77.1039C85.9993 76.6884 86.4107 76.2803 86.8261 75.8868C83.416 76.3924 80.0865 77.3688 76.942 78.7838L76.9176 78.7966Z"/>
</mask>
<path fill-rule="evenodd" clip-rule="evenodd" d="M59.5026 59.7543C69.5041 52.1297 83.9603 55.3327 89.8052 66.4684L91.9768 70.6058L94.5338 65.9547C100.537 55.036 114.867 52.0507 124.731 59.6642C134.421 67.1445 135.337 81.4355 126.681 90.0918L91.9768 124.796L57.4541 90.2735C48.7582 81.5776 49.7226 67.2101 59.5026 59.7543ZM95.5964 96.7185C95.2687 97.0171 94.9403 97.3086 94.6114 97.5929C100.456 101.222 105.841 102.606 108.734 100.974L108.756 100.962C109.472 98.9297 109.171 96.2077 108.002 93.169C107.852 93.2446 107.7 93.3194 107.546 93.3934L107.083 93.6114L106.406 93.9081C106.321 93.9479 106.231 93.9849 106.143 94.0214L106.143 94.0215C106.077 94.0486 106.012 94.0754 105.95 94.1029C105.473 94.2991 104.975 94.4837 104.47 94.6703C103.96 94.8541 103.408 95.0275 102.843 95.2002C102.615 95.271 102.387 95.3344 102.159 95.3981L102.159 95.3981L102.159 95.3981L102.048 95.4289L101.931 95.4618C101.636 95.5448 101.369 95.6125 101.082 95.6854L101.082 95.6854L101.082 95.6855L101.049 95.6938C99.719 96.0245 98.3294 96.3071 96.885 96.5447C96.46 96.6059 96.0307 96.6647 95.5964 96.7185ZM94.1571 94.4453C95.3192 93.3473 96.4735 92.1601 97.6018 90.8928C99.5594 88.6984 101.267 86.4529 102.687 84.257C101.297 82.5132 99.7041 80.7768 97.9315 79.1027C96.4991 77.7416 94.9856 76.4668 93.3974 75.2879C92.7465 75.3005 92.0887 75.3263 91.425 75.3658L91.2464 75.3771L91.2463 75.3771C90.9477 75.3959 90.6466 75.4149 90.3485 75.4449L90.3348 75.4566C88.5705 76.9717 86.9064 78.6053 85.364 80.3429C83.8877 82.002 82.5158 83.7482 81.2663 85.5854L81.2689 85.5884C82.8755 87.6144 84.6202 89.5179 86.5038 91.286C87.7861 92.4975 89.091 93.6177 90.3969 94.6387C91.1652 94.6315 91.9434 94.6044 92.7295 94.5565C93.2093 94.5267 93.6853 94.4895 94.1571 94.4453ZM97.3437 75.7886C97.1684 75.6392 96.9942 75.4907 96.8193 75.3448C100.38 75.5353 103.643 76.132 106.389 77.048C105.774 78.726 104.915 80.5259 103.837 82.3839C102.996 81.3616 102.089 80.343 101.118 79.3383C100.581 78.7858 100.023 78.2347 99.4463 77.6928L99.4428 77.6638C98.9873 77.2391 98.5136 76.8106 98.0492 76.401C97.8388 76.2054 97.6224 76.0198 97.4032 75.8393L97.3437 75.7886ZM93.7489 73.0086C98.7488 72.9603 103.338 73.7062 107.025 75.038C107.73 72.3467 107.69 70.0933 106.787 68.6024L106.789 68.6083C103.597 67.635 98.743 69.3202 93.6021 72.9021L93.4514 73.0124L93.4769 73.012C93.5221 72.9799 93.5672 72.9479 93.6123 72.9162C93.6579 72.9468 93.7035 72.9776 93.7489 73.0086ZM109.034 70.0532C109.597 71.6076 109.602 73.6123 109.103 75.8957C112.137 77.3214 114.332 79.2047 115.309 81.3853L115.309 81.3961C115.622 82.0806 115.807 82.8242 115.856 83.5751C116.024 86.763 113.704 89.7979 109.78 92.1864C110.445 93.9455 110.821 95.5968 110.88 97.0707C110.88 97.0707 110.882 97.0917 110.889 97.1026C110.889 97.1664 110.887 97.2299 110.884 97.2934C110.922 99.1644 110.442 100.734 109.353 101.863C108.743 102.488 107.99 102.963 107.156 103.23C103.653 104.412 98.1756 102.924 92.4341 99.3656C86.697 103.752 81.0774 105.821 77.5642 104.648C76.9332 104.445 76.3512 104.123 75.8493 103.685C74.4992 102.491 73.9324 100.599 74.057 98.2448C74.0566 98.115 74.0589 97.983 74.0641 97.849C74.1591 96.6866 74.415 95.4205 74.8223 94.0804C74.3762 93.8651 73.9491 93.6397 73.5422 93.4049L73.4209 93.3348C70.3382 91.5078 68.4406 89.1454 68.2758 86.4896C68.2268 85.5802 68.3731 84.6647 68.713 83.8139C68.7115 83.8057 68.7101 83.7971 68.709 83.7881C69.513 81.7185 71.3552 79.7766 73.9191 78.1369L73.9811 78.1019L73.9682 78.0647C72.9871 75.2003 72.7967 72.624 73.5464 70.7185C73.7809 70.079 74.1454 69.4943 74.6116 69.0019C75.9638 67.6338 78.0531 67.0969 80.593 67.338L80.6526 67.3404C83.8667 67.6507 87.765 69.1666 91.7806 71.7013L91.8059 71.6831C95.7899 68.7743 99.716 67.0046 102.843 66.7007C102.934 66.6943 103.026 66.6907 103.117 66.6898C104.955 66.5589 106.505 66.9672 107.617 67.9549C108.263 68.5166 108.753 69.2441 109.034 70.0532ZM105.514 84.5495C106.867 82.2316 107.895 79.9748 108.563 77.8883C111.974 79.4089 114.253 81.5065 114.799 83.9443L114.795 83.9533C113.888 86.2311 111.796 88.339 108.866 90.0706C108.003 88.2854 106.877 86.4238 105.514 84.5495ZM91.7077 74.3224C91.4156 74.5476 91.1304 74.7832 90.8441 75.0246C91.1323 74.7843 91.4202 74.551 91.7077 74.3224ZM85.8681 94.4441C85.4274 94.0536 84.989 93.652 84.5537 93.2397C82.8248 91.6033 81.2143 89.8545 79.7273 87.9962L79.7105 88.0225C78.7867 89.5721 78.0101 91.097 77.3918 92.5632C79.8572 93.4896 82.7342 94.1393 85.8681 94.4441ZM75.6257 91.8191C76.3379 90.0563 77.2786 88.2036 78.4297 86.3193L78.4384 86.3058L78.4217 86.2829C76.9692 84.3045 75.7295 82.1888 74.7166 79.9571L74.6848 79.9739C71.7158 81.7658 69.7822 83.9212 69.3272 86.2156L69.3345 86.2315C70.3425 88.4594 72.5688 90.3789 75.6257 91.8191ZM107.066 91.0363C106.334 89.549 105.418 88.0105 104.334 86.4596C102.976 88.5442 101.368 90.6536 99.5372 92.711L99.5503 92.7118C99.2175 93.0856 98.8821 93.4522 98.5445 93.8116C101.723 93.1843 104.614 92.2294 107.066 91.0363ZM76.5479 94.8264C80.0052 96.1632 84.3265 96.9678 89.0583 97.0522C89.4246 97.3276 89.7912 97.595 90.1577 97.8545C84.3871 102.252 78.9383 104.164 76.0648 102.448L76.0373 102.432C75.3759 100.477 75.5822 97.8288 76.5479 94.8264ZM76.3189 68.741C76.6763 68.3662 77.0987 68.0703 77.5793 67.8485C77.1007 68.0706 76.6808 68.3661 76.3278 68.7385C76.1555 68.9085 76.0055 69.0982 75.8758 69.2996C79.2641 68.1956 84.5289 69.6317 90.0621 73.0279L89.8563 73.1924L89.8068 73.2323C85.0669 73.6205 80.4347 74.8625 76.1375 76.8974L76.1005 76.9031L76.0941 76.9067L76.0907 76.8979C74.8815 73.7401 74.735 71.0409 75.8668 69.3021C75.9966 69.1008 76.1466 68.9111 76.3189 68.741ZM76.9176 78.7966C77.7947 80.5875 78.8229 82.2909 80.0002 83.899L80.0011 83.9002L80.0054 83.8935C80.2567 83.5399 80.5051 83.1914 80.7644 82.8357C80.7841 82.8133 80.8066 82.7859 80.8212 82.7606C81.103 82.3775 81.3841 82.0074 81.6811 81.6331C81.7107 81.5818 81.7464 81.5398 81.7849 81.4945L81.7947 81.483C81.9195 81.3258 82.0471 81.1688 82.1754 81.0109L82.1755 81.0108L82.1756 81.0107L82.1756 81.0107L82.1756 81.0107L82.1756 81.0107L82.1756 81.0106L82.1757 81.0106L82.1757 81.0105C82.3265 80.8249 82.4784 80.6381 82.6281 80.448L83.2641 79.6966L83.318 79.6266L83.911 78.9379L84.0891 78.7408L84.0892 78.7408L84.0894 78.7405L84.0895 78.7404C84.3998 78.3967 84.7054 78.0583 85.0217 77.7261L85.0639 77.6763L85.5898 77.1039C85.9993 76.6884 86.4107 76.2803 86.8261 75.8868C83.416 76.3924 80.0865 77.3688 76.942 78.7838L76.9176 78.7966Z" fill="#E75B54"/>
<path d="M89.8052 66.4684L80.0653 71.5806L80.0653 71.5806L89.8052 66.4684ZM59.5026 59.7543L52.8337 51.0065H52.8337L59.5026 59.7543ZM91.9768 70.6058L82.2369 75.718L91.7523 93.8468L101.616 75.9052L91.9768 70.6058ZM94.5338 65.9547L84.8945 60.6553L94.5338 65.9547ZM124.731 59.6642L131.452 50.9566L131.452 50.9566L124.731 59.6642ZM126.681 90.0918L118.903 82.3137V82.3137L126.681 90.0918ZM91.9768 124.796L84.1986 132.574L91.9768 140.352L99.755 132.574L91.9768 124.796ZM57.4541 90.2735L49.676 98.0516H49.676L57.4541 90.2735ZM94.6114 97.5929L87.4178 89.2711L76.1041 99.0509L88.8096 106.938L94.6114 97.5929ZM95.5964 96.7185L94.2439 85.8019L90.7724 86.232L88.1869 88.5884L95.5964 96.7185ZM108.734 100.974L103.386 91.3615L103.359 91.3767L103.332 91.392L108.734 100.974ZM108.756 100.962L114.104 110.574L117.745 108.549L119.13 104.619L108.756 100.962ZM108.002 93.169L118.27 89.2217L113.912 77.8876L103.063 83.3404L108.002 93.169ZM107.546 93.3934L112.233 103.345L112.269 103.327L112.306 103.31L107.546 93.3934ZM107.083 93.6114L111.499 103.686L111.636 103.626L111.77 103.563L107.083 93.6114ZM106.406 93.9081L101.989 83.8337L101.857 83.8915L101.727 83.9528L106.406 93.9081ZM106.143 94.0214L110.13 104.273L110.231 104.234L110.332 104.192L106.143 94.0214ZM106.143 94.0215L102.156 83.7694L102.054 83.809L101.953 83.8505L106.143 94.0215ZM105.95 94.1029L110.133 104.276L110.277 104.217L110.419 104.154L105.95 94.1029ZM104.47 94.6703L108.196 105.02L108.239 105.005L108.282 104.989L104.47 94.6703ZM102.843 95.2002L99.6267 84.681L99.6057 84.6874L99.5847 84.6939L102.843 95.2002ZM102.159 95.3981L104.827 106.07L104.969 106.034L105.11 105.995L102.159 95.3981ZM102.159 95.3981L99.4907 84.7265L99.3474 84.7623L99.2051 84.802L102.159 95.3981ZM102.048 95.4289L99.0948 84.8328L99.0862 84.8352L99.0775 84.8376L102.048 95.4289ZM101.931 95.4618L98.9601 84.8705L98.9531 84.8725L98.946 84.8745L101.931 95.4618ZM101.082 95.6854L103.52 106.412L103.654 106.381L103.787 106.348L101.082 95.6854ZM101.082 95.6854L98.6441 84.959L98.5471 84.981L98.4505 85.0048L101.082 95.6854ZM101.082 95.6855L98.4502 85.0049L98.4137 85.0139L98.3772 85.0231L101.082 95.6855ZM101.049 95.6938L103.703 106.369L103.728 106.363L103.753 106.356L101.049 95.6938ZM96.885 96.5447L98.4546 107.432L98.5623 107.417L98.6697 107.399L96.885 96.5447ZM97.6018 90.8928L89.3933 83.5701L89.386 83.5784L97.6018 90.8928ZM94.1571 94.4453L95.1836 105.397L98.9566 105.044L101.711 102.441L94.1571 94.4453ZM102.687 84.257L111.923 90.2318L116.222 83.5871L111.288 77.3994L102.687 84.257ZM97.9315 79.1027L90.3546 87.077L90.3666 87.0884L90.3786 87.0998L97.9315 79.1027ZM93.3974 75.2879L99.9539 66.4554L96.9389 64.2174L93.1848 64.2899L93.3974 75.2879ZM91.425 75.3658L90.7716 64.3852L90.7499 64.3865L90.7281 64.3879L91.425 75.3658ZM91.2464 75.3771L90.5495 64.3992L90.5061 64.402L90.4627 64.4051L91.2464 75.3771ZM91.2463 75.3771L91.9378 86.3554L91.9839 86.3525L92.03 86.3492L91.2463 75.3771ZM90.3485 75.4449L89.2458 64.5003L85.8376 64.8437L83.227 67.0614L90.3485 75.4449ZM90.3348 75.4566L83.2133 67.073L83.1907 67.0922L83.1682 67.1115L90.3348 75.4566ZM85.364 80.3429L93.5817 87.6553L93.5908 87.645L85.364 80.3429ZM81.2663 85.5854L72.1707 79.3991L67.4954 86.2733L72.8325 92.6472L81.2663 85.5854ZM81.2689 85.5884L89.8877 78.7536L89.7967 78.6388L89.7027 78.5265L81.2689 85.5884ZM86.5038 91.286L94.0577 83.2899L94.045 83.2779L94.0322 83.2659L86.5038 91.286ZM90.3969 94.6387L83.6218 103.305L86.6526 105.674L90.4995 105.638L90.3969 94.6387ZM92.7295 94.5565L93.3982 105.536L93.4056 105.536L93.4131 105.535L92.7295 94.5565ZM96.8193 75.3448L97.407 64.3605L64.3555 62.5921L89.7737 83.7923L96.8193 75.3448ZM97.3437 75.7886L90.2077 84.1598L90.2084 84.1605L97.3437 75.7886ZM106.389 77.048L116.716 80.8349L120.617 70.1987L109.87 66.6134L106.389 77.048ZM103.837 82.3839L95.34 89.3698L105.4 101.605L113.351 87.9056L103.837 82.3839ZM101.118 79.3383L109.027 71.694L109.017 71.6835L109.007 71.6731L101.118 79.3383ZM99.4463 77.6928L88.5251 79.0072L89.0025 82.9737L91.914 85.7093L99.4463 77.6928ZM99.4428 77.6638L110.364 76.3495L109.884 72.359L106.944 69.6182L99.4428 77.6638ZM98.0492 76.401L90.5603 84.458L90.6652 84.5555L90.7725 84.6502L98.0492 76.401ZM97.4032 75.8393L90.2679 84.2112L90.3394 84.2721L90.4119 84.3318L97.4032 75.8393ZM107.025 75.038L103.287 85.3837L114.611 89.4742L117.665 77.8282L107.025 75.038ZM93.7489 73.0086L87.5469 82.0935L90.4003 84.0415L93.8552 84.0081L93.7489 73.0086ZM106.787 68.6024L116.196 62.9036L96.1611 71.4454L106.787 68.6024ZM106.789 68.6083L103.58 79.1299L122.537 84.9114L117.415 65.7654L106.789 68.6083ZM93.6021 72.9021L87.3137 63.8768L87.2091 63.9497L87.1063 64.025L93.6021 72.9021ZM93.4514 73.0124L86.9555 64.1353L59.0543 84.552L93.6235 84.0111L93.4514 73.0124ZM93.4769 73.012L93.649 84.0107L97.0667 83.9572L99.8521 81.9762L93.4769 73.012ZM93.6123 72.9162L99.7397 63.7808L93.4601 59.5688L87.2782 63.9229L93.6123 72.9162ZM109.103 75.8957L98.3562 73.5496L96.4851 82.1207L104.425 85.8514L109.103 75.8957ZM109.034 70.0532L98.6422 73.6606L98.6666 73.7312L98.6921 73.8014L109.034 70.0532ZM115.309 81.3853L126.309 81.4322L126.319 79.0568L125.348 76.8889L115.309 81.3853ZM115.309 81.3961L104.309 81.3492L104.298 83.7696L105.305 85.9708L115.309 81.3961ZM115.856 83.5751L126.84 82.9948L126.837 82.9309L126.833 82.8671L115.856 83.5751ZM109.78 92.1864L104.061 82.7899L96.2637 87.5355L99.4899 96.0743L109.78 92.1864ZM110.88 97.0707L99.8892 97.5134L99.8945 97.6452L99.9029 97.7768L110.88 97.0707ZM110.889 97.1026L121.889 97.1448L121.901 93.818L120.068 91.0418L110.889 97.1026ZM110.884 97.2934L99.895 96.8073L99.8793 97.1605L99.8864 97.514L110.884 97.2934ZM109.353 101.863L117.224 109.548L117.249 109.522L117.274 109.496L109.353 101.863ZM107.156 103.23L103.811 92.7504L103.725 92.778L103.639 92.807L107.156 103.23ZM92.4341 99.3656L98.2292 90.016L91.7803 86.0188L85.7529 90.6271L92.4341 99.3656ZM77.5642 104.648L81.0483 94.2144L80.9876 94.1942L80.9268 94.1746L77.5642 104.648ZM75.8493 103.685L68.5631 111.926L68.5896 111.949L68.6163 111.972L75.8493 103.685ZM74.057 98.2448L85.0416 98.8265L85.058 98.5171L85.0569 98.2073L74.057 98.2448ZM74.0641 97.849L63.1007 96.9528L63.0815 97.188L63.0723 97.4238L74.0641 97.849ZM74.8223 94.0804L85.3468 97.2798L88.0865 88.2674L79.603 84.1736L74.8223 94.0804ZM73.5422 93.4049L79.0422 83.8786L79.0421 83.8785L73.5422 93.4049ZM73.4209 93.3348L67.8127 102.798L67.8667 102.83L67.9211 102.861L73.4209 93.3348ZM68.2758 86.4896L57.2918 87.0815L57.2942 87.1262L57.2969 87.1708L68.2758 86.4896ZM68.713 83.8139L78.9279 87.895L80.1215 84.9076L79.5172 81.7477L68.713 83.8139ZM68.709 83.7881L58.4556 79.8047L57.4589 82.3701L57.7878 85.1026L68.709 83.7881ZM73.9191 78.1369L68.5034 68.5625L68.2439 68.7093L67.9927 68.8699L73.9191 78.1369ZM73.9811 78.1019L79.3968 87.6763L87.3769 83.1625L84.3746 74.4997L73.9811 78.1019ZM73.9682 78.0647L63.5618 81.6291L63.5682 81.648L63.5748 81.6668L73.9682 78.0647ZM73.5464 70.7185L83.7826 74.746L83.8298 74.626L83.8742 74.5049L73.5464 70.7185ZM74.6116 69.0019L66.788 61.2695L66.7052 61.3532L66.6243 61.4387L74.6116 69.0019ZM80.593 67.338L79.5531 78.2888L79.8526 78.3172L80.1531 78.3292L80.593 67.338ZM80.6526 67.3404L81.7094 56.3913L81.4015 56.3616L81.0924 56.3492L80.6526 67.3404ZM91.7806 71.7013L85.9092 81.0032L92.188 84.9665L98.2118 80.6255L91.7806 71.7013ZM91.8059 71.6831L98.237 80.6073L98.2647 80.5873L98.2923 80.5672L91.8059 71.6831ZM102.843 66.7007L102.074 55.7276L101.926 55.738L101.779 55.7523L102.843 66.7007ZM103.117 66.6898L103.228 77.6892L103.564 77.6858L103.898 77.662L103.117 66.6898ZM107.617 67.9549L100.314 76.1803L100.357 76.2185L100.4 76.2563L107.617 67.9549ZM108.563 77.8883L113.043 67.8416L101.832 62.8431L98.0875 74.5327L108.563 77.8883ZM105.514 84.5495L96.0132 79.0055L92.393 85.2094L96.6173 91.0188L105.514 84.5495ZM114.799 83.9443L124.972 88.1282L126.29 84.9223L125.533 81.5397L114.799 83.9443ZM114.795 83.9533L104.622 79.7694L104.598 79.8275L104.575 79.886L114.795 83.9533ZM108.866 90.0706L98.9636 94.8598L104.17 105.625L114.464 99.5398L108.866 90.0706ZM91.7077 74.3224L98.5544 82.9319L84.9917 65.6106L91.7077 74.3224ZM90.8441 75.0246L83.7539 66.6146L97.8877 83.4737L90.8441 75.0246ZM84.5537 93.2397L92.1182 85.2536L92.1151 85.2507L84.5537 93.2397ZM85.8681 94.4441L84.8033 105.392L118.509 108.671L93.1633 86.2113L85.8681 94.4441ZM79.7273 87.9962L88.3162 81.1237L78.7195 69.1301L70.4551 82.0779L79.7273 87.9962ZM79.7105 88.0225L70.4383 82.1042L70.3481 82.2455L70.2623 82.3894L79.7105 88.0225ZM77.3918 92.5632L67.2563 88.2887L62.8088 98.8342L73.5224 102.86L77.3918 92.5632ZM78.4297 86.3193L69.2051 80.327L69.1221 80.4548L69.0426 80.5849L78.4297 86.3193ZM75.6257 91.8191L70.9373 101.77L81.4651 106.73L85.8247 95.9398L75.6257 91.8191ZM78.4384 86.3058L87.6629 92.2982L91.7862 85.9509L87.3314 79.8317L78.4384 86.3058ZM78.4217 86.2829L87.3147 79.8088L87.3017 79.7909L87.2886 79.7731L78.4217 86.2829ZM74.7166 79.9571L84.7331 75.4108L79.9097 64.7837L69.5862 70.2268L74.7166 79.9571ZM74.6848 79.9739L69.5544 70.2435L69.273 70.3919L69.0007 70.5563L74.6848 79.9739ZM69.3272 86.2156L58.5373 84.0759L57.8425 87.5794L59.3385 90.8228L69.3272 86.2156ZM69.3345 86.2315L79.3564 81.697L79.34 81.6606L79.3232 81.6243L69.3345 86.2315ZM104.334 86.4596L113.351 80.1589L104.016 66.8001L95.1184 80.4539L104.334 86.4596ZM107.066 91.0363L111.879 100.927L121.813 96.0924L116.935 86.1796L107.066 91.0363ZM99.5372 92.711L91.3203 85.3979L76.2537 102.327L98.8749 103.691L99.5372 92.711ZM99.5503 92.7118L107.766 100.026L122.839 83.0967L100.213 81.7318L99.5503 92.7118ZM98.5445 93.8116L90.5273 86.28L67.0875 111.232L100.674 104.603L98.5445 93.8116ZM89.0583 97.0522L95.6671 88.2589L92.818 86.1175L89.2544 86.054L89.0583 97.0522ZM76.5479 94.8264L80.515 84.5666L69.6446 80.3634L66.0762 91.4584L76.5479 94.8264ZM90.1577 97.8545L96.825 106.604L108.733 97.5288L96.5142 88.877L90.1577 97.8545ZM76.0648 102.448L81.7036 93.0033L81.6571 92.9756L81.6104 92.9483L76.0648 102.448ZM76.0373 102.432L65.6174 105.957L66.9365 109.856L70.4917 111.932L76.0373 102.432ZM77.5793 67.8485L82.2098 77.8264L72.9707 57.8605L77.5793 67.8485ZM76.3189 68.741L84.0458 76.5701L84.1644 76.453L84.2794 76.3325L76.3189 68.741ZM76.3278 68.7385L84.0547 76.5675L84.1851 76.4389L84.3111 76.306L76.3278 68.7385ZM75.8758 69.2996L66.6288 63.342L49.8791 89.3395L79.2837 79.7584L75.8758 69.2996ZM90.0621 73.0279L96.9292 81.6211L109.163 71.8449L95.8163 63.653L90.0621 73.0279ZM89.8563 73.1924L82.9892 64.5991L82.9675 64.6165L82.9459 64.6339L89.8563 73.1924ZM89.8068 73.2323L90.7046 84.1956L94.0812 83.9191L96.7172 81.7908L89.8068 73.2323ZM76.1375 76.8974L77.7932 87.7721L79.3877 87.5294L80.8454 86.839L76.1375 76.8974ZM76.1005 76.9031L74.4448 66.0284L72.4449 66.3329L70.6842 67.329L76.1005 76.9031ZM76.0941 76.9067L65.8331 80.8703L70.4232 92.7533L81.5105 86.4808L76.0941 76.9067ZM76.0907 76.8979L65.8182 80.8317L65.8239 80.8466L65.8296 80.8615L76.0907 76.8979ZM75.8668 69.3021L85.0856 75.3034L85.0998 75.2816L85.1138 75.2598L75.8668 69.3021ZM80.0002 83.899L88.9193 77.4608L88.8977 77.4309L88.8759 77.4012L80.0002 83.899ZM76.9176 78.7966L71.7874 69.0662L62.3424 74.046L67.0388 83.6349L76.9176 78.7966ZM80.0011 83.9002L71.082 90.3384L80.4807 103.359L89.2264 89.8912L80.0011 83.9002ZM80.0054 83.8935L71.0395 77.5207L70.9058 77.7089L70.7801 77.9024L80.0054 83.8935ZM80.7644 82.8357L72.5014 75.5746L72.1705 75.9512L71.8752 76.3563L80.7644 82.8357ZM80.8212 82.7606L71.9606 76.2423L71.5996 76.733L71.295 77.2605L80.8212 82.7606ZM81.6811 81.6331L90.2985 88.4698L90.8022 87.8348L91.2075 87.1329L81.6811 81.6331ZM81.7849 81.4945L90.1647 88.6205L90.1681 88.6165L81.7849 81.4945ZM81.7947 81.483L90.1778 88.605L90.2956 88.4664L90.4088 88.3239L81.7947 81.483ZM82.1754 81.0109L73.6619 74.0453L73.6501 74.0597L73.6383 74.0742L82.1754 81.0109ZM82.1755 81.0108L73.7783 73.9054L73.7196 73.9748L73.662 74.0451L82.1755 81.0108ZM82.1756 81.0107L90.5728 88.1161L90.8643 87.7716L91.1266 87.4044L82.1756 81.0107ZM82.1756 81.0107L73.7783 73.9053L73.4868 74.2499L73.2245 74.6171L82.1756 81.0107ZM82.1756 81.0107L90.5728 88.116L90.8644 87.7715L91.1267 87.4043L82.1756 81.0107ZM82.1756 81.0107L73.7784 73.9053L73.4869 74.2498L73.2245 74.617L82.1756 81.0107ZM82.1756 81.0106L90.5729 88.116L90.8644 87.7715L91.1267 87.4042L82.1756 81.0106ZM82.1757 81.0106L73.4377 74.3286L73.3288 74.4711L73.2246 74.617L82.1757 81.0106ZM82.1757 81.0105L73.6387 74.0737L73.5364 74.1996L73.4378 74.3286L82.1757 81.0105ZM82.6281 80.448L74.2319 73.3415L74.1073 73.4887L73.9879 73.6401L82.6281 80.448ZM83.2641 79.6966L91.6604 86.8031L91.8248 86.6088L91.9801 86.4071L83.2641 79.6966ZM83.318 79.6266L74.9826 72.4487L74.7859 72.6772L74.602 72.916L83.318 79.6266ZM83.911 78.9379L75.7494 71.5631L75.6613 71.6606L75.5756 71.7601L83.911 78.9379ZM84.0891 78.7408L92.2508 86.1156L92.3473 86.0088L92.441 85.8995L84.0891 78.7408ZM84.0892 78.7408L75.8839 71.4146L75.8098 71.4976L75.7374 71.5821L84.0892 78.7408ZM84.0894 78.7405L75.9086 71.387L75.8963 71.4007L75.8841 71.4144L84.0894 78.7405ZM84.0895 78.7404L75.9256 71.3681L75.9172 71.3774L75.9087 71.3868L84.0895 78.7404ZM85.0217 77.7261L92.9888 85.3107L93.2064 85.0821L93.4105 84.8415L85.0217 77.7261ZM85.0639 77.6763L76.9637 70.2342L76.8162 70.3947L76.6752 70.5609L85.0639 77.6763ZM85.5898 77.1039L77.7541 69.3838L77.6194 69.5205L77.4896 69.6618L85.5898 77.1039ZM86.8261 75.8868L94.3904 83.8731L119.71 59.8913L85.2128 65.0058L86.8261 75.8868ZM76.942 78.7838L72.428 68.7526L72.1152 68.8934L71.8118 69.0534L76.942 78.7838ZM99.545 61.3561C90.5352 44.1906 68.2509 39.2531 52.8337 51.0065L66.1715 68.5022C70.7572 65.0063 77.3854 66.4749 80.0653 71.5806L99.545 61.3561ZM101.717 65.4935L99.545 61.3561L80.0653 71.5806L82.2369 75.718L101.717 65.4935ZM84.8945 60.6553L82.3375 65.3064L101.616 75.9052L104.173 71.2541L84.8945 60.6553ZM131.452 50.9566C116.245 39.218 94.1497 43.8208 84.8945 60.6553L104.173 71.2541C106.924 66.2512 113.49 64.8833 118.009 68.3718L131.452 50.9566ZM134.459 97.87C147.806 84.5237 146.393 62.4897 131.452 50.9566L118.009 68.3718C122.449 71.7992 122.869 78.3474 118.903 82.3137L134.459 97.87ZM99.755 132.574L134.459 97.87L118.903 82.3137L84.1986 117.018L99.755 132.574ZM49.676 98.0516L84.1986 132.574L99.755 117.018L65.2323 82.4953L49.676 98.0516ZM52.8337 51.0065C37.7578 62.4995 36.2713 84.6469 49.676 98.0516L65.2323 82.4953C61.2452 78.5082 61.6874 71.9207 66.1715 68.5022L52.8337 51.0065ZM101.805 105.915C102.207 105.567 102.608 105.211 103.006 104.849L88.1869 88.5884C87.9297 88.8227 87.6732 89.0504 87.4178 89.2711L101.805 105.915ZM103.332 91.392C104.466 90.7525 105.378 90.6664 105.658 90.6544C105.936 90.6424 105.871 90.6878 105.39 90.5702C104.394 90.3269 102.668 89.6474 100.413 88.2474L88.8096 106.938C92.3994 109.167 96.2884 110.994 100.169 111.942C103.712 112.807 109.119 113.385 114.137 110.556L103.332 91.392ZM103.408 91.3495L103.386 91.3615L114.082 110.586L114.104 110.574L103.408 91.3495ZM97.7351 97.1162C97.8881 97.5143 97.9885 97.8395 98.0522 98.0902C98.1163 98.3426 98.1359 98.4912 98.141 98.5414C98.1461 98.593 98.1326 98.5071 98.1512 98.3053C98.17 98.1013 98.2244 97.7511 98.3818 97.3048L119.13 104.619C121.11 99.0019 119.839 93.3028 118.27 89.2217L97.7351 97.1162ZM112.306 103.31C112.519 103.208 112.731 103.103 112.942 102.997L103.063 83.3404C102.972 83.3858 102.88 83.4313 102.785 83.4768L112.306 103.31ZM111.77 103.563L112.233 103.345L102.858 83.4421L102.395 83.6601L111.77 103.563ZM110.823 103.982L111.499 103.686L102.666 83.537L101.989 83.8337L110.823 103.982ZM110.332 104.192C110.374 104.175 110.716 104.037 111.085 103.863L101.727 83.9528C101.846 83.8967 101.934 83.8589 101.966 83.8456C101.983 83.8382 101.993 83.8342 101.99 83.8355C101.985 83.8374 101.978 83.8404 101.953 83.8505L110.332 104.192ZM110.13 104.274L110.13 104.273L102.156 83.7694L102.156 83.7694L110.13 104.274ZM110.419 104.154C110.357 104.182 110.313 104.2 110.302 104.205C110.296 104.207 110.294 104.208 110.3 104.206C110.306 104.203 110.314 104.2 110.332 104.192L101.953 83.8505C101.915 83.8662 101.706 83.9515 101.481 84.0516L110.419 104.154ZM108.282 104.989C108.766 104.81 109.444 104.56 110.133 104.276L101.767 83.9294C101.501 84.0385 101.185 84.1573 100.658 84.3518L108.282 104.989ZM106.06 105.719C106.649 105.539 107.417 105.3 108.196 105.02L100.744 84.3206C100.502 84.4077 100.167 84.5158 99.6267 84.681L106.06 105.719ZM105.11 105.995C105.314 105.938 105.695 105.833 106.102 105.706L99.5847 84.6939C99.5349 84.7094 99.4612 84.7307 99.2077 84.8013L105.11 105.995ZM104.826 106.07L104.827 106.07L99.4907 84.7265L99.4907 84.7265L104.826 106.07ZM104.826 106.07L104.826 106.07L99.4907 84.7265L99.4907 84.7265L104.826 106.07ZM105.002 106.025L105.112 105.994L99.2051 84.802L99.0948 84.8328L105.002 106.025ZM104.901 106.053L105.019 106.02L99.0775 84.8376L98.9601 84.8705L104.901 106.053ZM103.787 106.348C104.059 106.279 104.461 106.177 104.915 106.049L98.946 84.8745C98.8113 84.9125 98.6794 84.9465 98.3772 85.0232L103.787 106.348ZM103.52 106.412L103.52 106.412L98.6444 84.9589L98.6441 84.959L103.52 106.412ZM103.713 106.366L103.713 106.366L98.4505 85.0048L98.4502 85.0049L103.713 106.366ZM103.753 106.356L103.786 106.348L98.3772 85.0231L98.3443 85.0315L103.753 106.356ZM98.6697 107.399C100.376 107.118 102.058 106.778 103.703 106.369L98.3942 85.019C97.3799 85.2712 96.2824 85.496 95.1002 85.6904L98.6697 107.399ZM96.9488 107.635C97.474 107.57 97.9783 107.501 98.4546 107.432L95.3153 85.6572C94.9417 85.7111 94.5874 85.7594 94.2439 85.8019L96.9488 107.635ZM89.386 83.5784C88.4656 84.6122 87.5318 85.5718 86.6029 86.4493L101.711 102.441C103.107 101.123 104.481 99.708 105.818 98.2072L89.386 83.5784ZM93.4512 78.2823C92.3508 79.9834 90.9903 81.78 89.3933 83.5701L105.81 98.2154C108.128 95.6168 110.182 92.9225 111.923 90.2318L93.4512 78.2823ZM90.3786 87.0998C91.7855 88.4284 93.0264 89.7852 94.0864 91.1146L111.288 77.3994C109.567 75.2411 107.623 73.1251 105.484 71.1056L90.3786 87.0998ZM86.8409 84.1204C88.0675 85.0308 89.2406 86.0185 90.3546 87.077L105.508 71.1283C103.758 69.4647 101.904 67.9028 99.9539 66.4554L86.8409 84.1204ZM92.0784 86.3463C92.5955 86.3156 93.1064 86.2956 93.61 86.2858L93.1848 64.2899C92.3866 64.3054 91.5818 64.337 90.7716 64.3852L92.0784 86.3463ZM91.9433 86.355L92.1219 86.3437L90.7281 64.3879L90.5495 64.3992L91.9433 86.355ZM92.03 86.3492L92.0301 86.3492L90.4627 64.4051L90.4626 64.4051L92.03 86.3492ZM91.4512 86.3895C91.5096 86.3836 91.6041 86.3764 91.9378 86.3554L90.5549 64.3989C90.2913 64.4155 89.7837 64.4461 89.2458 64.5003L91.4512 86.3895ZM97.4564 83.8401L97.4701 83.8284L83.227 67.0614L83.2133 67.073L97.4564 83.8401ZM93.5908 87.645C94.7981 86.2848 96.1073 84.9989 97.5014 83.8016L83.1682 67.1115C81.0338 68.9445 79.0146 70.9258 77.1373 73.0408L93.5908 87.645ZM90.362 91.7716C91.3285 90.3506 92.4038 88.9789 93.5817 87.6553L77.1464 73.0305C75.3716 75.025 73.7032 77.1459 72.1707 79.3991L90.362 91.7716ZM89.7027 78.5265L89.7002 78.5235L72.8325 92.6472L72.835 92.6503L89.7027 78.5265ZM94.0322 83.2659C92.5506 81.8751 91.169 80.3693 89.8877 78.7536L72.65 92.4232C74.582 94.8595 76.6898 97.1607 78.9753 99.3062L94.0322 83.2659ZM97.1719 85.9727C96.1395 85.1656 95.0943 84.2692 94.0577 83.2899L78.9498 99.2821C80.4779 100.726 82.0424 102.07 83.6218 103.305L97.1719 85.9727ZM92.0608 83.5769C91.4628 83.6133 90.8734 83.6338 90.2943 83.6392L90.4995 105.638C91.457 105.629 92.424 105.596 93.3982 105.536L92.0608 83.5769ZM93.1305 83.4933C92.773 83.5268 92.4113 83.555 92.0459 83.5778L93.4131 105.535C94.0073 105.498 94.5977 105.452 95.1836 105.397L93.1305 83.4933ZM89.7737 83.7923C89.8955 83.8939 90.0247 84.0038 90.2077 84.1598L104.48 67.4174C104.312 67.2745 104.093 67.0875 103.865 66.8974L89.7737 83.7923ZM109.87 66.6134C106.049 65.3384 101.793 64.5952 97.407 64.3605L96.2316 86.3291C98.9672 86.4755 101.238 86.9255 102.908 87.4826L109.87 66.6134ZM113.351 87.9056C114.695 85.5891 115.846 83.2087 116.716 80.8349L96.0613 73.2611C95.7011 74.2433 95.1353 75.4628 94.3232 76.8621L113.351 87.9056ZM93.2079 86.9827C93.9785 87.7801 94.6901 88.5793 95.34 89.3698L112.334 75.3979C111.303 74.1439 110.199 72.9059 109.027 71.694L93.2079 86.9827ZM91.914 85.7093C92.3582 86.1266 92.7969 86.5597 93.2281 87.0036L109.007 71.6731C108.365 71.0119 107.688 70.3427 106.979 69.6763L91.914 85.7093ZM88.5217 78.9782L88.5251 79.0072L110.368 76.3784L110.364 76.3495L88.5217 78.9782ZM90.7725 84.6502C91.1682 84.9993 91.5666 85.3598 91.9416 85.7095L106.944 69.6182C106.408 69.1184 105.859 68.622 105.326 68.1518L90.7725 84.6502ZM90.4119 84.3318C90.4647 84.3753 90.5013 84.4063 90.5262 84.4279C90.5509 84.4493 90.561 84.4587 90.5603 84.458L105.538 68.344C105.118 67.9538 104.725 67.6188 104.394 67.3469L90.4119 84.3318ZM90.2084 84.1605L90.2679 84.2112L104.538 67.4674L104.479 67.4167L90.2084 84.1605ZM110.762 64.6924C105.65 62.8456 99.7297 61.9503 93.6427 62.0091L93.8552 84.0081C97.768 83.9703 101.026 84.5668 103.287 85.3837L110.762 64.6924ZM97.3787 74.3013C96.5929 73.0039 96.5223 71.9546 96.5149 71.7209C96.5071 71.4762 96.5477 71.6249 96.3844 72.2478L117.665 77.8282C118.614 74.2105 119.443 68.2637 116.196 62.9036L97.3787 74.3013ZM117.415 65.7654L117.414 65.7595L96.1611 71.4454L96.1626 71.4512L117.415 65.7654ZM99.8905 81.9274C101.856 80.5579 103.404 79.8143 104.387 79.4885C104.862 79.3312 105.044 79.325 104.964 79.3313C104.886 79.3374 104.366 79.3695 103.58 79.1299L109.998 58.0867C105.352 56.67 100.816 57.4952 97.4661 58.6055C93.9389 59.7744 90.489 61.6644 87.3137 63.8768L99.8905 81.9274ZM99.9473 81.8896L100.098 81.7793L87.1063 64.025L86.9555 64.1353L99.9473 81.8896ZM93.3048 62.0134L93.2793 62.0138L93.6235 84.0111L93.649 84.0107L93.3048 62.0134ZM87.2782 63.9229C87.2193 63.9644 87.1604 64.0061 87.1016 64.0479L99.8521 81.9762C99.8838 81.9536 99.9152 81.9314 99.9464 81.9094L87.2782 63.9229ZM99.951 63.9238C99.8815 63.8764 99.8111 63.8287 99.7397 63.7808L87.4849 82.0515C87.5047 82.0648 87.5254 82.0788 87.5469 82.0935L99.951 63.9238ZM119.85 78.2418C120.588 74.8632 120.914 70.549 119.375 66.3049L98.6921 73.8014C98.5768 73.4833 98.5215 73.2293 98.4948 73.0647C98.4681 72.9009 98.4672 72.8095 98.4671 72.8043C98.4671 72.7985 98.4678 72.8586 98.4527 72.9904C98.4378 73.1215 98.4091 73.3073 98.3562 73.5496L119.85 78.2418ZM125.348 76.8889C122.869 71.3541 118.045 67.9434 113.781 65.9399L104.425 85.8514C105.208 86.2194 105.598 86.5162 105.721 86.6247C105.844 86.7327 105.555 86.5198 105.27 85.8817L125.348 76.8889ZM126.309 81.4429L126.309 81.4322L104.309 81.3385L104.309 81.3492L126.309 81.4429ZM126.833 82.8671C126.699 80.7944 126.189 78.7389 125.312 76.8213L105.305 85.9708C105.054 85.4223 104.915 84.854 104.878 84.283L126.833 82.8671ZM115.499 101.583C120.623 98.4641 127.333 92.3115 126.84 82.9948L104.871 84.1553C104.837 83.5027 104.938 82.9219 105.087 82.4707C105.231 82.038 105.392 81.8002 105.429 81.748C105.465 81.6993 105.404 81.794 105.169 81.9996C104.936 82.203 104.577 82.4758 104.061 82.7899L115.499 101.583ZM121.871 96.628C121.753 93.6783 121.031 90.8433 120.07 88.2984L99.4899 96.0743C99.6649 96.5373 99.7688 96.8996 99.8275 97.1596C99.8869 97.4226 99.8901 97.5362 99.8892 97.5134L121.871 96.628ZM120.068 91.0418C120.811 92.1668 121.178 93.1776 121.346 93.6922C121.534 94.2706 121.637 94.7546 121.694 95.0602C121.755 95.3835 121.791 95.6565 121.813 95.8527C121.824 95.9555 121.833 96.0496 121.84 96.1334C121.844 96.1756 121.847 96.2159 121.85 96.2543C121.851 96.2736 121.853 96.2924 121.854 96.3107C121.855 96.3199 121.855 96.329 121.856 96.338C121.856 96.3425 121.856 96.347 121.857 96.3514C121.857 96.3537 121.857 96.3559 121.857 96.3581C121.857 96.3592 121.857 96.3608 121.857 96.3614C121.857 96.3631 121.858 96.3647 110.88 97.0707C99.9029 97.7768 99.903 97.7784 99.9031 97.7801C99.9032 97.7806 99.9033 97.7823 99.9034 97.7834C99.9035 97.7856 99.9036 97.7878 99.9038 97.79C99.9041 97.7945 99.9044 97.799 99.9047 97.8035C99.9053 97.8125 99.9059 97.8216 99.9065 97.8308C99.9078 97.8493 99.9092 97.8682 99.9106 97.8876C99.9135 97.9263 99.9167 97.9671 99.9204 98.0099C99.9277 98.0949 99.9369 98.1907 99.9486 98.2957C99.971 98.4962 100.008 98.7751 100.069 99.105C100.115 99.3479 100.421 101.213 101.709 103.163L120.068 91.0418ZM121.873 97.7796C121.883 97.5682 121.888 97.3565 121.889 97.1448L99.8889 97.0605C99.8892 96.9762 99.8912 96.8917 99.895 96.8073L121.873 97.7796ZM117.274 109.496C120.974 105.656 121.959 100.903 121.882 97.0728L99.8864 97.514C99.8846 97.4254 99.9096 95.8108 101.432 94.231L117.274 109.496ZM110.5 113.709C113.119 112.873 115.408 111.407 117.224 109.548L101.482 94.1788C102.078 93.5692 102.861 93.0536 103.811 92.7504L110.5 113.709ZM86.6389 108.715C90.2019 110.924 94.0075 112.699 97.8174 113.709C101.461 114.674 106.098 115.196 110.673 113.652L103.639 92.807C104.71 92.4456 104.858 92.8149 103.451 92.4422C102.212 92.1138 100.408 91.3663 98.2292 90.016L86.6389 108.715ZM74.0802 115.082C79.1784 116.784 84.2364 115.753 87.8801 114.445C91.7688 113.05 95.5981 110.793 99.1152 108.104L85.7529 90.6271C83.533 92.3244 81.6839 93.2953 80.4502 93.7379C79.8482 93.9539 79.5731 93.979 79.6004 93.9766C79.6208 93.9748 80.1802 93.9245 81.0483 94.2144L74.0802 115.082ZM68.6163 111.972C70.2888 113.432 72.2001 114.479 74.2016 115.122L80.9268 94.1746C81.6663 94.412 82.4136 94.8137 83.0824 95.3974L68.6163 111.972ZM63.0724 97.6631C62.8505 101.853 63.7477 107.668 68.5631 111.926L83.1356 95.4441C84.1196 96.3142 84.6391 97.3085 84.8715 98.0309C85.0812 98.6826 85.0317 99.0134 85.0416 98.8265L63.0724 97.6631ZM63.0723 97.4238C63.0614 97.7063 63.0561 97.9926 63.0571 98.2823L85.0569 98.2073C85.057 98.2373 85.0565 98.2598 85.0559 98.2743L63.0723 97.4238ZM64.2979 90.881C63.7093 92.8171 63.2715 94.8638 63.1007 96.9528L85.0276 98.7453C85.0468 98.5095 85.1206 98.0239 85.3468 97.2798L64.2979 90.881ZM68.0422 102.931C68.6972 103.309 69.3652 103.661 70.0416 103.987L79.603 84.1736C79.3872 84.0694 79.2009 83.9702 79.0422 83.8786L68.0422 102.931ZM67.9211 102.861L68.0424 102.931L79.0421 83.8785L78.9208 83.8085L67.9211 102.861ZM57.2969 87.1708C57.7836 95.0139 63.2249 100.079 67.8127 102.798L79.0292 83.8719C78.3743 83.4838 78.3135 83.3075 78.4914 83.5402C78.7167 83.8347 79.1811 84.6215 79.2547 85.8083L57.2969 87.1708ZM58.4981 79.7328C57.5542 82.0954 57.1585 84.608 57.2918 87.0815L79.2599 85.8976C79.2952 86.5524 79.1921 87.2339 78.9279 87.895L58.4981 79.7328ZM57.7878 85.1026C57.8224 85.3897 57.8648 85.6501 57.9088 85.8801L79.5172 81.7477C79.5581 81.9613 79.5978 82.2045 79.6301 82.4735L57.7878 85.1026ZM67.9927 68.8699C64.349 71.2001 60.4195 74.7494 58.4556 79.8047L78.9624 87.7715C78.7624 88.2862 78.5733 88.4386 78.7139 88.2872C78.8504 88.1403 79.195 87.82 79.8456 87.404L67.9927 68.8699ZM68.5654 68.5274L68.5034 68.5625L79.3348 87.7114L79.3968 87.6763L68.5654 68.5274ZM63.5748 81.6668L63.5877 81.704L84.3746 74.4997L84.3617 74.4625L63.5748 81.6668ZM63.3102 66.6911C61.1788 72.1081 62.2082 77.6774 63.5618 81.6291L84.3747 74.5002C84.2566 74.1554 84.1835 73.8805 84.1399 73.6768C84.096 73.4714 84.0881 73.366 84.0874 73.3545C84.0866 73.3416 84.0955 73.4608 84.0658 73.6892C84.0357 73.9198 83.9624 74.2889 83.7826 74.746L63.3102 66.6911ZM66.6243 61.4387C65.1409 63.0052 63.9741 64.8715 63.2186 66.9321L83.8742 74.5049C83.5876 75.2865 83.1498 75.9834 82.5989 76.5652L66.6243 61.4387ZM81.6328 56.3873C77.2445 55.9706 71.3162 56.6879 66.788 61.2695L82.4352 76.7344C81.5721 77.6077 80.6494 78.0157 80.0509 78.179C79.5072 78.3272 79.2904 78.2638 79.5531 78.2888L81.6328 56.3873ZM81.0924 56.3492L81.0328 56.3468L80.1531 78.3292L80.2127 78.3316L81.0924 56.3492ZM97.6521 62.3994C92.7826 59.3257 87.224 56.9236 81.7094 56.3913L79.5957 78.2895C80.5095 78.3777 82.7475 79.0075 85.9092 81.0032L97.6521 62.3994ZM85.3747 62.759L85.3495 62.7771L98.2118 80.6255L98.237 80.6073L85.3747 62.759ZM101.779 55.7523C95.883 56.3252 90.0745 59.3273 85.3194 62.7991L98.2923 80.5672C99.7725 79.4864 101.097 78.7259 102.17 78.2415C102.701 78.0022 103.127 77.8497 103.443 77.7573C103.764 77.6635 103.915 77.6484 103.907 77.6492L101.779 55.7523ZM103.006 55.6903C102.696 55.6934 102.385 55.7058 102.074 55.7276L103.612 77.6738C103.484 77.6828 103.356 77.6879 103.228 77.6892L103.006 55.6903ZM114.921 59.7295C110.954 56.2077 106.151 55.4459 102.336 55.7175L103.898 77.662C103.759 77.6719 102.055 77.7268 100.314 76.1803L114.921 59.7295ZM119.425 66.4457C118.52 63.838 116.943 61.4871 114.834 59.6535L100.4 76.2563C99.5831 75.5461 98.9857 74.6502 98.6422 73.6606L119.425 66.4457ZM98.0875 74.5327C97.7054 75.7256 97.0378 77.2497 96.0132 79.0055L115.015 90.0936C116.695 87.2136 118.084 84.2241 119.039 81.2438L98.0875 74.5327ZM125.533 81.5397C123.845 74.0074 117.598 69.8728 113.043 67.8416L104.084 87.9349C104.5 88.1203 104.79 88.2832 104.975 88.4015C105.163 88.5213 105.203 88.5701 105.147 88.517C105.047 88.421 104.373 87.727 104.065 86.3488L125.533 81.5397ZM124.968 88.1372L124.972 88.1282L104.625 79.7603L104.622 79.7694L124.968 88.1372ZM114.464 99.5398C118.54 97.1304 122.871 93.4079 125.015 88.0206L104.575 79.886C104.762 79.4145 104.923 79.3223 104.714 79.5367C104.509 79.7472 104.061 80.1328 103.269 80.6013L114.464 99.5398ZM96.6173 91.0188C97.6464 92.434 98.4204 93.7366 98.9636 94.8598L118.769 85.2813C117.586 82.8343 116.107 80.4135 114.41 78.0803L96.6173 91.0188ZM84.9917 65.6106C84.5117 65.9806 84.0848 66.3356 83.7539 66.6146L97.9343 83.4347C98.1761 83.2309 98.3195 83.1145 98.4237 83.0342L84.9917 65.6106ZM97.8877 83.4737C98.0996 83.2971 98.3205 83.1179 98.5544 82.9319L84.861 65.7129C84.5198 65.9842 84.165 66.2716 83.8004 66.5756L97.8877 83.4737ZM76.9891 101.226C77.5127 101.722 78.0409 102.206 78.5729 102.677L93.1633 86.2113C92.8139 85.9016 92.4653 85.5823 92.1182 85.2536L76.9891 101.226ZM71.1384 94.8686C72.9435 97.1245 74.8976 99.2462 76.9922 101.229L92.1151 85.2507C90.752 83.9605 89.4851 82.5845 88.3162 81.1237L71.1384 94.8686ZM88.9828 93.9408L88.9996 93.9144L70.4551 82.0779L70.4383 82.1042L88.9828 93.9408ZM87.5273 96.8377C87.9287 95.8859 88.4681 94.814 89.1588 93.6555L70.2623 82.3894C69.1053 84.3301 68.0916 86.308 67.2563 88.2887L87.5273 96.8377ZM86.9329 83.4958C84.6231 83.2711 82.7053 82.8089 81.2611 82.2662L73.5224 102.86C77.009 104.17 80.8453 105.008 84.8033 105.392L86.9329 83.4958ZM69.0426 80.5849C67.6156 82.9208 66.391 85.3117 65.4267 87.6985L85.8247 95.9398C86.2849 94.8008 86.9415 93.4865 87.8167 92.0538L69.0426 80.5849ZM69.2139 80.3135L69.2051 80.327L87.6542 92.3117L87.6629 92.2982L69.2139 80.3135ZM69.5287 92.7571L69.5454 92.78L87.3314 79.8317L87.3147 79.8088L69.5287 92.7571ZM64.7 84.5034C66.0285 87.4305 67.6542 90.2039 69.5549 92.7928L87.2886 79.7731C86.2843 78.4051 85.4304 76.9471 84.7331 75.4108L64.7 84.5034ZM79.8151 89.7042L79.8469 89.6874L69.5862 70.2268L69.5544 70.2435L79.8151 89.7042ZM80.1171 88.3553C79.8882 89.5094 79.3962 90.0871 79.3691 90.1183C79.3477 90.1429 79.4026 90.0758 79.5753 89.9362C79.7465 89.7978 80.005 89.6111 80.3688 89.3915L69.0007 70.5563C64.962 72.9939 59.8783 77.3138 58.5373 84.0759L80.1171 88.3553ZM79.3232 81.6243L79.3159 81.6084L59.3385 90.8228L59.3459 90.8387L79.3232 81.6243ZM80.314 81.8683C79.5311 81.4994 79.128 81.1944 78.9851 81.0685C78.8432 80.9434 79.0951 81.1194 79.3564 81.697L59.3126 90.766C61.8096 96.2847 66.6096 99.731 70.9373 101.77L80.314 81.8683ZM95.3175 92.7603C96.1165 93.9037 96.7373 94.9614 97.1958 95.8931L116.935 86.1796C115.93 84.1365 114.719 82.1172 113.351 80.1589L95.3175 92.7603ZM107.754 100.024C109.938 97.5704 111.882 95.0253 113.55 92.4653L95.1184 80.4539C94.0697 82.0631 92.7986 83.7369 91.3203 85.3979L107.754 100.024ZM100.213 81.7318L100.2 81.731L98.8749 103.691L98.8879 103.692L100.213 81.7318ZM106.562 101.343C106.966 100.912 107.368 100.473 107.766 100.026L91.3346 85.3972C91.067 85.6978 90.7977 85.9922 90.5273 86.28L106.562 101.343ZM102.252 81.1455C100.755 81.8739 98.7831 82.5523 96.4148 83.0197L100.674 104.603C104.663 103.816 108.473 102.585 111.879 100.927L102.252 81.1455ZM89.2544 86.054C85.5763 85.9884 82.5656 85.3595 80.515 84.5666L72.5808 105.086C77.4449 106.967 83.0768 107.947 88.8621 108.05L89.2544 86.054ZM96.5142 88.877C96.2335 88.6783 95.951 88.4723 95.6671 88.2589L82.4494 105.846C82.8982 106.183 83.3489 106.512 83.8012 106.832L96.5142 88.877ZM70.426 111.893C76.0022 115.222 81.9978 114.046 85.4992 112.881C89.4431 111.568 93.3222 109.273 96.825 106.604L83.4904 89.1054C81.2226 90.8336 79.492 91.6934 78.5505 92.0068C78.0955 92.1583 78.1398 92.0758 78.5945 92.0728C79.0723 92.0696 80.2931 92.1612 81.7036 93.0033L70.426 111.893ZM70.4917 111.932L70.5191 111.948L81.6104 92.9483L81.583 92.9323L70.4917 111.932ZM66.0762 91.4584C64.7968 95.4361 63.8632 100.771 65.6174 105.957L86.4573 98.9072C86.5879 99.2934 86.6304 99.578 86.6446 99.7166C86.6589 99.8549 86.6489 99.8852 86.6557 99.7891C86.6706 99.5754 86.7451 99.0479 87.0196 98.1944L66.0762 91.4584ZM72.9707 57.8605C71.312 58.6258 69.7313 59.7099 68.3584 61.1495L84.2794 76.3325C83.6212 77.0226 82.8853 77.5147 82.188 77.8365L72.9707 57.8605ZM84.3111 76.306C83.6439 77.0098 82.9027 77.5049 82.2098 77.8264L72.9489 57.8706C71.2988 58.6363 69.7177 59.7223 68.3445 61.171L84.3111 76.306ZM85.1228 75.2573C84.8682 75.6523 84.521 76.1073 84.0547 76.5675L68.6009 60.9094C67.7899 61.7097 67.1428 62.5442 66.6288 63.342L85.1228 75.2573ZM95.8163 63.653C92.3682 61.5366 88.6831 59.8258 84.9874 58.8445C81.4546 57.9065 76.9441 57.3823 72.4679 58.8408L79.2837 79.7584C78.1958 80.1129 78.0119 79.7547 79.3418 80.1078C80.5089 80.4177 82.2228 81.123 84.3079 82.4028L95.8163 63.653ZM96.7233 81.7856L96.9292 81.6211L83.1951 64.4347L82.9892 64.5991L96.7233 81.7856ZM96.7172 81.7908L96.7667 81.7508L82.9459 64.6339L82.8965 64.6739L96.7172 81.7908ZM80.8454 86.839C83.9442 85.3716 87.2856 84.4756 90.7046 84.1956L88.9091 62.269C82.8483 62.7653 76.9252 64.3533 71.4296 66.9558L80.8454 86.839ZM77.7563 87.7777L77.7932 87.7721L74.4818 66.0228L74.4448 66.0284L77.7563 87.7777ZM81.5105 86.4808L81.5169 86.4771L70.6842 67.329L70.6778 67.3326L81.5105 86.4808ZM65.8296 80.8615L65.8331 80.8703L86.3552 72.9431L86.3518 72.9343L65.8296 80.8615ZM66.6481 63.3009C62.5032 69.6681 64.296 76.8567 65.8182 80.8317L86.3633 72.964C86.0516 72.1502 86.0843 71.9098 86.0937 72.1724C86.1034 72.4408 86.0932 73.7556 85.0856 75.3034L66.6481 63.3009ZM68.5919 60.9119C67.781 61.7123 67.1339 62.5467 66.6199 63.3445L85.1138 75.2598C84.8593 75.6548 84.5121 76.1099 84.0458 76.5701L68.5919 60.9119ZM88.8759 77.4012C88.0839 76.3193 87.3906 75.1716 86.7964 73.9583L67.0388 83.6349C68.1987 86.0033 69.562 88.2625 71.1245 90.3969L88.8759 77.4012ZM88.9201 77.462L88.9193 77.4608L71.0812 90.3373L71.082 90.3384L88.9201 77.462ZM70.7801 77.9024L70.7757 77.9092L89.2264 89.8912L89.2308 89.8845L70.7801 77.9024ZM71.8752 76.3563C71.5741 76.7694 71.2929 77.1642 71.0395 77.5207L88.9714 90.2662C89.2206 89.9155 89.4362 89.6133 89.6536 89.315L71.8752 76.3563ZM71.295 77.2605C71.6255 76.688 71.9379 76.2703 72.0993 76.0621C72.2785 75.8308 72.4283 75.6579 72.5014 75.5746L89.0274 90.0967C89.0993 90.0149 89.7495 89.2963 90.3474 88.2608L71.295 77.2605ZM73.0637 74.7964C72.6711 75.2913 72.3085 75.7693 71.9606 76.2423L89.6818 89.279C89.8976 88.9858 90.0971 88.7236 90.2985 88.4698L73.0637 74.7964ZM73.4052 74.3685C73.4029 74.3712 73.3519 74.431 73.2951 74.4993C73.2334 74.5736 73.1379 74.6902 73.026 74.8351C72.797 75.1313 72.4799 75.57 72.1547 76.1332L91.2075 87.1329C90.9119 87.6449 90.6275 88.0369 90.4334 88.288C90.2667 88.5037 90.1156 88.6782 90.1647 88.6205L73.4052 74.3685ZM73.4116 74.361L73.4018 74.3725L90.1681 88.6165L90.1778 88.605L73.4116 74.361ZM73.6383 74.0742C73.5168 74.2238 73.3501 74.4287 73.1806 74.6421L90.4088 88.3239C90.4889 88.223 90.5774 88.1139 90.7125 87.9476L73.6383 74.0742ZM73.662 74.0451L73.6619 74.0453L90.689 87.9765L90.6891 87.9764L73.662 74.0451ZM73.7783 73.9054L73.7783 73.9054L90.5728 88.1161L90.5728 88.1161L73.7783 73.9054ZM73.2245 74.6171L73.2245 74.6171L91.1266 87.4044L91.1266 87.4043L73.2245 74.6171ZM73.7783 73.9053L73.7783 73.9053L90.5728 88.1161L90.5728 88.116L73.7783 73.9053ZM73.2245 74.617L73.2245 74.6171L91.1267 87.4043L91.1267 87.4043L73.2245 74.617ZM73.7784 73.9053L73.7784 73.9053L90.5729 88.116L90.5729 88.116L73.7784 73.9053ZM73.2246 74.617L73.2246 74.617L91.1267 87.4042L91.1267 87.4042L73.2246 74.617ZM73.4378 74.3286L73.4377 74.3286L90.9136 87.6926L90.9137 87.6925L73.4378 74.3286ZM73.9879 73.6401C73.8976 73.7547 73.7977 73.878 73.6387 74.0737L90.7127 87.9473C90.8553 87.7719 91.0591 87.5214 91.2683 87.2559L73.9879 73.6401ZM74.8679 72.59L74.2319 73.3415L91.0244 87.5545L91.6604 86.8031L74.8679 72.59ZM74.602 72.916L74.5481 72.986L91.9801 86.4071L92.034 86.3372L74.602 72.916ZM75.5756 71.7601L74.9826 72.4487L91.6534 86.8044L92.2464 86.1158L75.5756 71.7601ZM75.9275 71.366L75.7494 71.5631L92.0726 86.3127L92.2508 86.1156L75.9275 71.366ZM75.7374 71.5821L75.7373 71.5821L92.441 85.8995L92.441 85.8995L75.7374 71.5821ZM75.8841 71.4144L75.8839 71.4146L92.2945 86.0669L92.2947 86.0667L75.8841 71.4144ZM75.9087 71.3868L75.9086 71.387L92.2702 86.0941L92.2703 86.0939L75.9087 71.3868ZM77.0546 70.1415C76.622 70.596 76.2199 71.0422 75.9256 71.3681L92.2534 86.1127C92.5798 85.7512 92.7889 85.5206 92.9888 85.3107L77.0546 70.1415ZM76.6752 70.5609L76.633 70.6107L93.4105 84.8415L93.4527 84.7917L76.6752 70.5609ZM77.4896 69.6618L76.9637 70.2342L93.1642 85.1185L93.6901 84.5461L77.4896 69.6618ZM79.2617 67.9006C78.7254 68.4086 78.2191 68.9117 77.7541 69.3838L93.4256 84.8241C93.7794 84.465 94.096 84.1519 94.3904 83.8731L79.2617 67.9006ZM81.4559 88.8149C83.679 87.8146 86.0324 87.1247 88.4393 86.7679L85.2128 65.0058C80.7995 65.6601 76.4941 66.9229 72.428 68.7526L81.4559 88.8149ZM82.0478 88.527L82.0722 88.5142L71.8118 69.0534L71.7874 69.0662L82.0478 88.527Z" fill="#EDEFF4" mask="url(#path-2-outside-1_6602_28530)"/>
</svg>
