<svg width="18" height="14" viewBox="0 0 18 14" fill="none" xmlns="http://www.w3.org/2000/svg">
<path fill-rule="evenodd" clip-rule="evenodd" d="M1.64428 1.3103C0.667969 2.28661 0.667969 3.85795 0.667969 7.00065C0.667969 10.1433 0.667969 11.7147 1.64428 12.691C2.62059 13.6673 4.19194 13.6673 7.33463 13.6673H10.668C13.8107 13.6673 15.382 13.6673 16.3583 12.691C17.3346 11.7147 17.3346 10.1433 17.3346 7.00065C17.3346 3.85795 17.3346 2.28661 16.3583 1.3103C15.382 0.333984 13.8107 0.333984 10.668 0.333984H7.33464C4.19194 0.333984 2.62059 0.333984 1.64428 1.3103ZM14.4814 3.2672C14.7024 3.53238 14.6666 3.92648 14.4014 4.14746L12.571 5.67279C11.8324 6.28834 11.2337 6.78725 10.7053 7.12709C10.1549 7.48109 9.61887 7.70471 9.0013 7.70471C8.38374 7.70471 7.8477 7.48109 7.29728 7.12709C6.7689 6.78725 6.17023 6.28834 5.4316 5.6728L3.60119 4.14746C3.33601 3.92648 3.30019 3.53238 3.52116 3.2672C3.74214 3.00203 4.13624 2.9662 4.40142 3.18718L6.2005 4.68641C6.97796 5.3343 7.51774 5.78266 7.97345 6.07576C8.41459 6.35948 8.71374 6.45471 9.0013 6.45471C9.28886 6.45471 9.58802 6.35948 10.0291 6.07576C10.4849 5.78266 11.0246 5.3343 11.8021 4.68641L13.6012 3.18718C13.8664 2.9662 14.2605 3.00203 14.4814 3.2672Z" fill="white"/>
</svg>
