<svg width="9" height="11" viewBox="0 0 9 11" fill="none" xmlns="http://www.w3.org/2000/svg">
<path d="M0.378906 4.77365C0.378906 3.30809 0.378906 2.57531 0.551934 2.32879C0.724962 2.08226 1.41397 1.84641 2.79199 1.37471L3.05453 1.28484C3.77286 1.03896 4.13202 0.916016 4.50391 0.916016C4.87579 0.916016 5.23496 1.03896 5.95328 1.28484L6.21582 1.37471C7.59384 1.84641 8.28285 2.08226 8.45588 2.32879C8.62891 2.57531 8.62891 3.30809 8.62891 4.77365C8.62891 4.99502 8.62891 5.23508 8.62891 5.49539C8.62891 8.07951 6.68605 9.33353 5.46707 9.86602C5.1364 10.0105 4.97107 10.0827 4.50391 10.0827C4.03675 10.0827 3.87141 10.0105 3.54075 9.86602C2.32176 9.33353 0.378906 8.07951 0.378906 5.49539C0.378906 5.23508 0.378906 4.99502 0.378906 4.77365Z" fill="#111111"/>
</svg>
