<svg width="89" height="18" viewBox="0 0 89 18" fill="none" xmlns="http://www.w3.org/2000/svg">
<path d="M15.7847 8.26291C15.7847 12.0856 12.6994 15.1845 8.89349 15.1845C8.47126 15.1845 8.0579 15.1464 7.65664 15.0733L7.64168 16.4308C8.04986 16.4934 8.4679 16.5258 8.89349 16.5258C13.4369 16.5258 17.12 12.8264 17.12 8.26291C17.12 7.61099 17.0449 6.97672 16.9028 6.36834L15.6791 7.04949C15.7485 7.44347 15.7847 7.84894 15.7847 8.26291Z" fill="#1F2733"/>
<path d="M6.75343 16.2435L6.7688 14.8493C4.00263 13.9497 2.00233 11.3409 2.00233 8.26291C2.00233 6.51877 2.64459 4.9253 3.70453 3.7081L2.51405 3.04542C1.35934 4.46807 0.666936 6.28427 0.666936 8.26291C0.666936 12.0829 3.24767 15.2974 6.75343 16.2435Z" fill="#1F2733"/>
<path d="M8.89349 1.34129C7.15739 1.34129 5.57123 1.98612 4.35948 3.05035L3.13057 2.36627C4.61481 0.902673 6.6492 0 8.89349 0C12.4682 0 15.5104 2.29015 16.6452 5.48941L15.4578 6.15036C14.5687 3.36083 11.9659 1.34129 8.89349 1.34129Z" fill="#1F2733"/>
<path d="M2.11954 2.59478C2.08861 2.59446 2.0536 2.60447 2.01651 2.62597L0.727477 3.37349C0.601845 3.44634 0.5 3.62352 0.5 3.76923V5.26426C0.5 5.297 0.500293 5.33111 0.512398 5.36151C0.52544 5.39427 0.553965 5.42537 0.597975 5.45089L1.88142 6.19516C2.00651 6.2677 2.20931 6.2677 2.3344 6.19516L3.05472 5.77745C3.18558 5.70156 3.34681 5.70156 3.47767 5.77745L3.84383 5.98979C3.84985 5.99256 3.8558 5.9956 3.86168 5.99892L5.4063 6.87246C5.52054 6.93708 5.56101 7.08248 5.49669 7.19723C5.43236 7.31199 5.28759 7.35264 5.17334 7.28802L4.10712 6.68503L4.10712 9.65248C4.10712 9.97951 4.45958 10.1839 4.74155 10.0204L8.10795 8.06821C8.23881 7.99232 8.31942 7.85208 8.31942 7.7003V3.79594C8.31942 3.46891 7.96696 3.26452 7.685 3.42804L4.87519 5.05745C4.74433 5.13333 4.5831 5.13333 4.45224 5.05745L3.95056 4.76652C3.8197 4.69064 3.73908 4.55039 3.73908 4.39862V3.76923C3.73908 3.62352 3.63724 3.44634 3.51161 3.37349L2.22257 2.62597C2.18549 2.60447 2.15047 2.59446 2.11954 2.59478Z" fill="#1F2733"/>
<path d="M15.6673 2.59478C15.6364 2.59446 15.6014 2.60447 15.5643 2.62598L14.2753 3.37349C14.1497 3.44635 14.0478 3.62353 14.0478 3.76923V4.58146C14.0478 4.73323 13.9672 4.87348 13.8363 4.94936L13.5675 5.10524C13.5643 5.1073 13.5609 5.10929 13.5575 5.11121L13.5451 5.11824L13.4556 5.17015C13.4452 5.17616 13.4347 5.18169 13.424 5.18674L12.0129 5.98475C11.8987 6.04936 11.7539 6.00872 11.6896 5.89396C11.6253 5.77921 11.6657 5.63381 11.78 5.56919L12.7625 5.01352L10.0285 3.42804C9.74653 3.26453 9.39407 3.46892 9.39407 3.79595V7.70031C9.39407 7.85208 9.47469 7.99233 9.60555 8.06821L12.9719 10.0204C13.2539 10.1839 13.6064 9.97952 13.6064 9.65249V6.61314C13.6064 6.46137 13.687 6.32113 13.8179 6.24524L14.4552 5.87562C14.5861 5.79973 14.7473 5.79973 14.8782 5.87562L15.4292 6.19516C15.5543 6.2677 15.7571 6.2677 15.8822 6.19516L17.1657 5.45089C17.1994 5.43134 17.2346 5.41002 17.2569 5.37794C17.276 5.35039 17.2869 5.31197 17.2869 5.26426V3.76923C17.2869 3.62353 17.185 3.44635 17.0594 3.37349L15.7704 2.62598C15.7333 2.60447 15.6983 2.59446 15.6673 2.59478Z" fill="#1F2733"/>
<path d="M12.566 11.8184C12.8479 11.6549 12.8479 11.2461 12.566 11.0826L9.19958 9.13038C9.06872 9.05449 8.90749 9.05449 8.77663 9.13038L5.41023 11.0826C5.12826 11.2461 5.12826 11.6549 5.41023 11.8184L8.22259 13.4493C8.35345 13.5252 8.43407 13.6654 8.43407 13.8172V14.3927C8.43407 14.5445 8.35345 14.6847 8.22259 14.7606L7.59603 15.1239C7.4704 15.1968 7.36855 15.374 7.36855 15.5197V17.0147C7.36855 17.0474 7.36885 17.0816 7.38095 17.112C7.39399 17.1447 7.42252 17.1758 7.46653 17.2013L8.74997 17.9456C8.87506 18.0181 9.07787 18.0181 9.20295 17.9456L10.4864 17.2013C10.5201 17.1818 10.5554 17.1605 10.5776 17.1284C10.5967 17.1008 10.6076 17.0624 10.6076 17.0147V15.5197C10.6076 15.374 10.5058 15.1968 10.3802 15.1239L9.75362 14.7606C9.62276 14.6847 9.54215 14.5445 9.54215 14.3927V14.0176C9.53984 14.0039 9.53871 13.9897 9.53887 13.9752L9.558 12.1949C9.55941 12.0632 9.66684 11.9576 9.79795 11.959C9.92905 11.9604 10.0342 12.0683 10.0328 12.2L10.021 13.2942L12.566 11.8184Z" fill="#1F2733"/>
<path d="M26.6294 13.568C25.825 13.568 25.0861 13.3784 24.413 12.9991C23.7399 12.6198 23.2063 12.0963 22.8123 11.4284C22.4182 10.7523 22.2212 9.9896 22.2212 9.14034C22.2212 8.29932 22.4182 7.54488 22.8123 6.87701C23.2063 6.2009 23.7399 5.6732 24.413 5.29392C25.0861 4.91464 25.825 4.725 26.6294 4.725C27.4421 4.725 28.1809 4.91464 28.8459 5.29392C29.519 5.6732 30.0485 6.2009 30.4343 6.87701C30.8283 7.54488 31.0253 8.29932 31.0253 9.14034C31.0253 9.9896 30.8283 10.7523 30.4343 11.4284C30.0485 12.0963 29.519 12.6198 28.8459 12.9991C28.1727 13.3784 27.4339 13.568 26.6294 13.568ZM26.6294 12.0221C27.1466 12.0221 27.6022 11.9066 27.9962 11.6758C28.3903 11.4366 28.6981 11.0986 28.9197 10.6616C29.1414 10.2246 29.2522 9.71751 29.2522 9.14034C29.2522 8.56317 29.1414 8.06021 28.9197 7.63145C28.6981 7.19446 28.3903 6.86052 27.9962 6.62965C27.6022 6.39879 27.1466 6.28335 26.6294 6.28335C26.1123 6.28335 25.6526 6.39879 25.2503 6.62965C24.8563 6.86052 24.5485 7.19446 24.3268 7.63145C24.1052 8.06021 23.9943 8.56317 23.9943 9.14034C23.9943 9.71751 24.1052 10.2246 24.3268 10.6616C24.5485 11.0986 24.8563 11.4366 25.2503 11.6758C25.6526 11.9066 26.1123 12.0221 26.6294 12.0221Z" fill="#1F2733"/>
<path d="M34.0318 7.61909C34.2534 7.30577 34.5571 7.04604 34.943 6.83991C35.337 6.62553 35.7844 6.51834 36.2851 6.51834C36.868 6.51834 37.3933 6.66264 37.8613 6.95122C38.3374 7.2398 38.7109 7.65207 38.9818 8.18801C39.2609 8.71571 39.4004 9.32998 39.4004 10.0308C39.4004 10.7317 39.2609 11.3542 38.9818 11.8984C38.7109 12.4343 38.3374 12.8507 37.8613 13.1475C37.3933 13.4444 36.868 13.5928 36.2851 13.5928C35.7844 13.5928 35.3411 13.4897 34.9553 13.2836C34.5777 13.0775 34.2698 12.8177 34.0318 12.5044V16.7466H32.3079V6.62965H34.0318V7.61909ZM37.6396 10.0308C37.6396 9.61856 37.5534 9.26402 37.381 8.96719C37.2169 8.66211 36.9952 8.43125 36.7161 8.27459C36.4452 8.11793 36.1497 8.0396 35.8295 8.0396C35.5176 8.0396 35.2221 8.12205 34.943 8.28695C34.6721 8.44361 34.4504 8.67448 34.278 8.97956C34.1139 9.28463 34.0318 9.6433 34.0318 10.0556C34.0318 10.4678 34.1139 10.8265 34.278 11.1316C34.4504 11.4366 34.6721 11.6716 34.943 11.8365C35.2221 11.9932 35.5176 12.0715 35.8295 12.0715C36.1497 12.0715 36.4452 11.9891 36.7161 11.8242C36.9952 11.6593 37.2169 11.4243 37.381 11.1192C37.5534 10.8141 37.6396 10.4513 37.6396 10.0308Z" fill="#1F2733"/>
<path d="M46.9946 9.90715C46.9946 10.1545 46.9782 10.3771 46.9453 10.575H41.9584C41.9994 11.0697 42.1718 11.4573 42.4755 11.7376C42.7793 12.0179 43.1528 12.1581 43.5961 12.1581C44.2364 12.1581 44.692 11.8819 44.9629 11.3295H46.8222C46.6252 11.9891 46.2476 12.5333 45.6894 12.962C45.1312 13.3825 44.4457 13.5928 43.633 13.5928C42.9763 13.5928 42.3852 13.4485 41.8599 13.1599C41.3427 12.8631 40.9364 12.4467 40.6408 11.9107C40.3535 11.3748 40.2099 10.7564 40.2099 10.0556C40.2099 9.34647 40.3535 8.72395 40.6408 8.18801C40.9282 7.65207 41.3304 7.2398 41.8476 6.95122C42.3647 6.66264 42.9599 6.51834 43.633 6.51834C44.2815 6.51834 44.8603 6.65851 45.3692 6.93885C45.8864 7.21919 46.2845 7.61909 46.5636 8.13854C46.8509 8.64975 46.9946 9.23928 46.9946 9.90715ZM45.2091 9.41243C45.2009 8.96719 45.0409 8.61264 44.7289 8.34879C44.417 8.0767 44.0353 7.94065 43.5838 7.94065C43.1569 7.94065 42.7957 8.07258 42.5002 8.33643C42.2129 8.59203 42.0364 8.9507 41.9707 9.41243H45.2091Z" fill="#1F2733"/>
<path d="M52.0331 6.53071C52.8458 6.53071 53.5025 6.79044 54.0033 7.30989C54.504 7.8211 54.7544 8.53843 54.7544 9.4619V13.4815H53.0305V9.69689C53.0305 9.15271 52.8951 8.73632 52.6242 8.44774C52.3533 8.15091 51.9839 8.00249 51.516 8.00249C51.0398 8.00249 50.6622 8.15091 50.3831 8.44774C50.1122 8.73632 49.9768 9.15271 49.9768 9.69689V13.4815H48.2529V6.62965H49.9768V7.48304C50.2066 7.18621 50.498 6.95534 50.851 6.79044C51.2122 6.61729 51.6063 6.53071 52.0331 6.53071Z" fill="#1F2733"/>
<path d="M67.8822 4.84868L65.4811 13.4815H63.4494L61.8363 7.33463L60.1494 13.4815L58.1299 13.4938L55.815 4.84868H57.662L59.1766 11.5521L60.9251 4.84868H62.846L64.496 11.515L66.0229 4.84868H67.8822Z" fill="#1F2733"/>
<path d="M72.037 13.5928C71.3802 13.5928 70.7892 13.4485 70.2638 13.1599C69.7384 12.8631 69.3239 12.4467 69.0202 11.9107C68.7246 11.3748 68.5769 10.7564 68.5769 10.0556C68.5769 9.35472 68.7287 8.73632 69.0325 8.20038C69.3444 7.66444 69.7672 7.25217 70.3008 6.96359C70.8343 6.66676 71.4295 6.51834 72.0862 6.51834C72.7429 6.51834 73.3381 6.66676 73.8717 6.96359C74.4053 7.25217 74.8239 7.66444 75.1276 8.20038C75.4396 8.73632 75.5956 9.35472 75.5956 10.0556C75.5956 10.7564 75.4355 11.3748 75.1153 11.9107C74.8034 12.4467 74.3765 12.8631 73.8347 13.1599C73.3011 13.4485 72.7019 13.5928 72.037 13.5928ZM72.037 12.0839C72.3489 12.0839 72.6403 12.0097 72.9112 11.8613C73.1903 11.7046 73.412 11.4737 73.5762 11.1687C73.7403 10.8636 73.8224 10.4926 73.8224 10.0556C73.8224 9.40419 73.65 8.90535 73.3053 8.55905C72.9687 8.2045 72.5541 8.02723 72.0616 8.02723C71.569 8.02723 71.1545 8.2045 70.8179 8.55905C70.4896 8.90535 70.3254 9.40419 70.3254 10.0556C70.3254 10.7069 70.4855 11.2099 70.8056 11.5644C71.134 11.9107 71.5444 12.0839 72.037 12.0839Z" fill="#1F2733"/>
<path d="M78.584 7.69329C78.8056 7.3305 79.0929 7.04604 79.4459 6.83991C79.8071 6.63378 80.2176 6.53071 80.6773 6.53071V8.34879H80.2217C79.6799 8.34879 79.2694 8.47659 78.9903 8.7322C78.7194 8.9878 78.584 9.43305 78.584 10.0679V13.4815H76.8601V6.62965H78.584V7.69329Z" fill="#1F2733"/>
<path d="M81.3951 10.0308C81.3951 9.33823 81.5306 8.72395 81.8015 8.18801C82.0806 7.65207 82.4582 7.2398 82.9343 6.95122C83.4104 6.66264 83.9399 6.51834 84.5227 6.51834C84.966 6.51834 85.3888 6.61729 85.791 6.81517C86.1933 7.00481 86.5134 7.26042 86.7515 7.58198V4.32922H88.5V13.4815H86.7515V12.4673C86.5381 12.8054 86.2384 13.0775 85.8526 13.2836C85.4668 13.4897 85.0194 13.5928 84.5104 13.5928C83.9358 13.5928 83.4104 13.4444 82.9343 13.1475C82.4582 12.8507 82.0806 12.4343 81.8015 11.8984C81.5306 11.3542 81.3951 10.7317 81.3951 10.0308ZM86.7638 10.0556C86.7638 9.63506 86.6817 9.27639 86.5175 8.97956C86.3533 8.67448 86.1317 8.44361 85.8526 8.28695C85.5735 8.12205 85.2739 8.0396 84.9537 8.0396C84.6336 8.0396 84.338 8.11793 84.0671 8.27459C83.7963 8.43125 83.5746 8.66211 83.4022 8.96719C83.238 9.26402 83.1559 9.61856 83.1559 10.0308C83.1559 10.4431 83.238 10.8059 83.4022 11.1192C83.5746 11.4243 83.7963 11.6593 84.0671 11.8242C84.3463 11.9891 84.6418 12.0715 84.9537 12.0715C85.2739 12.0715 85.5735 11.9932 85.8526 11.8365C86.1317 11.6716 86.3533 11.4408 86.5175 11.1439C86.6817 10.8389 86.7638 10.4761 86.7638 10.0556Z" fill="#1F2733"/>
</svg>
