<svg width="130" height="22" viewBox="0 0 130 22" fill="none" xmlns="http://www.w3.org/2000/svg">
<g clip-path="url(#clip0_71_800)">
<path d="M128.636 14.5801C125.58 14.5801 122.979 14.5812 119.923 14.5823C119.768 14.5823 119.615 14.5823 119.46 14.5823C119.018 14.5823 119.001 14.5868 119.041 15.033C119.113 15.8242 119.289 16.5806 119.733 17.2527C120.251 18.0371 120.956 18.5103 121.858 18.6845C122.633 18.834 123.394 18.771 124.138 18.5227C124.782 18.3091 125.28 17.8832 125.667 17.3156C125.698 17.2695 125.73 17.2246 125.759 17.1763C125.836 17.0493 125.93 17.0403 126.059 17.1032C126.912 17.5202 127.767 17.9293 128.62 18.344C128.839 18.4507 128.846 18.4844 128.721 18.7047C128.317 19.4161 127.79 20.0096 127.157 20.5153C126.117 21.3436 124.919 21.7201 123.643 21.8966C123.517 21.9134 123.392 21.9348 123.266 21.9516C122.905 22.0011 122.546 22.0067 122.182 21.9595C121.608 21.8853 121.028 21.8381 120.468 21.6752C118.914 21.2222 117.643 20.3355 116.691 18.9846C116.163 18.2361 115.813 17.3988 115.595 16.4963C115.4 15.6927 115.268 14.8813 115.27 14.0564C115.271 12.4683 115.594 10.9567 116.335 9.54959C116.892 8.49201 117.629 7.60752 118.618 6.96466C119.472 6.40833 120.399 6.04644 121.407 5.92057C122.175 5.82504 122.937 5.83515 123.707 5.93518C124.42 6.02734 125.093 6.2184 125.734 6.53646C127.006 7.16808 127.992 8.11663 128.645 9.41921C129.384 10.8938 129.545 12.9585 129.545 14.5812L128.636 14.5801ZM122.397 12.0412V12.0345C123.395 12.0345 124.392 12.0345 125.39 12.0345C125.639 12.0345 125.658 12.0041 125.631 11.7614C125.576 11.2804 125.44 10.8263 125.207 10.4071C124.966 9.97216 124.67 9.58443 124.24 9.32706C123.321 8.7786 122.354 8.71454 121.353 9.02923C121.056 9.12251 120.776 9.25625 120.534 9.46192C119.841 10.0542 119.446 10.8274 119.259 11.7232C119.195 12.0289 119.209 12.0401 119.512 12.0401C120.473 12.0401 121.436 12.0401 122.397 12.0401V12.0412Z" fill="#3C3D3D"/>
<path d="M65.726 5.28913e-05C66.329 -0.00893817 67.3935 0.186617 68.4373 0.528278C69.8404 0.987946 70.9713 1.83872 71.8497 3.05139C72.2187 3.56051 72.4374 4.14493 72.6355 4.74059C72.6834 4.88332 72.641 4.97998 72.5147 5.03842C72.3819 5.09911 72.2491 5.16317 72.1109 5.20475C71.2423 5.47224 70.3857 5.77793 69.5334 6.09824C69.491 6.11397 69.4485 6.13083 69.405 6.14319C69.2232 6.19489 69.1851 6.17691 69.11 6.00271C69.0632 5.89145 69.0251 5.77569 68.9739 5.66554C68.4493 4.51581 67.5676 3.80889 66.3997 3.46273C65.8631 3.30427 65.3145 3.29528 64.7572 3.3245C64.2696 3.35035 63.8037 3.43576 63.3596 3.63694C62.4965 4.02692 62.0437 4.71024 61.9882 5.68353C61.9327 6.66355 62.3463 7.37609 63.1321 7.88409C63.6035 8.18866 64.1129 8.41231 64.6353 8.60113C65.5855 8.94391 66.5467 9.25073 67.5034 9.57216C68.3132 9.84526 69.1318 10.0981 69.8893 10.5106C70.6153 10.9062 71.2902 11.376 71.8366 12.0189C72.2644 12.5224 72.6312 13.0674 72.8042 13.7249C72.9066 14.1126 72.973 14.5083 72.998 14.9117C73.0481 15.7041 72.9751 16.4829 72.7836 17.2472C72.5452 18.2002 72.0902 19.0251 71.411 19.7264C70.8613 20.294 70.2725 20.8042 69.5661 21.1425C68.7388 21.5381 67.8702 21.7843 66.9614 21.9068C66.4824 21.9708 66.0068 21.9956 65.5268 21.9978C64.7344 22.0001 63.9572 21.8832 63.1844 21.7135C62.3898 21.5381 61.6333 21.2594 60.9204 20.8571C59.4999 20.0535 58.4583 18.9026 57.8857 17.3236C57.8378 17.1921 57.7867 17.0617 57.7453 16.928C57.6811 16.7223 57.7203 16.6324 57.914 16.5548C58.455 16.3379 58.9949 16.1199 59.538 15.9109C59.9963 15.7344 60.4589 15.5692 60.9204 15.3995C61.272 15.2702 61.3122 15.2826 61.4135 15.6614C61.5158 16.0457 61.6801 16.3975 61.888 16.7279C62.4279 17.5821 63.1539 18.1744 64.115 18.4632C64.8073 18.6711 65.5115 18.7116 66.2136 18.6486C66.9864 18.579 67.7266 18.3564 68.3492 17.8327C68.9021 17.3674 69.1884 16.7639 69.2178 16.0334C69.2286 15.7726 69.2439 15.5085 69.1927 15.2489C69.0795 14.6701 68.7682 14.2217 68.3187 13.8721C68.0934 13.6968 67.8485 13.5563 67.5927 13.4327C66.5793 12.9404 65.4963 12.6583 64.4329 12.3167C63.5675 12.0391 62.7044 11.7536 61.8793 11.3591C61.3177 11.0916 60.7811 10.7904 60.2749 10.4196C59.2137 9.64072 58.5834 8.58651 58.3396 7.28056C58.0414 5.67678 58.3451 4.18764 59.2158 2.83224C59.8504 1.84434 60.7419 1.16777 61.7857 0.694612C62.884 0.19898 64.0399 0.00904395 65.726 5.28913e-05Z" fill="#3C3D3D"/>
<path d="M24.445 14.5823C22.8668 14.5823 21.2885 14.5823 19.7102 14.5823C19.6286 14.5823 19.5469 14.5845 19.4653 14.5845C19.363 14.5845 19.3293 14.6328 19.326 14.7407C19.301 15.5769 19.4882 16.358 19.9083 17.0728C20.3731 17.8629 21.0392 18.363 21.9231 18.5721C22.5 18.7092 23.0812 18.7328 23.6526 18.6507C24.5016 18.5282 25.2451 18.1484 25.8002 17.4437C26.1975 16.9391 26.1605 17.038 26.5959 17.2639C27.115 17.5336 27.6538 17.7572 28.1785 18.0135C28.4408 18.1416 28.6911 18.2922 28.9611 18.4057C29.1102 18.4687 29.1222 18.517 29.0438 18.6665C28.9839 18.7811 28.9056 18.8856 28.8359 18.9958C28.2797 19.869 27.5265 20.5152 26.6437 21.0098C25.5956 21.5964 24.4733 21.8943 23.2815 21.9032C22.7198 21.9077 22.156 21.9325 21.5965 21.8527C20.7541 21.7324 19.9519 21.4739 19.1976 21.0682C18.2462 20.558 17.4527 19.8522 16.8432 18.9452C16.2413 18.0494 15.8679 17.0447 15.6764 15.9725C15.5327 15.1689 15.4696 14.3586 15.5011 13.5416C15.5751 11.595 16.1205 9.81701 17.3439 8.30876C18.083 7.39729 18.9929 6.71172 20.0879 6.30375C20.9162 5.99581 21.7696 5.87218 22.6458 5.85195C23.3936 5.83397 24.1283 5.92051 24.8576 6.07898C25.2494 6.16439 25.6228 6.30937 25.983 6.49032C27.6593 7.3321 28.7597 8.68751 29.3116 10.5138C29.6436 11.6118 29.7818 12.7414 29.6849 13.8945C29.6729 14.0338 29.6827 14.1754 29.6729 14.3159C29.6599 14.5126 29.6109 14.562 29.4248 14.58C29.3344 14.5879 29.243 14.5845 29.1527 14.5845C27.5831 14.5845 26.0146 14.5845 24.445 14.5845V14.5823ZM22.6959 12.0378V12.0344C22.8134 12.0344 22.931 12.0344 23.0496 12.0344C23.9193 12.0344 24.7901 12.0356 25.6598 12.0356C25.9537 12.0356 25.97 12.0108 25.9101 11.7096C25.8328 11.323 25.7109 10.951 25.5531 10.5925C25.2124 9.81926 24.654 9.29777 23.8725 9.02018C23.3 8.81675 22.7111 8.80551 22.1266 8.87744C21.6118 8.94038 21.1252 9.11683 20.7094 9.4686C20.0085 10.0631 19.6438 10.8465 19.4599 11.74C19.4523 11.7759 19.449 11.8141 19.4468 11.8512C19.4392 11.9625 19.4806 12.0333 19.597 12.0356C19.6427 12.0367 19.6874 12.0367 19.7331 12.0367C20.7214 12.0367 21.7086 12.0367 22.697 12.0367L22.6959 12.0378Z" fill="#3C3D3D"/>
<path d="M104.241 14.0653C104.295 14.8936 104.118 15.8972 103.798 16.8683C103.438 17.9618 102.886 18.9373 102.08 19.7622C101.545 20.3107 100.958 20.7692 100.293 21.121C99.801 21.3806 99.284 21.5908 98.7419 21.7167C98.0606 21.874 97.3694 22.0257 96.6717 21.992C95.1228 21.9167 93.6283 21.602 92.3265 20.658C91.2577 19.8836 90.4326 18.898 89.9199 17.6437C89.5858 16.8255 89.3724 15.977 89.2658 15.1015C89.2037 14.5901 89.2309 14.0732 89.2429 13.5584C89.2832 11.8951 89.7599 10.3711 90.6601 8.9977C91.7181 7.38381 93.2038 6.40715 95.0423 6.01717C95.5157 5.91714 96.0012 5.84409 96.4964 5.84859C97.168 5.8542 97.8374 5.86882 98.5014 5.97896C99.0685 6.07336 99.6073 6.27566 100.131 6.51168C101.437 7.10171 102.425 8.05364 103.15 9.32026C103.704 10.2879 104.017 11.3298 104.176 12.4345C104.244 12.9111 104.227 13.3865 104.243 14.0687L104.241 14.0653ZM96.491 18.6271C97.4314 18.6238 98.1096 18.4855 98.7049 18.0989C99.5659 17.5403 100.089 16.7109 100.34 15.7017C100.553 14.8419 100.595 13.9653 100.495 13.0841C100.412 12.3457 100.249 11.631 99.9023 10.9667C99.013 9.26856 97.3019 8.63919 95.6235 9.13145C94.571 9.44051 93.8928 10.1856 93.4662 11.1971C93.1919 11.8467 93.0623 12.5301 93.0014 13.2359C92.9208 14.1631 93.0068 15.0689 93.2572 15.9557C93.4226 16.5434 93.6795 17.0964 94.1062 17.537C94.8289 18.2821 95.7051 18.6474 96.491 18.626V18.6271Z" fill="#3C3D3D"/>
<path d="M6.30668 12.5571C6.30668 9.74744 6.30668 6.93773 6.30668 4.12915C6.30668 4.07296 6.30668 4.01676 6.30342 3.96057C6.29689 3.86167 6.24355 3.80547 6.14777 3.79985C6.05743 3.79423 5.96599 3.79311 5.87565 3.79311C4.06118 3.79311 2.2478 3.79311 0.433325 3.79311C0.00229223 3.79311 -0.0173001 3.76164 0.0066461 3.30647C0.0512732 2.45569 0.0480078 1.60379 0.00882303 0.751885C0.0066461 0.714797 0.0033807 0.676585 0.0033807 0.639497C0.0033807 0.389995 0.0382116 0.352907 0.288559 0.348411C0.415909 0.346163 0.542171 0.348411 0.669522 0.348411C5.79402 0.348411 10.9185 0.348411 16.043 0.348411C16.5263 0.348411 16.5045 0.322562 16.5045 0.821566C16.5045 1.69257 16.5045 2.56358 16.5045 3.43459C16.5045 3.77962 16.4904 3.79423 16.1486 3.79536C14.3439 3.79536 12.5392 3.79536 10.7335 3.79536C10.2633 3.79536 10.3003 3.79311 10.3003 4.23817C10.3003 9.74519 10.3003 15.2511 10.3003 20.7581C10.3003 20.8424 10.3003 20.9267 10.3003 21.011C10.2948 21.3032 10.2774 21.3268 9.98352 21.3268C8.86784 21.329 7.75217 21.329 6.63649 21.3268C6.3339 21.3268 6.30233 21.2908 6.30233 20.9604C6.30124 19.1251 6.30233 17.2898 6.30233 15.4534C6.30233 14.4891 6.30233 13.5237 6.30233 12.5594H6.3056L6.30668 12.5571Z" fill="#3C3D3D"/>
<path d="M37.9809 10.8544C38.0222 10.7949 38.0614 10.7443 38.0941 10.6892C39.0138 9.15062 40.0566 7.69744 41.0166 6.18581C41.1178 6.02622 41.231 5.96104 41.4161 5.96104C42.6221 5.96778 43.8281 5.96441 45.0352 5.96441C45.0809 5.96441 45.1266 5.96216 45.1713 5.96778C45.3051 5.98464 45.3356 6.03184 45.2616 6.15097C45.1255 6.37126 44.9808 6.58816 44.8284 6.79721C44.2134 7.64349 43.5963 8.4864 42.9769 9.32931C42.067 10.5667 41.1559 11.8041 40.2438 13.0404C40.1894 13.1146 40.1251 13.182 40.0664 13.2528C39.9379 13.409 39.9336 13.4225 40.0511 13.59C40.3341 13.9912 40.6193 14.3902 40.9088 14.7869C41.5586 15.677 42.1617 16.6008 42.8017 17.4977C43.6246 18.6508 44.405 19.8354 45.2268 20.9907C45.2431 21.0132 45.2605 21.0345 45.2747 21.0582C45.3759 21.2279 45.3465 21.2953 45.1604 21.3178C45.0885 21.3256 45.0156 21.3223 44.9427 21.3223C43.8357 21.3223 42.7298 21.3133 41.6229 21.329C41.3235 21.3335 41.1439 21.2177 40.9763 20.9682C40.2732 19.9219 39.5493 18.8902 38.8353 17.8528C38.536 17.4179 38.2356 16.983 37.9645 16.5289C37.8317 16.3064 37.8067 16.3086 37.6815 16.5199C37.2842 17.192 36.8097 17.809 36.383 18.4597C35.8083 19.3364 35.1737 20.1692 34.6131 21.0548C34.4989 21.2357 34.3541 21.3245 34.1408 21.3245C32.9249 21.32 31.7102 21.3223 30.4944 21.3223C30.4487 21.3223 30.403 21.32 30.3594 21.3133C30.2538 21.2964 30.2157 21.2346 30.2691 21.1346C30.3126 21.0537 30.3638 20.975 30.4193 20.9008C31.154 19.9253 31.8299 18.9048 32.5429 17.9124C33.5149 16.5593 34.4716 15.1937 35.4295 13.8293C35.6788 13.4742 35.6983 13.5416 35.4262 13.1629C34.9941 12.5616 34.5674 11.9558 34.1353 11.3546C33.5138 10.4903 32.889 9.62827 32.2642 8.76512C31.6721 7.94806 31.08 7.131 30.4879 6.31394C30.4498 6.26111 30.4117 6.20829 30.3801 6.1521C30.3094 6.0251 30.3279 5.98352 30.4639 5.96891C30.5358 5.96104 30.6087 5.96441 30.6816 5.96441C31.9519 5.96441 33.221 5.97003 34.4912 5.95879C34.7263 5.95654 34.8526 6.0296 34.9821 6.24426C35.4415 7.00737 35.928 7.75363 36.4167 8.49764C36.9065 9.24165 37.3898 9.98791 37.8622 10.7432C37.8862 10.7814 37.9036 10.8274 37.9809 10.8544Z" fill="#3C3D3D"/>
<path d="M81.8757 5.86093C82.6822 5.79799 83.454 5.94297 84.2072 6.14077C85.5286 6.48693 86.6367 7.20059 87.4661 8.34133C87.7175 8.68637 87.958 9.03702 88.1289 9.43262C88.2225 9.64953 88.2171 9.67426 88.0081 9.77428C87.7784 9.88442 87.5412 9.97883 87.3082 10.0845C86.653 10.3812 85.9977 10.6813 85.3425 10.9791C85.3098 10.9937 85.2761 11.0094 85.2423 11.0229C85.0333 11.1083 84.9735 11.0712 84.8712 10.8948C84.316 9.94399 83.5421 9.27303 82.4537 9.11456C81.5013 8.9752 80.5685 9.04601 79.7554 9.67988C79.4103 9.94849 79.1208 10.2699 78.8998 10.6498C78.397 11.5163 78.0911 12.4458 78.1085 13.4696C78.1151 13.863 78.0802 14.2586 78.115 14.6486C78.2424 16.077 78.7061 17.3301 79.9415 18.1427C80.6272 18.5945 81.3902 18.7091 82.1848 18.6428C82.5277 18.6136 82.8684 18.5574 83.1982 18.4462C83.983 18.1798 84.5664 17.6594 84.9963 16.9413C85.0203 16.9019 85.0399 16.8581 85.0649 16.8199C85.1683 16.6637 85.214 16.6446 85.3816 16.7098C85.8149 16.8772 86.2579 17.0222 86.6693 17.2414C87.1232 17.483 87.6119 17.628 88.0767 17.8381C88.1268 17.8606 88.1768 17.8808 88.2269 17.9044C88.3336 17.955 88.3717 18.0449 88.3423 18.1584C88.3205 18.2382 88.29 18.318 88.253 18.3922C87.7295 19.4262 87.0056 20.2758 86.0467 20.8962C85.2042 21.4413 84.2779 21.756 83.294 21.8796C82.827 21.9381 82.359 22.0111 81.8866 21.9976C80.5554 21.9583 79.271 21.6919 78.0922 21.0367C76.7164 20.2725 75.6802 19.1598 75.0543 17.6684C74.5797 16.5389 74.3511 15.3566 74.3294 14.1226C74.313 13.1268 74.4578 12.1637 74.7288 11.2173C75.0663 10.0418 75.6159 8.98307 76.4541 8.10419C77.4794 7.02976 78.6985 6.29699 80.1374 6.00815C80.7121 5.89239 81.2999 5.79686 81.8746 5.86093H81.8757Z" fill="#3C3D3D"/>
<path d="M48.6491 13.1382C48.6491 11.9401 48.6491 10.7409 48.6491 9.54285C48.6491 9.48666 48.6491 9.43046 48.6491 9.37427C48.6414 9.10117 48.6218 9.07757 48.3432 9.07644C47.8262 9.07307 47.3092 9.07644 46.7921 9.07532C46.3698 9.07532 46.3633 9.06857 46.3633 8.63925C46.3633 7.88962 46.3633 7.14112 46.3633 6.39149C46.3633 6.31619 46.3655 6.24201 46.3676 6.16671C46.372 6.0296 46.4406 5.96441 46.5744 5.96666C46.8008 5.96891 47.0283 5.96666 47.2547 5.96666C47.627 5.96666 47.9982 5.96891 48.3704 5.96666C48.6284 5.96441 48.6469 5.94643 48.648 5.67557C48.6501 4.65509 48.648 3.6346 48.6491 2.61412C48.6491 2.30318 48.7971 2.14771 49.0932 2.14771C50.0271 2.14771 50.961 2.14771 51.8949 2.14771C51.9765 2.14771 52.0581 2.14995 52.1398 2.1522C52.2497 2.15557 52.3052 2.21626 52.3085 2.32865C52.3107 2.41294 52.3128 2.49723 52.3128 2.58152C52.3128 3.5829 52.3128 4.58541 52.3128 5.58679C52.3128 5.66209 52.3128 5.73626 52.3161 5.81156C52.3194 5.91384 52.3738 5.96441 52.4717 5.96553C52.5447 5.96666 52.6165 5.96778 52.6894 5.96778C53.7235 5.96778 54.7575 5.96778 55.7905 5.96778C55.8449 5.96778 55.8993 5.96778 55.9538 5.96778C56.2063 5.97565 56.2291 5.99476 56.2302 6.26449C56.2324 7.1074 56.2324 7.95031 56.2302 8.7921C56.2302 9.04834 56.2019 9.07419 55.9091 9.07419C54.8664 9.07644 53.8236 9.07419 52.7809 9.07532C52.6807 9.07532 52.5817 9.07644 52.4815 9.07981C52.3716 9.08318 52.3161 9.14387 52.3161 9.25739C52.3161 9.33269 52.3139 9.40686 52.3139 9.48216C52.3139 11.7299 52.3161 13.9766 52.3117 16.2243C52.3117 16.5761 52.3738 16.9166 52.4576 17.2493C52.6241 17.9135 53.201 18.3968 53.8835 18.4451C54.5464 18.4923 55.2071 18.4665 55.8438 18.2327C55.8863 18.217 55.9298 18.2012 55.9744 18.1923C56.1127 18.1642 56.1573 18.1923 56.1725 18.3406C56.1932 18.5452 56.2117 18.7508 56.2161 18.9565C56.2291 19.6117 56.2346 20.2669 56.2433 20.9222C56.2455 21.1278 56.1932 21.2065 55.9679 21.2762C55.6207 21.383 55.2669 21.465 54.9121 21.5414C54.1404 21.7055 53.3632 21.7033 52.5849 21.6178C52.2334 21.5796 51.8872 21.4942 51.5487 21.3897C50.3928 21.0334 49.5209 20.331 49.042 19.161C48.8744 18.7508 48.8199 18.3136 48.7536 17.8798C48.6327 17.0897 48.648 16.294 48.6501 15.4983C48.6523 14.7116 48.6501 13.9249 48.6501 13.1382H48.6491Z" fill="#3C3D3D"/>
<path d="M109.833 7.50859C109.952 7.38384 110.056 7.28044 110.153 7.17142C110.578 6.69153 111.102 6.36223 111.678 6.11947C112.099 5.9419 112.547 5.85985 112.998 5.81827C113.634 5.76095 114.266 5.78568 114.885 5.97337C115.089 6.03518 115.119 6.07339 115.093 6.2622C114.975 7.10399 114.863 7.9469 114.737 8.78757C114.694 9.07303 114.689 9.36524 114.596 9.64396C114.516 9.8856 114.511 9.89234 114.299 9.79119C113.695 9.50236 113.056 9.34389 112.396 9.42368C111.209 9.56642 110.546 9.98113 110.132 11.2017C110.024 11.5231 109.99 11.858 109.948 12.1918C109.903 12.5638 109.894 12.9369 109.895 13.3123C109.897 15.8399 109.896 18.3675 109.896 20.8951C109.896 21.1806 109.754 21.3237 109.471 21.3245C108.501 21.3245 107.53 21.3245 106.56 21.3245C106.497 21.3245 106.433 21.3267 106.37 21.3222C106.173 21.3076 106.139 21.2717 106.126 21.066C106.121 20.9918 106.124 20.9165 106.124 20.8412C106.124 16.1602 106.124 11.4793 106.124 6.7983C106.124 6.46787 106.284 6.30229 106.606 6.30154C107.521 6.30154 108.438 6.30154 109.353 6.30154C109.426 6.30154 109.499 6.29817 109.571 6.30379C109.747 6.31727 109.778 6.34088 109.784 6.5207C109.793 6.74547 109.784 6.97025 109.79 7.19503C109.792 7.28606 109.767 7.38047 109.834 7.50747L109.833 7.50859Z" fill="#3C3D3D"/>
</g>
<defs>
<clipPath id="clip0_71_800">
<rect width="130" height="22" fill="white"/>
</clipPath>
</defs>
</svg>
