<svg width="130" height="22" viewBox="0 0 130 22" fill="none" xmlns="http://www.w3.org/2000/svg">
<path d="M128.801 14.5803C125.741 14.5803 123.137 14.5814 120.077 14.5826C119.922 14.5826 119.769 14.5826 119.614 14.5826C119.171 14.5826 119.154 14.5871 119.194 15.0332C119.266 15.8245 119.443 16.5808 119.887 17.2529C120.406 18.0374 121.111 18.5105 122.015 18.6847C122.791 18.8342 123.553 18.7713 124.298 18.5229C124.942 18.3094 125.441 17.8834 125.828 17.3158C125.86 17.2698 125.891 17.2248 125.921 17.1765C125.998 17.0495 126.092 17.0405 126.222 17.1034C127.075 17.5204 127.932 17.9295 128.785 18.3442C129.005 18.451 129.012 18.4847 128.886 18.705C128.482 19.4164 127.954 20.0098 127.32 20.5155C126.279 21.3438 125.079 21.7203 123.802 21.8968C123.676 21.9136 123.55 21.935 123.425 21.9519C123.063 22.0013 122.704 22.0069 122.34 21.9597C121.764 21.8855 121.183 21.8383 120.623 21.6754C119.067 21.2225 117.795 20.3357 116.841 18.9848C116.313 18.2363 115.962 17.399 115.744 16.4965C115.549 15.693 115.417 14.8815 115.418 14.0566C115.419 12.4685 115.743 10.9569 116.485 9.54982C117.043 8.49225 117.781 7.60776 118.77 6.9649C119.626 6.40858 120.554 6.04669 121.564 5.92081C122.332 5.82528 123.095 5.8354 123.866 5.93542C124.58 6.02758 125.254 6.21864 125.896 6.5367C127.17 7.16832 128.156 8.11688 128.81 9.41945C129.551 10.8941 129.712 12.9587 129.712 14.5814L128.801 14.5803ZM122.554 12.0415V12.0347C123.554 12.0347 124.552 12.0347 125.551 12.0347C125.801 12.0347 125.819 12.0044 125.792 11.7616C125.738 11.2806 125.602 10.8266 125.368 10.4073C125.126 9.9724 124.83 9.58466 124.399 9.3273C123.48 8.77884 122.512 8.71478 121.509 9.02947C121.212 9.12275 120.932 9.25649 120.69 9.46216C119.995 10.0544 119.6 10.8277 119.412 11.7234C119.348 12.0291 119.362 12.0403 119.666 12.0403C120.629 12.0403 121.592 12.0403 122.554 12.0403V12.0415Z" fill="#D02827"/>
<path d="M65.8084 0.000297032C66.4122 -0.00869402 67.478 0.186861 68.5232 0.528521C69.928 0.988189 71.0604 1.83897 71.9399 3.05163C72.3093 3.56075 72.5284 4.14517 72.7268 4.74083C72.7747 4.88356 72.7322 4.98021 72.6058 5.03866C72.4728 5.09935 72.3399 5.16341 72.2015 5.20499C71.3318 5.47247 70.474 5.77817 69.6207 6.09848C69.5782 6.11421 69.5357 6.13107 69.4921 6.14343C69.3101 6.19513 69.2719 6.17715 69.1967 6.00295C69.1499 5.89168 69.1117 5.77592 69.0605 5.66578C68.5352 4.51605 67.6524 3.80913 66.483 3.46297C65.9457 3.30451 65.3964 3.29552 64.8384 3.32474C64.3502 3.35059 63.8837 3.436 63.4391 3.63718C62.5748 4.02716 62.1214 4.71048 62.0659 5.68376C62.0103 6.66379 62.4244 7.37633 63.2113 7.88432C63.6832 8.18889 64.1932 8.41255 64.7164 8.60136C65.6678 8.94414 66.6301 9.25096 67.5881 9.57239C68.399 9.84549 69.2185 10.0984 69.9771 10.5108C70.704 10.9064 71.3797 11.3762 71.9268 12.0191C72.3551 12.5226 72.7224 13.0677 72.8957 13.7251C72.9981 14.1129 73.0646 14.5085 73.0897 14.912C73.1398 15.7043 73.0668 16.4831 72.875 17.2474C72.6363 18.2004 72.1807 19.0254 71.5007 19.7267C70.9503 20.2942 70.3607 20.8045 69.6534 21.1427C68.8251 21.5384 67.9554 21.7845 67.0454 21.907C66.5658 21.971 66.0896 21.9958 65.609 21.998C64.8155 22.0003 64.0374 21.8834 63.2636 21.7137C62.468 21.5384 61.7106 21.2596 60.9967 20.8573C59.5745 20.0537 58.5315 18.9029 57.9582 17.3238C57.9103 17.1923 57.859 17.0619 57.8176 16.9282C57.7533 16.7225 57.7926 16.6326 57.9866 16.5551C58.5282 16.3382 59.0688 16.1201 59.6126 15.9111C60.0714 15.7346 60.5346 15.5694 60.9967 15.3997C61.3487 15.2705 61.3891 15.2828 61.4904 15.6616C61.5929 16.0459 61.7574 16.3977 61.9656 16.7281C62.5062 17.5823 63.2331 18.1746 64.1954 18.4634C64.8886 18.6713 65.5937 18.7118 66.2967 18.6489C67.0704 18.5792 67.8115 18.3566 68.4349 17.8329C68.9886 17.3676 69.2752 16.7641 69.3046 16.0336C69.3155 15.7728 69.3308 15.5087 69.2796 15.2491C69.1662 14.6703 68.8545 14.2219 68.4044 13.8724C68.1788 13.697 67.9336 13.5565 67.6775 13.4329C66.6628 12.9407 65.5784 12.6586 64.5137 12.3169C63.6472 12.0393 62.783 11.7538 61.9569 11.3594C61.3945 11.0919 60.8572 10.7907 60.3504 10.4198C59.2878 9.64095 58.6568 8.58675 58.4127 7.2808C58.1141 5.67702 58.4181 4.18788 59.29 2.83248C59.9254 1.84459 60.818 1.16801 61.8632 0.694856C62.9628 0.199224 64.1202 0.00928808 65.8084 0.000297032Z" fill="#D02827"/>
<path d="M24.475 14.5832C22.8947 14.5832 21.3144 14.5832 19.7341 14.5832C19.6524 14.5832 19.5707 14.5855 19.4889 14.5855C19.3865 14.5855 19.3527 14.6338 19.3494 14.7417C19.3243 15.5779 19.5118 16.359 19.9325 17.0738C20.3978 17.8638 21.0648 18.364 21.9498 18.573C22.5274 18.7101 23.1094 18.7337 23.6816 18.6517C24.5316 18.5292 25.276 18.1493 25.8318 17.4446C26.2296 16.94 26.1926 17.0389 26.6285 17.2648C27.1484 17.5345 27.6878 17.7582 28.2132 18.0144C28.4758 18.1426 28.7265 18.2932 28.9968 18.4067C29.1461 18.4696 29.1581 18.5179 29.0796 18.6674C29.0196 18.7821 28.9412 18.8866 28.8714 18.9967C28.3145 19.87 27.5603 20.5162 26.6765 21.0107C25.6269 21.5974 24.5033 21.8952 23.3099 21.9042C22.7476 21.9087 22.183 21.9334 21.6228 21.8536C20.7793 21.7334 19.9761 21.4749 19.2208 21.0692C18.2683 20.5589 17.4738 19.8531 16.8635 18.9461C16.2608 18.0504 15.887 17.0457 15.6952 15.9735C15.5513 15.1699 15.4881 14.3596 15.5197 13.5425C15.5938 11.596 16.1398 9.81798 17.3648 8.30973C18.1048 7.39826 19.0159 6.7127 20.1123 6.30473C20.9417 5.99678 21.7961 5.87316 22.6735 5.85293C23.4222 5.83495 24.1578 5.92148 24.888 6.07995C25.2804 6.16537 25.6542 6.31035 26.0149 6.49129C27.6933 7.33308 28.7951 8.68848 29.3477 10.5148C29.6801 11.6128 29.8185 12.7423 29.7215 13.8954C29.7095 14.0348 29.7193 14.1764 29.7095 14.3169C29.6964 14.5136 29.6474 14.563 29.461 14.581C29.3706 14.5889 29.279 14.5855 29.1886 14.5855C27.617 14.5855 26.0465 14.5855 24.475 14.5855V14.5832ZM22.7236 12.0388V12.0354C22.8413 12.0354 22.959 12.0354 23.0778 12.0354C23.9486 12.0354 24.8205 12.0365 25.6912 12.0365C25.9855 12.0365 26.0019 12.0118 25.9419 11.7106C25.8645 11.324 25.7425 10.952 25.5844 10.5935C25.2433 9.82023 24.6842 9.29875 23.9017 9.02115C23.3285 8.81773 22.7388 8.80649 22.1536 8.87842C21.6381 8.94135 21.1509 9.1178 20.7346 9.46958C20.0327 10.0641 19.6677 10.8475 19.4835 11.7409C19.4758 11.7769 19.4726 11.8151 19.4704 11.8522C19.4628 11.9635 19.5042 12.0343 19.6208 12.0365C19.6666 12.0376 19.7112 12.0376 19.757 12.0376C20.7466 12.0376 21.7351 12.0376 22.7247 12.0376L22.7236 12.0388Z" fill="#0C0C0C"/>
<path d="M104.373 14.0655C104.428 14.8938 104.25 15.8974 103.93 16.8685C103.569 17.962 103.016 18.9375 102.21 19.7625C101.674 20.3109 101.086 20.7695 100.42 21.1212C99.9277 21.3809 99.4101 21.591 98.8673 21.7169C98.1851 21.8743 97.493 22.026 96.7944 21.9923C95.2436 21.917 93.7472 21.6023 92.4438 20.6582C91.3735 19.8839 90.5474 18.8982 90.0341 17.644C89.6995 16.8258 89.4859 15.9772 89.3791 15.1017C89.317 14.5904 89.3442 14.0734 89.3562 13.5587C89.3965 11.8953 89.8739 10.3713 90.7752 8.99794C91.8345 7.38405 93.3222 6.4074 95.1629 6.01741C95.637 5.91739 96.1231 5.84433 96.619 5.84883C97.2914 5.85445 97.9617 5.86906 98.6265 5.9792C99.1943 6.07361 99.7338 6.2759 100.258 6.51192C101.566 7.10196 102.555 8.05388 103.281 9.3205C103.836 10.2882 104.149 11.33 104.308 12.4348C104.377 12.9113 104.359 13.3867 104.375 14.0689L104.373 14.0655ZM96.6135 18.6274C97.5551 18.624 98.2341 18.4857 98.8303 18.0991C99.6923 17.5406 100.217 16.7111 100.467 15.7019C100.681 14.8421 100.722 13.9655 100.623 13.0844C100.539 12.346 100.377 11.6312 100.029 10.967C99.1387 9.2688 97.4255 8.63943 95.7449 9.13169C94.691 9.44075 94.012 10.1859 93.5848 11.1974C93.3102 11.847 93.1805 12.5303 93.1195 13.2361C93.0388 14.1633 93.1249 15.0691 93.3756 15.9559C93.5412 16.5437 93.7984 17.0966 94.2257 17.5372C94.9493 18.2823 95.8266 18.6476 96.6135 18.6262V18.6274Z" fill="#D02827"/>
<path d="M6.3147 12.5574C6.3147 9.74767 6.3147 6.93797 6.3147 4.12939C6.3147 4.0732 6.3147 4.017 6.31143 3.96081C6.30489 3.86191 6.25149 3.80571 6.15558 3.80009C6.06512 3.79447 5.97357 3.79335 5.88312 3.79335C4.06634 3.79335 2.25065 3.79335 0.433875 3.79335C0.00229514 3.79335 -0.0173221 3.76188 0.00665454 3.30671C0.0513383 2.45593 0.0480688 1.60403 0.00883423 0.752129C0.00665454 0.71504 0.00338499 0.676829 0.00338499 0.63974C0.00338499 0.390239 0.0382602 0.353151 0.288925 0.348655C0.416438 0.346407 0.54286 0.348655 0.670372 0.348655C5.80138 0.348655 10.9324 0.348655 16.0634 0.348655C16.5473 0.348655 16.5255 0.322806 16.5255 0.821809C16.5255 1.69282 16.5255 2.56382 16.5255 3.43483C16.5255 3.77986 16.5113 3.79447 16.1691 3.7956C14.3621 3.7956 12.5552 3.7956 10.7471 3.7956C10.2763 3.7956 10.3133 3.79335 10.3133 4.23841C10.3133 9.74542 10.3133 15.2513 10.3133 20.7583C10.3133 20.8426 10.3133 20.9269 10.3133 21.0112C10.3079 21.3034 10.2905 21.327 9.9962 21.327C8.87911 21.3293 7.76202 21.3293 6.64492 21.327C6.34194 21.327 6.31034 21.2911 6.31034 20.9606C6.30925 19.1253 6.31034 17.29 6.31034 15.4536C6.31034 14.4893 6.31034 13.5239 6.31034 12.5596H6.31361L6.3147 12.5574Z" fill="#0C0C0C"/>
<path d="M38.0307 10.8547C38.0721 10.7951 38.1114 10.7445 38.1441 10.6894C39.065 9.15086 40.1091 7.69768 41.0703 6.18606C41.1717 6.02647 41.285 5.96128 41.4703 5.96128C42.6778 5.96803 43.8854 5.96465 45.094 5.96465C45.1398 5.96465 45.1856 5.96241 45.2303 5.96803C45.3643 5.98488 45.3948 6.03209 45.3207 6.15122C45.1845 6.3715 45.0395 6.58841 44.887 6.79745C44.2712 7.64373 43.6533 8.48664 43.0331 9.32955C42.122 10.5669 41.2098 11.8043 40.2965 13.0406C40.242 13.1148 40.1777 13.1822 40.1189 13.253C39.9903 13.4092 39.9859 13.4227 40.1036 13.5902C40.387 13.9914 40.6725 14.3904 40.9624 14.7871C41.6131 15.6772 42.2168 16.6011 42.8577 17.4979C43.6816 18.651 44.463 19.8356 45.2858 20.9909C45.3022 21.0134 45.3196 21.0348 45.3338 21.0584C45.4352 21.2281 45.4057 21.2955 45.2194 21.318C45.1474 21.3259 45.0744 21.3225 45.0014 21.3225C43.893 21.3225 42.7857 21.3135 41.6774 21.3292C41.3777 21.3337 41.1978 21.218 41.03 20.9685C40.3259 19.9221 39.6012 18.8904 38.8863 17.8531C38.5866 17.4181 38.2858 16.9832 38.0144 16.5291C37.8814 16.3066 37.8564 16.3089 37.731 16.5201C37.3332 17.1922 36.8581 17.8092 36.4308 18.46C35.8554 19.3366 35.22 20.1694 34.6587 21.055C34.5443 21.2359 34.3994 21.3247 34.1857 21.3247C32.9684 21.3202 31.7521 21.3225 30.5348 21.3225C30.489 21.3225 30.4432 21.3202 30.3996 21.3135C30.2939 21.2966 30.2557 21.2348 30.3092 21.1348C30.3527 21.0539 30.404 20.9752 30.4596 20.901C31.1952 19.9255 31.872 18.905 32.5858 17.9126C33.5591 16.5595 34.5171 15.194 35.4761 13.8296C35.7257 13.4744 35.7453 13.5419 35.4729 13.1631C35.0402 12.5618 34.613 11.9561 34.1803 11.3548C33.558 10.4905 32.9324 9.62851 32.3068 8.76537C31.714 7.9483 31.1211 7.13124 30.5282 6.31418C30.4901 6.26136 30.4519 6.20854 30.4203 6.15234C30.3495 6.02534 30.368 5.98376 30.5042 5.96915C30.5762 5.96128 30.6492 5.96465 30.7222 5.96465C31.9941 5.96465 33.2648 5.97027 34.5367 5.95903C34.7721 5.95679 34.8985 6.02984 35.0282 6.2445C35.4881 7.00762 35.9753 7.75387 36.4646 8.49788C36.955 9.24189 37.4389 9.98815 37.9119 10.7434C37.9359 10.7816 37.9533 10.8277 38.0307 10.8547Z" fill="#0C0C0C"/>
<path d="M81.979 5.86141C82.7866 5.79848 83.5593 5.94346 84.3135 6.14126C85.6366 6.48742 86.746 7.20108 87.5765 8.34182C87.8283 8.68685 88.0691 9.0375 88.2402 9.43311C88.3339 9.65002 88.3285 9.67474 88.1192 9.77477C87.8893 9.88491 87.6517 9.97931 87.4185 10.085C86.7624 10.3817 86.1063 10.6817 85.4502 10.9796C85.4175 10.9942 85.3837 11.0099 85.3499 11.0234C85.1407 11.1088 85.0807 11.0717 84.9783 10.8953C84.4225 9.94447 83.6476 9.27352 82.5577 9.11505C81.6041 8.97569 80.6701 9.04649 79.856 9.68036C79.5105 9.94897 79.2206 10.2704 78.9994 10.6503C78.4959 11.5168 78.1896 12.4462 78.2071 13.4701C78.2136 13.8634 78.1787 14.2591 78.2136 14.649C78.3411 16.0775 78.8054 17.3306 80.0424 18.1432C80.729 18.595 81.493 18.7096 82.2886 18.6433C82.6319 18.6141 82.973 18.5579 83.3032 18.4466C84.089 18.1803 84.6731 17.6599 85.1036 16.9418C85.1276 16.9024 85.1472 16.8586 85.1723 16.8204C85.2758 16.6642 85.3216 16.6451 85.4894 16.7102C85.9232 16.8777 86.3668 17.0227 86.7787 17.2418C87.2332 17.4835 87.7225 17.6284 88.1879 17.8386C88.238 17.8611 88.2882 17.8813 88.3383 17.9049C88.4451 17.9555 88.4833 18.0454 88.4538 18.1589C88.432 18.2387 88.4015 18.3185 88.3645 18.3927C87.8402 19.4267 87.1155 20.2763 86.1553 20.8967C85.3118 21.4418 84.3843 21.7565 83.3991 21.8801C82.9316 21.9385 82.4629 22.0116 81.9899 21.9981C80.6571 21.9588 79.371 21.6924 78.1907 21.0372C76.8132 20.2729 75.7756 19.1603 75.149 17.6689C74.6738 16.5394 74.4449 15.3571 74.4231 14.1231C74.4068 13.1273 74.5517 12.1641 74.8231 11.2178C75.1609 10.0423 75.7113 8.98356 76.5505 8.10468C77.5771 7.03025 78.7978 6.29748 80.2386 6.00864C80.814 5.89288 81.4025 5.79735 81.9779 5.86141H81.979Z" fill="#D02827"/>
<path d="M48.7106 13.1389C48.7106 11.9408 48.7106 10.7416 48.7106 9.54357C48.7106 9.48738 48.7106 9.43119 48.7106 9.37499C48.7029 9.10189 48.6833 9.07829 48.4043 9.07716C47.8866 9.07379 47.369 9.07716 46.8513 9.07604C46.4284 9.07604 46.4219 9.0693 46.4219 8.63997C46.4219 7.89034 46.4219 7.14184 46.4219 6.39221C46.4219 6.31691 46.4241 6.24273 46.4262 6.16743C46.4306 6.03032 46.4993 5.96514 46.6333 5.96738C46.86 5.96963 47.0878 5.96738 47.3145 5.96738C47.6872 5.96738 48.0588 5.96963 48.4316 5.96738C48.6899 5.96514 48.7084 5.94715 48.7095 5.6763C48.7116 4.65582 48.7095 3.63533 48.7106 2.61485C48.7106 2.30391 48.8588 2.14844 49.1552 2.14844C50.0903 2.14844 51.0254 2.14844 51.9605 2.14844C52.0422 2.14844 52.124 2.15069 52.2057 2.15293C52.3158 2.1563 52.3714 2.21699 52.3746 2.32938C52.3768 2.41367 52.379 2.49796 52.379 2.58226C52.379 3.58363 52.379 4.58613 52.379 5.58751C52.379 5.66281 52.379 5.73699 52.3823 5.81229C52.3855 5.91456 52.44 5.96514 52.5381 5.96626C52.6111 5.96738 52.6831 5.96851 52.7561 5.96851C53.7914 5.96851 54.8268 5.96851 55.8611 5.96851C55.9155 5.96851 55.97 5.96851 56.0245 5.96851C56.2774 5.97638 56.3003 5.99548 56.3014 6.26521C56.3035 7.10812 56.3035 7.95103 56.3014 8.79282C56.3014 9.04907 56.273 9.07491 55.9798 9.07491C54.9358 9.07716 53.8917 9.07491 52.8476 9.07604C52.7474 9.07604 52.6482 9.07716 52.5479 9.08053C52.4378 9.08391 52.3823 9.1446 52.3823 9.25811C52.3823 9.33341 52.3801 9.40758 52.3801 9.48288C52.3801 11.7306 52.3823 13.9773 52.3779 16.225C52.3779 16.5768 52.44 16.9174 52.5239 17.25C52.6907 17.9142 53.2683 18.3975 53.9516 18.4458C54.6154 18.493 55.2769 18.4672 55.9145 18.2334C55.957 18.2177 56.0006 18.202 56.0452 18.193C56.1837 18.1649 56.2283 18.193 56.2436 18.3413C56.2643 18.5459 56.2828 18.7515 56.2872 18.9572C56.3003 19.6124 56.3057 20.2676 56.3144 20.9229C56.3166 21.1285 56.2643 21.2072 56.0387 21.2769C55.691 21.3837 55.3368 21.4657 54.9815 21.5421C54.2088 21.7062 53.4307 21.704 52.6515 21.6185C52.2994 21.5803 51.9529 21.4949 51.6139 21.3904C50.4565 21.0341 49.5835 20.3317 49.104 19.1617C48.9362 18.7515 48.8817 18.3143 48.8152 17.8805C48.6942 17.0904 48.7095 16.2947 48.7116 15.499C48.7138 14.7123 48.7116 13.9256 48.7116 13.1389H48.7106Z" fill="#0C0C0C"/>
<path d="M109.973 7.50859C110.091 7.38384 110.196 7.28044 110.293 7.17142C110.718 6.69153 111.243 6.36223 111.82 6.11947C112.242 5.9419 112.69 5.85985 113.142 5.81827C113.778 5.76095 114.412 5.78568 115.031 5.97337C115.235 6.03518 115.265 6.07339 115.239 6.2622C115.121 7.10399 115.009 7.9469 114.882 8.78756C114.84 9.07303 114.834 9.36524 114.742 9.64396C114.661 9.88559 114.657 9.89234 114.444 9.79119C113.839 9.50235 113.2 9.34388 112.539 9.42368C111.35 9.56641 110.686 9.98112 110.272 11.2017C110.163 11.5231 110.129 11.858 110.088 12.1918C110.042 12.5638 110.034 12.9369 110.035 13.3123C110.037 15.8399 110.036 18.3675 110.036 20.8951C110.036 21.1806 109.894 21.3237 109.61 21.3245C108.639 21.3245 107.666 21.3245 106.695 21.3245C106.632 21.3245 106.568 21.3267 106.505 21.3222C106.307 21.3076 106.274 21.2716 106.261 21.066C106.256 20.9918 106.258 20.9165 106.258 20.8412C106.258 16.1602 106.258 11.4793 106.258 6.79829C106.258 6.46787 106.419 6.30229 106.741 6.30154C107.658 6.30154 108.575 6.30154 109.492 6.30154C109.565 6.30154 109.638 6.29817 109.71 6.30379C109.886 6.31727 109.917 6.34087 109.924 6.5207C109.932 6.74547 109.924 6.97025 109.929 7.19502C109.931 7.28606 109.906 7.38046 109.974 7.50746L109.973 7.50859Z" fill="#D02827"/>
</svg>
