<svg width="33" height="32" viewBox="0 0 33 32" fill="none" xmlns="http://www.w3.org/2000/svg">
<rect x="0.333008" width="32" height="32" rx="8" fill="#FF914B"/>
<path d="M14.7 11.102H17.9653C19.598 11.102 19.598 10.2856 19.598 9.46932C19.598 7.83667 18.7817 7.83667 17.9653 7.83667H14.7C13.8837 7.83667 13.0674 7.83667 13.0674 9.46932C13.0674 11.102 13.8837 11.102 14.7 11.102Z" stroke="#9F450C" stroke-miterlimit="10" stroke-linecap="round" stroke-linejoin="round"/>
<path d="M17.9659 24.1634H13.8843C9.80265 24.1634 8.98633 22.5307 8.98633 19.2654V14.3675C8.98633 10.645 10.3496 9.63278 13.068 9.48584" stroke="#9F450C" stroke-miterlimit="10" stroke-linecap="round" stroke-linejoin="round"/>
<path d="M19.5986 9.48584C22.317 9.63278 23.6803 10.6369 23.6803 14.3675V18.4491" stroke="#9F450C" stroke-miterlimit="10" stroke-linecap="round" stroke-linejoin="round"/>
<path d="M18.7822 21.7144V19.2654H21.2312" stroke="#9F450C" stroke-miterlimit="10" stroke-linecap="round" stroke-linejoin="round"/>
<path d="M23.6807 24.1634L18.8154 19.2981" stroke="#9F450C" stroke-miterlimit="10" stroke-linecap="round" stroke-linejoin="round"/>
</svg>
