<svg width="1029" height="363" viewBox="0 0 1029 363" fill="none" xmlns="http://www.w3.org/2000/svg">
<g filter="url(#filter0_d_6386_31182)">
<rect x="8" y="0.722656" width="496.697" height="341.479" rx="9.442" fill="white" shape-rendering="crispEdges"/>
<path d="M68.9759 54.7052H65.5039C65.4049 54.1358 65.2223 53.6315 64.9562 53.192C64.69 52.7464 64.3589 52.3689 63.9628 52.0595C63.5668 51.75 63.115 51.5179 62.6075 51.3632C62.1062 51.2023 61.5646 51.1219 60.9829 51.1219C59.9493 51.1219 59.0334 51.3818 58.235 51.9017C57.4367 52.4153 56.8116 53.1704 56.3598 54.1668C55.908 55.157 55.6821 56.3669 55.6821 57.7966C55.6821 59.251 55.908 60.4764 56.3598 61.4728C56.8178 62.463 57.4428 63.2119 58.235 63.7194C59.0334 64.2207 59.9462 64.4713 60.9736 64.4713C61.543 64.4713 62.0752 64.397 62.5703 64.2485C63.0716 64.0938 63.5203 63.8679 63.9164 63.5708C64.3187 63.2738 64.656 62.9086 64.9283 62.4754C65.2068 62.0422 65.3987 61.5471 65.5039 60.9901L68.9759 61.0086C68.8459 61.9122 68.5643 62.7601 68.1311 63.5523C67.704 64.3444 67.1439 65.0438 66.4508 65.6503C65.7576 66.2506 64.9469 66.721 64.0185 67.0614C63.0902 67.3956 62.0598 67.5627 60.9272 67.5627C59.2562 67.5627 57.7647 67.1759 56.4526 66.4022C55.1406 65.6286 54.107 64.5115 53.352 63.051C52.5969 61.5904 52.2194 59.8389 52.2194 57.7966C52.2194 55.7481 52.6 53.9966 53.3613 52.5422C54.1225 51.0816 55.1591 49.9645 56.4712 49.1909C57.7832 48.4173 59.2686 48.0305 60.9272 48.0305C61.9855 48.0305 62.9695 48.179 63.8793 48.4761C64.7891 48.7732 65.5998 49.2095 66.3115 49.7851C67.0233 50.3544 67.6081 51.0538 68.0661 51.8831C68.5303 52.7062 68.8335 53.6469 68.9759 54.7052ZM75.872 67.5905C74.9685 67.5905 74.1546 67.4296 73.4305 67.1078C72.7126 66.7798 72.1432 66.297 71.7224 65.6596C71.3077 65.0221 71.1004 64.2361 71.1004 63.3016C71.1004 62.4971 71.2489 61.8317 71.546 61.3057C71.8431 60.7796 72.2484 60.3588 72.7621 60.0432C73.2758 59.7275 73.8545 59.4892 74.4981 59.3283C75.1479 59.1612 75.8194 59.0406 76.5126 58.9663C77.3481 58.8796 78.0258 58.8023 78.5456 58.7342C79.0655 58.6599 79.443 58.5485 79.6782 58.4C79.9196 58.2453 80.0403 58.007 80.0403 57.6852V57.6295C80.0403 56.9301 79.8329 56.3886 79.4183 56.0049C79.0036 55.6212 78.4064 55.4293 77.6266 55.4293C76.8035 55.4293 76.1505 55.6088 75.6678 55.9678C75.1913 56.3267 74.8694 56.7507 74.7023 57.2396L71.5646 56.794C71.8121 55.9275 72.2206 55.2034 72.79 54.6217C73.3593 54.0337 74.0556 53.5943 74.8787 53.3034C75.7018 53.0064 76.6116 52.8578 77.608 52.8578C78.295 52.8578 78.9789 52.9383 79.6596 53.0992C80.3404 53.2601 80.9624 53.5262 81.5256 53.8976C82.0888 54.2627 82.5406 54.7609 82.881 55.3922C83.2275 56.0235 83.4008 56.8125 83.4008 57.7594V67.3027H80.1702V65.3439H80.0588C79.8546 65.74 79.5668 66.1114 79.1955 66.4579C78.8303 66.7983 78.3693 67.0737 77.8123 67.2842C77.2614 67.4884 76.6147 67.5905 75.872 67.5905ZM76.7447 65.1211C77.4193 65.1211 78.0041 64.9881 78.4992 64.722C78.9943 64.4497 79.375 64.0907 79.6411 63.6451C79.9134 63.1995 80.0495 62.7137 80.0495 62.1876V60.5073C79.9443 60.594 79.7649 60.6744 79.5111 60.7487C79.2636 60.823 78.9851 60.8879 78.6756 60.9436C78.3662 60.9993 78.0598 61.0489 77.7566 61.0922C77.4533 61.1355 77.1903 61.1726 76.9675 61.2036C76.4662 61.2717 76.0175 61.3831 75.6214 61.5378C75.2253 61.6925 74.9128 61.9091 74.6838 62.1876C74.4548 62.4599 74.3403 62.8127 74.3403 63.2459C74.3403 63.8648 74.5662 64.3321 75.018 64.6477C75.4698 64.9633 76.0453 65.1211 76.7447 65.1211ZM97.8374 56.8125L94.7739 57.1467C94.6873 56.8373 94.5356 56.5464 94.319 56.2741C94.1086 56.0018 93.8239 55.7821 93.465 55.615C93.106 55.4479 92.6666 55.3643 92.1467 55.3643C91.4474 55.3643 90.8594 55.516 90.3829 55.8192C89.9125 56.1225 89.6804 56.5155 89.6866 56.9982C89.6804 57.4129 89.8321 57.7502 90.1415 58.0101C90.4571 58.27 90.977 58.4836 91.7011 58.6507L94.1334 59.1705C95.4825 59.4614 96.4851 59.9225 97.1412 60.5537C97.8034 61.185 98.1376 62.0112 98.1438 63.0324C98.1376 63.9298 97.8745 64.722 97.3547 65.4089C96.841 66.0897 96.1262 66.622 95.2102 67.0057C94.2943 67.3894 93.2422 67.5812 92.0539 67.5812C90.3086 67.5812 88.9037 67.2161 87.8392 66.4858C86.7748 65.7493 86.1404 64.7251 85.9362 63.413L89.2132 63.0974C89.3617 63.741 89.6773 64.2269 90.1601 64.5549C90.6428 64.8829 91.271 65.0469 92.0446 65.0469C92.843 65.0469 93.4835 64.8829 93.9663 64.5549C94.4552 64.2269 94.6996 63.8215 94.6996 63.3387C94.6996 62.9303 94.5418 62.593 94.2262 62.3269C93.9167 62.0607 93.434 61.8565 92.778 61.7142L90.3457 61.2036C88.978 60.9189 87.9661 60.4392 87.3101 59.7647C86.6541 59.0839 86.3292 58.2236 86.3353 57.1839C86.3292 56.3051 86.5674 55.5438 87.0502 54.9002C87.5391 54.2503 88.2168 53.749 89.0832 53.3963C89.9558 53.0373 90.9615 52.8578 92.1003 52.8578C93.7713 52.8578 95.0864 53.2137 96.0457 53.9254C97.0112 54.6371 97.6084 55.5995 97.8374 56.8125ZM107.015 67.5812C105.585 67.5812 104.351 67.2842 103.311 66.69C102.277 66.0897 101.482 65.2418 100.925 64.1464C100.368 63.0448 100.09 61.7482 100.09 60.2567C100.09 58.7899 100.368 57.5026 100.925 56.3948C101.488 55.2808 102.274 54.4143 103.283 53.7955C104.292 53.1704 105.477 52.8578 106.839 52.8578C107.717 52.8578 108.547 53.0002 109.327 53.2849C110.113 53.5634 110.806 53.9966 111.406 54.5845C112.013 55.1725 112.489 55.9213 112.836 56.8311C113.182 57.7347 113.356 58.8116 113.356 60.0617V61.0922H101.668V58.827H110.134C110.128 58.1834 109.989 57.6109 109.716 57.1096C109.444 56.6021 109.064 56.2029 108.575 55.9121C108.092 55.6212 107.529 55.4757 106.885 55.4757C106.198 55.4757 105.595 55.6428 105.075 55.977C104.555 56.3051 104.15 56.7383 103.859 57.2767C103.574 57.809 103.429 58.3938 103.422 59.0313V61.0086C103.422 61.8379 103.574 62.5497 103.877 63.1438C104.18 63.7317 104.604 64.1835 105.149 64.4992C105.694 64.8086 106.331 64.9633 107.061 64.9633C107.55 64.9633 107.993 64.8953 108.389 64.7591C108.785 64.6168 109.128 64.4094 109.419 64.1371C109.71 63.8648 109.93 63.5275 110.078 63.1252L113.216 63.478C113.018 64.3073 112.641 65.0314 112.084 65.6503C111.533 66.263 110.827 66.7395 109.967 67.0799C109.107 67.4141 108.123 67.5812 107.015 67.5812ZM121.571 51.1776V48.2904H136.74V51.1776H130.864V67.3027H127.447V51.1776H121.571ZM139.303 67.3027V53.0435H142.664V67.3027H139.303ZM140.993 51.0197C140.46 51.0197 140.002 50.8434 139.619 50.4906C139.235 50.1316 139.043 49.7015 139.043 49.2002C139.043 48.6927 139.235 48.2626 139.619 47.9098C140.002 47.5509 140.46 47.3714 140.993 47.3714C141.531 47.3714 141.989 47.5509 142.367 47.9098C142.75 48.2626 142.942 48.6927 142.942 49.2002C142.942 49.7015 142.75 50.1316 142.367 50.4906C141.989 50.8434 141.531 51.0197 140.993 51.0197ZM145.907 67.3027V53.0435H149.119V55.4665H149.286C149.583 54.6495 150.075 54.0121 150.762 53.5541C151.449 53.0899 152.269 52.8578 153.222 52.8578C154.188 52.8578 155.001 53.093 155.664 53.5634C156.332 54.0275 156.802 54.6619 157.075 55.4665H157.223C157.539 54.6743 158.071 54.043 158.82 53.5727C159.575 53.0961 160.469 52.8578 161.503 52.8578C162.815 52.8578 163.886 53.2725 164.715 54.1018C165.544 54.9311 165.959 56.1411 165.959 57.7316V67.3027H162.589V58.2515C162.589 57.3665 162.354 56.7197 161.883 56.3112C161.413 55.8966 160.838 55.6893 160.157 55.6893C159.346 55.6893 158.712 55.943 158.254 56.4505C157.802 56.9518 157.576 57.6047 157.576 58.4093V67.3027H154.28V58.1122C154.28 57.3757 154.058 56.7878 153.612 56.3484C153.173 55.909 152.597 55.6893 151.885 55.6893C151.403 55.6893 150.963 55.813 150.567 56.0606C150.171 56.302 149.855 56.6454 149.62 57.091C149.385 57.5305 149.267 58.0441 149.267 58.6321V67.3027H145.907ZM175.468 67.5812C174.039 67.5812 172.804 67.2842 171.764 66.69C170.731 66.0897 169.935 65.2418 169.378 64.1464C168.821 63.0448 168.543 61.7482 168.543 60.2567C168.543 58.7899 168.821 57.5026 169.378 56.3948C169.942 55.2808 170.728 54.4143 171.736 53.7955C172.745 53.1704 173.93 52.8578 175.292 52.8578C176.171 52.8578 177 53.0002 177.78 53.2849C178.566 53.5634 179.259 53.9966 179.859 54.5845C180.466 55.1725 180.942 55.9213 181.289 56.8311C181.636 57.7347 181.809 58.8116 181.809 60.0617V61.0922H170.121V58.827H178.588C178.581 58.1834 178.442 57.6109 178.17 57.1096C177.897 56.6021 177.517 56.2029 177.028 55.9121C176.545 55.6212 175.982 55.4757 175.338 55.4757C174.651 55.4757 174.048 55.6428 173.528 55.977C173.008 56.3051 172.603 56.7383 172.312 57.2767C172.027 57.809 171.882 58.3938 171.876 59.0313V61.0086C171.876 61.8379 172.027 62.5497 172.331 63.1438C172.634 63.7317 173.058 64.1835 173.602 64.4992C174.147 64.8086 174.784 64.9633 175.515 64.9633C176.004 64.9633 176.446 64.8953 176.842 64.7591C177.238 64.6168 177.582 64.4094 177.873 64.1371C178.164 63.8648 178.383 63.5275 178.532 63.1252L181.67 63.478C181.472 64.3073 181.094 65.0314 180.537 65.6503C179.986 66.263 179.281 66.7395 178.42 67.0799C177.56 67.4141 176.576 67.5812 175.468 67.5812ZM187.8 48.2904V67.3027H184.439V48.2904H187.8ZM191.043 67.3027V53.0435H194.404V67.3027H191.043ZM192.733 51.0197C192.2 51.0197 191.742 50.8434 191.359 50.4906C190.975 50.1316 190.783 49.7015 190.783 49.2002C190.783 48.6927 190.975 48.2626 191.359 47.9098C191.742 47.5509 192.2 47.3714 192.733 47.3714C193.271 47.3714 193.729 47.5509 194.107 47.9098C194.49 48.2626 194.682 48.6927 194.682 49.2002C194.682 49.7015 194.49 50.1316 194.107 50.4906C193.729 50.8434 193.271 51.0197 192.733 51.0197ZM201.007 58.9477V67.3027H197.647V53.0435H200.859V55.4665H201.026C201.354 54.6681 201.877 54.0337 202.595 53.5634C203.319 53.093 204.213 52.8578 205.278 52.8578C206.262 52.8578 207.119 53.0683 207.849 53.4891C208.586 53.91 209.155 54.5196 209.557 55.3179C209.966 56.1163 210.167 57.0849 210.161 58.2236V67.3027H206.8V58.7435C206.8 57.7904 206.553 57.0446 206.058 56.5062C205.569 55.9678 204.891 55.6985 204.024 55.6985C203.437 55.6985 202.914 55.8285 202.456 56.0884C202.004 56.3422 201.648 56.7104 201.388 57.1932C201.134 57.6759 201.007 58.2608 201.007 58.9477ZM219.677 67.5812C218.248 67.5812 217.013 67.2842 215.973 66.69C214.94 66.0897 214.144 65.2418 213.587 64.1464C213.03 63.0448 212.752 61.7482 212.752 60.2567C212.752 58.7899 213.03 57.5026 213.587 56.3948C214.15 55.2808 214.936 54.4143 215.945 53.7955C216.954 53.1704 218.139 52.8578 219.501 52.8578C220.38 52.8578 221.209 53.0002 221.989 53.2849C222.775 53.5634 223.468 53.9966 224.068 54.5845C224.675 55.1725 225.151 55.9213 225.498 56.8311C225.844 57.7347 226.018 58.8116 226.018 60.0617V61.0922H214.33V58.827H222.796C222.79 58.1834 222.651 57.6109 222.379 57.1096C222.106 56.6021 221.726 56.2029 221.237 55.9121C220.754 55.6212 220.191 55.4757 219.547 55.4757C218.86 55.4757 218.257 55.6428 217.737 55.977C217.217 56.3051 216.812 56.7383 216.521 57.2767C216.236 57.809 216.091 58.3938 216.085 59.0313V61.0086C216.085 61.8379 216.236 62.5497 216.539 63.1438C216.843 63.7317 217.267 64.1835 217.811 64.4992C218.356 64.8086 218.993 64.9633 219.724 64.9633C220.213 64.9633 220.655 64.8953 221.051 64.7591C221.447 64.6168 221.791 64.4094 222.082 64.1371C222.372 63.8648 222.592 63.5275 222.741 63.1252L225.878 63.478C225.68 64.3073 225.303 65.0314 224.746 65.6503C224.195 66.263 223.49 66.7395 222.629 67.0799C221.769 67.4141 220.785 67.5812 219.677 67.5812Z" fill="#232321"/>
<rect x="50.4805" y="181.266" width="428.891" height="123.327" rx="13.071" fill="#001580" fill-opacity="0.04"/>
<path d="M70.7243 200.755V199.722H77.9346V200.755H74.9116V209.336H73.7474V200.755H70.7243ZM80.7218 209.505C80.2649 209.505 79.8502 209.419 79.4778 209.247C79.1054 209.071 78.8097 208.82 78.5906 208.491C78.3716 208.159 78.262 207.759 78.262 207.289C78.262 206.876 78.3434 206.541 78.5061 206.285C78.6688 206.025 78.8863 205.822 79.1586 205.674C79.4309 205.527 79.7313 205.418 80.0599 205.346C80.3916 205.271 80.7249 205.211 81.0597 205.168C81.4979 205.111 81.8531 205.069 82.1253 205.041C82.4007 205.009 82.601 204.958 82.7262 204.886C82.8545 204.814 82.9186 204.689 82.9186 204.51V204.473C82.9186 204.01 82.7919 203.65 82.5384 203.393C82.2881 203.136 81.9078 203.008 81.3977 203.008C80.8689 203.008 80.4542 203.124 80.1538 203.356C79.8533 203.587 79.6421 203.834 79.5201 204.097L78.4686 203.722C78.6563 203.284 78.9067 202.942 79.2196 202.698C79.5357 202.451 79.8799 202.279 80.2524 202.182C80.6279 202.082 80.9972 202.032 81.3602 202.032C81.5918 202.032 81.8578 202.06 82.1582 202.116C82.4617 202.169 82.7543 202.281 83.036 202.45C83.3208 202.619 83.5571 202.874 83.7448 203.215C83.9326 203.556 84.0265 204.013 84.0265 204.585V209.336H82.9186V208.36H82.8623C82.7872 208.516 82.662 208.683 82.4868 208.862C82.3115 209.04 82.0784 209.192 81.7873 209.317C81.4963 209.442 81.1411 209.505 80.7218 209.505ZM80.8908 208.51C81.3289 208.51 81.6982 208.424 81.9986 208.252C82.3021 208.079 82.5306 207.857 82.6839 207.585C82.8404 207.313 82.9186 207.026 82.9186 206.726V205.712C82.8717 205.768 82.7684 205.82 82.6088 205.867C82.4524 205.911 82.2708 205.95 82.0643 205.984C81.8609 206.016 81.6622 206.044 81.4681 206.069C81.2772 206.091 81.1223 206.109 81.0034 206.125C80.7155 206.163 80.4464 206.224 80.196 206.308C79.9488 206.39 79.7485 206.513 79.5952 206.679C79.445 206.842 79.3698 207.064 79.3698 207.346C79.3698 207.731 79.5122 208.022 79.797 208.219C80.0849 208.413 80.4495 208.51 80.8908 208.51ZM91.1558 203.74L90.1606 204.022C90.098 203.856 90.0057 203.695 89.8836 203.539C89.7647 203.379 89.602 203.248 89.3954 203.144C89.1889 203.041 88.9245 202.989 88.6021 202.989C88.1609 202.989 87.7932 203.091 87.499 203.295C87.2079 203.495 87.0624 203.75 87.0624 204.06C87.0624 204.335 87.1626 204.553 87.3629 204.712C87.5631 204.872 87.8761 205.005 88.3017 205.111L89.372 205.374C90.0166 205.531 90.497 205.77 90.8131 206.092C91.1292 206.411 91.2872 206.823 91.2872 207.327C91.2872 207.74 91.1683 208.109 90.9304 208.435C90.6957 208.76 90.3671 209.017 89.9447 209.205C89.5222 209.392 89.0309 209.486 88.4707 209.486C87.7353 209.486 87.1266 209.327 86.6446 209.007C86.1627 208.688 85.8576 208.222 85.7293 207.608L86.7808 207.346C86.8809 207.734 87.0703 208.025 87.3488 208.219C87.6304 208.413 87.9981 208.51 88.4519 208.51C88.9683 208.51 89.3782 208.4 89.6818 208.181C89.9885 207.959 90.1418 207.693 90.1418 207.383C90.1418 207.133 90.0542 206.923 89.8789 206.754C89.7037 206.582 89.4346 206.454 89.0715 206.369L87.8698 206.088C87.2095 205.931 86.7244 205.689 86.4146 205.36C86.1079 205.028 85.9546 204.614 85.9546 204.116C85.9546 203.709 86.0688 203.349 86.2973 203.036C86.5289 202.723 86.8434 202.478 87.2408 202.299C87.6414 202.121 88.0951 202.032 88.6021 202.032C89.3156 202.032 89.8758 202.188 90.2826 202.501C90.6926 202.814 90.9836 203.227 91.1558 203.74ZM93.9875 206.707L93.9687 205.336H94.1941L97.3485 202.126H98.7192L95.3582 205.524H95.2643L93.9875 206.707ZM92.9548 209.336V199.722H94.0626V209.336H92.9548ZM97.5363 209.336L94.7198 205.768L95.5084 204.999L98.9446 209.336H97.5363Z" fill="#0B0B1C"/>
<path d="M70.0859 229.177C70.0859 228.199 70.8786 227.406 71.8563 227.406H261.929C262.907 227.406 263.7 228.199 263.7 229.177V232.988C263.7 233.966 262.907 234.759 261.929 234.759H71.8563C70.8786 234.759 70.0859 233.966 70.0859 232.988V229.177Z" fill="#DDDCDC"/>
<path d="M78.9861 259.49H77.8219C77.7531 259.155 77.6326 258.861 77.4605 258.608C77.2915 258.354 77.085 258.141 76.8409 257.969C76.5999 257.794 76.3323 257.663 76.0382 257.575C75.744 257.487 75.4373 257.444 75.1181 257.444C74.536 257.444 74.0087 257.591 73.5362 257.885C73.0667 258.179 72.6928 258.612 72.4142 259.185C72.1389 259.758 72.0012 260.46 72.0012 261.293C72.0012 262.125 72.1389 262.828 72.4142 263.4C72.6928 263.973 73.0667 264.407 73.5362 264.701C74.0087 264.995 74.536 265.142 75.1181 265.142C75.4373 265.142 75.744 265.098 76.0382 265.011C76.3323 264.923 76.5999 264.793 76.8409 264.621C77.085 264.446 77.2915 264.231 77.4605 263.978C77.6326 263.721 77.7531 263.427 77.8219 263.095H78.9861C78.8985 263.587 78.7389 264.026 78.5073 264.414C78.2757 264.802 77.9878 265.133 77.6436 265.405C77.2993 265.674 76.9128 265.879 76.4841 266.02C76.0585 266.161 75.6032 266.231 75.1181 266.231C74.2982 266.231 73.569 266.031 72.9306 265.63C72.2922 265.23 71.7899 264.66 71.4238 263.922C71.0576 263.183 70.8746 262.307 70.8746 261.293C70.8746 260.279 71.0576 259.403 71.4238 258.664C71.7899 257.925 72.2922 257.356 72.9306 256.955C73.569 256.555 74.2982 256.354 75.1181 256.354C75.6032 256.354 76.0585 256.425 76.4841 256.566C76.9128 256.707 77.2993 256.913 77.6436 257.185C77.9878 257.454 78.2757 257.783 78.5073 258.171C78.7389 258.556 78.8985 258.996 78.9861 259.49ZM83.6462 266.25C82.9953 266.25 82.4242 266.095 81.9329 265.785C81.4447 265.475 81.0629 265.042 80.7875 264.485C80.5152 263.928 80.3791 263.277 80.3791 262.532C80.3791 261.781 80.5152 261.125 80.7875 260.565C81.0629 260.005 81.4447 259.57 81.9329 259.26C82.4242 258.95 82.9953 258.795 83.6462 258.795C84.2972 258.795 84.8667 258.95 85.3549 259.26C85.8462 259.57 86.228 260.005 86.5003 260.565C86.7757 261.125 86.9134 261.781 86.9134 262.532C86.9134 263.277 86.7757 263.928 86.5003 264.485C86.228 265.042 85.8462 265.475 85.3549 265.785C84.8667 266.095 84.2972 266.25 83.6462 266.25ZM83.6462 265.255C84.1407 265.255 84.5475 265.128 84.8667 264.874C85.1859 264.621 85.4222 264.288 85.5755 263.875C85.7289 263.461 85.8056 263.014 85.8056 262.532C85.8056 262.05 85.7289 261.601 85.5755 261.185C85.4222 260.769 85.1859 260.432 84.8667 260.176C84.5475 259.919 84.1407 259.791 83.6462 259.791C83.1518 259.791 82.745 259.919 82.4258 260.176C82.1066 260.432 81.8703 260.769 81.7169 261.185C81.5636 261.601 81.4869 262.05 81.4869 262.532C81.4869 263.014 81.5636 263.461 81.7169 263.875C81.8703 264.288 82.1066 264.621 82.4258 264.874C82.745 265.128 83.1518 265.255 83.6462 265.255ZM88.6045 266.1V258.889H89.6747V260.016H89.7686C89.9188 259.631 90.1614 259.332 90.4962 259.119C90.8311 258.903 91.2332 258.795 91.7026 258.795C92.1783 258.795 92.5742 258.903 92.8902 259.119C93.2095 259.332 93.4582 259.631 93.6366 260.016H93.7117C93.8964 259.644 94.1733 259.348 94.5426 259.129C94.9119 258.907 95.3547 258.795 95.8711 258.795C96.5157 258.795 97.043 258.997 97.453 259.401C97.8629 259.802 98.0679 260.426 98.0679 261.274V266.1H96.9601V261.274C96.9601 260.742 96.8146 260.362 96.5235 260.133C96.2325 259.905 95.8898 259.791 95.4955 259.791C94.9885 259.791 94.5958 259.944 94.3173 260.251C94.0388 260.554 93.8995 260.939 93.8995 261.405V266.1H92.7729V261.161C92.7729 260.751 92.6399 260.421 92.3739 260.171C92.1079 259.917 91.7652 259.791 91.3459 259.791C91.058 259.791 90.7888 259.867 90.5385 260.021C90.2912 260.174 90.091 260.387 89.9376 260.659C89.7874 260.928 89.7123 261.24 89.7123 261.593V266.1H88.6045ZM100.093 268.803V258.889H101.164V260.035H101.295C101.377 259.91 101.489 259.75 101.633 259.556C101.78 259.359 101.99 259.184 102.262 259.03C102.538 258.874 102.91 258.795 103.379 258.795C103.987 258.795 104.522 258.947 104.985 259.251C105.448 259.554 105.809 259.985 106.069 260.542C106.329 261.099 106.459 261.756 106.459 262.513C106.459 263.277 106.329 263.939 106.069 264.499C105.809 265.056 105.45 265.488 104.989 265.794C104.529 266.098 103.999 266.25 103.398 266.25C102.935 266.25 102.564 266.173 102.286 266.02C102.007 265.863 101.793 265.687 101.643 265.489C101.492 265.289 101.377 265.123 101.295 264.992H101.201V268.803H100.093ZM101.183 262.494C101.183 263.039 101.262 263.519 101.422 263.936C101.582 264.349 101.815 264.673 102.121 264.907C102.428 265.139 102.804 265.255 103.248 265.255C103.711 265.255 104.098 265.133 104.407 264.889C104.72 264.641 104.955 264.31 105.112 263.893C105.271 263.474 105.351 263.008 105.351 262.494C105.351 261.988 105.273 261.531 105.116 261.124C104.963 260.714 104.73 260.39 104.417 260.152C104.107 259.911 103.717 259.791 103.248 259.791C102.797 259.791 102.419 259.905 102.112 260.133C101.805 260.359 101.574 260.675 101.417 261.082C101.261 261.485 101.183 261.956 101.183 262.494ZM109.256 256.486V266.1H108.149V256.486H109.256ZM114.309 266.25C113.614 266.25 113.015 266.096 112.511 265.79C112.01 265.48 111.624 265.048 111.351 264.494C111.082 263.937 110.948 263.289 110.948 262.551C110.948 261.812 111.082 261.161 111.351 260.598C111.624 260.032 112.002 259.59 112.487 259.274C112.975 258.955 113.545 258.795 114.196 258.795C114.571 258.795 114.942 258.858 115.308 258.983C115.675 259.108 116.008 259.312 116.308 259.593C116.609 259.872 116.848 260.241 117.027 260.701C117.205 261.161 117.294 261.728 117.294 262.401V262.87H111.736V261.912H116.168C116.168 261.506 116.086 261.143 115.923 260.823C115.764 260.504 115.535 260.252 115.238 260.068C114.944 259.883 114.597 259.791 114.196 259.791C113.755 259.791 113.373 259.9 113.051 260.119C112.731 260.335 112.486 260.617 112.314 260.964C112.141 261.312 112.055 261.684 112.055 262.081V262.72C112.055 263.264 112.149 263.726 112.337 264.105C112.528 264.48 112.792 264.766 113.13 264.964C113.468 265.158 113.861 265.255 114.309 265.255C114.6 265.255 114.863 265.214 115.097 265.133C115.335 265.048 115.54 264.923 115.712 264.757C115.884 264.588 116.017 264.378 116.111 264.128L117.181 264.428C117.069 264.791 116.879 265.111 116.613 265.386C116.347 265.658 116.019 265.871 115.628 266.025C115.236 266.175 114.797 266.25 114.309 266.25ZM122.115 258.889V259.828H118.378V258.889H122.115ZM119.468 257.162H120.575V264.034C120.575 264.347 120.621 264.582 120.711 264.738C120.805 264.892 120.924 264.995 121.068 265.048C121.215 265.098 121.37 265.123 121.533 265.123C121.655 265.123 121.755 265.117 121.833 265.104C121.912 265.089 121.974 265.076 122.021 265.067L122.246 266.062C122.171 266.09 122.067 266.118 121.932 266.147C121.797 266.178 121.627 266.193 121.42 266.193C121.107 266.193 120.801 266.126 120.5 265.992C120.203 265.857 119.956 265.652 119.759 265.377C119.565 265.101 119.468 264.754 119.468 264.335V257.162ZM126.727 266.25C126.032 266.25 125.433 266.096 124.929 265.79C124.428 265.48 124.042 265.048 123.77 264.494C123.501 263.937 123.366 263.289 123.366 262.551C123.366 261.812 123.501 261.161 123.77 260.598C124.042 260.032 124.421 259.59 124.906 259.274C125.394 258.955 125.963 258.795 126.614 258.795C126.99 258.795 127.361 258.858 127.727 258.983C128.093 259.108 128.426 259.312 128.727 259.593C129.027 259.872 129.267 260.241 129.445 260.701C129.623 261.161 129.713 261.728 129.713 262.401V262.87H124.155V261.912H128.586C128.586 261.506 128.505 261.143 128.342 260.823C128.182 260.504 127.954 260.252 127.656 260.068C127.362 259.883 127.015 259.791 126.614 259.791C126.173 259.791 125.791 259.9 125.469 260.119C125.15 260.335 124.904 260.617 124.732 260.964C124.56 261.312 124.474 261.684 124.474 262.081V262.72C124.474 263.264 124.568 263.726 124.755 264.105C124.946 264.48 125.211 264.766 125.549 264.964C125.887 265.158 126.28 265.255 126.727 265.255C127.018 265.255 127.281 265.214 127.516 265.133C127.754 265.048 127.958 264.923 128.131 264.757C128.303 264.588 128.436 264.378 128.53 264.128L129.6 264.428C129.487 264.791 129.298 265.111 129.032 265.386C128.766 265.658 128.437 265.871 128.046 266.025C127.655 266.175 127.215 266.25 126.727 266.25Z" fill="#0B0B1C"/>
<rect x="70.0859" y="284.17" width="389.678" height="7.35241" rx="1.77038" fill="#4C64D9"/>
<path d="M50.4805 135.516L479.372 135.516" stroke="#DDDCDC" stroke-width="0.816935"/>
<path d="M51.1189 155.007V153.974H58.3291V155.007H55.3061V163.588H54.1419V155.007H51.1189ZM61.8592 163.738C61.2082 163.738 60.6371 163.583 60.1458 163.273C59.6576 162.964 59.2758 162.53 59.0004 161.973C58.7281 161.416 58.592 160.765 58.592 160.02C58.592 159.269 58.7281 158.614 59.0004 158.053C59.2758 157.493 59.6576 157.058 60.1458 156.748C60.6371 156.439 61.2082 156.284 61.8592 156.284C62.5101 156.284 63.0796 156.439 63.5678 156.748C64.0592 157.058 64.441 157.493 64.7132 158.053C64.9886 158.614 65.1263 159.269 65.1263 160.02C65.1263 160.765 64.9886 161.416 64.7132 161.973C64.441 162.53 64.0592 162.964 63.5678 163.273C63.0796 163.583 62.5101 163.738 61.8592 163.738ZM61.8592 162.743C62.3536 162.743 62.7604 162.616 63.0796 162.363C63.3988 162.109 63.6351 161.776 63.7885 161.363C63.9418 160.95 64.0185 160.502 64.0185 160.02C64.0185 159.538 63.9418 159.089 63.7885 158.673C63.6351 158.257 63.3988 157.92 63.0796 157.664C62.7604 157.407 62.3536 157.279 61.8592 157.279C61.3647 157.279 60.9579 157.407 60.6387 157.664C60.3195 157.92 60.0832 158.257 59.9298 158.673C59.7765 159.089 59.6998 159.538 59.6998 160.02C59.6998 160.502 59.7765 160.95 59.9298 161.363C60.0832 161.776 60.3195 162.109 60.6387 162.363C60.9579 162.616 61.3647 162.743 61.8592 162.743ZM69.54 163.738C68.9391 163.738 68.4087 163.586 67.9487 163.283C67.4886 162.976 67.1288 162.544 66.869 161.987C66.6093 161.427 66.4794 160.765 66.4794 160.002C66.4794 159.244 66.6093 158.587 66.869 158.03C67.1288 157.473 67.4902 157.043 67.9534 156.739C68.4165 156.436 68.9517 156.284 69.5588 156.284C70.0282 156.284 70.399 156.362 70.6713 156.518C70.9467 156.672 71.1564 156.847 71.3003 157.044C71.4474 157.238 71.5616 157.398 71.643 157.523H71.7369V153.974H72.8447V163.588H71.7744V162.48H71.643C71.5616 162.612 71.4458 162.777 71.2956 162.978C71.1454 163.175 70.931 163.352 70.6525 163.508C70.374 163.661 70.0032 163.738 69.54 163.738ZM69.6902 162.743C70.1346 162.743 70.5101 162.627 70.8168 162.396C71.1235 162.161 71.3566 161.837 71.5162 161.424C71.6759 161.008 71.7557 160.527 71.7557 159.983C71.7557 159.444 71.6774 158.974 71.5209 158.57C71.3645 158.163 71.1329 157.847 70.8262 157.622C70.5195 157.393 70.1409 157.279 69.6902 157.279C69.2208 157.279 68.8296 157.399 68.5167 157.64C68.2069 157.878 67.9737 158.202 67.8172 158.612C67.6639 159.019 67.5872 159.476 67.5872 159.983C67.5872 160.496 67.6655 160.962 67.8219 161.382C67.9815 161.798 68.2162 162.13 68.5261 162.377C68.839 162.621 69.2271 162.743 69.6902 162.743ZM77.1493 163.757C76.6924 163.757 76.2777 163.671 75.9053 163.499C75.5329 163.323 75.2372 163.072 75.0181 162.743C74.799 162.411 74.6895 162.011 74.6895 161.541C74.6895 161.128 74.7709 160.793 74.9336 160.537C75.0963 160.277 75.3138 160.074 75.5861 159.926C75.8584 159.779 76.1588 159.67 76.4874 159.598C76.8191 159.523 77.1524 159.463 77.4872 159.419C77.9254 159.363 78.2806 159.321 78.5528 159.293C78.8282 159.261 79.0285 159.21 79.1537 159.138C79.282 159.066 79.3461 158.941 79.3461 158.762V158.725C79.3461 158.262 79.2194 157.902 78.9659 157.645C78.7156 157.388 78.3353 157.26 77.8252 157.26C77.2963 157.26 76.8817 157.376 76.5813 157.608C76.2808 157.839 76.0696 158.086 75.9476 158.349L74.8961 157.974C75.0838 157.536 75.3342 157.194 75.6471 156.95C75.9632 156.703 76.3074 156.531 76.6798 156.434C77.0554 156.334 77.4247 156.284 77.7877 156.284C78.0192 156.284 78.2853 156.312 78.5857 156.368C78.8892 156.421 79.1818 156.533 79.4635 156.702C79.7483 156.871 79.9845 157.126 80.1723 157.467C80.3601 157.808 80.454 158.265 80.454 158.837V163.588H79.3461V162.612H79.2898C79.2147 162.768 79.0895 162.935 78.9143 163.114C78.739 163.292 78.5059 163.444 78.2148 163.569C77.9238 163.694 77.5686 163.757 77.1493 163.757ZM77.3183 162.762C77.7564 162.762 78.1257 162.676 78.4261 162.504C78.7296 162.331 78.9581 162.109 79.1114 161.837C79.2679 161.565 79.3461 161.278 79.3461 160.978V159.964C79.2992 160.02 79.1959 160.072 79.0363 160.119C78.8798 160.163 78.6983 160.202 78.4918 160.236C78.2884 160.268 78.0897 160.296 77.8956 160.321C77.7047 160.343 77.5498 160.361 77.4309 160.377C77.143 160.415 76.8739 160.476 76.6235 160.56C76.3763 160.642 76.176 160.765 76.0227 160.931C75.8724 161.094 75.7973 161.316 75.7973 161.598C75.7973 161.982 75.9397 162.274 76.2245 162.471C76.5124 162.665 76.877 162.762 77.3183 162.762ZM82.9313 166.292C82.7435 166.292 82.5761 166.276 82.429 166.245C82.282 166.217 82.1802 166.188 82.1239 166.16L82.4056 165.184C82.6747 165.253 82.9125 165.278 83.1191 165.259C83.3256 165.24 83.5087 165.148 83.6683 164.982C83.831 164.819 83.9797 164.555 84.1142 164.189L84.3208 163.625L81.6545 156.378H82.8562L84.8465 162.123H84.9216L86.912 156.378H88.1137L85.0531 164.639C84.9154 165.012 84.7448 165.32 84.5414 165.564C84.338 165.811 84.1017 165.994 83.8326 166.113C83.5666 166.232 83.2662 166.292 82.9313 166.292Z" fill="#63636E"/>
<rect x="53.7461" y="95.4863" width="73.5242" height="16.3387" rx="8.16934" fill="#001166" fill-opacity="0.1"/>
<rect x="133.805" y="95.4863" width="73.5242" height="16.3387" rx="8.16934" fill="#001166" fill-opacity="0.1"/>
<rect x="213.867" y="95.4863" width="73.5242" height="16.3387" rx="8.16934" fill="#001166" fill-opacity="0.1"/>
<rect x="293.926" y="95.4863" width="73.5242" height="16.3387" rx="8.16934" fill="#001166" fill-opacity="0.1"/>
</g>
<g filter="url(#filter1_d_6386_31182)">
<rect x="524.305" y="0.722656" width="496.697" height="341.479" rx="9.442" fill="white" shape-rendering="crispEdges"/>
<path d="M585.185 71.8595H581.713C581.614 71.2901 581.431 70.7857 581.165 70.3463C580.899 69.9007 580.568 69.5232 580.172 69.2138C579.776 68.9043 579.324 68.6722 578.817 68.5175C578.315 68.3566 577.774 68.2762 577.192 68.2762C576.158 68.2762 575.243 68.5361 574.444 69.056C573.646 69.5696 573.021 70.3247 572.569 71.3211C572.117 72.3113 571.891 73.5212 571.891 74.9509C571.891 76.4053 572.117 77.6307 572.569 78.6271C573.027 79.6173 573.652 80.3662 574.444 80.8737C575.243 81.375 576.155 81.6256 577.183 81.6256C577.752 81.6256 578.284 81.5513 578.779 81.4028C579.281 81.2481 579.729 81.0222 580.126 80.7251C580.528 80.4281 580.865 80.0629 581.137 79.6297C581.416 79.1965 581.608 78.7014 581.713 78.1444L585.185 78.1629C585.055 79.0665 584.773 79.9144 584.34 80.7066C583.913 81.4987 583.353 82.1981 582.66 82.8046C581.967 83.4049 581.156 83.8753 580.228 84.2157C579.299 84.5499 578.269 84.717 577.136 84.717C575.465 84.717 573.974 84.3302 572.662 83.5565C571.35 82.7829 570.316 81.6658 569.561 80.2053C568.806 78.7447 568.429 76.9932 568.429 74.9509C568.429 72.9024 568.809 71.1509 569.57 69.6965C570.332 68.2359 571.368 67.1188 572.68 66.3452C573.992 65.5716 575.478 65.1848 577.136 65.1848C578.195 65.1848 579.179 65.3333 580.088 65.6304C580.998 65.9275 581.809 66.3638 582.521 66.9393C583.232 67.5087 583.817 68.2081 584.275 69.0374C584.739 69.8605 585.043 70.8012 585.185 71.8595ZM592.081 84.7448C591.178 84.7448 590.364 84.5839 589.64 84.2621C588.922 83.9341 588.352 83.4513 587.931 82.8139C587.517 82.1764 587.31 81.3904 587.31 80.4559C587.31 79.6513 587.458 78.986 587.755 78.46C588.052 77.9339 588.458 77.5131 588.971 77.1975C589.485 76.8818 590.064 76.6435 590.707 76.4826C591.357 76.3155 592.029 76.1948 592.722 76.1206C593.557 76.0339 594.235 75.9566 594.755 75.8885C595.275 75.8142 595.652 75.7028 595.887 75.5543C596.129 75.3996 596.249 75.1613 596.249 74.8395V74.7838C596.249 74.0844 596.042 73.5429 595.627 73.1592C595.213 72.7755 594.616 72.5836 593.836 72.5836C593.013 72.5836 592.36 72.7631 591.877 73.1221C591.4 73.481 591.079 73.905 590.911 74.3939L587.774 73.9483C588.021 73.0818 588.43 72.3577 588.999 71.776C589.568 71.188 590.265 70.7486 591.088 70.4577C591.911 70.1607 592.821 70.0121 593.817 70.0121C594.504 70.0121 595.188 70.0926 595.869 70.2535C596.55 70.4144 597.172 70.6805 597.735 71.0519C598.298 71.417 598.75 71.9152 599.09 72.5465C599.437 73.1778 599.61 73.9668 599.61 74.9137V84.457H596.379V82.4982H596.268C596.064 82.8943 595.776 83.2657 595.405 83.6122C595.039 83.9526 594.578 84.228 594.021 84.4385C593.471 84.6427 592.824 84.7448 592.081 84.7448ZM592.954 82.2754C593.628 82.2754 594.213 82.1424 594.708 81.8763C595.203 81.6039 595.584 81.245 595.85 80.7994C596.123 80.3538 596.259 79.868 596.259 79.3419V77.6616C596.153 77.7483 595.974 77.8287 595.72 77.903C595.473 77.9773 595.194 78.0422 594.885 78.0979C594.575 78.1536 594.269 78.2031 593.966 78.2465C593.662 78.2898 593.399 78.3269 593.177 78.3579C592.675 78.4259 592.227 78.5373 591.83 78.6921C591.434 78.8468 591.122 79.0634 590.893 79.3419C590.664 79.6142 590.549 79.967 590.549 80.4002C590.549 81.0191 590.775 81.4864 591.227 81.802C591.679 82.1176 592.254 82.2754 592.954 82.2754ZM614.047 73.9668L610.983 74.301C610.896 73.9916 610.745 73.7007 610.528 73.4284C610.318 73.1561 610.033 72.9364 609.674 72.7693C609.315 72.6022 608.876 72.5186 608.356 72.5186C607.656 72.5186 607.069 72.6703 606.592 72.9735C606.122 73.2768 605.89 73.6698 605.896 74.1525C605.89 74.5672 606.041 74.9045 606.351 75.1644C606.666 75.4243 607.186 75.6378 607.91 75.8049L610.342 76.3248C611.692 76.6157 612.694 77.0768 613.35 77.708C614.012 78.3393 614.347 79.1655 614.353 80.1867C614.347 81.0841 614.084 81.8763 613.564 82.5632C613.05 83.244 612.335 83.7763 611.419 84.16C610.503 84.5437 609.451 84.7355 608.263 84.7355C606.518 84.7355 605.113 84.3704 604.048 83.6401C602.984 82.9036 602.35 81.8794 602.145 80.5673L605.422 80.2517C605.571 80.8953 605.886 81.3811 606.369 81.7092C606.852 82.0372 607.48 82.2012 608.254 82.2012C609.052 82.2012 609.693 82.0372 610.175 81.7092C610.664 81.3811 610.909 80.9758 610.909 80.493C610.909 80.0846 610.751 79.7473 610.435 79.4812C610.126 79.215 609.643 79.0108 608.987 78.8685L606.555 78.3579C605.187 78.0732 604.175 77.5935 603.519 76.919C602.863 76.2382 602.538 75.3779 602.544 74.3382C602.538 73.4594 602.777 72.6981 603.259 72.0545C603.748 71.4046 604.426 70.9033 605.292 70.5506C606.165 70.1916 607.171 70.0121 608.309 70.0121C609.98 70.0121 611.296 70.368 612.255 71.0797C613.22 71.7914 613.818 72.7538 614.047 73.9668ZM623.224 84.7355C621.794 84.7355 620.56 84.4385 619.52 83.8443C618.486 83.244 617.691 82.3961 617.134 81.3007C616.577 80.1991 616.299 78.9025 616.299 77.411C616.299 75.9442 616.577 74.6569 617.134 73.5491C617.697 72.4351 618.483 71.5686 619.492 70.9498C620.501 70.3247 621.686 70.0121 623.048 70.0121C623.927 70.0121 624.756 70.1545 625.536 70.4392C626.322 70.7177 627.015 71.1509 627.615 71.7388C628.222 72.3268 628.698 73.0756 629.045 73.9854C629.391 74.889 629.565 75.9659 629.565 77.216V78.2465H617.877V75.9813H626.343C626.337 75.3377 626.198 74.7652 625.926 74.2639C625.653 73.7564 625.273 73.3572 624.784 73.0664C624.301 72.7755 623.738 72.63 623.094 72.63C622.407 72.63 621.804 72.7971 621.284 73.1313C620.764 73.4594 620.359 73.8926 620.068 74.431C619.783 74.9633 619.638 75.5481 619.631 76.1856V78.1629C619.631 78.9922 619.783 79.704 620.086 80.2981C620.39 80.886 620.814 81.3378 621.358 81.6535C621.903 81.9629 622.54 82.1176 623.271 82.1176C623.759 82.1176 624.202 82.0495 624.598 81.9134C624.994 81.771 625.338 81.5637 625.628 81.2914C625.919 81.0191 626.139 80.6818 626.288 80.2795L629.425 80.6323C629.227 81.4616 628.85 82.1857 628.293 82.8046C627.742 83.4173 627.036 83.8938 626.176 84.2342C625.316 84.5684 624.332 84.7355 623.224 84.7355ZM638.616 84.457V65.4447H641.976V72.5558H642.115C642.289 72.2092 642.533 71.841 642.849 71.4511C643.164 71.055 643.591 70.7177 644.13 70.4392C644.668 70.1545 645.355 70.0121 646.191 70.0121C647.292 70.0121 648.286 70.2937 649.171 70.8569C650.062 71.4139 650.767 72.2401 651.287 73.3356C651.813 74.4248 652.076 75.7616 652.076 77.346C652.076 78.9118 651.82 80.2424 651.306 81.3378C650.792 82.4333 650.093 83.2688 649.208 83.8443C648.323 84.4199 647.32 84.7077 646.2 84.7077C645.383 84.7077 644.705 84.5715 644.167 84.2992C643.629 84.0269 643.195 83.6989 642.867 83.3152C642.545 82.9253 642.295 82.557 642.115 82.2105H641.92V84.457H638.616ZM641.911 77.3274C641.911 78.2496 642.041 79.0572 642.301 79.7504C642.567 80.4435 642.948 80.9851 643.443 81.375C643.944 81.7587 644.551 81.9505 645.262 81.9505C646.005 81.9505 646.627 81.7525 647.128 81.3564C647.63 80.9541 648.007 80.4064 648.261 79.7132C648.521 79.0139 648.651 78.2186 648.651 77.3274C648.651 76.4424 648.524 75.6564 648.27 74.9694C648.016 74.2825 647.639 73.744 647.138 73.3541C646.636 72.9642 646.011 72.7693 645.262 72.7693C644.544 72.7693 643.935 72.9581 643.434 73.3356C642.932 73.7131 642.552 74.2423 642.292 74.923C642.038 75.6038 641.911 76.4053 641.911 77.3274ZM656.324 89.8042C655.866 89.8042 655.443 89.7671 655.053 89.6928C654.669 89.6248 654.363 89.5443 654.134 89.4515L654.913 86.8336C655.402 86.9759 655.839 87.044 656.222 87.0378C656.606 87.0316 656.943 86.9109 657.234 86.6758C657.531 86.4468 657.782 86.0631 657.986 85.5246L658.274 84.7541L653.103 70.1978H656.668L659.954 80.9665H660.103L663.398 70.1978H666.972L661.263 86.1837C660.997 86.9388 660.644 87.5855 660.205 88.124C659.765 88.6686 659.227 89.0832 658.59 89.3679C657.958 89.6588 657.203 89.8042 656.324 89.8042ZM685.838 70.6713C685.752 69.8605 685.386 69.2292 684.743 68.7775C684.105 68.3257 683.276 68.0998 682.255 68.0998C681.537 68.0998 680.921 68.2081 680.407 68.4247C679.894 68.6413 679.501 68.9353 679.228 69.3066C678.956 69.6779 678.817 70.1019 678.811 70.5784C678.811 70.9745 678.9 71.318 679.08 71.6089C679.266 71.8998 679.516 72.1473 679.832 72.3515C680.147 72.5496 680.497 72.7167 680.881 72.8528C681.265 72.989 681.651 73.1035 682.041 73.1963L683.824 73.6419C684.542 73.809 685.232 74.0349 685.894 74.3196C686.562 74.6043 687.16 74.9633 687.686 75.3965C688.218 75.8297 688.639 76.3527 688.948 76.9654C689.258 77.5781 689.412 78.296 689.412 79.1191C689.412 80.2331 689.128 81.214 688.558 82.0619C687.989 82.9036 687.166 83.5627 686.089 84.0393C685.018 84.5096 683.722 84.7448 682.199 84.7448C680.72 84.7448 679.436 84.5158 678.347 84.0578C677.263 83.5999 676.416 82.9315 675.803 82.0526C675.196 81.1738 674.868 80.1031 674.819 78.8406H678.207C678.257 79.5028 678.461 80.0536 678.82 80.493C679.179 80.9325 679.646 81.2605 680.222 81.4771C680.804 81.6937 681.453 81.802 682.171 81.802C682.92 81.802 683.576 81.6906 684.139 81.4678C684.709 81.2388 685.154 80.9232 685.476 80.5209C685.798 80.1124 685.962 79.6359 685.968 79.0913C685.962 78.5961 685.817 78.1877 685.532 77.8659C685.247 77.5378 684.848 77.2655 684.334 77.0489C683.827 76.8261 683.233 76.6281 682.552 76.4548L680.389 75.8978C678.823 75.4955 677.585 74.8859 676.676 74.069C675.772 73.2458 675.32 72.1535 675.32 70.7919C675.32 69.6717 675.623 68.6908 676.23 67.8491C676.843 67.0074 677.675 66.3545 678.727 65.8903C679.779 65.42 680.971 65.1848 682.301 65.1848C683.65 65.1848 684.832 65.42 685.847 65.8903C686.869 66.3545 687.67 67.0012 688.252 67.8305C688.834 68.6537 689.134 69.6006 689.152 70.6713H685.838ZM699.242 70.1978V72.7971H691.045V70.1978H699.242ZM693.069 66.7815H696.429V80.1681C696.429 80.6199 696.497 80.9665 696.633 81.2079C696.776 81.443 696.961 81.6039 697.19 81.6906C697.419 81.7772 697.673 81.8206 697.952 81.8206C698.162 81.8206 698.354 81.8051 698.527 81.7741C698.707 81.7432 698.843 81.7153 698.936 81.6906L699.502 84.3178C699.322 84.3797 699.066 84.4477 698.731 84.522C698.403 84.5963 698.001 84.6396 697.525 84.652C696.683 84.6767 695.925 84.5499 695.25 84.2714C694.576 83.9867 694.04 83.5473 693.644 82.9531C693.254 82.359 693.062 81.6163 693.069 80.7251V66.7815ZM705.943 84.7448C705.04 84.7448 704.226 84.5839 703.502 84.2621C702.784 83.9341 702.214 83.4513 701.794 82.8139C701.379 82.1764 701.172 81.3904 701.172 80.4559C701.172 79.6513 701.32 78.986 701.617 78.46C701.914 77.9339 702.32 77.5131 702.833 77.1975C703.347 76.8818 703.926 76.6435 704.569 76.4826C705.219 76.3155 705.891 76.1948 706.584 76.1206C707.419 76.0339 708.097 75.9566 708.617 75.8885C709.137 75.8142 709.514 75.7028 709.749 75.5543C709.991 75.3996 710.111 75.1613 710.111 74.8395V74.7838C710.111 74.0844 709.904 73.5429 709.489 73.1592C709.075 72.7755 708.478 72.5836 707.698 72.5836C706.875 72.5836 706.222 72.7631 705.739 73.1221C705.262 73.481 704.941 73.905 704.774 74.3939L701.636 73.9483C701.883 73.0818 702.292 72.3577 702.861 71.776C703.431 71.188 704.127 70.7486 704.95 70.4577C705.773 70.1607 706.683 70.0121 707.679 70.0121C708.366 70.0121 709.05 70.0926 709.731 70.2535C710.412 70.4144 711.034 70.6805 711.597 71.0519C712.16 71.417 712.612 71.9152 712.952 72.5465C713.299 73.1778 713.472 73.9668 713.472 74.9137V84.457H710.241V82.4982H710.13C709.926 82.8943 709.638 83.2657 709.267 83.6122C708.902 83.9526 708.44 84.228 707.883 84.4385C707.333 84.6427 706.686 84.7448 705.943 84.7448ZM706.816 82.2754C707.49 82.2754 708.075 82.1424 708.57 81.8763C709.066 81.6039 709.446 81.245 709.712 80.7994C709.985 80.3538 710.121 79.868 710.121 79.3419V77.6616C710.016 77.7483 709.836 77.8287 709.582 77.903C709.335 77.9773 709.056 78.0422 708.747 78.0979C708.437 78.1536 708.131 78.2031 707.828 78.2465C707.524 78.2898 707.261 78.3269 707.039 78.3579C706.537 78.4259 706.089 78.5373 705.693 78.6921C705.296 78.8468 704.984 79.0634 704.755 79.3419C704.526 79.6142 704.411 79.967 704.411 80.4002C704.411 81.0191 704.637 81.4864 705.089 81.802C705.541 82.1176 706.117 82.2754 706.816 82.2754ZM722.84 90.1013C721.633 90.1013 720.596 89.9373 719.73 89.6093C718.864 89.2875 718.167 88.8542 717.641 88.3096C717.115 87.765 716.75 87.1616 716.546 86.4994L719.572 85.766C719.708 86.0445 719.906 86.3199 720.166 86.5922C720.426 86.8707 720.776 87.0997 721.215 87.2792C721.661 87.4648 722.221 87.5577 722.896 87.5577C723.849 87.5577 724.638 87.3256 725.263 86.8614C725.888 86.4034 726.2 85.6484 726.2 84.5963V81.8948H726.033C725.86 82.2414 725.606 82.5973 725.272 82.9624C724.944 83.3276 724.508 83.6339 723.963 83.8815C723.425 84.129 722.747 84.2528 721.93 84.2528C720.835 84.2528 719.841 83.996 718.95 83.4823C718.065 82.9624 717.36 82.1888 716.834 81.1614C716.314 80.1279 716.054 78.8344 716.054 77.281C716.054 75.7152 716.314 74.3939 716.834 73.317C717.36 72.234 718.068 71.4139 718.959 70.8569C719.851 70.2937 720.844 70.0121 721.939 70.0121C722.775 70.0121 723.462 70.1545 724 70.4392C724.545 70.7177 724.978 71.055 725.3 71.4511C725.622 71.841 725.866 72.2092 726.033 72.5558H726.219V70.1978H729.533V84.6891C729.533 85.9083 729.242 86.9171 728.661 87.7155C728.079 88.5139 727.284 89.1111 726.275 89.5072C725.266 89.9033 724.121 90.1013 722.84 90.1013ZM722.868 81.6163C723.579 81.6163 724.186 81.443 724.687 81.0965C725.189 80.7499 725.569 80.2517 725.829 79.6018C726.089 78.952 726.219 78.1722 726.219 77.2624C726.219 76.365 726.089 75.5791 725.829 74.9045C725.575 74.2299 725.198 73.7069 724.697 73.3356C724.201 72.9581 723.592 72.7693 722.868 72.7693C722.119 72.7693 721.494 72.9642 720.992 73.3541C720.491 73.744 720.114 74.2794 719.86 74.9602C719.606 75.6348 719.479 76.4022 719.479 77.2624C719.479 78.1351 719.606 78.8994 719.86 79.5554C720.12 80.2053 720.5 80.7127 721.002 81.0779C721.509 81.4368 722.131 81.6163 722.868 81.6163ZM739.077 84.7355C737.648 84.7355 736.413 84.4385 735.373 83.8443C734.34 83.244 733.545 82.3961 732.988 81.3007C732.431 80.1991 732.152 78.9025 732.152 77.411C732.152 75.9442 732.431 74.6569 732.988 73.5491C733.551 72.4351 734.337 71.5686 735.346 70.9498C736.354 70.3247 737.539 70.0121 738.901 70.0121C739.78 70.0121 740.609 70.1545 741.389 70.4392C742.175 70.7177 742.868 71.1509 743.468 71.7388C744.075 72.3268 744.552 73.0756 744.898 73.9854C745.245 74.889 745.418 75.9659 745.418 77.216V78.2465H733.73V75.9813H742.197C742.19 75.3377 742.051 74.7652 741.779 74.2639C741.507 73.7564 741.126 73.3572 740.637 73.0664C740.154 72.7755 739.591 72.63 738.947 72.63C738.261 72.63 737.657 72.7971 737.137 73.1313C736.617 73.4594 736.212 73.8926 735.921 74.431C735.636 74.9633 735.491 75.5481 735.485 76.1856V78.1629C735.485 78.9922 735.636 79.704 735.94 80.2981C736.243 80.886 736.667 81.3378 737.211 81.6535C737.756 81.9629 738.394 82.1176 739.124 82.1176C739.613 82.1176 740.055 82.0495 740.451 81.9134C740.847 81.771 741.191 81.5637 741.482 81.2914C741.773 81.0191 741.992 80.6818 742.141 80.2795L745.279 80.6323C745.081 81.4616 744.703 82.1857 744.146 82.8046C743.595 83.4173 742.89 83.8938 742.03 84.2342C741.169 84.5684 740.185 84.7355 739.077 84.7355Z" fill="#232321"/>
<path d="M570.916 145.615H567.949V136.002H571.047C571.98 136.002 572.778 136.194 573.441 136.579C574.105 136.961 574.613 137.51 574.967 138.227C575.321 138.94 575.498 139.794 575.498 140.79C575.498 141.791 575.319 142.653 574.962 143.376C574.606 144.096 574.086 144.65 573.404 145.038C572.722 145.423 571.892 145.615 570.916 145.615ZM569.113 144.583H570.841C571.636 144.583 572.295 144.429 572.817 144.122C573.34 143.816 573.729 143.379 573.986 142.813C574.243 142.246 574.371 141.572 574.371 140.79C574.371 140.014 574.244 139.345 573.991 138.785C573.737 138.222 573.359 137.79 572.855 137.49C572.351 137.186 571.723 137.034 570.972 137.034H569.113V144.583ZM577.3 145.615V138.405H578.408V145.615H577.3ZM577.863 137.203C577.647 137.203 577.461 137.13 577.305 136.983C577.151 136.836 577.075 136.659 577.075 136.452C577.075 136.246 577.151 136.069 577.305 135.922C577.461 135.775 577.647 135.701 577.863 135.701C578.079 135.701 578.264 135.775 578.417 135.922C578.574 136.069 578.652 136.246 578.652 136.452C578.652 136.659 578.574 136.836 578.417 136.983C578.264 137.13 578.079 137.203 577.863 137.203ZM585.544 140.02L584.549 140.301C584.487 140.136 584.394 139.974 584.272 139.818C584.153 139.658 583.99 139.527 583.784 139.424C583.577 139.32 583.313 139.269 582.991 139.269C582.549 139.269 582.182 139.37 581.887 139.574C581.596 139.774 581.451 140.029 581.451 140.339C581.451 140.614 581.551 140.832 581.751 140.991C581.952 141.151 582.265 141.284 582.69 141.39L583.76 141.653C584.405 141.81 584.886 142.049 585.202 142.372C585.518 142.691 585.676 143.102 585.676 143.606C585.676 144.019 585.557 144.388 585.319 144.714C585.084 145.039 584.756 145.296 584.333 145.484C583.911 145.672 583.419 145.765 582.859 145.765C582.124 145.765 581.515 145.606 581.033 145.287C580.551 144.967 580.246 144.501 580.118 143.888L581.169 143.625C581.269 144.013 581.459 144.304 581.737 144.498C582.019 144.692 582.387 144.789 582.84 144.789C583.357 144.789 583.767 144.68 584.07 144.46C584.377 144.238 584.53 143.972 584.53 143.662C584.53 143.412 584.443 143.202 584.267 143.033C584.092 142.861 583.823 142.733 583.46 142.649L582.258 142.367C581.598 142.21 581.113 141.968 580.803 141.639C580.496 141.308 580.343 140.893 580.343 140.395C580.343 139.988 580.457 139.629 580.686 139.316C580.917 139.003 581.232 138.757 581.629 138.579C582.03 138.4 582.484 138.311 582.991 138.311C583.704 138.311 584.264 138.468 584.671 138.781C585.081 139.093 585.372 139.507 585.544 140.02ZM590.272 145.765C589.597 145.765 589.014 145.606 588.526 145.287C588.038 144.967 587.663 144.528 587.4 143.968C587.137 143.407 587.005 142.767 587.005 142.048C587.005 141.315 587.14 140.669 587.409 140.109C587.681 139.546 588.06 139.106 588.545 138.79C589.033 138.471 589.603 138.311 590.254 138.311C590.761 138.311 591.218 138.405 591.624 138.593C592.031 138.781 592.365 139.043 592.624 139.381C592.884 139.719 593.045 140.114 593.108 140.564H592C591.915 140.236 591.728 139.945 591.437 139.691C591.149 139.435 590.761 139.306 590.272 139.306C589.841 139.306 589.462 139.419 589.136 139.644C588.814 139.866 588.562 140.181 588.381 140.588C588.202 140.991 588.113 141.466 588.113 142.01C588.113 142.567 588.201 143.052 588.376 143.465C588.554 143.878 588.805 144.199 589.127 144.428C589.453 144.656 589.834 144.77 590.272 144.77C590.56 144.77 590.822 144.72 591.056 144.62C591.291 144.52 591.49 144.376 591.653 144.188C591.815 144 591.931 143.775 592 143.512H593.108C593.045 143.938 592.89 144.321 592.643 144.662C592.399 145 592.075 145.269 591.671 145.47C591.271 145.667 590.804 145.765 590.272 145.765ZM597.656 145.765C597.005 145.765 596.434 145.611 595.943 145.301C595.455 144.991 595.073 144.557 594.798 144C594.525 143.443 594.389 142.792 594.389 142.048C594.389 141.297 594.525 140.641 594.798 140.081C595.073 139.521 595.455 139.086 595.943 138.776C596.434 138.466 597.005 138.311 597.656 138.311C598.307 138.311 598.877 138.466 599.365 138.776C599.856 139.086 600.238 139.521 600.51 140.081C600.786 140.641 600.924 141.297 600.924 142.048C600.924 142.792 600.786 143.443 600.51 144C600.238 144.557 599.856 144.991 599.365 145.301C598.877 145.611 598.307 145.765 597.656 145.765ZM597.656 144.77C598.151 144.77 598.558 144.644 598.877 144.39C599.196 144.137 599.432 143.803 599.586 143.39C599.739 142.977 599.816 142.53 599.816 142.048C599.816 141.566 599.739 141.117 599.586 140.7C599.432 140.284 599.196 139.948 598.877 139.691C598.558 139.435 598.151 139.306 597.656 139.306C597.162 139.306 596.755 139.435 596.436 139.691C596.117 139.948 595.88 140.284 595.727 140.7C595.574 141.117 595.497 141.566 595.497 142.048C595.497 142.53 595.574 142.977 595.727 143.39C595.88 143.803 596.117 144.137 596.436 144.39C596.755 144.644 597.162 144.77 597.656 144.77ZM608.252 138.405L605.586 145.615H604.459L601.793 138.405H602.995L604.985 144.151H605.06L607.051 138.405H608.252ZM612.479 145.765C611.785 145.765 611.185 145.612 610.682 145.305C610.181 144.996 609.794 144.564 609.522 144.01C609.253 143.453 609.118 142.805 609.118 142.066C609.118 141.328 609.253 140.677 609.522 140.114C609.794 139.547 610.173 139.106 610.658 138.79C611.146 138.471 611.716 138.311 612.367 138.311C612.742 138.311 613.113 138.374 613.479 138.499C613.845 138.624 614.179 138.827 614.479 139.109C614.78 139.388 615.019 139.757 615.197 140.217C615.376 140.677 615.465 141.243 615.465 141.916V142.386H609.907V141.428H614.338C614.338 141.021 614.257 140.658 614.094 140.339C613.935 140.02 613.706 139.768 613.409 139.583C613.115 139.399 612.767 139.306 612.367 139.306C611.926 139.306 611.544 139.416 611.221 139.635C610.902 139.851 610.657 140.132 610.484 140.48C610.312 140.827 610.226 141.2 610.226 141.597V142.235C610.226 142.78 610.32 143.242 610.508 143.62C610.699 143.996 610.963 144.282 611.301 144.479C611.639 144.673 612.032 144.77 612.479 144.77C612.77 144.77 613.033 144.73 613.268 144.648C613.506 144.564 613.711 144.439 613.883 144.273C614.055 144.104 614.188 143.894 614.282 143.644L615.352 143.944C615.24 144.307 615.05 144.626 614.784 144.902C614.518 145.174 614.19 145.387 613.799 145.54C613.407 145.69 612.968 145.765 612.479 145.765ZM617.15 145.615V138.405H618.22V139.494H618.296C618.427 139.137 618.665 138.848 619.009 138.626C619.353 138.403 619.741 138.292 620.173 138.292C620.255 138.292 620.356 138.294 620.478 138.297C620.6 138.3 620.693 138.305 620.755 138.311V139.438C620.718 139.428 620.632 139.414 620.497 139.395C620.366 139.374 620.226 139.363 620.079 139.363C619.729 139.363 619.416 139.436 619.14 139.583C618.868 139.727 618.652 139.927 618.493 140.184C618.336 140.438 618.258 140.727 618.258 141.052V145.615H617.15ZM623.001 148.319C622.814 148.319 622.646 148.303 622.499 148.272C622.352 148.244 622.25 148.216 622.194 148.188L622.476 147.211C622.745 147.28 622.983 147.305 623.189 147.286C623.396 147.268 623.579 147.175 623.738 147.009C623.901 146.847 624.05 146.582 624.184 146.216L624.391 145.653L621.725 138.405H622.926L624.917 144.151H624.992L626.982 138.405H628.184L625.123 146.667C624.986 147.039 624.815 147.347 624.612 147.591C624.408 147.839 624.172 148.022 623.903 148.141C623.637 148.26 623.336 148.319 623.001 148.319Z" fill="#0B0B1C"/>
<rect x="566.785" y="161.207" width="400.298" height="7.35241" rx="1.77038" fill="#E7E7E8"/>
<path d="M566.785 162.977C566.785 162 567.578 161.207 568.556 161.207H885.254C886.231 161.207 887.024 162 887.024 162.977V166.789C887.024 167.767 886.231 168.559 885.254 168.559H568.556C567.578 168.559 566.785 167.767 566.785 166.789V162.977Z" fill="#2E65F3"/>
<path d="M985.86 159.364V169.883H984.268V160.957H984.206L981.689 162.6V161.08L984.314 159.364H985.86ZM988.484 167.828V166.544L993.03 159.364H994.041V161.254H993.399L990.148 166.401V166.483H996.378V167.828H988.484ZM993.471 169.883V167.438L993.481 166.853V159.364H994.986V169.883H993.471Z" fill="#6E7174"/>
<path d="M575.685 195.711H574.521C574.452 195.376 574.332 195.082 574.16 194.828C573.991 194.575 573.784 194.362 573.54 194.19C573.299 194.015 573.032 193.883 572.737 193.796C572.443 193.708 572.137 193.664 571.817 193.664C571.235 193.664 570.708 193.811 570.235 194.106C569.766 194.4 569.392 194.833 569.113 195.406C568.838 195.978 568.7 196.681 568.7 197.513C568.7 198.346 568.838 199.048 569.113 199.621C569.392 200.194 569.766 200.627 570.235 200.921C570.708 201.216 571.235 201.363 571.817 201.363C572.137 201.363 572.443 201.319 572.737 201.231C573.032 201.144 573.299 201.014 573.54 200.842C573.784 200.666 573.991 200.452 574.16 200.199C574.332 199.942 574.452 199.648 574.521 199.316H575.685C575.598 199.807 575.438 200.247 575.207 200.635C574.975 201.023 574.687 201.353 574.343 201.626C573.999 201.895 573.612 202.1 573.183 202.241C572.758 202.381 572.302 202.452 571.817 202.452C570.997 202.452 570.268 202.251 569.63 201.851C568.991 201.45 568.489 200.881 568.123 200.142C567.757 199.404 567.574 198.527 567.574 197.513C567.574 196.5 567.757 195.623 568.123 194.885C568.489 194.146 568.991 193.577 569.63 193.176C570.268 192.775 570.997 192.575 571.817 192.575C572.302 192.575 572.758 192.646 573.183 192.786C573.612 192.927 573.999 193.134 574.343 193.406C574.687 193.675 574.975 194.004 575.207 194.392C575.438 194.777 575.598 195.216 575.685 195.711ZM580.345 202.471C579.695 202.471 579.123 202.316 578.632 202.006C578.144 201.696 577.762 201.263 577.487 200.706C577.214 200.148 577.078 199.498 577.078 198.753C577.078 198.002 577.214 197.346 577.487 196.786C577.762 196.226 578.144 195.791 578.632 195.481C579.123 195.171 579.695 195.016 580.345 195.016C580.996 195.016 581.566 195.171 582.054 195.481C582.545 195.791 582.927 196.226 583.2 196.786C583.475 197.346 583.613 198.002 583.613 198.753C583.613 199.498 583.475 200.148 583.2 200.706C582.927 201.263 582.545 201.696 582.054 202.006C581.566 202.316 580.996 202.471 580.345 202.471ZM580.345 201.475C580.84 201.475 581.247 201.349 581.566 201.095C581.885 200.842 582.121 200.508 582.275 200.095C582.428 199.682 582.505 199.235 582.505 198.753C582.505 198.271 582.428 197.822 582.275 197.406C582.121 196.989 581.885 196.653 581.566 196.396C581.247 196.14 580.84 196.011 580.345 196.011C579.851 196.011 579.444 196.14 579.125 196.396C578.806 196.653 578.569 196.989 578.416 197.406C578.263 197.822 578.186 198.271 578.186 198.753C578.186 199.235 578.263 199.682 578.416 200.095C578.569 200.508 578.806 200.842 579.125 201.095C579.444 201.349 579.851 201.475 580.345 201.475ZM586.412 197.983V202.32H585.304V195.11H586.374V196.237H586.468C586.637 195.871 586.893 195.576 587.238 195.354C587.582 195.129 588.026 195.016 588.571 195.016C589.059 195.016 589.486 195.116 589.852 195.317C590.218 195.514 590.503 195.814 590.707 196.218C590.91 196.618 591.012 197.125 591.012 197.739V202.32H589.904V197.814C589.904 197.247 589.757 196.806 589.463 196.49C589.169 196.171 588.765 196.011 588.252 196.011C587.898 196.011 587.582 196.088 587.303 196.241C587.028 196.395 586.811 196.618 586.651 196.913C586.491 197.207 586.412 197.564 586.412 197.983ZM598.143 196.725L597.148 197.007C597.086 196.841 596.993 196.679 596.871 196.523C596.752 196.363 596.59 196.232 596.383 196.129C596.177 196.025 595.912 195.974 595.59 195.974C595.149 195.974 594.781 196.075 594.487 196.279C594.196 196.479 594.05 196.734 594.05 197.044C594.05 197.319 594.15 197.537 594.351 197.697C594.551 197.856 594.864 197.989 595.289 198.096L596.36 198.358C597.004 198.515 597.485 198.754 597.801 199.077C598.117 199.396 598.275 199.807 598.275 200.311C598.275 200.724 598.156 201.094 597.918 201.419C597.683 201.744 597.355 202.001 596.932 202.189C596.51 202.377 596.019 202.471 595.458 202.471C594.723 202.471 594.114 202.311 593.632 201.992C593.15 201.673 592.845 201.206 592.717 200.593L593.768 200.33C593.869 200.718 594.058 201.009 594.336 201.203C594.618 201.397 594.986 201.494 595.44 201.494C595.956 201.494 596.366 201.385 596.669 201.166C596.976 200.943 597.129 200.677 597.129 200.368C597.129 200.117 597.042 199.908 596.867 199.739C596.691 199.566 596.422 199.438 596.059 199.354L594.858 199.072C594.197 198.915 593.712 198.673 593.402 198.344C593.096 198.013 592.942 197.598 592.942 197.1C592.942 196.694 593.057 196.334 593.285 196.021C593.517 195.708 593.831 195.462 594.228 195.284C594.629 195.105 595.083 195.016 595.59 195.016C596.303 195.016 596.863 195.173 597.27 195.486C597.68 195.799 597.971 196.212 598.143 196.725ZM604.486 199.372V195.11H605.594V202.32H604.486V201.1H604.411C604.242 201.466 603.979 201.777 603.623 202.034C603.266 202.287 602.815 202.414 602.271 202.414C601.82 202.414 601.42 202.316 601.069 202.118C600.719 201.918 600.443 201.618 600.243 201.217C600.043 200.813 599.942 200.305 599.942 199.692V195.11H601.05V199.616C601.05 200.142 601.197 200.562 601.492 200.875C601.789 201.187 602.168 201.344 602.628 201.344C602.903 201.344 603.183 201.274 603.468 201.133C603.756 200.992 603.997 200.776 604.191 200.485C604.388 200.194 604.486 199.823 604.486 199.372ZM608.731 192.707V202.32H607.623V192.707H608.731ZM613.896 195.11V196.049H610.159V195.11H613.896ZM611.248 193.383H612.356V200.255C612.356 200.568 612.402 200.803 612.492 200.959C612.586 201.112 612.705 201.216 612.849 201.269C612.996 201.319 613.151 201.344 613.314 201.344C613.436 201.344 613.536 201.338 613.614 201.325C613.693 201.309 613.755 201.297 613.802 201.288L614.027 202.283C613.952 202.311 613.847 202.339 613.713 202.367C613.578 202.399 613.408 202.414 613.201 202.414C612.888 202.414 612.582 202.347 612.281 202.212C611.984 202.078 611.737 201.873 611.539 201.597C611.345 201.322 611.248 200.975 611.248 200.555V193.383Z" fill="#0B0B1C"/>
<rect x="566.785" y="217.912" width="400.298" height="7.35241" rx="1.77038" fill="#E7E7E8"/>
<path d="M566.785 219.682C566.785 218.705 567.578 217.912 568.556 217.912H772.516C773.494 217.912 774.287 218.705 774.287 219.682V223.494C774.287 224.472 773.494 225.265 772.516 225.265H568.556C567.578 225.265 566.785 224.472 566.785 223.494V219.682Z" fill="#FBD94D"/>
<path d="M985.584 226.732C984.848 226.732 984.197 226.605 983.632 226.352C983.071 226.098 982.631 225.749 982.312 225.304C981.994 224.859 981.836 224.352 981.84 223.784C981.836 223.339 981.927 222.929 982.112 222.556C982.3 222.18 982.556 221.866 982.877 221.616C983.199 221.363 983.559 221.202 983.956 221.134V221.072C983.432 220.945 983.013 220.664 982.698 220.23C982.383 219.795 982.227 219.295 982.23 218.73C982.227 218.192 982.369 217.713 982.657 217.292C982.948 216.867 983.346 216.533 983.853 216.29C984.36 216.047 984.937 215.926 985.584 215.926C986.224 215.926 986.796 216.049 987.299 216.296C987.806 216.539 988.205 216.872 988.496 217.297C988.787 217.718 988.934 218.196 988.938 218.73C988.934 219.295 988.773 219.795 988.455 220.23C988.137 220.664 987.722 220.945 987.212 221.072V221.134C987.606 221.202 987.96 221.363 988.275 221.616C988.594 221.866 988.847 222.18 989.035 222.556C989.227 222.929 989.325 223.339 989.328 223.784C989.325 224.352 989.164 224.859 988.845 225.304C988.527 225.749 988.085 226.098 987.52 226.352C986.959 226.605 986.313 226.732 985.584 226.732ZM985.584 225.432C986.019 225.432 986.395 225.36 986.714 225.217C987.032 225.069 987.279 224.866 987.453 224.605C987.628 224.342 987.717 224.034 987.721 223.681C987.717 223.315 987.621 222.991 987.433 222.71C987.248 222.43 986.996 222.209 986.678 222.048C986.36 221.887 985.995 221.806 985.584 221.806C985.17 221.806 984.802 221.887 984.48 222.048C984.158 222.209 983.905 222.43 983.72 222.71C983.535 222.991 983.444 223.315 983.447 223.681C983.444 224.034 983.528 224.342 983.699 224.605C983.874 224.866 984.122 225.069 984.444 225.217C984.766 225.36 985.146 225.432 985.584 225.432ZM985.584 220.538C985.933 220.538 986.243 220.468 986.514 220.327C986.784 220.187 986.996 219.992 987.15 219.742C987.308 219.492 987.388 219.199 987.392 218.863C987.388 218.535 987.31 218.247 987.156 218.001C987.005 217.754 986.794 217.564 986.524 217.431C986.253 217.294 985.94 217.225 985.584 217.225C985.221 217.225 984.903 217.294 984.629 217.431C984.358 217.564 984.148 217.754 983.997 218.001C983.846 218.247 983.773 218.535 983.776 218.863C983.773 219.199 983.848 219.492 984.002 219.742C984.156 219.992 984.368 220.187 984.639 220.327C984.913 220.468 985.228 220.538 985.584 220.538Z" fill="#6E7174"/>
<path d="M575.685 252.416H574.521C574.452 252.081 574.332 251.787 574.16 251.533C573.991 251.28 573.784 251.067 573.54 250.895C573.299 250.72 573.032 250.588 572.737 250.501C572.443 250.413 572.137 250.369 571.817 250.369C571.235 250.369 570.708 250.516 570.235 250.811C569.766 251.105 569.392 251.538 569.113 252.111C568.838 252.684 568.7 253.386 568.7 254.219C568.7 255.051 568.838 255.754 569.113 256.326C569.392 256.899 569.766 257.332 570.235 257.627C570.708 257.921 571.235 258.068 571.817 258.068C572.137 258.068 572.443 258.024 572.737 257.936C573.032 257.849 573.299 257.719 573.54 257.547C573.784 257.371 573.991 257.157 574.16 256.904C574.332 256.647 574.452 256.353 574.521 256.021H575.685C575.598 256.512 575.438 256.952 575.207 257.34C574.975 257.728 574.687 258.058 574.343 258.331C573.999 258.6 573.612 258.805 573.183 258.946C572.758 259.086 572.302 259.157 571.817 259.157C570.997 259.157 570.268 258.957 569.63 258.556C568.991 258.155 568.489 257.586 568.123 256.847C567.757 256.109 567.574 255.232 567.574 254.219C567.574 253.205 567.757 252.328 568.123 251.59C568.489 250.851 568.991 250.282 569.63 249.881C570.268 249.481 570.997 249.28 571.817 249.28C572.302 249.28 572.758 249.351 573.183 249.492C573.612 249.632 573.999 249.839 574.343 250.111C574.687 250.38 574.975 250.709 575.207 251.097C575.438 251.482 575.598 251.922 575.685 252.416ZM580.345 259.176C579.695 259.176 579.123 259.021 578.632 258.711C578.144 258.401 577.762 257.968 577.487 257.411C577.214 256.854 577.078 256.203 577.078 255.458C577.078 254.707 577.214 254.051 577.487 253.491C577.762 252.931 578.144 252.496 578.632 252.186C579.123 251.876 579.695 251.721 580.345 251.721C580.996 251.721 581.566 251.876 582.054 252.186C582.545 252.496 582.927 252.931 583.2 253.491C583.475 254.051 583.613 254.707 583.613 255.458C583.613 256.203 583.475 256.854 583.2 257.411C582.927 257.968 582.545 258.401 582.054 258.711C581.566 259.021 580.996 259.176 580.345 259.176ZM580.345 258.18C580.84 258.18 581.247 258.054 581.566 257.8C581.885 257.547 582.121 257.213 582.275 256.8C582.428 256.387 582.505 255.94 582.505 255.458C582.505 254.976 582.428 254.527 582.275 254.111C582.121 253.694 581.885 253.358 581.566 253.101C581.247 252.845 580.84 252.716 580.345 252.716C579.851 252.716 579.444 252.845 579.125 253.101C578.806 253.358 578.569 253.694 578.416 254.111C578.263 254.527 578.186 254.976 578.186 255.458C578.186 255.94 578.263 256.387 578.416 256.8C578.569 257.213 578.806 257.547 579.125 257.8C579.444 258.054 579.851 258.18 580.345 258.18ZM589.848 256.077V251.815H590.955V259.025H589.848V257.805H589.773C589.604 258.171 589.341 258.482 588.984 258.739C588.627 258.993 588.177 259.119 587.632 259.119C587.181 259.119 586.781 259.021 586.43 258.824C586.08 258.623 585.804 258.323 585.604 257.922C585.404 257.519 585.304 257.01 585.304 256.397V251.815H586.412V256.322C586.412 256.847 586.559 257.267 586.853 257.58C587.15 257.893 587.529 258.049 587.989 258.049C588.264 258.049 588.544 257.979 588.829 257.838C589.117 257.697 589.358 257.481 589.552 257.19C589.749 256.899 589.848 256.528 589.848 256.077ZM592.985 259.025V251.815H594.055V252.904H594.13C594.261 252.547 594.499 252.258 594.843 252.036C595.188 251.814 595.576 251.702 596.008 251.702C596.089 251.702 596.191 251.704 596.313 251.707C596.435 251.71 596.527 251.715 596.59 251.721V252.848C596.552 252.838 596.466 252.824 596.331 252.806C596.2 252.784 596.061 252.773 595.914 252.773C595.563 252.773 595.25 252.846 594.975 252.993C594.703 253.137 594.487 253.338 594.327 253.594C594.171 253.848 594.092 254.137 594.092 254.463V259.025H592.985ZM601.49 251.815V252.754H597.754V251.815H601.49ZM598.843 250.088H599.951V256.96C599.951 257.273 599.996 257.508 600.087 257.664C600.181 257.817 600.3 257.921 600.444 257.974C600.591 258.024 600.746 258.049 600.908 258.049C601.03 258.049 601.13 258.043 601.209 258.03C601.287 258.015 601.35 258.002 601.396 257.993L601.622 258.988C601.547 259.016 601.442 259.044 601.307 259.072C601.173 259.104 601.002 259.119 600.796 259.119C600.483 259.119 600.176 259.052 599.876 258.917C599.578 258.783 599.331 258.578 599.134 258.302C598.94 258.027 598.843 257.68 598.843 257.26V250.088ZM609.597 259.176C608.996 259.176 608.466 259.024 608.006 258.72C607.546 258.414 607.186 257.982 606.926 257.425C606.666 256.865 606.537 256.203 606.537 255.439C606.537 254.682 606.666 254.025 606.926 253.467C607.186 252.91 607.547 252.48 608.011 252.177C608.474 251.873 609.009 251.721 609.616 251.721C610.085 251.721 610.456 251.799 610.729 251.956C611.004 252.109 611.214 252.285 611.358 252.482C611.505 252.676 611.619 252.835 611.7 252.961H611.794V249.412H612.902V259.025H611.832V257.918H611.7C611.619 258.049 611.503 258.215 611.353 258.415C611.203 258.612 610.988 258.789 610.71 258.946C610.431 259.099 610.06 259.176 609.597 259.176ZM609.747 258.18C610.192 258.18 610.567 258.065 610.874 257.833C611.181 257.598 611.414 257.274 611.573 256.861C611.733 256.445 611.813 255.965 611.813 255.42C611.813 254.882 611.735 254.411 611.578 254.007C611.422 253.6 611.19 253.284 610.883 253.059C610.577 252.831 610.198 252.716 609.747 252.716C609.278 252.716 608.887 252.837 608.574 253.078C608.264 253.316 608.031 253.64 607.874 254.05C607.721 254.456 607.644 254.913 607.644 255.42C607.644 255.933 607.723 256.4 607.879 256.819C608.039 257.235 608.273 257.567 608.583 257.814C608.896 258.058 609.284 258.18 609.747 258.18ZM617.206 259.194C616.75 259.194 616.335 259.108 615.963 258.936C615.59 258.761 615.294 258.509 615.075 258.18C614.856 257.849 614.747 257.448 614.747 256.979C614.747 256.566 614.828 256.231 614.991 255.974C615.154 255.714 615.371 255.511 615.643 255.364C615.916 255.217 616.216 255.107 616.545 255.035C616.876 254.96 617.21 254.901 617.544 254.857C617.983 254.801 618.338 254.758 618.61 254.73C618.885 254.699 619.086 254.647 619.211 254.575C619.339 254.503 619.403 254.378 619.403 254.2V254.162C619.403 253.699 619.277 253.339 619.023 253.083C618.773 252.826 618.393 252.698 617.882 252.698C617.354 252.698 616.939 252.813 616.638 253.045C616.338 253.277 616.127 253.524 616.005 253.787L614.953 253.411C615.141 252.973 615.391 252.632 615.704 252.388C616.02 252.141 616.365 251.968 616.737 251.871C617.113 251.771 617.482 251.721 617.845 251.721C618.076 251.721 618.342 251.749 618.643 251.806C618.946 251.859 619.239 251.97 619.521 252.139C619.805 252.308 620.042 252.563 620.23 252.904C620.417 253.245 620.511 253.702 620.511 254.275V259.025H619.403V258.049H619.347C619.272 258.205 619.147 258.373 618.971 258.551C618.796 258.73 618.563 258.881 618.272 259.007C617.981 259.132 617.626 259.194 617.206 259.194ZM617.375 258.199C617.814 258.199 618.183 258.113 618.483 257.941C618.787 257.769 619.015 257.547 619.169 257.274C619.325 257.002 619.403 256.716 619.403 256.415V255.401C619.356 255.458 619.253 255.509 619.094 255.556C618.937 255.6 618.756 255.639 618.549 255.674C618.346 255.705 618.147 255.733 617.953 255.758C617.762 255.78 617.607 255.799 617.488 255.815C617.2 255.852 616.931 255.913 616.681 255.998C616.434 256.079 616.233 256.203 616.08 256.368C615.93 256.531 615.855 256.753 615.855 257.035C615.855 257.42 615.997 257.711 616.282 257.908C616.57 258.102 616.934 258.199 617.375 258.199ZM625.669 251.815V252.754H621.932V251.815H625.669ZM623.021 250.088H624.129V256.96C624.129 257.273 624.175 257.508 624.265 257.664C624.359 257.817 624.478 257.921 624.622 257.974C624.769 258.024 624.924 258.049 625.087 258.049C625.209 258.049 625.309 258.043 625.387 258.03C625.465 258.015 625.528 258.002 625.575 257.993L625.8 258.988C625.725 259.016 625.62 259.044 625.486 259.072C625.351 259.104 625.181 259.119 624.974 259.119C624.661 259.119 624.355 259.052 624.054 258.917C623.757 258.783 623.51 258.578 623.312 258.302C623.118 258.027 623.021 257.68 623.021 257.26V250.088ZM630.281 259.176C629.586 259.176 628.987 259.022 628.483 258.716C627.982 258.406 627.596 257.974 627.324 257.42C627.054 256.863 626.92 256.215 626.92 255.477C626.92 254.738 627.054 254.087 627.324 253.524C627.596 252.957 627.975 252.516 628.46 252.2C628.948 251.881 629.517 251.721 630.168 251.721C630.544 251.721 630.915 251.784 631.281 251.909C631.647 252.034 631.98 252.238 632.281 252.519C632.581 252.798 632.82 253.167 632.999 253.627C633.177 254.087 633.266 254.654 633.266 255.326V255.796H627.709V254.838H632.14C632.14 254.431 632.058 254.068 631.896 253.749C631.736 253.43 631.508 253.178 631.21 252.993C630.916 252.809 630.569 252.716 630.168 252.716C629.727 252.716 629.345 252.826 629.023 253.045C628.704 253.261 628.458 253.543 628.286 253.89C628.114 254.237 628.028 254.61 628.028 255.007V255.646C628.028 256.19 628.122 256.652 628.309 257.03C628.5 257.406 628.765 257.692 629.103 257.889C629.441 258.083 629.833 258.18 630.281 258.18C630.572 258.18 630.835 258.14 631.07 258.058C631.307 257.974 631.512 257.849 631.685 257.683C631.857 257.514 631.99 257.304 632.084 257.054L633.154 257.354C633.041 257.717 632.852 258.036 632.586 258.312C632.32 258.584 631.991 258.797 631.6 258.95C631.209 259.1 630.769 259.176 630.281 259.176ZM638.669 261.729V251.815H639.74V252.961H639.871C639.953 252.835 640.065 252.676 640.209 252.482C640.356 252.285 640.566 252.109 640.838 251.956C641.114 251.799 641.486 251.721 641.955 251.721C642.562 251.721 643.098 251.873 643.561 252.177C644.024 252.48 644.385 252.91 644.645 253.467C644.905 254.025 645.035 254.682 645.035 255.439C645.035 256.203 644.905 256.865 644.645 257.425C644.385 257.982 644.025 258.414 643.565 258.72C643.105 259.024 642.575 259.176 641.974 259.176C641.511 259.176 641.14 259.099 640.862 258.946C640.583 258.789 640.369 258.612 640.219 258.415C640.068 258.215 639.953 258.049 639.871 257.918H639.777V261.729H638.669ZM639.758 255.42C639.758 255.965 639.838 256.445 639.998 256.861C640.157 257.274 640.391 257.598 640.697 257.833C641.004 258.065 641.38 258.18 641.824 258.18C642.287 258.18 642.674 258.058 642.983 257.814C643.296 257.567 643.531 257.235 643.688 256.819C643.847 256.4 643.927 255.933 643.927 255.42C643.927 254.913 643.849 254.456 643.692 254.05C643.539 253.64 643.306 253.316 642.993 253.078C642.683 252.837 642.293 252.716 641.824 252.716C641.373 252.716 640.995 252.831 640.688 253.059C640.381 253.284 640.15 253.6 639.993 254.007C639.837 254.411 639.758 254.882 639.758 255.42ZM649.748 259.176C649.053 259.176 648.454 259.022 647.95 258.716C647.449 258.406 647.063 257.974 646.79 257.42C646.521 256.863 646.387 256.215 646.387 255.477C646.387 254.738 646.521 254.087 646.79 253.524C647.063 252.957 647.441 252.516 647.926 252.2C648.415 251.881 648.984 251.721 649.635 251.721C650.011 251.721 650.381 251.784 650.748 251.909C651.114 252.034 651.447 252.238 651.747 252.519C652.048 252.798 652.287 253.167 652.466 253.627C652.644 254.087 652.733 254.654 652.733 255.326V255.796H647.175V254.838H651.607C651.607 254.431 651.525 254.068 651.362 253.749C651.203 253.43 650.974 253.178 650.677 252.993C650.383 252.809 650.036 252.716 649.635 252.716C649.194 252.716 648.812 252.826 648.49 253.045C648.17 253.261 647.925 253.543 647.753 253.89C647.581 254.237 647.494 254.61 647.494 255.007V255.646C647.494 256.19 647.588 256.652 647.776 257.03C647.967 257.406 648.231 257.692 648.569 257.889C648.907 258.083 649.3 258.18 649.748 258.18C650.039 258.18 650.302 258.14 650.536 258.058C650.774 257.974 650.979 257.849 651.151 257.683C651.323 257.514 651.456 257.304 651.55 257.054L652.621 257.354C652.508 257.717 652.319 258.036 652.053 258.312C651.787 258.584 651.458 258.797 651.067 258.95C650.676 259.1 650.236 259.176 649.748 259.176ZM655.526 254.688V259.025H654.418V251.815H655.489V252.942H655.583C655.752 252.576 656.008 252.281 656.352 252.059C656.697 251.834 657.141 251.721 657.686 251.721C658.174 251.721 658.601 251.821 658.967 252.022C659.333 252.219 659.618 252.519 659.821 252.923C660.025 253.324 660.127 253.831 660.127 254.444V259.025H659.019V254.519C659.019 253.953 658.872 253.511 658.577 253.195C658.283 252.876 657.88 252.716 657.366 252.716C657.013 252.716 656.697 252.793 656.418 252.946C656.143 253.1 655.925 253.324 655.766 253.618C655.606 253.912 655.526 254.269 655.526 254.688ZM664.874 259.176C664.273 259.176 663.742 259.024 663.282 258.72C662.822 258.414 662.462 257.982 662.203 257.425C661.943 256.865 661.813 256.203 661.813 255.439C661.813 254.682 661.943 254.025 662.203 253.467C662.462 252.91 662.824 252.48 663.287 252.177C663.75 251.873 664.285 251.721 664.892 251.721C665.362 251.721 665.733 251.799 666.005 251.956C666.28 252.109 666.49 252.285 666.634 252.482C666.781 252.676 666.895 252.835 666.976 252.961H667.07V249.412H668.178V259.025H667.108V257.918H666.976C666.895 258.049 666.779 258.215 666.629 258.415C666.479 258.612 666.265 258.789 665.986 258.946C665.708 259.099 665.337 259.176 664.874 259.176ZM665.024 258.18C665.468 258.18 665.844 258.065 666.15 257.833C666.457 257.598 666.69 257.274 666.85 256.861C667.009 256.445 667.089 255.965 667.089 255.42C667.089 254.882 667.011 254.411 666.854 254.007C666.698 253.6 666.466 253.284 666.16 253.059C665.853 252.831 665.474 252.716 665.024 252.716C664.554 252.716 664.163 252.837 663.85 253.078C663.54 253.316 663.307 253.64 663.151 254.05C662.997 254.456 662.921 254.913 662.921 255.42C662.921 255.933 662.999 256.4 663.155 256.819C663.315 257.235 663.55 257.567 663.86 257.814C664.173 258.058 664.561 258.18 665.024 258.18ZM670.361 259.025V251.815H671.469V259.025H670.361ZM670.924 250.613C670.708 250.613 670.522 250.54 670.366 250.393C670.212 250.246 670.136 250.069 670.136 249.862C670.136 249.656 670.212 249.479 670.366 249.332C670.522 249.185 670.708 249.111 670.924 249.111C671.14 249.111 671.325 249.185 671.478 249.332C671.635 249.479 671.713 249.656 671.713 249.862C671.713 250.069 671.635 250.246 671.478 250.393C671.325 250.54 671.14 250.613 670.924 250.613ZM674.606 254.688V259.025H673.498V251.815H674.568V252.942H674.662C674.831 252.576 675.088 252.281 675.432 252.059C675.776 251.834 676.221 251.721 676.765 251.721C677.253 251.721 677.68 251.821 678.047 252.022C678.413 252.219 678.697 252.519 678.901 252.923C679.104 253.324 679.206 253.831 679.206 254.444V259.025H678.098V254.519C678.098 253.953 677.951 253.511 677.657 253.195C677.363 252.876 676.959 252.716 676.446 252.716C676.092 252.716 675.776 252.793 675.498 252.946C675.222 253.1 675.005 253.324 674.845 253.618C674.686 253.912 674.606 254.269 674.606 254.688ZM684.141 261.879C683.606 261.879 683.146 261.811 682.761 261.673C682.376 261.538 682.055 261.36 681.798 261.138C681.545 260.919 681.343 260.684 681.193 260.434L682.075 259.814C682.175 259.945 682.302 260.096 682.456 260.265C682.609 260.437 682.819 260.585 683.085 260.711C683.354 260.839 683.706 260.903 684.141 260.903C684.723 260.903 685.203 260.762 685.582 260.481C685.961 260.199 686.15 259.758 686.15 259.157V257.692H686.056C685.975 257.824 685.859 257.986 685.709 258.18C685.562 258.371 685.349 258.542 685.07 258.692C684.795 258.839 684.422 258.913 683.953 258.913C683.371 258.913 682.848 258.775 682.385 258.5C681.925 258.224 681.561 257.824 681.291 257.298C681.025 256.772 680.892 256.134 680.892 255.383C680.892 254.644 681.022 254.001 681.282 253.453C681.542 252.903 681.903 252.477 682.366 252.177C682.83 251.873 683.365 251.721 683.972 251.721C684.441 251.721 684.814 251.799 685.089 251.956C685.368 252.109 685.58 252.285 685.727 252.482C685.878 252.676 685.993 252.835 686.075 252.961H686.187V251.815H687.258V259.232C687.258 259.852 687.117 260.355 686.835 260.743C686.557 261.135 686.181 261.421 685.709 261.602C685.239 261.787 684.717 261.879 684.141 261.879ZM684.103 257.918C684.548 257.918 684.923 257.816 685.23 257.612C685.536 257.409 685.77 257.116 685.929 256.735C686.089 256.353 686.169 255.896 686.169 255.364C686.169 254.844 686.09 254.386 685.934 253.989C685.777 253.591 685.546 253.28 685.239 253.054C684.933 252.829 684.554 252.716 684.103 252.716C683.634 252.716 683.243 252.835 682.93 253.073C682.62 253.311 682.387 253.63 682.23 254.031C682.077 254.431 682 254.876 682 255.364C682 255.865 682.078 256.307 682.235 256.692C682.395 257.074 682.629 257.375 682.939 257.594C683.252 257.81 683.64 257.918 684.103 257.918Z" fill="#0B0B1C"/>
<rect x="566.785" y="274.617" width="401.115" height="7.35241" rx="1.77038" fill="#E7E7E8"/>
<path d="M566.785 276.388C566.785 275.41 567.578 274.617 568.556 274.617H676.118C677.096 274.617 677.888 275.41 677.888 276.388V280.199C677.888 281.177 677.096 281.97 676.118 281.97H568.556C567.578 281.97 566.785 281.177 566.785 280.199V276.388Z" fill="#FF914B"/>
<path d="M982.963 283.293L987.555 274.213V274.136H982.244V272.775H989.198V274.182L984.622 283.293H982.963Z" fill="#6E7174"/>
<path d="M566.785 112.643L995.676 112.643" stroke="#DDDCDC" stroke-width="0.816935"/>
</g>
<defs>
<filter id="filter0_d_6386_31182" x="0.84471" y="0.722656" width="511.006" height="362.172" filterUnits="userSpaceOnUse" color-interpolation-filters="sRGB">
<feFlood flood-opacity="0" result="BackgroundImageFix"/>
<feColorMatrix in="SourceAlpha" type="matrix" values="0 0 0 0 0 0 0 0 0 0 0 0 0 0 0 0 0 0 127 0" result="hardAlpha"/>
<feMorphology radius="2.03107" operator="erode" in="SourceAlpha" result="effect1_dropShadow_6386_31182"/>
<feOffset dy="13.5378"/>
<feGaussianBlur stdDeviation="4.59318"/>
<feComposite in2="hardAlpha" operator="out"/>
<feColorMatrix type="matrix" values="0 0 0 0 0 0 0 0 0 0 0 0 0 0 0 0 0 0 0.06 0"/>
<feBlend mode="normal" in2="BackgroundImageFix" result="effect1_dropShadow_6386_31182"/>
<feBlend mode="normal" in="SourceGraphic" in2="effect1_dropShadow_6386_31182" result="shape"/>
</filter>
<filter id="filter1_d_6386_31182" x="517.149" y="0.722656" width="511.006" height="362.172" filterUnits="userSpaceOnUse" color-interpolation-filters="sRGB">
<feFlood flood-opacity="0" result="BackgroundImageFix"/>
<feColorMatrix in="SourceAlpha" type="matrix" values="0 0 0 0 0 0 0 0 0 0 0 0 0 0 0 0 0 0 127 0" result="hardAlpha"/>
<feMorphology radius="2.03107" operator="erode" in="SourceAlpha" result="effect1_dropShadow_6386_31182"/>
<feOffset dy="13.5378"/>
<feGaussianBlur stdDeviation="4.59318"/>
<feComposite in2="hardAlpha" operator="out"/>
<feColorMatrix type="matrix" values="0 0 0 0 0 0 0 0 0 0 0 0 0 0 0 0 0 0 0.06 0"/>
<feBlend mode="normal" in2="BackgroundImageFix" result="effect1_dropShadow_6386_31182"/>
<feBlend mode="normal" in="SourceGraphic" in2="effect1_dropShadow_6386_31182" result="shape"/>
</filter>
</defs>
</svg>
