<svg width="32" height="32" viewBox="0 0 32 32" fill="none" xmlns="http://www.w3.org/2000/svg">
<rect width="32" height="32" rx="8" fill="#694EFB" fill-opacity="0.66"/>
<path d="M7.83643 14.3674H24.163" stroke="#483D80" stroke-miterlimit="10" stroke-linecap="round" stroke-linejoin="round"/>
<path d="M15.6312 22.9387H11.4598C8.56185 22.9387 7.82715 22.2204 7.82715 19.3551V12.6449C7.82715 10.0489 8.43125 9.21628 10.7088 9.08567C10.9374 9.0775 11.1904 9.06934 11.4598 9.06934H20.5292C23.4271 9.06934 24.1618 9.7877 24.1618 12.653V16.253" stroke="#483D80" stroke-linecap="round" stroke-linejoin="round"/>
<path d="M11.1021 19.2654H14.3674" stroke="#483D80" stroke-miterlimit="10" stroke-linecap="round" stroke-linejoin="round"/>
<path d="M21.0615 23.6735C22.5042 23.6735 23.6737 22.5039 23.6737 21.0612C23.6737 19.6185 22.5042 18.449 21.0615 18.449C19.6188 18.449 18.4492 19.6185 18.4492 21.0612C18.4492 22.5039 19.6188 23.6735 21.0615 23.6735Z" stroke="#483D80" stroke-linecap="round" stroke-linejoin="round"/>
<path d="M24.1635 24.1633L23.3472 23.3469" stroke="#483D80" stroke-linecap="round" stroke-linejoin="round"/>
</svg>
