<svg width="51" height="50" viewBox="0 0 51 50" fill="none" xmlns="http://www.w3.org/2000/svg">
<path d="M25.7869 12.3965C24.603 13.0115 23.4076 13.7069 22.218 14.4655C18.6328 14.2634 15.0371 14.5613 11.5341 15.3506L9.00532 16.0862C5.62026 17.2873 3.21222 19.0804 2.28118 21.3161C2.08549 20.4897 2.04651 19.6339 2.16624 18.7931C2.16355 18.7663 2.16355 18.7394 2.16624 18.7126C3.40762 16.7816 5.67199 15.2011 8.60877 14.0689L11.0743 13.2701H11.1145C15.9116 12.0897 20.8837 11.7937 25.7869 12.3965Z" fill="#021A4E"/>
<path d="M43.8448 11.2247C40.8161 9.58106 35.5574 10.2822 29.6149 12.8454L29.4138 12.9374C28.8391 13.2017 28.2069 13.5121 27.5977 13.7994C26.9885 14.0868 26.3965 14.4201 25.7873 14.7535C23.6871 15.921 21.669 17.2306 19.7471 18.673C17.908 20.0458 16.1592 21.5354 14.5115 23.1328L12.4368 25.2707C7.80457 30.3569 5.27008 35.5121 5.7471 39.127C5.57202 38.9681 5.41231 38.793 5.27008 38.604C4.40802 37.4546 4.24135 35.8914 4.69537 34.0466C5.6379 30.8109 8.01721 27.0178 11.5 23.2822L13.5977 21.1558C13.9253 20.8512 14.2471 20.5466 14.5862 20.242C14.6136 20.2241 14.6387 20.2028 14.6609 20.1788C15.023 19.8512 15.385 19.5351 15.7643 19.219C15.8082 19.1725 15.8563 19.1301 15.908 19.0925C16.2528 18.7994 16.6092 18.5178 16.9655 18.219L17.7643 17.5926L17.8333 17.5351L18.5747 16.9604C19.0345 16.6213 19.4885 16.288 19.9482 15.9661L20 15.9259L20.6494 15.4546C21.1666 15.104 21.6839 14.7707 22.2011 14.4489C23.3908 13.6903 24.5862 12.9948 25.7701 12.3799L26.0345 12.242C26.7126 11.8857 27.385 11.5581 28.0517 11.2535C32.6839 9.13278 37.023 8.15577 40.2528 8.49485C41.4464 8.65324 42.5352 9.25928 43.2988 10.1903C43.5353 10.5034 43.7197 10.8528 43.8448 11.2247Z" fill="url(#paint0_linear_4421_11133)"/>
<path d="M42.0913 40.8972C41.7637 42.8915 40.9418 44.4547 39.5625 45.403C38.8162 45.913 37.9555 46.2309 37.0568 46.3283C31.5338 47.0179 22.9418 41.0984 16.2464 31.5466C14.8312 29.5303 13.558 27.418 12.4361 25.2248C12.097 24.5581 11.7752 23.8915 11.4821 23.2421C10.416 20.9321 9.5954 18.5165 9.0338 16.0352C8.88437 15.334 8.76368 14.6616 8.67748 14.0007C8.27518 10.8972 8.62 8.25355 9.76943 6.48343C10.1401 5.88521 10.6291 5.36893 11.2062 4.96619C12.8671 3.85125 15.1143 3.7478 17.6545 4.53516C15.8039 4.07539 14.2062 4.21332 12.9878 5.05815C12.7799 5.19634 12.5872 5.35624 12.4131 5.53516C10.9074 7.05815 10.4993 9.82251 11.0683 13.2708C11.1775 13.9432 11.3269 14.6329 11.5108 15.3512C12.028 17.3444 12.7183 19.2886 13.574 21.1616C13.8614 21.8053 14.1487 22.4662 14.5051 23.1329C15.7091 25.5141 17.0864 27.8038 18.6258 29.9834C25.5798 39.88 34.3614 45.9145 39.12 44.38C39.5079 44.2574 39.8744 44.0751 40.2062 43.8398C41.1743 43.1234 41.8452 42.0761 42.0913 40.8972Z" fill="url(#paint1_linear_4421_11133)"/>
<path d="M28.0517 11.271C27.3851 11.5698 26.7127 11.9032 26.0345 12.2595C21.1322 7.66179 16.0862 5.11007 12.4196 5.52961C12.5937 5.35069 12.7863 5.19079 12.9943 5.0526C14.2012 4.20777 15.8104 4.06984 17.6609 4.52961C20.8563 5.51237 24.5 7.86294 28.0517 11.271Z" fill="url(#paint2_linear_4421_11133)"/>
<path d="M42.0976 40.8629C42.095 40.8743 42.095 40.8861 42.0976 40.8974C41.8516 42.0763 41.1807 43.1236 40.2126 43.84C39.8807 44.0753 39.5143 44.2576 39.1264 44.3802C41.954 39.7193 39.4367 29.5813 32.7068 20.0009C31.1735 17.8013 29.4669 15.7276 27.6034 13.7997C28.2816 13.4492 28.9597 13.1331 29.6206 12.8457C30.0632 13.294 30.4885 13.7652 30.908 14.2423C31.0919 14.4492 31.2701 14.656 31.4482 14.8687L31.9827 15.5066C32.2758 15.8572 32.5574 16.2193 32.8448 16.5871C33.0287 16.817 33.2068 17.0469 33.385 17.2882C33.7701 17.7997 34.1609 18.3285 34.5344 18.8572V18.8859C35.0057 19.5526 35.454 20.225 35.885 20.8974C40.6609 28.3974 42.8965 35.9377 42.0976 40.8629Z" fill="url(#paint3_linear_4421_11133)"/>
<path d="M31.5345 34.1213C21.8506 41.3569 11.5173 44.3684 6.82186 41.6558C6.22547 41.3221 5.70335 40.8704 5.28738 40.3282C4.10347 38.7592 3.96554 36.5753 4.71266 34.0466C4.27588 35.8857 4.44255 37.4604 5.28738 38.6041C5.42967 38.7912 5.58939 38.9644 5.76439 39.1213C9.41381 42.4546 19.9311 39.3684 29.9483 31.8799C39.638 24.65 45.4828 15.7822 43.8506 11.219C43.714 10.8481 43.5201 10.501 43.2759 10.1903C42.5154 9.25567 41.425 8.64877 40.2299 8.49487C42.2586 8.70177 43.8563 9.44315 44.8276 10.742C45.3652 11.4459 45.7099 12.2779 45.8276 13.1558C46.6092 18.4661 40.8908 27.1271 31.5345 34.1213Z" fill="url(#paint4_linear_4421_11133)"/>
<path d="M49.9259 28.2419C49.3512 32.081 45.3282 34.9947 39.4833 36.4603L38.9718 36.5867L38.2247 36.7476C38.058 36.7878 37.8856 36.8166 37.719 36.8511C37.196 36.9488 36.6558 37.035 36.104 37.1154C35.5523 37.1959 34.9546 37.2591 34.3512 37.3166C34.0236 37.3511 33.7017 37.3683 33.3741 37.3913C33.0466 37.4143 32.7535 37.4315 32.4316 37.443C31.0178 37.5043 29.5542 37.5043 28.0408 37.443C27.2132 37.397 26.3741 37.3338 25.5178 37.2419C24.9431 37.1787 24.3339 37.1039 23.7362 37.0177C22.9546 36.9085 22.1845 36.7821 21.4374 36.6327C14.5408 35.3108 8.68448 32.6442 5.06954 29.4373L4.96609 29.3396C2.22472 26.8568 0.787934 24.0752 1.17299 21.3511C1.31304 20.4083 1.65833 19.5078 2.18449 18.7131C2.18182 18.738 2.18182 18.763 2.18449 18.7878C2.06461 19.6286 2.1036 20.4844 2.29943 21.3108C3.6615 27.2993 12.6902 32.9373 24.2535 34.5695C35.4718 36.1442 45.4546 33.466 48.7764 28.4028C49.2845 27.6476 49.6398 26.8002 49.8224 25.9085C50.0001 26.6733 50.0351 27.4643 49.9259 28.2419Z" fill="url(#paint5_linear_4421_11133)"/>
<path d="M49.8223 25.909C49.6397 26.8007 49.2844 27.6481 48.7763 28.4033C48.6786 22.5585 39.2189 16.6389 26.897 14.8803C26.5292 14.8286 26.1614 14.7769 25.7936 14.7366C26.397 14.3976 27.0005 14.0815 27.5982 13.7826C28.1959 13.4838 28.8223 13.2079 29.4143 12.9148C40.2936 14.955 48.5694 20.2999 49.8223 25.909Z" fill="url(#paint6_linear_4421_11133)"/>
<defs>
<linearGradient id="paint0_linear_4421_11133" x1="3.88503" y1="36.9604" x2="40.2011" y2="6.48335" gradientUnits="userSpaceOnUse">
<stop stop-color="#0D47CF"/>
<stop offset="0.5" stop-color="#3874FA"/>
<stop offset="1" stop-color="#0F4AD2"/>
</linearGradient>
<linearGradient id="paint1_linear_4421_11133" x1="10.0568" y1="5.71907" x2="36.1832" y2="47.5237" gradientUnits="userSpaceOnUse">
<stop stop-color="#0A3FB8"/>
<stop offset="0.52" stop-color="#7CB0FC"/>
<stop offset="0.58" stop-color="#76A9F4"/>
<stop offset="0.66" stop-color="#6696DE"/>
<stop offset="0.77" stop-color="#4C76BB"/>
<stop offset="0.89" stop-color="#294B8A"/>
<stop offset="1" stop-color="#031D56"/>
</linearGradient>
<linearGradient id="paint2_linear_4421_11133" x1="14.2644" y1="3.32846" x2="28.0862" y2="15.4549" gradientUnits="userSpaceOnUse">
<stop offset="0.149" stop-color="#1F5BE2"/>
<stop offset="1" stop-color="#032061"/>
</linearGradient>
<linearGradient id="paint3_linear_4421_11133" x1="27.5976" y1="28.6101" x2="42.2586" y2="28.6101" gradientUnits="userSpaceOnUse">
<stop stop-color="#122C64"/>
<stop offset="1" stop-color="#0E48D0"/>
</linearGradient>
<linearGradient id="paint4_linear_4421_11133" x1="9.45979" y1="41.8569" x2="44.7931" y2="10.6213" gradientUnits="userSpaceOnUse">
<stop stop-color="#2E6DF5"/>
<stop offset="0.52" stop-color="#093CB2"/>
<stop offset="1" stop-color="#377CF7"/>
</linearGradient>
<linearGradient id="paint5_linear_4421_11133" x1="0.512072" y1="25.0695" x2="48.9776" y2="33.6154" gradientUnits="userSpaceOnUse">
<stop stop-color="#377CF7"/>
<stop offset="0.27" stop-color="#265DC1"/>
<stop offset="0.62" stop-color="#133983"/>
<stop offset="0.87" stop-color="#07235D"/>
<stop offset="1" stop-color="#021A4E"/>
</linearGradient>
<linearGradient id="paint6_linear_4421_11133" x1="26.7533" y1="12.955" x2="49.9315" y2="25.2769" gradientUnits="userSpaceOnUse">
<stop stop-color="#02194B"/>
<stop offset="1" stop-color="#0F4AD1"/>
</linearGradient>
</defs>
</svg>
