<svg width="40" height="40" viewBox="0 0 40 40" fill="none" xmlns="http://www.w3.org/2000/svg">
<rect width="40" height="40" rx="8" fill="#694EFB" fill-opacity="0.66"/>
<path d="M27.999 17.6002C27.999 13.6002 26.399 12.0002 22.399 12.0002H17.599C13.599 12.0002 11.999 13.6002 11.999 17.6002V22.4002C11.999 26.4002 13.599 28.0002 17.599 28.0002" stroke="#483D80" stroke-width="1.69231" stroke-linecap="round" stroke-linejoin="round"/>
<path d="M24.349 16.0002C23.799 15.3002 22.879 15.0002 21.499 15.0002H18.499C15.999 15.0002 14.999 16.0002 14.999 18.5002V21.5002C14.999 22.8802 15.299 23.8002 15.989 24.3502" stroke="#483D80" stroke-width="1.69231" stroke-linecap="round" stroke-linejoin="round"/>
<path d="M16.0088 12.0002V10.0002" stroke="#483D80" stroke-width="1.69231" stroke-linecap="round" stroke-linejoin="round"/>
<path d="M19.999 12.0002V10.0002" stroke="#483D80" stroke-width="1.69231" stroke-linecap="round" stroke-linejoin="round"/>
<path d="M23.999 12.0002V10.0002" stroke="#483D80" stroke-width="1.69231" stroke-linecap="round" stroke-linejoin="round"/>
<path d="M27.999 16.0002H29.999" stroke="#483D80" stroke-width="1.69231" stroke-linecap="round" stroke-linejoin="round"/>
<path d="M16.0088 28.0002V30.0002" stroke="#483D80" stroke-width="1.69231" stroke-linecap="round" stroke-linejoin="round"/>
<path d="M9.99902 16.0002H11.999" stroke="#483D80" stroke-width="1.69231" stroke-linecap="round" stroke-linejoin="round"/>
<path d="M9.99902 20.0002H11.999" stroke="#483D80" stroke-width="1.69231" stroke-linecap="round" stroke-linejoin="round"/>
<path d="M9.99902 24.0002H11.999" stroke="#483D80" stroke-width="1.69231" stroke-linecap="round" stroke-linejoin="round"/>
<path d="M24.7091 26.5902C25.5873 26.5902 26.2991 25.8783 26.2991 25.0002C26.2991 24.122 25.5873 23.4102 24.7091 23.4102C23.831 23.4102 23.1191 24.122 23.1191 25.0002C23.1191 25.8783 23.831 26.5902 24.7091 26.5902Z" stroke="#483D80" stroke-width="1.69231" stroke-miterlimit="10" stroke-linecap="round" stroke-linejoin="round"/>
<path d="M19.4092 25.4603V24.5303C19.4092 23.9803 19.8592 23.5303 20.4092 23.5303C21.3692 23.5303 21.7592 22.8503 21.2792 22.0203C20.9992 21.5403 21.1692 20.9203 21.6492 20.6503L22.5592 20.1203C22.9792 19.8703 23.5192 20.0203 23.7692 20.4403L23.8292 20.5403C24.3092 21.3703 25.0892 21.3703 25.5692 20.5403L25.6292 20.4403C25.8792 20.0203 26.4192 19.8803 26.8392 20.1203L27.7492 20.6503C28.2292 20.9303 28.3992 21.5403 28.1192 22.0203C27.6392 22.8503 28.0292 23.5303 28.9892 23.5303C29.5392 23.5303 29.9892 23.9803 29.9892 24.5303V25.4603C29.9892 26.0103 29.5392 26.4603 28.9892 26.4603C28.0292 26.4603 27.6392 27.1403 28.1192 27.9703C28.3992 28.4503 28.2292 29.0703 27.7492 29.3403L26.8392 29.8703C26.4192 30.1203 25.8792 29.9703 25.6292 29.5503L25.5692 29.4503C25.0892 28.6203 24.3092 28.6203 23.8292 29.4503L23.7692 29.5503C23.5192 29.9703 22.9792 30.1103 22.5592 29.8703L21.6492 29.3403C21.1692 29.0603 20.9992 28.4503 21.2792 27.9703C21.7592 27.1403 21.3692 26.4603 20.4092 26.4603C19.8592 26.4703 19.4092 26.0203 19.4092 25.4603Z" stroke="#483D80" stroke-width="1.69231" stroke-miterlimit="10" stroke-linecap="round" stroke-linejoin="round"/>
</svg>
