<svg width="24" height="23" viewBox="0 0 24 23" fill="none" xmlns="http://www.w3.org/2000/svg">
<path d="M2.33057 20.1653H20.6639" stroke="#292D32" stroke-width="1.5" stroke-miterlimit="10" stroke-linecap="round" stroke-linejoin="round"/>
<path d="M3.20264 20.1656L3.24847 9.13808C3.24847 8.57891 3.5143 8.04729 3.9543 7.69896L10.371 2.70312C11.031 2.18978 11.9568 2.18978 12.626 2.70312L19.0426 7.68978C19.4918 8.03812 19.7485 8.56974 19.7485 9.13808V20.1656" stroke="#292D32" stroke-width="1.5" stroke-miterlimit="10" stroke-linejoin="round"/>
<path d="M12.4139 15.5847H10.5806C9.81973 15.5847 9.20557 16.1989 9.20557 16.9597V20.1681H13.7889V16.9597C13.7889 16.1989 13.1747 15.5847 12.4139 15.5847Z" stroke="#292D32" stroke-width="1.5" stroke-miterlimit="10" stroke-linejoin="round"/>
<path d="M9.20557 12.6055H7.37223C6.86807 12.6055 6.45557 12.1931 6.45557 11.6889V10.3139C6.45557 9.80972 6.86807 9.39722 7.37223 9.39722H9.20557C9.70973 9.39722 10.1222 9.80972 10.1222 10.3139V11.6889C10.1222 12.1931 9.70973 12.6055 9.20557 12.6055Z" stroke="#292D32" stroke-width="1.5" stroke-miterlimit="10" stroke-linejoin="round"/>
<path d="M15.625 12.6055H13.7917C13.2875 12.6055 12.875 12.1931 12.875 11.6889V10.3139C12.875 9.80972 13.2875 9.39722 13.7917 9.39722H15.625C16.1292 9.39722 16.5417 9.80972 16.5417 10.3139V11.6889C16.5417 12.1931 16.1292 12.6055 15.625 12.6055Z" stroke="#292D32" stroke-width="1.5" stroke-miterlimit="10" stroke-linejoin="round"/>
<path d="M17.9156 6.41528L17.8881 3.66528H13.8547" stroke="#292D32" stroke-width="1.5" stroke-miterlimit="10" stroke-linecap="round" stroke-linejoin="round"/>
<path d="M17.2047 12.1163L14.5936 13.0564C13.9919 13.2714 13.5 13.9515 13.5 14.5616V18.277C13.5 18.8671 13.9081 19.6422 14.4052 19.9972L16.6552 21.6025C17.393 22.1325 18.607 22.1325 19.3448 21.6025L21.5948 19.9972C22.0919 19.6422 22.5 18.8671 22.5 18.277V14.5616C22.5 13.9465 22.0081 13.2664 21.4064 13.0514L18.7953 12.1163C18.3506 11.9612 17.639 11.9612 17.2047 12.1163Z" fill="white" stroke="#292D32" stroke-width="1.5" stroke-linecap="round" stroke-linejoin="round"/>
</svg>
