<svg width="25" height="24" viewBox="0 0 25 24" fill="none" xmlns="http://www.w3.org/2000/svg">
<path d="M2.5 22H22.5" stroke="#292D32" stroke-width="1.5" stroke-miterlimit="10" stroke-linecap="round" stroke-linejoin="round"/>
<path d="M3.44995 22L3.49995 9.96999C3.49995 9.35999 3.78995 8.78004 4.26995 8.40004L11.27 2.95003C11.99 2.39003 12.9999 2.39003 13.7299 2.95003L20.73 8.39003C21.22 8.77003 21.5 9.34999 21.5 9.96999V22" stroke="#292D32" stroke-width="1.5" stroke-miterlimit="10" stroke-linejoin="round"/>
<path d="M13.5 17H11.5C10.67 17 10 17.67 10 18.5V22H15V18.5C15 17.67 14.33 17 13.5 17Z" stroke="#292D32" stroke-width="1.5" stroke-miterlimit="10" stroke-linejoin="round"/>
<path d="M10 13.75H8C7.45 13.75 7 13.3 7 12.75V11.25C7 10.7 7.45 10.25 8 10.25H10C10.55 10.25 11 10.7 11 11.25V12.75C11 13.3 10.55 13.75 10 13.75Z" stroke="#292D32" stroke-width="1.5" stroke-miterlimit="10" stroke-linejoin="round"/>
<path d="M17 13.75H15C14.45 13.75 14 13.3 14 12.75V11.25C14 10.7 14.45 10.25 15 10.25H17C17.55 10.25 18 10.7 18 11.25V12.75C18 13.3 17.55 13.75 17 13.75Z" stroke="#292D32" stroke-width="1.5" stroke-miterlimit="10" stroke-linejoin="round"/>
<path d="M19.5001 7L19.4701 4H15.0701" stroke="#292D32" stroke-width="1.5" stroke-miterlimit="10" stroke-linecap="round" stroke-linejoin="round"/>
</svg>
