<svg width="151" height="53" viewBox="0 0 151 53" fill="none" xmlns="http://www.w3.org/2000/svg">
<path d="M38.6763 16.7479H38.7613C38.9244 16.77 39.0904 16.7506 39.244 16.6915C39.3977 16.6324 39.5342 16.5353 39.641 16.4093C39.816 16.1976 39.9139 15.9322 39.9186 15.6569C39.9233 15.3816 39.8345 15.1129 39.6669 14.8953C39.0459 14.0992 38.4176 13.3266 37.7819 12.5776C37.0944 12.8827 36.3995 13.2063 35.6973 13.5486C36.0769 13.934 36.4324 14.3427 36.7617 14.7725C37.0833 15.1705 37.4012 15.576 37.7375 15.9629C37.9584 16.3194 38.2876 16.5947 38.6763 16.7479Z" fill="white"/>
<path d="M49.6272 37.1673C49.7122 37.4538 49.9524 38.2313 49.9598 38.2313C50.5845 38.1494 51.1833 38.049 51.7451 37.9262C51.6649 37.394 51.5299 36.8716 51.3422 36.3675C51.2657 36.2385 51.1611 36.1287 51.0363 36.0462C50.9116 35.9638 50.7698 35.9109 50.6218 35.8916C50.4738 35.8722 50.3234 35.8869 50.1818 35.9346C50.0403 35.9822 49.9113 36.0616 49.8046 36.1666C49.6893 36.2833 49.609 36.4304 49.573 36.591C49.5371 36.7516 49.5469 36.9191 49.6013 37.0743C49.6081 37.1058 49.6167 37.1369 49.6272 37.1673Z" fill="white"/>
<path d="M55.3561 11.1082C52.7244 8.25857 46.1417 8.73846 37.7553 12.5962C36.7992 11.4975 35.8284 10.4609 34.8428 9.48619C44.9811 4.82121 53.9516 4.24088 57.0711 8.74217C57.9988 10.074 58.3314 11.7406 58.1392 13.6341C58.1392 13.6862 58.1392 13.7345 58.1133 13.7866C57.8509 14.951 56.0879 14.6906 56.1064 13.4964C56.0953 12.7822 55.9807 11.7815 55.3561 11.1082Z" fill="white"/>
<path d="M35.6897 13.6007C36.3846 13.2473 37.0758 12.9163 37.7558 12.6C36.7998 11.4989 35.8289 10.461 34.8433 9.48633C34.1632 9.79881 33.4795 10.1299 32.792 10.4796C33.7345 11.4505 34.7177 12.4922 35.6897 13.6007Z" fill="white"/>
<path d="M56.8863 38.9419C55.5122 39.9402 53.9693 40.6789 52.3327 41.1219C52.1858 40.0468 51.9834 38.9802 51.7266 37.9263C53.0785 37.6677 54.3723 37.1635 55.5446 36.4383C56.3134 35.9361 57.2633 36.6578 57.4333 37.4725C57.4922 37.7444 57.4719 38.0276 57.3749 38.2883C57.2779 38.5489 57.1082 38.7758 56.8863 38.9419Z" fill="white"/>
<path d="M38.6715 37.9001C36.9233 39.1017 35.1676 40.1917 33.4268 41.1738C40.0132 42.4312 46.0637 42.5205 50.6949 41.5458C50.5122 40.4312 50.2654 39.3282 49.9557 38.2424C46.8288 38.6367 42.9738 38.5288 38.6715 37.9001Z" fill="white"/>
<path d="M49.9414 38.2313C50.2512 39.3171 50.498 40.4201 50.6806 41.5348C51.2461 41.412 51.7894 41.2743 52.318 41.1218C52.171 40.0468 51.9687 38.9802 51.7118 37.9263C51.1648 38.049 50.566 38.1495 49.9414 38.2313Z" fill="white"/>
<path d="M37.7994 12.5962C37.112 12.9012 36.4171 13.2249 35.7148 13.5671C36.0945 13.9525 36.45 14.3613 36.7793 14.791C37.1009 15.1891 37.4187 15.5946 37.7551 15.9815C37.979 16.331 38.3079 16.5995 38.6939 16.7478H38.7789C38.942 16.77 39.1079 16.7506 39.2616 16.6914C39.4153 16.6323 39.5518 16.5353 39.6586 16.4093C39.8335 16.1976 39.9315 15.9321 39.9362 15.6568C39.9409 15.3815 39.8521 15.1128 39.6844 14.8952C39.0512 14.1115 38.4228 13.3452 37.7994 12.5962Z" fill="white"/>
<path d="M49.7861 36.1703C49.6707 36.287 49.5904 36.4341 49.5545 36.5946C49.5185 36.7552 49.5283 36.9228 49.5828 37.078C49.5895 37.1095 49.5982 37.1405 49.6086 37.171C49.6937 37.4574 49.9339 38.2349 49.9413 38.2349C50.5659 38.1531 51.1647 38.0526 51.7265 37.9299C51.6464 37.3976 51.5113 36.8752 51.3236 36.3712C51.2471 36.2422 51.1426 36.1323 51.0178 36.0499C50.893 35.9674 50.7513 35.9146 50.6033 35.8952C50.4553 35.8759 50.3048 35.8906 50.1633 35.9382C50.0217 35.9859 49.8927 36.0652 49.7861 36.1703Z" fill="white"/>
<path style="mix-blend-mode:multiply" d="M38.6715 37.9001C36.9233 39.1017 35.1676 40.1917 33.4268 41.1738C33.9997 41.2854 34.5688 41.3821 35.1343 41.4714C36.7865 40.5302 38.4608 39.4923 40.1056 38.3577L40.4345 38.1308C39.8543 38.0638 39.2777 37.9894 38.6715 37.9001Z" fill="white"/>
<path d="M35.3564 9.24425C37.2969 8.87224 51.4936 6.41699 55.271 11.0224L55.356 11.108C55.6026 11.3815 55.7857 11.7068 55.8919 12.0604C56.1131 12.6285 56.2163 13.2362 56.195 13.846C56.195 13.8832 56.195 13.9204 56.195 13.9576C56.5646 14.7239 57.8767 14.7648 58.0985 13.7753C58.0985 13.7232 58.0985 13.6749 58.1243 13.6228C58.3165 11.7293 57.9839 10.0627 57.0562 8.73088C53.9847 4.32258 45.2767 4.80619 35.3564 9.24425Z" fill="white"/>
<path d="M48.9877 49.451C45.7647 51.724 39.2929 48.3908 32.5993 41.6389C31.3426 42.3233 30.0982 42.9434 28.8662 43.4989C36.8091 51.3706 45.0403 55.0014 49.4978 51.8579C52.1294 49.9979 53.0091 46.0955 52.3327 41.1106C51.8078 41.2631 51.2608 41.4008 50.6953 41.5235C51.3089 45.3217 50.7988 48.175 48.9877 49.451Z" fill="white"/>
<path d="M24.6494 38.886C25.534 39.9549 26.4297 40.9717 27.3365 41.9365C28.2753 41.4863 29.2363 40.999 30.2009 40.4745C28.534 40.0727 26.8412 39.5965 25.1373 39.046L24.6494 38.886Z" fill="white"/>
<path d="M18.037 20.546C16.8252 17.9497 15.8707 15.2395 15.1873 12.4548C13.9531 12.4434 12.7192 12.5005 11.4912 12.6259C12.1719 16.3862 13.3387 20.0406 14.9618 23.496C15.9117 22.5102 16.9466 21.5243 18.037 20.546Z" fill="white"/>
<path d="M19.9178 24.3369C18.8089 25.3079 17.774 26.2862 16.8057 27.2572C17.7445 28.9982 18.7905 30.7578 19.9399 32.5099C22.1059 33.4474 24.4159 34.3216 26.8479 35.114L26.9403 35.1437C26.142 34.1096 25.351 33.0382 24.5785 31.9259C22.8818 29.4882 21.3256 26.9544 19.9178 24.3369Z" fill="white"/>
<path d="M16.5546 2.83469C19.7481 0.584044 26.1386 3.83911 32.7731 10.4795C33.4606 10.1298 34.1443 9.79868 34.8244 9.48619C26.8815 1.6145 18.6503 -2.0163 14.1928 1.12717C11.7682 2.83468 10.8331 6.28321 11.236 10.7138C12.3448 10.5687 13.5608 10.4795 14.8101 10.4423C14.2668 6.81145 14.7916 4.0772 16.5546 2.83469Z" fill="white"/>
<path d="M26.4605 19.1846C28.4675 17.771 30.4781 16.4875 32.4556 15.3492C30.5484 14.7763 28.6671 14.289 26.8338 13.8872C25.9763 14.4378 25.1225 15.0119 24.2724 15.6096C22.1035 17.1359 20.0218 18.7841 18.0371 20.5462C18.6014 21.7862 19.2285 23.0485 19.9184 24.3332C22.0046 22.4987 24.1886 20.78 26.4605 19.1846Z" fill="white"/>
<path d="M34.5324 13.582L35.2716 13.8201L35.7004 13.6006C34.7283 12.4846 33.7525 11.4504 32.7842 10.4795C31.7382 11.0115 30.6848 11.5769 29.624 12.1907C31.2404 12.5851 32.8766 13.0488 34.5324 13.582Z" fill="white"/>
<path d="M19.9183 24.3367C19.2284 23.0495 18.6013 21.7859 18.037 20.5459C16.9466 21.5206 15.9117 22.5064 14.9434 23.4959C15.5052 24.7359 16.1212 25.9884 16.7914 27.2532C17.7746 26.286 18.8132 25.3076 19.9183 24.3367Z" fill="white"/>
<path d="M31.0505 40.0133C32.5067 39.2023 33.9778 38.3144 35.4636 37.3497C32.5829 36.7763 29.7372 36.0372 26.9404 35.1362C28.2932 36.8847 29.6681 38.5178 31.0505 40.0133Z" fill="white"/>
<path d="M21.0308 34.1205C20.6587 33.5848 20.2952 33.0479 19.9404 32.5097C17.9667 31.6541 16.115 30.7427 14.4221 29.8015C13.4464 30.9175 12.5741 32.0112 11.8164 33.0715C15.866 35.4836 20.1702 37.4338 24.6492 38.8859C23.411 37.3905 22.1987 35.7983 21.0308 34.1205Z" fill="white"/>
<path d="M3.34449 16.733C4.1835 14.4601 7.16994 13.0836 11.4759 12.6409C11.3687 11.9862 11.2837 11.3464 11.2319 10.7251C5.62127 11.4468 1.59993 13.5189 0.380221 16.8223C-1.19062 21.0818 2.25783 26.4127 8.82948 31.1186C9.50956 30.0398 10.2833 28.9448 11.1506 27.8337C5.33668 23.976 2.19131 19.8579 3.34449 16.733Z" fill="white"/>
<path d="M29.613 12.1907C24.7733 10.9591 19.7942 10.3713 14.8027 10.4423C14.8988 11.0895 15.0282 11.7592 15.1723 12.4585C19.0926 12.5349 22.9949 13.0136 26.8187 13.8871C27.7575 13.2918 28.6889 12.7264 29.613 12.1907Z" fill="white"/>
<path style="mix-blend-mode:multiply" d="M15.701 30.4897C15.2649 30.2628 14.8361 30.0359 14.4221 29.8015C13.4464 30.9175 12.5741 32.0112 11.8164 33.0715C12.223 33.3207 12.6443 33.5625 13.0657 33.8155L13.0989 33.7671C13.8566 32.6957 14.7252 31.602 15.701 30.4897Z" fill="white"/>
<path d="M26.9408 35.1363L26.8484 35.1065C24.4164 34.3216 22.1063 33.4473 19.9404 32.5024C20.2953 33.0431 20.6587 33.58 21.0308 34.1132C22.1987 35.7947 23.4111 37.3832 24.6492 38.8787L25.1371 39.0386C26.841 39.5892 28.5338 40.0654 30.2008 40.4671C30.4854 40.3183 30.7663 40.1621 31.0509 40.0058C29.6685 38.5178 28.2936 36.8847 26.9408 35.1363Z" fill="white"/>
<path d="M15.1869 12.4587C15.028 11.7593 14.8986 11.0897 14.8173 10.4424C13.568 10.4796 12.3705 10.5689 11.2432 10.714C11.2949 11.3352 11.3799 11.9751 11.4871 12.6298C12.7163 12.5043 13.9514 12.4472 15.1869 12.4587Z" fill="white"/>
<path d="M35.2604 13.8201L34.5212 13.582C32.8654 13.0512 31.2255 12.5875 29.6017 12.1907C28.6777 12.7264 27.7512 13.2918 26.8223 13.887C28.6703 14.2888 30.5184 14.7761 32.444 15.349C33.3976 14.8059 34.3327 14.3 35.2604 13.8201Z" fill="white"/>
<path d="M38.1692 35.5193L37.9363 35.6756C37.1109 36.2559 36.2866 36.8139 35.4636 37.3496C33.9852 38.3119 32.5142 39.1997 31.0505 40.0132C30.7659 40.1694 30.485 40.3257 30.2004 40.4745C29.2357 40.999 28.2748 41.4863 27.3359 41.9365C18.6427 46.0769 11.3171 47.0256 9.04031 43.7519C7.4473 41.464 8.62635 37.5468 11.8161 33.0715C12.5738 32.0113 13.446 30.9139 14.4218 29.8016C15.161 28.9608 15.9557 28.1127 16.8058 27.257C16.1257 25.9922 15.5097 24.7398 14.9577 23.4998C13.6134 24.8683 12.3461 26.3115 11.1619 27.8225C10.297 28.9311 9.52327 30.026 8.84072 31.1073C5.51424 36.3936 4.52739 41.2111 6.65264 44.2653C9.77583 48.7554 18.7425 48.1751 28.8809 43.5212C30.1129 42.9558 31.3573 42.3358 32.614 41.6612C32.8912 41.5124 33.1647 41.3561 33.4419 41.1999C35.1827 40.2178 36.9384 39.1278 38.6866 37.9262L39.4258 37.4129H39.4443L39.4739 37.3905C40.6234 36.5052 39.3667 34.7344 38.1692 35.5193Z" fill="white"/>
<path d="M34.8426 9.48619C26.8997 1.6145 18.6685 -2.0163 14.211 1.12717C12.7326 2.16135 11.8234 3.83911 11.4131 5.98188C13.7342 0.944889 18.2989 1.38014 21.7252 2.63381C22.7411 2.993 23.7212 3.44761 24.6525 3.99163C25.4397 4.4306 25.9572 4.78401 26.0718 4.86213C28.4908 6.50605 30.7417 8.38773 32.7913 10.4795C33.4664 10.1298 34.1502 9.79868 34.8426 9.48619Z" fill="white"/>
<path d="M49.4981 51.8691C52.1297 50.0091 53.0093 46.1067 52.333 41.1218C51.8081 41.2743 51.2611 41.412 50.6956 41.5348C51.3092 45.3218 50.7991 48.1751 48.988 49.4511C48.3325 49.8977 47.5618 50.1421 46.7703 50.1542C41.4702 50.9466 34.4513 46.6201 29.7683 43.086L28.8887 43.499C36.8094 51.3818 45.0406 55.0126 49.4981 51.8691Z" fill="white"/>
<path d="M6.63772 44.2652C9.76091 48.7553 18.7276 48.175 28.866 43.5212C30.098 42.9557 31.3424 42.3357 32.599 41.6611C32.8762 41.5123 33.1498 41.3561 33.427 41.1998C35.1678 40.2177 36.9235 39.1278 38.6717 37.9262L39.4109 37.4128H39.4294L39.459 37.3905C40.6122 36.546 39.3555 34.7864 38.158 35.5602L37.9251 35.7165C37.0996 36.2968 36.2754 36.8548 35.4524 37.3905C33.974 38.3528 32.5029 39.2406 31.0393 40.0541C30.7547 40.2103 30.4738 40.3666 30.1892 40.5154C29.2245 41.0399 28.2635 41.5272 27.3247 41.9773C20.8159 45.0799 15.0685 46.3894 11.6385 45.4779C4.15395 43.8783 8.81472 31.1482 8.81472 31.1482C5.51041 36.3935 4.51247 41.211 6.63772 44.2652Z" fill="white"/>
<path d="M3.42615 19.7797C-0.240369 12.8157 9.44708 10.9928 11.0179 10.7473C5.51813 11.4913 1.57811 13.5485 0.376878 16.811C-1.19396 21.0668 2.2471 26.3903 8.80765 31.0924L9.12182 30.6535C9.72798 29.721 10.4031 28.7773 11.1473 27.8225C7.07789 25.1291 4.3206 22.3056 3.42615 19.7797Z" fill="white"/>
<path d="M46.5778 19.058C47.3476 19.0376 48.1134 19.1756 48.8284 19.4634C49.5434 19.7513 50.1924 20.183 50.7359 20.7321L52.0036 19.4598C50.6952 18.0015 48.777 17.2277 46.5149 17.2277C42.0796 17.2277 38.8604 20.3303 38.8604 24.5824C38.8604 28.8344 42.087 31.9332 46.4743 31.9332C48.4328 31.9746 50.3445 31.3288 51.8817 30.1067V24.5117H49.9227V29.1915C48.9206 29.8234 47.7563 30.1455 46.5741 30.1178C43.2883 30.1178 40.9043 27.7556 40.9043 24.5935C40.9043 21.4314 43.2698 19.058 46.5778 19.058ZM72.103 20.7842C70.388 20.7842 69.002 21.4203 68.2036 22.5289V20.8846H66.326V31.7807H68.2849V26.1745C68.2849 23.8123 69.634 22.5586 71.7149 22.5586C73.5629 22.5586 74.6311 23.6077 74.6311 25.743V31.7807H76.6085V25.5161C76.6085 22.3131 74.7346 20.7953 72.103 20.7953V20.7842ZM59.0853 20.7842C55.9622 20.7842 53.6558 23.1018 53.6558 26.3271C53.6558 29.5524 55.9843 31.9072 59.4734 31.9072C61.266 31.9072 62.7556 31.2934 63.735 30.1402L62.6558 28.8679C62.2608 29.3015 61.777 29.6435 61.2377 29.8703C60.6984 30.097 60.1166 30.2031 59.5326 30.1811C57.3888 30.1811 55.8587 28.9088 55.6147 27.0004H64.3892C64.4131 26.8028 64.4266 26.6042 64.4299 26.4052C64.4299 23.0534 62.1938 20.7953 59.0853 20.7953V20.7842ZM55.6147 25.5682C55.7075 24.7074 56.1128 23.9114 56.7531 23.3331C57.3933 22.7548 58.2232 22.435 59.0835 22.435C59.9438 22.435 60.7737 22.7548 61.4139 23.3331C62.0541 23.9114 62.4596 24.7074 62.5523 25.5682H55.6147ZM79.4064 31.7696H81.3654V20.8958H79.4064V31.7696ZM80.3859 16.2233C80.2139 16.2189 80.0427 16.249 79.8824 16.312C79.722 16.375 79.5758 16.4695 79.4522 16.59C79.3287 16.7106 79.2302 16.8548 79.1627 17.0141C79.0952 17.1734 79.0599 17.3447 79.059 17.5179C79.0509 17.7836 79.1218 18.0458 79.2626 18.2707C79.4034 18.4956 79.6077 18.6732 79.8493 18.7806C80.091 18.8879 80.3589 18.9203 80.6189 18.8735C80.879 18.8267 81.1192 18.7028 81.3088 18.5178C81.4985 18.3327 81.629 18.0949 81.6835 17.8348C81.7381 17.5747 81.7143 17.3041 81.6152 17.0577C81.5161 16.8112 81.3461 16.6002 81.1271 16.4516C80.9081 16.3029 80.65 16.2235 80.3859 16.2233ZM98.1974 23.9648C98.1974 23.1018 99.0327 22.4768 100.748 22.4768C101.85 22.4521 102.936 22.752 103.871 23.3398L104.706 21.7811C103.767 21.1636 102.178 20.7953 100.77 20.7953C97.9941 20.7953 96.2606 22.1085 96.2606 24.0578C96.2606 28.3917 103.095 26.2899 103.095 28.7191C103.095 29.6454 102.355 30.2071 100.507 30.2071C99.1613 30.2136 97.8425 29.8259 96.7115 29.0911L95.8947 30.6535C96.7928 31.3715 98.567 31.9258 100.363 31.9258C103.239 31.9258 105.035 30.6721 105.035 28.7042C105.068 24.4484 98.1974 26.5428 98.1974 23.976V23.9648ZM92.4056 26.5131C92.4056 28.853 91.0972 30.1253 89.0569 30.1253C87.2089 30.1253 86.1407 29.0576 86.1407 26.9223V20.8958H84.1818V27.1604C84.1818 30.3634 86.0298 31.9035 88.8315 31.9035C89.54 31.9288 90.2441 31.7813 90.8838 31.4736C91.5235 31.1659 92.0798 30.7072 92.5054 30.1364V31.7807H94.3534V20.8958H92.3945L92.4056 26.5131Z" fill="white"/>
<path d="M108.997 17.4062H106.957V31.7807H116.733V29.995H108.997V17.4062ZM121.974 20.7953C120.372 20.7469 118.799 21.2378 117.506 22.1903L118.323 23.6783C119.301 22.9091 120.511 22.4973 121.752 22.5102C123.689 22.5102 124.65 23.4737 124.65 25.1366V25.5272H121.545C118.323 25.5272 117.203 26.9669 117.203 28.7116C117.203 30.6014 118.751 31.9146 121.202 31.9146C122.895 31.9146 124.099 31.3417 124.75 30.3559V31.7918H126.598V25.2073C126.609 22.2312 124.935 20.7953 121.974 20.7953ZM124.658 28.4549C124.166 29.7048 123.002 30.3856 121.534 30.3856C120.067 30.3856 119.147 29.7048 119.147 28.6186C119.147 27.6923 119.697 26.9334 121.638 26.9334H124.658V28.4549ZM143.837 20.8957L140.614 29.6044L137.409 20.8957H135.746L132.479 29.5635L129.337 20.8957H127.489L131.506 31.7807H133.384L136.544 23.5221L139.667 31.7769H141.545L145.585 20.892L143.837 20.8957Z" fill="white"/>
<path d="M146.352 19V16.0909H147.335C147.563 16.0909 147.749 16.1297 147.895 16.2074C148.041 16.2841 148.149 16.3897 148.219 16.5241C148.289 16.6586 148.324 16.8116 148.324 16.983C148.324 17.1544 148.289 17.3063 148.219 17.4389C148.149 17.5715 148.041 17.6757 147.896 17.7514C147.751 17.8262 147.566 17.8636 147.341 17.8636H146.545V17.5455H147.33C147.485 17.5455 147.61 17.5227 147.705 17.4773C147.8 17.4318 147.869 17.3674 147.912 17.2841C147.955 17.1998 147.977 17.0994 147.977 16.983C147.977 16.8665 147.955 16.7647 147.912 16.6776C147.868 16.5904 147.799 16.5232 147.703 16.4759C147.607 16.4276 147.481 16.4034 147.324 16.4034H146.705V19H146.352ZM147.722 17.6932L148.438 19H148.028L147.324 17.6932H147.722Z" fill="white"/>
<path d="M150 17.5C150 17.9946 149.853 18.4781 149.578 18.8893C149.304 19.3005 148.913 19.621 148.456 19.8101C147.999 19.9992 147.496 20.0485 147.011 19.9517C146.526 19.8549 146.08 19.6164 145.731 19.2664C145.381 18.9163 145.144 18.4705 145.048 17.9853C144.952 17.5001 145.002 16.9973 145.191 16.5406C145.381 16.0838 145.702 15.6936 146.114 15.4194C146.526 15.1452 147.009 14.9992 147.504 15C147.832 15 148.157 15.0647 148.46 15.1904C148.763 15.3161 149.038 15.5003 149.27 15.7325C149.502 15.9647 149.686 16.2403 149.811 16.5436C149.936 16.8469 150.001 17.1719 150 17.5Z" stroke="white" stroke-width="0.84" stroke-miterlimit="10"/>
</svg>
