<svg width="503" height="340" viewBox="0 0 503 340" fill="none" xmlns="http://www.w3.org/2000/svg">
<g clip-path="url(#clip0_4421_7104)">
<rect width="503" height="340" fill="#FAFAF8"/>
<g clip-path="url(#clip1_4421_7104)">
<path d="M-245 46.3731H874.62" stroke="#E5E7F0" stroke-width="0.663478"/>
<path d="M-245 94.1436H874.62" stroke="#E5E7F0" stroke-width="0.663478"/>
<path d="M-245 141.914H874.62" stroke="#E5E7F0" stroke-width="0.663478"/>
<path d="M-245 189.684H874.62" stroke="#E5E7F0" stroke-width="0.663478"/>
<path d="M-245 237.455H874.62" stroke="#E5E7F0" stroke-width="0.663478"/>
<path d="M-245 285.225H874.62" stroke="#E5E7F0" stroke-width="0.663478"/>
<path d="M-245 332.996H874.62" stroke="#E5E7F0" stroke-width="0.663478"/>
<path d="M44.1108 972.423L44.1108 -147.197" stroke="#E5E7F0" stroke-width="0.663478"/>
<path d="M91.8813 972.423L91.8813 -147.197" stroke="#E5E7F0" stroke-width="0.663478"/>
<path d="M139.652 972.423L139.652 -147.197" stroke="#E5E7F0" stroke-width="0.663478"/>
<path d="M187.422 972.423L187.422 -147.197" stroke="#E5E7F0" stroke-width="0.663478"/>
<path d="M235.193 972.423L235.193 -147.197" stroke="#E5E7F0" stroke-width="0.663478"/>
<path d="M282.963 972.423L282.963 -147.197" stroke="#E5E7F0" stroke-width="0.663478"/>
<path d="M330.733 972.423L330.733 -147.197" stroke="#E5E7F0" stroke-width="0.663478"/>
<path d="M378.504 972.423L378.504 -147.197" stroke="#E5E7F0" stroke-width="0.663478"/>
<path d="M426.275 972.423L426.275 -147.197" stroke="#E5E7F0" stroke-width="0.663478"/>
<path d="M474.045 972.423L474.045 -147.197" stroke="#E5E7F0" stroke-width="0.663478"/>
</g>
<g filter="url(#filter0_f_4421_7104)">
<ellipse cx="329" cy="115" rx="36" ry="50" fill="#FAFAF8"/>
</g>
<g filter="url(#filter1_f_4421_7104)">
<ellipse cx="395" cy="290.5" rx="66" ry="58.5" fill="#FAFAF8"/>
</g>
<g filter="url(#filter2_f_4421_7104)">
<ellipse cx="547.5" cy="37" rx="99.5" ry="95" fill="#FAFAF8"/>
</g>
<g filter="url(#filter3_f_4421_7104)">
<ellipse cx="69.5" cy="29" rx="97.5" ry="50" fill="#FAFAF8"/>
</g>
<g filter="url(#filter4_f_4421_7104)">
<ellipse cx="192" cy="302" rx="91" ry="79" fill="#FAFAF8"/>
</g>
<g filter="url(#filter5_f_4421_7104)">
<ellipse cx="220" cy="132" rx="80" ry="73" fill="#FAFAF8"/>
</g>
<rect width="713" height="400" fill="#111827" fill-opacity="0.02"/>
<g clip-path="url(#clip2_4421_7104)">
<g filter="url(#filter6_d_4421_7104)">
<g clip-path="url(#clip3_4421_7104)">
<rect x="180" y="77" width="544" height="343.296" rx="20.4471" fill="#694EFB"/>
<rect x="180" y="77" width="544" height="343.296" rx="20.4471" fill="#694EFB"/>
<g opacity="0.25">
<line x1="180" y1="78.6143" x2="724" y2="78.6143" stroke="white" stroke-opacity="0.2" stroke-width="1.07616"/>
<line x1="180" y1="86.1474" x2="724" y2="86.1474" stroke="white" stroke-opacity="0.2" stroke-width="1.07616"/>
<line x1="180" y1="93.6805" x2="724" y2="93.6805" stroke="white" stroke-opacity="0.2" stroke-width="1.07616"/>
<line x1="180" y1="101.214" x2="724" y2="101.214" stroke="white" stroke-opacity="0.2" stroke-width="1.07616"/>
<line x1="180" y1="108.747" x2="724" y2="108.747" stroke="white" stroke-opacity="0.2" stroke-width="1.07616"/>
<line x1="180" y1="116.28" x2="724" y2="116.28" stroke="white" stroke-opacity="0.2" stroke-width="1.07616"/>
<line x1="180" y1="123.813" x2="724" y2="123.813" stroke="white" stroke-opacity="0.2" stroke-width="1.07616"/>
<line x1="180" y1="131.346" x2="724" y2="131.346" stroke="white" stroke-opacity="0.2" stroke-width="1.07616"/>
<line x1="180" y1="138.879" x2="724" y2="138.879" stroke="white" stroke-opacity="0.2" stroke-width="1.07616"/>
<line x1="180" y1="146.412" x2="724" y2="146.412" stroke="white" stroke-opacity="0.2" stroke-width="1.07616"/>
<line x1="180" y1="153.946" x2="724" y2="153.946" stroke="white" stroke-opacity="0.2" stroke-width="1.07616"/>
<line x1="180" y1="161.479" x2="724" y2="161.479" stroke="white" stroke-opacity="0.2" stroke-width="1.07616"/>
<line x1="180" y1="169.012" x2="724" y2="169.012" stroke="white" stroke-opacity="0.2" stroke-width="1.07616"/>
<line x1="180" y1="176.545" x2="724" y2="176.545" stroke="white" stroke-opacity="0.2" stroke-width="1.07616"/>
<line x1="180" y1="184.078" x2="724" y2="184.078" stroke="white" stroke-opacity="0.2" stroke-width="1.07616"/>
<line x1="180" y1="191.611" x2="724" y2="191.611" stroke="white" stroke-opacity="0.2" stroke-width="1.07616"/>
<line x1="180" y1="199.144" x2="724" y2="199.144" stroke="white" stroke-opacity="0.2" stroke-width="1.07616"/>
<line x1="180" y1="206.678" x2="724" y2="206.678" stroke="white" stroke-opacity="0.2" stroke-width="1.07616"/>
<line x1="180" y1="214.211" x2="724" y2="214.211" stroke="white" stroke-opacity="0.2" stroke-width="1.07616"/>
<line x1="180" y1="221.744" x2="724" y2="221.744" stroke="white" stroke-opacity="0.2" stroke-width="1.07616"/>
<line x1="180" y1="229.277" x2="724" y2="229.277" stroke="white" stroke-opacity="0.2" stroke-width="1.07616"/>
<line x1="180" y1="236.81" x2="724" y2="236.81" stroke="white" stroke-opacity="0.2" stroke-width="1.07616"/>
<line x1="180" y1="244.343" x2="724" y2="244.343" stroke="white" stroke-opacity="0.2" stroke-width="1.07616"/>
<line x1="180" y1="251.876" x2="724" y2="251.876" stroke="white" stroke-opacity="0.2" stroke-width="1.07616"/>
<line x1="180" y1="259.41" x2="724" y2="259.41" stroke="white" stroke-opacity="0.2" stroke-width="1.07616"/>
<line x1="180" y1="266.943" x2="724" y2="266.943" stroke="white" stroke-opacity="0.2" stroke-width="1.07616"/>
<line x1="180" y1="274.476" x2="724" y2="274.476" stroke="white" stroke-opacity="0.2" stroke-width="1.07616"/>
<line x1="180" y1="282.009" x2="724" y2="282.009" stroke="white" stroke-opacity="0.2" stroke-width="1.07616"/>
<line x1="180" y1="289.542" x2="724" y2="289.542" stroke="white" stroke-opacity="0.2" stroke-width="1.07616"/>
<line x1="180" y1="297.075" x2="724" y2="297.075" stroke="white" stroke-opacity="0.2" stroke-width="1.07616"/>
<line x1="180" y1="304.608" x2="724" y2="304.608" stroke="white" stroke-opacity="0.2" stroke-width="1.07616"/>
<line x1="180" y1="312.141" x2="724" y2="312.141" stroke="white" stroke-opacity="0.2" stroke-width="1.07616"/>
<line x1="180" y1="319.675" x2="724" y2="319.675" stroke="white" stroke-opacity="0.2" stroke-width="1.07616"/>
<line x1="180" y1="327.208" x2="724" y2="327.208" stroke="white" stroke-opacity="0.2" stroke-width="1.07616"/>
<line x1="180" y1="334.741" x2="724" y2="334.741" stroke="white" stroke-opacity="0.2" stroke-width="1.07616"/>
</g>
<g clip-path="url(#clip4_4421_7104)">
<path d="M275.329 165.318H267.266L272.309 134.065H280.373L275.329 165.318Z" fill="white"/>
<path d="M304.561 134.829C302.971 134.197 300.448 133.498 297.329 133.498C289.365 133.498 283.758 137.754 283.723 143.838C283.657 148.327 287.738 150.82 290.791 152.317C293.91 153.846 294.971 154.844 294.971 156.207C294.939 158.301 292.45 159.266 290.128 159.266C286.909 159.266 285.184 158.769 282.562 157.604L281.5 157.104L280.372 164.12C282.263 164.983 285.748 165.75 289.365 165.783C297.827 165.783 303.335 161.594 303.4 155.11C303.433 151.552 301.278 148.826 296.632 146.599C293.811 145.169 292.084 144.205 292.084 142.742C292.117 141.411 293.545 140.049 296.729 140.049C299.35 139.982 301.276 140.614 302.735 141.246L303.465 141.578L304.561 134.829Z" fill="white"/>
<path d="M315.279 154.246C315.943 152.45 318.499 145.502 318.499 145.502C318.465 145.568 319.162 143.673 319.56 142.51L320.123 145.202C320.123 145.202 321.65 152.683 321.982 154.246C320.722 154.246 316.872 154.246 315.279 154.246ZM325.233 134.065H318.996C317.072 134.065 315.611 134.63 314.781 136.658L302.803 165.317H311.264C311.264 165.317 312.657 161.46 312.957 160.629C313.885 160.629 322.116 160.629 323.31 160.629C323.542 161.726 324.272 165.317 324.272 165.317H331.739L325.233 134.065Z" fill="white"/>
<path d="M260.53 134.065L252.633 155.376L251.77 151.054C250.31 146.067 245.731 140.648 240.621 137.954L247.855 165.284H256.382L269.057 134.065H260.53Z" fill="white"/>
<path d="M245.3 134.065H232.326L232.193 134.696C242.314 137.29 249.016 143.541 251.77 151.055L248.95 136.692C248.486 134.696 247.059 134.131 245.3 134.065Z" fill="white"/>
</g>
</g>
</g>
</g>
<rect x="69" y="214" width="229.098" height="76.2258" rx="11.6863" fill="white"/>
<rect x="69.3944" y="214.394" width="228.309" height="75.437" rx="11.2919" stroke="#001166" stroke-opacity="0.1" stroke-width="0.788837"/>
<path opacity="0.8" d="M107.463 252.899L95.9016 258.506V255.842L104.433 251.959L104.346 252.107V251.733L104.433 251.889L95.9016 247.998V245.343L107.463 250.949V252.899ZM118.324 242.783V260.613H115.625V245.482H115.521L111.255 248.268V245.691L115.703 242.783H118.324ZM123.867 260.778C123.392 260.778 122.982 260.61 122.64 260.273C122.297 259.931 122.126 259.519 122.126 259.037C122.126 258.561 122.297 258.155 122.64 257.818C122.982 257.476 123.392 257.305 123.867 257.305C124.343 257.305 124.753 257.476 125.095 257.818C125.437 258.155 125.609 258.561 125.609 259.037C125.609 259.356 125.527 259.649 125.365 259.916C125.208 260.178 124.999 260.387 124.738 260.543C124.477 260.7 124.187 260.778 123.867 260.778ZM134.774 242.539C135.569 242.545 136.353 242.69 137.125 242.975C137.896 243.259 138.593 243.723 139.214 244.367C139.841 245.012 140.34 245.882 140.711 246.979C141.089 248.07 141.28 249.429 141.286 251.054C141.286 252.615 141.129 254.005 140.816 255.224C140.502 256.437 140.053 257.461 139.466 258.297C138.886 259.133 138.181 259.768 137.351 260.204C136.521 260.639 135.586 260.857 134.548 260.857C133.485 260.857 132.542 260.648 131.718 260.23C130.894 259.812 130.224 259.234 129.707 258.497C129.19 257.754 128.868 256.901 128.741 255.938H131.396C131.57 256.704 131.924 257.325 132.458 257.801C132.998 258.271 133.694 258.506 134.548 258.506C135.853 258.506 136.872 257.937 137.603 256.8C138.335 255.656 138.703 254.06 138.709 252.011H138.57C138.268 252.511 137.891 252.94 137.438 253.3C136.991 253.66 136.489 253.938 135.932 254.136C135.375 254.333 134.78 254.432 134.147 254.432C133.12 254.432 132.185 254.179 131.344 253.674C130.502 253.169 129.832 252.476 129.333 251.593C128.834 250.711 128.584 249.704 128.584 248.573C128.584 247.447 128.839 246.425 129.35 245.508C129.867 244.591 130.586 243.865 131.509 243.331C132.438 242.792 133.526 242.528 134.774 242.539ZM134.783 244.803C134.104 244.803 133.491 244.971 132.946 245.308C132.406 245.639 131.979 246.088 131.666 246.657C131.352 247.22 131.196 247.847 131.196 248.538C131.196 249.228 131.347 249.855 131.648 250.418C131.956 250.975 132.374 251.419 132.902 251.75C133.436 252.075 134.045 252.238 134.73 252.238C135.241 252.238 135.717 252.139 136.158 251.942C136.599 251.744 136.985 251.472 137.316 251.123C137.647 250.769 137.905 250.369 138.091 249.922C138.277 249.475 138.369 249.005 138.369 248.512C138.369 247.856 138.213 247.246 137.899 246.683C137.592 246.12 137.168 245.668 136.628 245.325C136.089 244.977 135.473 244.803 134.783 244.803ZM150.316 260.857C149.225 260.857 148.244 260.648 147.374 260.23C146.509 259.806 145.818 259.226 145.302 258.489C144.785 257.752 144.509 256.91 144.475 255.964H147.086C147.15 256.73 147.49 257.36 148.105 257.853C148.72 258.346 149.457 258.593 150.316 258.593C151.001 258.593 151.608 258.436 152.136 258.123C152.67 257.804 153.088 257.366 153.39 256.808C153.697 256.251 153.851 255.616 153.851 254.902C153.851 254.176 153.694 253.529 153.381 252.96C153.067 252.392 152.635 251.945 152.084 251.62C151.538 251.295 150.911 251.129 150.203 251.123C149.663 251.123 149.121 251.216 148.575 251.402C148.03 251.588 147.588 251.831 147.252 252.133L144.788 251.768L145.789 242.783H155.592V245.09H148.027L147.461 250.079H147.565C147.913 249.742 148.375 249.461 148.949 249.234C149.53 249.008 150.151 248.895 150.813 248.895C151.898 248.895 152.864 249.153 153.712 249.669C154.565 250.186 155.235 250.891 155.723 251.785C156.216 252.673 156.46 253.695 156.454 254.85C156.46 256.005 156.199 257.035 155.671 257.94C155.148 258.846 154.423 259.559 153.494 260.082C152.571 260.598 151.512 260.857 150.316 260.857ZM168.941 257.27V256.33C168.941 255.656 169.08 255.041 169.359 254.484C169.643 253.921 170.055 253.471 170.595 253.134C171.14 252.792 171.799 252.621 172.571 252.621C173.36 252.621 174.022 252.789 174.556 253.126C175.09 253.462 175.493 253.912 175.766 254.475C176.045 255.038 176.184 255.656 176.184 256.33V257.27C176.184 257.943 176.045 258.561 175.766 259.124C175.488 259.681 175.078 260.131 174.539 260.474C174.005 260.81 173.349 260.979 172.571 260.979C171.788 260.979 171.126 260.81 170.586 260.474C170.046 260.131 169.637 259.681 169.359 259.124C169.08 258.561 168.941 257.943 168.941 257.27ZM170.969 256.33V257.27C170.969 257.769 171.088 258.222 171.326 258.628C171.564 259.034 171.979 259.237 172.571 259.237C173.157 259.237 173.566 259.034 173.799 258.628C174.031 258.222 174.147 257.769 174.147 257.27V256.33C174.147 255.83 174.034 255.378 173.807 254.971C173.587 254.565 173.175 254.362 172.571 254.362C171.991 254.362 171.579 254.565 171.335 254.971C171.091 255.378 170.969 255.83 170.969 256.33ZM159.973 247.066V246.126C159.973 245.453 160.113 244.835 160.391 244.272C160.676 243.709 161.088 243.259 161.628 242.922C162.173 242.586 162.832 242.417 163.604 242.417C164.393 242.417 165.055 242.586 165.589 242.922C166.123 243.259 166.526 243.709 166.799 244.272C167.072 244.835 167.208 245.453 167.208 246.126V247.066C167.208 247.74 167.069 248.358 166.79 248.921C166.517 249.478 166.111 249.928 165.571 250.27C165.037 250.607 164.382 250.775 163.604 250.775C162.815 250.775 162.15 250.607 161.61 250.27C161.076 249.928 160.67 249.478 160.391 248.921C160.113 248.358 159.973 247.74 159.973 247.066ZM162.011 246.126V247.066C162.011 247.566 162.127 248.018 162.359 248.424C162.597 248.831 163.012 249.034 163.604 249.034C164.184 249.034 164.591 248.831 164.823 248.424C165.061 248.018 165.18 247.566 165.18 247.066V246.126C165.18 245.627 165.066 245.174 164.84 244.768C164.614 244.362 164.202 244.159 163.604 244.159C163.023 244.159 162.611 244.362 162.368 244.768C162.13 245.174 162.011 245.627 162.011 246.126ZM160.801 260.613L173.059 242.783H175.139L162.881 260.613H160.801Z" fill="#0B0B1C"/>
<path opacity="0.8" d="M190.926 258.113V248.551H192.395V258.113H190.926ZM191.673 246.958C191.387 246.958 191.14 246.86 190.932 246.665C190.729 246.47 190.627 246.236 190.627 245.962C190.627 245.688 190.729 245.453 190.932 245.258C191.14 245.063 191.387 244.966 191.673 244.966C191.959 244.966 192.204 245.063 192.408 245.258C192.615 245.453 192.719 245.688 192.719 245.962C192.719 246.236 192.615 246.47 192.408 246.665C192.204 246.86 191.959 246.958 191.673 246.958ZM201.859 250.693L200.539 251.066C200.456 250.846 200.334 250.633 200.172 250.425C200.014 250.213 199.798 250.039 199.524 249.902C199.25 249.765 198.9 249.697 198.472 249.697C197.887 249.697 197.4 249.832 197.009 250.101C196.624 250.367 196.431 250.705 196.431 251.116C196.431 251.481 196.563 251.77 196.829 251.981C197.095 252.193 197.51 252.369 198.074 252.51L199.493 252.859C200.348 253.067 200.985 253.384 201.404 253.811C201.823 254.235 202.033 254.78 202.033 255.449C202.033 255.996 201.875 256.486 201.56 256.918C201.249 257.349 200.813 257.69 200.253 257.939C199.692 258.188 199.041 258.312 198.298 258.312C197.323 258.312 196.516 258.1 195.877 257.677C195.237 257.254 194.833 256.636 194.663 255.822L196.057 255.474C196.19 255.988 196.441 256.374 196.81 256.631C197.184 256.889 197.671 257.017 198.273 257.017C198.958 257.017 199.502 256.872 199.904 256.582C200.311 256.287 200.514 255.934 200.514 255.523C200.514 255.191 200.398 254.913 200.166 254.689C199.933 254.461 199.576 254.291 199.095 254.179L197.501 253.805C196.626 253.598 195.982 253.276 195.572 252.84C195.165 252.4 194.961 251.851 194.961 251.191C194.961 250.651 195.113 250.174 195.416 249.759C195.723 249.344 196.14 249.018 196.667 248.782C197.198 248.545 197.8 248.427 198.472 248.427C199.419 248.427 200.161 248.634 200.701 249.049C201.245 249.464 201.63 250.012 201.859 250.693ZM213.333 248.551V249.796H208.378V248.551H213.333ZM209.822 246.261H211.291V255.374C211.291 255.789 211.351 256.1 211.472 256.308C211.596 256.511 211.754 256.648 211.945 256.719C212.14 256.785 212.345 256.818 212.561 256.818C212.723 256.818 212.856 256.81 212.959 256.793C213.063 256.772 213.146 256.756 213.208 256.743L213.507 258.063C213.408 258.1 213.269 258.138 213.09 258.175C212.912 258.217 212.686 258.237 212.412 258.237C211.997 258.237 211.59 258.148 211.192 257.97C210.797 257.791 210.469 257.519 210.208 257.154C209.951 256.789 209.822 256.328 209.822 255.772V246.261ZM217.217 252.361V258.113H215.748V245.364H217.217V250.045H217.342C217.566 249.552 217.902 249.159 218.35 248.869C218.803 248.574 219.404 248.427 220.155 248.427C220.807 248.427 221.378 248.558 221.867 248.819C222.357 249.076 222.737 249.473 223.007 250.008C223.28 250.539 223.417 251.216 223.417 252.037V258.113H221.948V252.137C221.948 251.377 221.751 250.79 221.357 250.375C220.967 249.956 220.425 249.747 219.732 249.747C219.251 249.747 218.819 249.848 218.437 250.052C218.06 250.255 217.761 250.552 217.541 250.942C217.325 251.332 217.217 251.805 217.217 252.361ZM230.114 258.312C229.193 258.312 228.398 258.109 227.73 257.702C227.066 257.291 226.553 256.719 226.192 255.984C225.835 255.245 225.657 254.386 225.657 253.407C225.657 252.427 225.835 251.564 226.192 250.817C226.553 250.066 227.055 249.481 227.699 249.062C228.346 248.639 229.101 248.427 229.964 248.427C230.462 248.427 230.954 248.51 231.44 248.676C231.925 248.842 232.367 249.112 232.766 249.485C233.164 249.854 233.482 250.344 233.718 250.954C233.955 251.564 234.073 252.315 234.073 253.208V253.83H226.703V252.56H232.579C232.579 252.021 232.471 251.539 232.255 251.116C232.044 250.693 231.741 250.359 231.346 250.114C230.956 249.869 230.496 249.747 229.964 249.747C229.379 249.747 228.873 249.892 228.446 250.182C228.022 250.469 227.697 250.842 227.468 251.303C227.24 251.763 227.126 252.257 227.126 252.784V253.631C227.126 254.353 227.25 254.965 227.499 255.467C227.753 255.965 228.103 256.345 228.551 256.606C229 256.864 229.52 256.992 230.114 256.992C230.5 256.992 230.848 256.938 231.16 256.831C231.475 256.719 231.747 256.553 231.975 256.333C232.203 256.108 232.38 255.83 232.504 255.498L233.924 255.897C233.774 256.378 233.523 256.802 233.17 257.167C232.818 257.528 232.382 257.81 231.863 258.013C231.344 258.213 230.761 258.312 230.114 258.312ZM241.238 258.113V248.551H242.657V249.996H242.757C242.931 249.522 243.246 249.139 243.703 248.844C244.159 248.549 244.674 248.402 245.247 248.402C245.355 248.402 245.49 248.404 245.651 248.408C245.813 248.412 245.936 248.419 246.019 248.427V249.921C245.969 249.908 245.855 249.89 245.676 249.865C245.502 249.836 245.317 249.821 245.122 249.821C244.657 249.821 244.242 249.919 243.877 250.114C243.516 250.305 243.23 250.57 243.018 250.911C242.811 251.247 242.707 251.631 242.707 252.062V258.113H241.238ZM250.574 258.337C249.968 258.337 249.418 258.223 248.924 257.995C248.43 257.762 248.038 257.428 247.748 256.992C247.457 256.553 247.312 256.021 247.312 255.399C247.312 254.851 247.42 254.407 247.636 254.067C247.851 253.722 248.14 253.452 248.501 253.257C248.862 253.062 249.26 252.917 249.696 252.822C250.136 252.722 250.578 252.643 251.022 252.585C251.603 252.51 252.074 252.454 252.435 252.417C252.8 252.376 253.066 252.307 253.232 252.212C253.402 252.116 253.487 251.95 253.487 251.714V251.664C253.487 251.05 253.319 250.572 252.983 250.232C252.651 249.892 252.147 249.722 251.47 249.722C250.769 249.722 250.219 249.875 249.821 250.182C249.422 250.489 249.142 250.817 248.98 251.166L247.586 250.668C247.835 250.087 248.167 249.635 248.582 249.311C249.001 248.983 249.457 248.755 249.951 248.626C250.449 248.493 250.939 248.427 251.42 248.427C251.728 248.427 252.08 248.464 252.479 248.539C252.881 248.609 253.269 248.757 253.643 248.981C254.02 249.205 254.334 249.543 254.583 249.996C254.832 250.448 254.956 251.054 254.956 251.813V258.113H253.487V256.818H253.412C253.313 257.026 253.147 257.248 252.914 257.484C252.682 257.721 252.373 257.922 251.987 258.088C251.601 258.254 251.13 258.337 250.574 258.337ZM250.798 257.017C251.379 257.017 251.869 256.903 252.267 256.675C252.67 256.447 252.972 256.152 253.176 255.791C253.383 255.43 253.487 255.05 253.487 254.652V253.307C253.425 253.382 253.288 253.45 253.076 253.513C252.869 253.571 252.628 253.623 252.354 253.668C252.084 253.71 251.821 253.747 251.564 253.78C251.31 253.809 251.105 253.834 250.947 253.855C250.566 253.905 250.209 253.986 249.877 254.098C249.549 254.206 249.283 254.37 249.08 254.59C248.881 254.805 248.781 255.1 248.781 255.474C248.781 255.984 248.97 256.37 249.347 256.631C249.729 256.889 250.213 257.017 250.798 257.017ZM261.796 248.551V249.796H256.841V248.551H261.796ZM258.285 246.261H259.754V255.374C259.754 255.789 259.814 256.1 259.935 256.308C260.059 256.511 260.217 256.648 260.408 256.719C260.603 256.785 260.808 256.818 261.024 256.818C261.186 256.818 261.319 256.81 261.422 256.793C261.526 256.772 261.609 256.756 261.671 256.743L261.97 258.063C261.871 258.1 261.732 258.138 261.553 258.175C261.375 258.217 261.148 258.237 260.875 258.237C260.46 258.237 260.053 258.148 259.654 257.97C259.26 257.791 258.932 257.519 258.671 257.154C258.414 256.789 258.285 256.328 258.285 255.772V246.261ZM267.912 258.312C266.991 258.312 266.196 258.109 265.528 257.702C264.864 257.291 264.351 256.719 263.99 255.984C263.633 255.245 263.455 254.386 263.455 253.407C263.455 252.427 263.633 251.564 263.99 250.817C264.351 250.066 264.853 249.481 265.497 249.062C266.144 248.639 266.899 248.427 267.763 248.427C268.261 248.427 268.752 248.51 269.238 248.676C269.723 248.842 270.165 249.112 270.564 249.485C270.962 249.854 271.28 250.344 271.516 250.954C271.753 251.564 271.871 252.315 271.871 253.208V253.83H264.501V252.56H270.377C270.377 252.021 270.269 251.539 270.053 251.116C269.842 250.693 269.539 250.359 269.144 250.114C268.754 249.869 268.294 249.747 267.763 249.747C267.177 249.747 266.671 249.892 266.244 250.182C265.82 250.469 265.495 250.842 265.266 251.303C265.038 251.763 264.924 252.257 264.924 252.784V253.631C264.924 254.353 265.048 254.965 265.297 255.467C265.551 255.965 265.901 256.345 266.349 256.606C266.798 256.864 267.318 256.992 267.912 256.992C268.298 256.992 268.646 256.938 268.958 256.831C269.273 256.719 269.545 256.553 269.773 256.333C270.001 256.108 270.178 255.83 270.302 255.498L271.722 255.897C271.572 256.378 271.321 256.802 270.968 257.167C270.616 257.528 270.18 257.81 269.661 258.013C269.142 258.213 268.559 258.312 267.912 258.312Z" fill="#0B0B1C" fill-opacity="0.8"/>
</g>
<defs>
<filter id="filter0_f_4421_7104" x="263" y="35" width="132" height="160" filterUnits="userSpaceOnUse" color-interpolation-filters="sRGB">
<feFlood flood-opacity="0" result="BackgroundImageFix"/>
<feBlend mode="normal" in="SourceGraphic" in2="BackgroundImageFix" result="shape"/>
<feGaussianBlur stdDeviation="15" result="effect1_foregroundBlur_4421_7104"/>
</filter>
<filter id="filter1_f_4421_7104" x="299" y="202" width="192" height="177" filterUnits="userSpaceOnUse" color-interpolation-filters="sRGB">
<feFlood flood-opacity="0" result="BackgroundImageFix"/>
<feBlend mode="normal" in="SourceGraphic" in2="BackgroundImageFix" result="shape"/>
<feGaussianBlur stdDeviation="15" result="effect1_foregroundBlur_4421_7104"/>
</filter>
<filter id="filter2_f_4421_7104" x="418" y="-88" width="259" height="250" filterUnits="userSpaceOnUse" color-interpolation-filters="sRGB">
<feFlood flood-opacity="0" result="BackgroundImageFix"/>
<feBlend mode="normal" in="SourceGraphic" in2="BackgroundImageFix" result="shape"/>
<feGaussianBlur stdDeviation="15" result="effect1_foregroundBlur_4421_7104"/>
</filter>
<filter id="filter3_f_4421_7104" x="-58" y="-51" width="255" height="160" filterUnits="userSpaceOnUse" color-interpolation-filters="sRGB">
<feFlood flood-opacity="0" result="BackgroundImageFix"/>
<feBlend mode="normal" in="SourceGraphic" in2="BackgroundImageFix" result="shape"/>
<feGaussianBlur stdDeviation="15" result="effect1_foregroundBlur_4421_7104"/>
</filter>
<filter id="filter4_f_4421_7104" x="53.5625" y="175.563" width="276.875" height="252.875" filterUnits="userSpaceOnUse" color-interpolation-filters="sRGB">
<feFlood flood-opacity="0" result="BackgroundImageFix"/>
<feBlend mode="normal" in="SourceGraphic" in2="BackgroundImageFix" result="shape"/>
<feGaussianBlur stdDeviation="23.7187" result="effect1_foregroundBlur_4421_7104"/>
</filter>
<filter id="filter5_f_4421_7104" x="92.5625" y="11.5625" width="254.875" height="240.875" filterUnits="userSpaceOnUse" color-interpolation-filters="sRGB">
<feFlood flood-opacity="0" result="BackgroundImageFix"/>
<feBlend mode="normal" in="SourceGraphic" in2="BackgroundImageFix" result="shape"/>
<feGaussianBlur stdDeviation="23.7187" result="effect1_foregroundBlur_4421_7104"/>
</filter>
<filter id="filter6_d_4421_7104" x="157.601" y="73.539" width="574.431" height="373.727" filterUnits="userSpaceOnUse" color-interpolation-filters="sRGB">
<feFlood flood-opacity="0" result="BackgroundImageFix"/>
<feColorMatrix in="SourceAlpha" type="matrix" values="0 0 0 0 0 0 0 0 0 0 0 0 0 0 0 0 0 0 127 0" result="hardAlpha"/>
<feOffset dx="-7.1833" dy="11.7545"/>
<feGaussianBlur stdDeviation="7.60776"/>
<feComposite in2="hardAlpha" operator="out"/>
<feColorMatrix type="matrix" values="0 0 0 0 0.638251 0 0 0 0 0.639326 0 0 0 0 0.639583 0 0 0 0.15 0"/>
<feBlend mode="normal" in2="BackgroundImageFix" result="effect1_dropShadow_4421_7104"/>
<feBlend mode="normal" in="SourceGraphic" in2="effect1_dropShadow_4421_7104" result="shape"/>
</filter>
<clipPath id="clip0_4421_7104">
<rect width="503" height="340" fill="white"/>
</clipPath>
<clipPath id="clip1_4421_7104">
<rect width="958.063" height="930.197" fill="white" transform="translate(-245 -147.197)"/>
</clipPath>
<clipPath id="clip2_4421_7104">
<path d="M73 45H547V349C547 361.15 537.15 371 525 371H73V45Z" fill="white"/>
</clipPath>
<clipPath id="clip3_4421_7104">
<rect x="180" y="77" width="544" height="343.296" rx="20.4471" fill="white"/>
</clipPath>
<clipPath id="clip4_4421_7104">
<rect width="99.545" height="32.2849" fill="white" transform="translate(232.193 133.498)"/>
</clipPath>
</defs>
</svg>
