<svg width="741" height="403" viewBox="0 0 741 403" fill="none" xmlns="http://www.w3.org/2000/svg">
<g filter="url(#filter0_d_6382_26984)">
<rect x="21.4336" y="3" width="102.704" height="70.4521" rx="8.80651" fill="white"/>
<path fill-rule="evenodd" clip-rule="evenodd" d="M52.6108 50.7262H46.3889L41.7232 32.9198C41.5017 32.1007 41.0315 31.3766 40.3399 31.0353C38.6138 30.1776 36.7117 29.495 34.6367 29.1508V28.4652H44.6597C46.043 28.4652 47.0805 29.495 47.2534 30.691L49.6742 43.5354L55.8931 28.4652H61.9421L52.6108 50.7262ZM65.4015 50.7262H59.5254L64.364 28.4652H70.2401L65.4015 50.7262ZM77.8431 34.6296C78.016 33.4306 79.0535 32.7451 80.2639 32.7451C82.1659 32.5729 84.2379 32.9172 85.967 33.7719L87.0045 28.979C85.2754 28.2935 83.3733 27.9492 81.6472 27.9492C75.944 27.9492 71.7941 31.0327 71.7941 35.3122C71.7941 38.5678 74.7336 40.2772 76.8086 41.307C79.0535 42.3338 79.918 43.0194 79.7451 44.0462C79.7451 45.5864 78.016 46.272 76.2899 46.272C74.2149 46.272 72.1399 45.7586 70.2409 44.9009L69.2034 49.6968C71.2784 50.5515 73.5232 50.8957 75.5982 50.8957C81.993 51.0649 85.967 47.9844 85.967 43.3606C85.967 37.538 77.8431 37.1967 77.8431 34.6296ZM106.528 50.7262L101.862 28.4652H96.8506C95.8131 28.4652 94.7756 29.1508 94.4298 30.1776L85.7901 50.7262H91.8391L93.0465 47.4735H100.479L101.17 50.7262H106.528ZM97.7148 34.4566L99.441 42.8464H94.6024L97.7148 34.4566Z" fill="#172B85"/>
</g>
<g filter="url(#filter1_d_6382_26984)">
<rect x="599.945" y="243.805" width="131.055" height="89.8998" rx="11.2375" fill="white"/>
<path fill-rule="evenodd" clip-rule="evenodd" d="M637.018 300.891H631.193C630.794 300.891 630.455 301.18 630.393 301.574L628.037 316.516C627.991 316.811 628.219 317.077 628.518 317.077H631.299C631.697 317.077 632.036 316.787 632.098 316.393L632.734 312.363C632.795 311.968 633.135 311.679 633.533 311.679H635.377C639.214 311.679 641.428 309.821 642.007 306.14C642.267 304.53 642.018 303.265 641.264 302.378C640.436 301.406 638.967 300.891 637.018 300.891ZM637.69 306.348C637.371 308.439 635.774 308.439 634.23 308.439H633.351L633.968 304.534C634.005 304.298 634.209 304.124 634.447 304.124H634.85C635.902 304.124 636.895 304.124 637.407 304.724C637.713 305.082 637.807 305.614 637.69 306.348ZM654.43 306.281H651.641C651.403 306.281 651.198 306.455 651.161 306.691L651.037 307.471L650.842 307.189C650.239 306.312 648.892 306.019 647.548 306.019C644.465 306.019 641.833 308.354 641.32 311.631C641.054 313.264 641.432 314.827 642.359 315.917C643.209 316.919 644.426 317.336 645.873 317.336C648.356 317.336 649.734 315.739 649.734 315.739L649.609 316.514C649.562 316.811 649.79 317.077 650.088 317.077H652.6C653 317.077 653.337 316.787 653.4 316.392L654.908 306.842C654.955 306.548 654.728 306.281 654.43 306.281ZM650.542 311.712C650.272 313.306 649.008 314.376 647.395 314.376C646.585 314.376 645.937 314.117 645.522 313.624C645.109 313.135 644.953 312.439 645.084 311.664C645.335 310.083 646.621 308.978 648.21 308.978C649.002 308.978 649.646 309.241 650.07 309.738C650.495 310.24 650.663 310.94 650.542 311.712ZM666.483 306.281H669.286C669.678 306.281 669.908 306.721 669.684 307.043L660.362 320.505C660.211 320.723 659.962 320.853 659.696 320.853H656.897C656.502 320.853 656.272 320.409 656.5 320.086L659.403 315.987L656.316 306.923C656.209 306.608 656.442 306.281 656.777 306.281H659.531C659.889 306.281 660.205 306.516 660.308 306.858L661.946 312.333L665.813 306.636C665.964 306.414 666.215 306.281 666.483 306.281Z" fill="#253B80"/>
<path fill-rule="evenodd" clip-rule="evenodd" d="M696.873 316.517L699.263 301.301C699.3 301.065 699.505 300.891 699.742 300.891H702.434C702.731 300.891 702.959 301.157 702.912 301.452L700.555 316.394C700.493 316.788 700.154 317.078 699.755 317.078H697.351C697.054 317.078 696.826 316.812 696.873 316.517ZM678.565 300.891H672.739C672.341 300.891 672.002 301.181 671.94 301.575L669.584 316.517C669.537 316.812 669.766 317.078 670.063 317.078H673.052C673.33 317.078 673.568 316.875 673.611 316.599L674.28 312.364C674.341 311.969 674.681 311.679 675.079 311.679H676.922C680.76 311.679 682.974 309.822 683.553 306.141C683.814 304.531 683.563 303.265 682.809 302.379C681.982 301.406 680.514 300.891 678.565 300.891ZM679.237 306.349C678.919 308.44 677.322 308.44 675.777 308.44H674.899L675.517 304.535C675.553 304.299 675.756 304.125 675.995 304.125H676.398C677.449 304.125 678.442 304.125 678.955 304.725C679.261 305.083 679.354 305.614 679.237 306.349ZM695.975 306.282H693.188C692.948 306.282 692.745 306.456 692.709 306.692L692.586 307.472L692.39 307.19C691.786 306.313 690.44 306.02 689.096 306.02C686.014 306.02 683.382 308.355 682.869 311.631C682.603 313.265 682.981 314.828 683.907 315.918C684.759 316.92 685.974 317.337 687.421 317.337C689.904 317.337 691.282 315.739 691.282 315.739L691.157 316.515C691.11 316.812 691.339 317.077 691.638 317.077H694.149C694.547 317.077 694.886 316.788 694.948 316.393L696.457 306.843C696.503 306.549 696.275 306.282 695.975 306.282ZM692.088 311.713C691.82 313.307 690.554 314.377 688.94 314.377C688.132 314.377 687.483 314.117 687.067 313.625C686.655 313.136 686.5 312.44 686.63 311.664C686.882 310.084 688.167 308.979 689.755 308.979C690.548 308.979 691.191 309.242 691.616 309.739C692.042 310.241 692.211 310.941 692.088 311.713Z" fill="#179BD7"/>
<path d="M658.578 295.551L659.294 291.001L657.699 290.964H650.082L655.375 257.387C655.392 257.285 655.445 257.191 655.523 257.124C655.601 257.057 655.701 257.02 655.806 257.02H668.649C672.913 257.02 675.855 257.907 677.392 259.659C678.112 260.481 678.571 261.34 678.792 262.285C679.025 263.277 679.029 264.461 678.802 265.907L678.785 266.012V266.938L679.506 267.346C680.112 267.668 680.594 268.036 680.964 268.458C681.58 269.161 681.979 270.054 682.147 271.113C682.321 272.202 682.263 273.498 681.979 274.965C681.65 276.652 681.119 278.122 680.401 279.325C679.741 280.433 678.9 281.352 677.902 282.064C676.949 282.741 675.817 283.255 674.537 283.583C673.296 283.906 671.882 284.07 670.33 284.07H669.331C668.616 284.07 667.922 284.327 667.377 284.789C666.831 285.26 666.469 285.904 666.358 286.608L666.283 287.017L665.018 295.037L664.96 295.332C664.945 295.425 664.919 295.472 664.881 295.503C664.847 295.531 664.797 295.551 664.749 295.551H658.578Z" fill="#253B80"/>
<path d="M680.183 266.113C680.145 266.358 680.101 266.609 680.052 266.867C678.357 275.566 672.563 278.571 665.162 278.571H661.394C660.489 278.571 659.726 279.229 659.585 280.122L657.656 292.362L657.11 295.832C657.018 296.418 657.47 296.947 658.061 296.947H664.745C665.536 296.947 666.208 296.371 666.333 295.591L666.399 295.251L667.657 287.262L667.738 286.824C667.861 286.041 668.534 285.465 669.326 285.465H670.325C676.801 285.465 681.87 282.835 683.351 275.225C683.97 272.046 683.65 269.391 682.012 267.524C681.517 266.961 680.902 266.494 680.183 266.113Z" fill="#179BD7"/>
<path d="M678.412 265.409C678.153 265.334 677.886 265.265 677.612 265.203C677.337 265.143 677.055 265.09 676.765 265.043C675.749 264.879 674.635 264.801 673.443 264.801H663.376C663.128 264.801 662.893 264.857 662.682 264.958C662.218 265.182 661.873 265.621 661.789 266.16L659.647 279.728L659.586 280.124C659.727 279.231 660.49 278.574 661.395 278.574H665.163C672.564 278.574 678.359 275.567 680.052 266.869C680.103 266.612 680.145 266.361 680.184 266.116C679.755 265.888 679.291 265.694 678.791 265.528C678.668 265.487 678.541 265.447 678.412 265.409Z" fill="#222D65"/>
<path d="M661.789 266.159C661.872 265.621 662.218 265.181 662.682 264.959C662.894 264.858 663.128 264.802 663.376 264.802H673.443C674.635 264.802 675.748 264.88 676.764 265.044C677.055 265.091 677.337 265.144 677.612 265.204C677.886 265.266 678.153 265.334 678.412 265.41C678.54 265.448 678.668 265.488 678.792 265.528C679.292 265.693 679.756 265.889 680.185 266.115C680.689 262.9 680.181 260.712 678.443 258.729C676.528 256.547 673.07 255.613 668.646 255.613H655.802C654.899 255.613 654.128 256.271 653.988 257.165L648.639 291.087C648.533 291.758 649.051 292.364 649.727 292.364H657.657L659.647 279.728L661.789 266.159Z" fill="#253B80"/>
</g>
<g filter="url(#filter2_d_6382_26984)">
<rect x="106.473" y="37.125" width="507.973" height="280.523" rx="30.3268" fill="#694EFB"/>
<g filter="url(#filter3_b_6382_26984)">
<rect x="106.473" y="37.125" width="507.973" height="280.523" rx="30.3268" fill="white" fill-opacity="0.03"/>
</g>
<path d="M152.038 271.863V268.539H143.692V266.744L151.019 254.929H153.979V266.865H156.502V268.539H153.979V271.863H152.038ZM145.512 266.865H152.038V256.506H151.941L145.512 266.865ZM164.693 272.154C163.706 272.154 162.841 272.033 162.097 271.79C161.353 271.532 160.73 271.184 160.229 270.747C159.744 270.311 159.372 269.793 159.113 269.195C158.87 268.596 158.749 267.949 158.749 267.254C158.749 266.089 159.064 265.167 159.695 264.488C160.326 263.808 161.159 263.331 162.194 263.056V262.862C161.288 262.555 160.569 262.062 160.035 261.382C159.517 260.687 159.258 259.854 159.258 258.883C159.258 257.589 159.736 256.562 160.69 255.802C161.644 255.026 162.979 254.638 164.693 254.638C166.407 254.638 167.742 255.026 168.696 255.802C169.65 256.562 170.128 257.589 170.128 258.883C170.128 259.854 169.861 260.687 169.327 261.382C168.809 262.062 168.098 262.555 167.192 262.862V263.056C168.227 263.331 169.06 263.808 169.691 264.488C170.322 265.167 170.637 266.089 170.637 267.254C170.637 267.949 170.508 268.596 170.249 269.195C170.006 269.793 169.634 270.311 169.133 270.747C168.631 271.184 168.009 271.532 167.265 271.79C166.537 272.033 165.68 272.154 164.693 272.154ZM164.693 270.432C165.89 270.432 166.828 270.165 167.507 269.631C168.187 269.097 168.526 268.345 168.526 267.375V266.841C168.526 265.871 168.187 265.119 167.507 264.585C166.844 264.051 165.906 263.784 164.693 263.784C163.48 263.784 162.534 264.051 161.854 264.585C161.191 265.119 160.86 265.871 160.86 266.841V267.375C160.86 268.345 161.199 269.097 161.879 269.631C162.558 270.165 163.496 270.432 164.693 270.432ZM164.693 262.134C165.793 262.134 166.626 261.9 167.192 261.431C167.774 260.962 168.065 260.291 168.065 259.417V259.078C168.065 258.204 167.766 257.533 167.168 257.064C166.585 256.595 165.76 256.36 164.693 256.36C163.625 256.36 162.793 256.595 162.194 257.064C161.612 257.533 161.321 258.204 161.321 259.078V259.417C161.321 260.291 161.604 260.962 162.17 261.431C162.752 261.9 163.593 262.134 164.693 262.134ZM179.24 272.154C178.205 272.154 177.316 271.96 176.572 271.572C175.828 271.168 175.213 270.594 174.728 269.85C174.243 269.106 173.887 268.192 173.66 267.108C173.434 266.024 173.321 264.787 173.321 263.396C173.321 262.021 173.434 260.792 173.66 259.708C173.887 258.608 174.243 257.687 174.728 256.943C175.213 256.198 175.828 255.632 176.572 255.244C177.316 254.84 178.205 254.638 179.24 254.638C180.276 254.638 181.165 254.84 181.909 255.244C182.653 255.632 183.268 256.198 183.753 256.943C184.238 257.687 184.594 258.608 184.82 259.708C185.047 260.792 185.16 262.021 185.16 263.396C185.16 264.787 185.047 266.024 184.82 267.108C184.594 268.192 184.238 269.106 183.753 269.85C183.268 270.594 182.653 271.168 181.909 271.572C181.165 271.96 180.276 272.154 179.24 272.154ZM179.24 270.383C179.92 270.383 180.502 270.254 180.987 269.995C181.472 269.72 181.861 269.34 182.152 268.855C182.459 268.37 182.685 267.787 182.831 267.108C182.977 266.413 183.049 265.636 183.049 264.779V262.013C183.049 261.172 182.977 260.404 182.831 259.708C182.685 259.013 182.459 258.422 182.152 257.937C181.861 257.452 181.472 257.08 180.987 256.821C180.502 256.546 179.92 256.409 179.24 256.409C178.561 256.409 177.979 256.546 177.494 256.821C177.008 257.08 176.612 257.452 176.305 257.937C176.014 258.422 175.795 259.013 175.65 259.708C175.504 260.404 175.431 261.172 175.431 262.013V264.779C175.431 265.636 175.504 266.413 175.65 267.108C175.795 267.787 176.014 268.37 176.305 268.855C176.612 269.34 177.008 269.72 177.494 269.995C177.979 270.254 178.561 270.383 179.24 270.383ZM179.24 264.827C178.674 264.827 178.278 264.714 178.052 264.488C177.841 264.261 177.736 263.986 177.736 263.663V263.129C177.736 262.806 177.841 262.531 178.052 262.304C178.278 262.078 178.674 261.965 179.24 261.965C179.806 261.965 180.195 262.078 180.405 262.304C180.631 262.531 180.745 262.806 180.745 263.129V263.663C180.745 263.986 180.631 264.261 180.405 264.488C180.195 264.714 179.806 264.827 179.24 264.827ZM199.538 271.863H188.232V269.777L193.885 264.682C194.71 263.938 195.389 263.178 195.923 262.401C196.456 261.609 196.723 260.776 196.723 259.902V259.611C196.723 258.592 196.456 257.808 195.923 257.258C195.389 256.692 194.596 256.409 193.545 256.409C192.51 256.409 191.709 256.676 191.143 257.209C190.593 257.727 190.181 258.422 189.906 259.296L188.086 258.617C188.248 258.115 188.466 257.63 188.741 257.161C189.032 256.676 189.396 256.247 189.833 255.875C190.27 255.503 190.795 255.204 191.41 254.977C192.041 254.751 192.769 254.638 193.594 254.638C194.435 254.638 195.179 254.759 195.826 255.002C196.489 255.244 197.039 255.584 197.475 256.021C197.928 256.457 198.268 256.975 198.494 257.573C198.737 258.172 198.858 258.827 198.858 259.538C198.858 260.185 198.761 260.792 198.567 261.358C198.389 261.924 198.131 262.466 197.791 262.984C197.467 263.501 197.071 264.011 196.602 264.512C196.149 264.997 195.64 265.483 195.074 265.968L190.343 270.092H199.538V271.863ZM219.365 265.507V263.469H226.4V265.507H219.365ZM257.727 271.863H246.421V269.777L252.074 264.682C252.899 263.938 253.578 263.178 254.112 262.401C254.646 261.609 254.913 260.776 254.913 259.902V259.611C254.913 258.592 254.646 257.808 254.112 257.258C253.578 256.692 252.786 256.409 251.735 256.409C250.699 256.409 249.899 256.676 249.333 257.209C248.783 257.727 248.37 258.422 248.095 259.296L246.276 258.617C246.438 258.115 246.656 257.63 246.931 257.161C247.222 256.676 247.586 256.247 248.023 255.875C248.459 255.503 248.985 255.204 249.6 254.977C250.23 254.751 250.958 254.638 251.783 254.638C252.624 254.638 253.368 254.759 254.015 255.002C254.678 255.244 255.228 255.584 255.665 256.021C256.118 256.457 256.457 256.975 256.684 257.573C256.927 258.172 257.048 258.827 257.048 259.538C257.048 260.185 256.951 260.792 256.757 261.358C256.579 261.924 256.32 262.466 255.98 262.984C255.657 263.501 255.261 264.011 254.792 264.512C254.339 264.997 253.829 265.483 253.263 265.968L248.532 270.092H257.727V271.863ZM272.275 271.863H260.969V269.777L266.622 264.682C267.447 263.938 268.126 263.178 268.66 262.401C269.193 261.609 269.46 260.776 269.46 259.902V259.611C269.46 258.592 269.193 257.808 268.66 257.258C268.126 256.692 267.333 256.409 266.282 256.409C265.247 256.409 264.446 256.676 263.88 257.209C263.33 257.727 262.918 258.422 262.643 259.296L260.823 258.617C260.985 258.115 261.203 257.63 261.478 257.161C261.769 256.676 262.133 256.247 262.57 255.875C263.007 255.503 263.532 255.204 264.147 254.977C264.778 254.751 265.506 254.638 266.33 254.638C267.172 254.638 267.916 254.759 268.563 255.002C269.226 255.244 269.776 255.584 270.212 256.021C270.665 256.457 271.005 256.975 271.231 257.573C271.474 258.172 271.595 258.827 271.595 259.538C271.595 260.185 271.498 260.792 271.304 261.358C271.126 261.924 270.867 262.466 270.528 262.984C270.204 263.501 269.808 264.011 269.339 264.512C268.886 264.997 268.377 265.483 267.81 265.968L263.079 270.092H272.275V271.863ZM275.856 271.863V270.092H280.708V256.433H280.538L276.268 260.412L275.079 259.126L279.568 254.929H282.746V270.092H287.21V271.863H275.856ZM300.496 256.7H292.926L292.441 263.178H292.611C293.031 262.612 293.5 262.167 294.018 261.843C294.536 261.504 295.247 261.334 296.153 261.334C296.897 261.334 297.576 261.455 298.191 261.698C298.822 261.924 299.364 262.264 299.817 262.717C300.269 263.17 300.625 263.72 300.884 264.367C301.143 264.997 301.272 265.725 301.272 266.55C301.272 267.375 301.143 268.135 300.884 268.831C300.625 269.51 300.245 270.1 299.744 270.602C299.242 271.087 298.636 271.467 297.924 271.742C297.212 272.017 296.404 272.154 295.498 272.154C294.786 272.154 294.147 272.074 293.581 271.912C293.031 271.75 292.538 271.532 292.101 271.257C291.681 270.982 291.309 270.674 290.985 270.335C290.662 269.995 290.371 269.639 290.112 269.267L291.64 268.103C291.867 268.442 292.093 268.75 292.32 269.025C292.562 269.3 292.837 269.542 293.145 269.753C293.452 269.947 293.8 270.1 294.188 270.214C294.576 270.327 295.029 270.383 295.547 270.383C296.711 270.383 297.601 270.068 298.215 269.437C298.846 268.806 299.161 267.933 299.161 266.817V266.623C299.161 265.507 298.846 264.633 298.215 264.003C297.584 263.372 296.679 263.056 295.498 263.056C294.689 263.056 294.058 263.194 293.606 263.469C293.169 263.744 292.765 264.083 292.393 264.488L290.67 264.245L291.277 254.929H300.496V256.7ZM321.196 265.507V263.469H328.232V265.507H321.196ZM348.593 271.863V270.092H353.445V256.433H353.275L349.005 260.412L347.816 259.126L352.305 254.929H355.483V270.092H359.947V271.863H348.593ZM363.14 271.863V270.092H367.992V256.433H367.822L363.552 260.412L362.364 259.126L366.852 254.929H370.03V270.092H374.494V271.863H363.14ZM382.904 272.154C381.917 272.154 381.052 272.033 380.308 271.79C379.564 271.532 378.941 271.184 378.439 270.747C377.954 270.311 377.582 269.793 377.323 269.195C377.081 268.596 376.959 267.949 376.959 267.254C376.959 266.089 377.275 265.167 377.906 264.488C378.536 263.808 379.369 263.331 380.405 263.056V262.862C379.499 262.555 378.779 262.062 378.245 261.382C377.728 260.687 377.469 259.854 377.469 258.883C377.469 257.589 377.946 256.562 378.9 255.802C379.855 255.026 381.189 254.638 382.904 254.638C384.618 254.638 385.952 255.026 386.907 255.802C387.861 256.562 388.338 257.589 388.338 258.883C388.338 259.854 388.071 260.687 387.537 261.382C387.02 262.062 386.308 262.555 385.402 262.862V263.056C386.438 263.331 387.271 263.808 387.901 264.488C388.532 265.167 388.848 266.089 388.848 267.254C388.848 267.949 388.718 268.596 388.459 269.195C388.217 269.793 387.845 270.311 387.343 270.747C386.842 271.184 386.219 271.532 385.475 271.79C384.747 272.033 383.89 272.154 382.904 272.154ZM382.904 270.432C384.1 270.432 385.039 270.165 385.718 269.631C386.397 269.097 386.737 268.345 386.737 267.375V266.841C386.737 265.871 386.397 265.119 385.718 264.585C385.055 264.051 384.117 263.784 382.904 263.784C381.69 263.784 380.744 264.051 380.065 264.585C379.402 265.119 379.07 265.871 379.07 266.841V267.375C379.07 268.345 379.41 269.097 380.089 269.631C380.769 270.165 381.707 270.432 382.904 270.432ZM382.904 262.134C384.003 262.134 384.836 261.9 385.402 261.431C385.985 260.962 386.276 260.291 386.276 259.417V259.078C386.276 258.204 385.977 257.533 385.378 257.064C384.796 256.595 383.971 256.36 382.904 256.36C381.836 256.36 381.003 256.595 380.405 257.064C379.822 257.533 379.531 258.204 379.531 259.078V259.417C379.531 260.291 379.814 260.962 380.38 261.431C380.963 261.9 381.804 262.134 382.904 262.134ZM396.723 262.11C397.904 262.11 398.785 261.851 399.368 261.334C399.966 260.8 400.265 260.121 400.265 259.296V259.126C400.265 258.22 399.974 257.541 399.392 257.088C398.826 256.635 398.082 256.409 397.16 256.409C396.254 256.409 395.518 256.611 394.952 257.015C394.402 257.403 393.949 257.921 393.593 258.568L392.065 257.403C392.275 257.064 392.534 256.732 392.841 256.409C393.149 256.069 393.504 255.77 393.909 255.511C394.329 255.252 394.806 255.042 395.34 254.88C395.89 254.719 396.513 254.638 397.208 254.638C397.936 254.638 398.615 254.735 399.246 254.929C399.877 255.107 400.427 255.382 400.896 255.754C401.365 256.11 401.729 256.554 401.988 257.088C402.263 257.622 402.4 258.228 402.4 258.908C402.4 259.458 402.311 259.951 402.133 260.388C401.972 260.824 401.737 261.204 401.43 261.528C401.139 261.851 400.791 262.126 400.387 262.353C399.982 262.579 399.554 262.749 399.101 262.862V262.959C399.57 263.056 400.023 263.218 400.459 263.445C400.896 263.655 401.284 263.938 401.624 264.294C401.964 264.633 402.23 265.054 402.424 265.555C402.635 266.041 402.74 266.599 402.74 267.229C402.74 267.957 402.594 268.628 402.303 269.243C402.028 269.841 401.632 270.359 401.114 270.796C400.613 271.216 399.998 271.548 399.271 271.79C398.559 272.033 397.766 272.154 396.893 272.154C396.149 272.154 395.486 272.074 394.903 271.912C394.337 271.75 393.828 271.532 393.375 271.257C392.938 270.982 392.55 270.674 392.21 270.335C391.887 269.995 391.596 269.639 391.337 269.267L392.865 268.103C393.092 268.442 393.326 268.75 393.569 269.025C393.812 269.3 394.087 269.542 394.394 269.753C394.717 269.947 395.081 270.1 395.486 270.214C395.89 270.327 396.359 270.383 396.893 270.383C398.09 270.383 399.004 270.108 399.634 269.558C400.281 269.009 400.605 268.224 400.605 267.205V267.011C400.605 266.008 400.289 265.232 399.659 264.682C399.044 264.132 398.114 263.857 396.869 263.857H394.855V262.11H396.723ZM423.028 265.507V263.469H430.064V265.507H423.028ZM457.533 271.863V268.539H449.187V266.744L456.514 254.929H459.474V266.865H461.997V268.539H459.474V271.863H457.533ZM451.006 266.865H457.533V256.506H457.436L451.006 266.865ZM475.938 271.863H464.632V269.777L470.285 264.682C471.11 263.938 471.789 263.178 472.323 262.401C472.857 261.609 473.123 260.776 473.123 259.902V259.611C473.123 258.592 472.857 257.808 472.323 257.258C471.789 256.692 470.996 256.409 469.945 256.409C468.91 256.409 468.109 256.676 467.543 257.209C466.993 257.727 466.581 258.422 466.306 259.296L464.486 258.617C464.648 258.115 464.866 257.63 465.141 257.161C465.433 256.676 465.796 256.247 466.233 255.875C466.67 255.503 467.196 255.204 467.81 254.977C468.441 254.751 469.169 254.638 469.994 254.638C470.835 254.638 471.579 254.759 472.226 255.002C472.889 255.244 473.439 255.584 473.875 256.021C474.328 256.457 474.668 256.975 474.894 257.573C475.137 258.172 475.258 258.827 475.258 259.538C475.258 260.185 475.161 260.792 474.967 261.358C474.789 261.924 474.531 262.466 474.191 262.984C473.867 263.501 473.471 264.011 473.002 264.512C472.549 264.997 472.04 265.483 471.474 265.968L466.743 270.092H475.938V271.863ZM484.735 272.154C483.748 272.154 482.883 272.033 482.139 271.79C481.395 271.532 480.772 271.184 480.271 270.747C479.786 270.311 479.414 269.793 479.155 269.195C478.912 268.596 478.791 267.949 478.791 267.254C478.791 266.089 479.106 265.167 479.737 264.488C480.368 263.808 481.201 263.331 482.236 263.056V262.862C481.33 262.555 480.611 262.062 480.077 261.382C479.559 260.687 479.301 259.854 479.301 258.883C479.301 257.589 479.778 256.562 480.732 255.802C481.686 255.026 483.021 254.638 484.735 254.638C486.45 254.638 487.784 255.026 488.738 255.802C489.693 256.562 490.17 257.589 490.17 258.883C490.17 259.854 489.903 260.687 489.369 261.382C488.851 262.062 488.14 262.555 487.234 262.862V263.056C488.269 263.331 489.102 263.808 489.733 264.488C490.364 265.167 490.679 266.089 490.679 267.254C490.679 267.949 490.55 268.596 490.291 269.195C490.048 269.793 489.676 270.311 489.175 270.747C488.674 271.184 488.051 271.532 487.307 271.79C486.579 272.033 485.722 272.154 484.735 272.154ZM484.735 270.432C485.932 270.432 486.87 270.165 487.549 269.631C488.229 269.097 488.568 268.345 488.568 267.375V266.841C488.568 265.871 488.229 265.119 487.549 264.585C486.886 264.051 485.948 263.784 484.735 263.784C483.522 263.784 482.576 264.051 481.897 264.585C481.233 265.119 480.902 265.871 480.902 266.841V267.375C480.902 268.345 481.241 269.097 481.921 269.631C482.6 270.165 483.538 270.432 484.735 270.432ZM484.735 262.134C485.835 262.134 486.668 261.9 487.234 261.431C487.816 260.962 488.107 260.291 488.107 259.417V259.078C488.107 258.204 487.808 257.533 487.21 257.064C486.628 256.595 485.803 256.36 484.735 256.36C483.668 256.36 482.835 256.595 482.236 257.064C481.654 257.533 481.363 258.204 481.363 259.078V259.417C481.363 260.291 481.646 260.962 482.212 261.431C482.794 261.9 483.635 262.134 484.735 262.134ZM505.008 261.14C505.008 262.401 504.814 263.59 504.426 264.706C504.054 265.806 503.569 266.817 502.97 267.739C502.372 268.645 501.709 269.453 500.981 270.165C500.269 270.86 499.566 271.427 498.87 271.863H496.25C497.172 271.2 497.989 270.553 498.7 269.922C499.428 269.292 500.067 268.637 500.617 267.957C501.167 267.262 501.628 266.526 502 265.749C502.372 264.957 502.679 264.067 502.922 263.081L502.8 263.032C502.38 263.728 501.838 264.31 501.175 264.779C500.528 265.232 499.679 265.458 498.627 265.458C497.883 265.458 497.196 265.337 496.565 265.094C495.951 264.852 495.417 264.504 494.964 264.051C494.527 263.598 494.179 263.056 493.921 262.426C493.678 261.779 493.557 261.051 493.557 260.242C493.557 259.417 493.686 258.665 493.945 257.986C494.22 257.29 494.608 256.7 495.11 256.215C495.611 255.713 496.209 255.325 496.905 255.05C497.617 254.775 498.401 254.638 499.258 254.638C500.148 254.638 500.948 254.791 501.66 255.099C502.372 255.39 502.97 255.818 503.455 256.385C503.957 256.934 504.337 257.614 504.596 258.422C504.871 259.231 505.008 260.137 505.008 261.14ZM499.282 263.784C500.447 263.784 501.345 263.469 501.975 262.838C502.622 262.207 502.946 261.318 502.946 260.169V259.975C502.946 258.827 502.622 257.937 501.975 257.306C501.345 256.676 500.447 256.36 499.282 256.36C498.118 256.36 497.212 256.676 496.565 257.306C495.934 257.937 495.619 258.827 495.619 259.975V260.169C495.619 261.318 495.934 262.207 496.565 262.838C497.212 263.469 498.118 263.784 499.282 263.784Z" fill="white"/>
<path d="M145.779 235.473V218.538H147.817V233.702H155.847V235.473H145.779ZM167.653 233.435H167.556C167.426 233.742 167.265 234.041 167.071 234.332C166.877 234.607 166.634 234.85 166.343 235.06C166.068 235.27 165.736 235.44 165.348 235.57C164.96 235.699 164.507 235.764 163.989 235.764C162.679 235.764 161.628 235.351 160.835 234.526C160.043 233.685 159.647 232.505 159.647 230.984V222.954H161.588V230.645C161.588 231.793 161.838 232.65 162.34 233.216C162.841 233.766 163.577 234.041 164.547 234.041C164.936 234.041 165.316 233.993 165.688 233.896C166.06 233.799 166.391 233.653 166.682 233.459C166.974 233.265 167.208 233.022 167.386 232.731C167.564 232.424 167.653 232.06 167.653 231.639V222.954H169.594V235.473H167.653V233.435ZM180.017 220.188C179.451 220.188 179.054 220.075 178.828 219.848C178.601 219.606 178.488 219.306 178.488 218.951V218.562C178.488 218.207 178.601 217.915 178.828 217.689C179.054 217.446 179.451 217.325 180.017 217.325C180.583 217.325 180.979 217.446 181.206 217.689C181.432 217.915 181.545 218.207 181.545 218.562V218.951C181.545 219.306 181.432 219.606 181.206 219.848C180.979 220.075 180.583 220.188 180.017 220.188ZM174.534 233.823H179.046V224.604H174.534V222.954H180.987V233.823H185.209V235.473H174.534V233.823ZM193.933 235.764C192.623 235.764 191.491 235.545 190.537 235.109C189.599 234.656 188.798 234.057 188.135 233.313L189.445 232.173C190.043 232.804 190.698 233.289 191.41 233.629C192.122 233.968 192.979 234.138 193.982 234.138C194.952 234.138 195.745 233.968 196.359 233.629C196.99 233.273 197.306 232.723 197.306 231.979C197.306 231.656 197.241 231.389 197.112 231.178C196.998 230.952 196.837 230.774 196.626 230.645C196.416 230.515 196.182 230.418 195.923 230.353C195.664 230.273 195.389 230.208 195.098 230.159L193.133 229.868C192.696 229.804 192.219 229.715 191.701 229.601C191.2 229.488 190.739 229.31 190.318 229.068C189.898 228.809 189.542 228.469 189.251 228.049C188.976 227.628 188.838 227.078 188.838 226.399C188.838 225.768 188.96 225.226 189.202 224.773C189.461 224.304 189.817 223.916 190.27 223.609C190.723 223.285 191.256 223.051 191.871 222.905C192.486 222.744 193.157 222.663 193.885 222.663C195.017 222.663 195.996 222.841 196.82 223.196C197.661 223.552 198.381 224.046 198.98 224.676L197.718 225.865C197.573 225.687 197.386 225.509 197.16 225.331C196.95 225.137 196.683 224.967 196.359 224.822C196.052 224.66 195.688 224.531 195.268 224.434C194.847 224.337 194.362 224.288 193.812 224.288C192.825 224.288 192.065 224.458 191.531 224.798C191.014 225.137 190.755 225.631 190.755 226.278C190.755 226.601 190.812 226.876 190.925 227.102C191.054 227.313 191.224 227.483 191.434 227.612C191.645 227.741 191.879 227.846 192.138 227.927C192.413 227.992 192.688 228.049 192.963 228.097L194.928 228.388C195.381 228.453 195.858 228.542 196.359 228.655C196.861 228.768 197.322 228.954 197.742 229.213C198.163 229.456 198.511 229.787 198.786 230.208C199.077 230.628 199.222 231.178 199.222 231.858C199.222 233.103 198.737 234.065 197.767 234.745C196.812 235.424 195.535 235.764 193.933 235.764ZM217.788 235.473V218.538H228.463V220.309H219.826V226.011H227.735V227.782H219.826V235.473H217.788ZM237.43 235.764C236.556 235.764 235.764 235.61 235.052 235.303C234.357 234.996 233.758 234.559 233.257 233.993C232.772 233.41 232.4 232.723 232.141 231.93C231.882 231.122 231.753 230.216 231.753 229.213C231.753 228.227 231.882 227.329 232.141 226.52C232.4 225.711 232.772 225.024 233.257 224.458C233.758 223.876 234.357 223.431 235.052 223.124C235.764 222.816 236.556 222.663 237.43 222.663C238.303 222.663 239.088 222.816 239.783 223.124C240.495 223.431 241.093 223.876 241.579 224.458C242.08 225.024 242.46 225.711 242.719 226.52C242.978 227.329 243.107 228.227 243.107 229.213C243.107 230.216 242.978 231.122 242.719 231.93C242.46 232.723 242.08 233.41 241.579 233.993C241.093 234.559 240.495 234.996 239.783 235.303C239.088 235.61 238.303 235.764 237.43 235.764ZM237.43 234.09C238.514 234.09 239.387 233.766 240.05 233.119C240.713 232.472 241.045 231.47 241.045 230.111V228.316C241.045 226.957 240.713 225.954 240.05 225.307C239.387 224.66 238.514 224.337 237.43 224.337C236.346 224.337 235.473 224.66 234.81 225.307C234.146 225.954 233.815 226.957 233.815 228.316V230.111C233.815 231.47 234.146 232.472 234.81 233.119C235.473 233.766 236.346 234.09 237.43 234.09ZM247.076 235.473V222.954H249.017V224.992H249.114C249.244 224.684 249.405 224.393 249.6 224.118C249.794 223.827 250.028 223.576 250.303 223.366C250.594 223.156 250.934 222.986 251.322 222.857C251.71 222.727 252.163 222.663 252.681 222.663C253.991 222.663 255.042 223.083 255.835 223.924C256.627 224.749 257.024 225.922 257.024 227.442V235.473H255.083V227.782C255.083 226.633 254.832 225.784 254.331 225.234C253.829 224.668 253.093 224.385 252.123 224.385C251.735 224.385 251.354 224.434 250.982 224.531C250.61 224.628 250.279 224.773 249.988 224.967C249.697 225.162 249.462 225.412 249.284 225.72C249.106 226.027 249.017 226.383 249.017 226.787V235.473H247.076ZM266.67 235.764C265.36 235.764 264.228 235.545 263.274 235.109C262.335 234.656 261.535 234.057 260.872 233.313L262.182 232.173C262.78 232.804 263.435 233.289 264.147 233.629C264.859 233.968 265.716 234.138 266.719 234.138C267.689 234.138 268.482 233.968 269.096 233.629C269.727 233.273 270.042 232.723 270.042 231.979C270.042 231.656 269.978 231.389 269.848 231.178C269.735 230.952 269.573 230.774 269.363 230.645C269.153 230.515 268.918 230.418 268.66 230.353C268.401 230.273 268.126 230.208 267.835 230.159L265.87 229.868C265.433 229.804 264.956 229.715 264.438 229.601C263.937 229.488 263.476 229.31 263.055 229.068C262.635 228.809 262.279 228.469 261.988 228.049C261.713 227.628 261.575 227.078 261.575 226.399C261.575 225.768 261.697 225.226 261.939 224.773C262.198 224.304 262.554 223.916 263.007 223.609C263.46 223.285 263.993 223.051 264.608 222.905C265.223 222.744 265.894 222.663 266.622 222.663C267.754 222.663 268.732 222.841 269.557 223.196C270.398 223.552 271.118 224.046 271.717 224.676L270.455 225.865C270.309 225.687 270.123 225.509 269.897 225.331C269.687 225.137 269.42 224.967 269.096 224.822C268.789 224.66 268.425 224.531 268.005 224.434C267.584 224.337 267.099 224.288 266.549 224.288C265.562 224.288 264.802 224.458 264.268 224.798C263.751 225.137 263.492 225.631 263.492 226.278C263.492 226.601 263.549 226.876 263.662 227.102C263.791 227.313 263.961 227.483 264.171 227.612C264.381 227.741 264.616 227.846 264.875 227.927C265.15 227.992 265.425 228.049 265.7 228.097L267.665 228.388C268.118 228.453 268.595 228.542 269.096 228.655C269.598 228.768 270.059 228.954 270.479 229.213C270.9 229.456 271.247 229.787 271.522 230.208C271.814 230.628 271.959 231.178 271.959 231.858C271.959 233.103 271.474 234.065 270.503 234.745C269.549 235.424 268.271 235.764 266.67 235.764ZM281.848 220.188C281.282 220.188 280.886 220.075 280.659 219.848C280.433 219.606 280.32 219.306 280.32 218.951V218.562C280.32 218.207 280.433 217.915 280.659 217.689C280.886 217.446 281.282 217.325 281.848 217.325C282.414 217.325 282.811 217.446 283.037 217.689C283.264 217.915 283.377 218.207 283.377 218.562V218.951C283.377 219.306 283.264 219.606 283.037 219.848C282.811 220.075 282.414 220.188 281.848 220.188ZM276.365 233.823H280.878V224.604H276.365V222.954H282.819V233.823H287.04V235.473H276.365V233.823Z" fill="white"/>
<path opacity="0.9" d="M152.184 106.946C151.003 106.946 149.927 106.752 148.957 106.364C147.986 105.975 147.153 105.409 146.458 104.665C145.762 103.921 145.221 103.008 144.832 101.924C144.46 100.824 144.274 99.5705 144.274 98.1633C144.274 96.7562 144.485 95.5107 144.905 94.4271C145.342 93.3272 145.924 92.4053 146.652 91.6613C147.38 90.9172 148.229 90.3511 149.199 89.963C150.17 89.5748 151.205 89.3807 152.305 89.3807C153 89.3807 153.623 89.4292 154.173 89.5263C154.739 89.6233 155.224 89.7365 155.629 89.8659C156.049 89.9953 156.389 90.1247 156.648 90.2541C156.906 90.3835 157.084 90.4805 157.181 90.5452L156.502 92.4862C156.357 92.3891 156.146 92.284 155.871 92.1708C155.596 92.0575 155.281 91.9443 154.925 91.8311C154.585 91.7179 154.205 91.6289 153.785 91.5642C153.38 91.4833 152.968 91.4429 152.547 91.4429C151.658 91.4429 150.857 91.5966 150.146 91.9039C149.434 92.2112 148.827 92.656 148.326 93.2383C147.825 93.8205 147.436 94.5322 147.161 95.3733C146.903 96.1981 146.773 97.1282 146.773 98.1633C146.773 99.1661 146.886 100.08 147.113 100.905C147.356 101.73 147.711 102.441 148.18 103.04C148.649 103.622 149.232 104.075 149.927 104.399C150.639 104.722 151.464 104.884 152.402 104.884C153.486 104.884 154.383 104.771 155.095 104.544C155.807 104.318 156.34 104.115 156.696 103.938L157.303 105.878C157.19 105.959 156.987 106.064 156.696 106.194C156.405 106.307 156.041 106.42 155.604 106.534C155.168 106.647 154.658 106.744 154.076 106.825C153.494 106.906 152.863 106.946 152.184 106.946ZM164.511 93.6992C164.705 93.6992 164.924 93.7154 165.166 93.7477C165.425 93.7639 165.676 93.7963 165.918 93.8448C166.161 93.8771 166.379 93.9176 166.573 93.9661C166.784 93.9984 166.937 94.0308 167.034 94.0631L166.646 96.0283C166.468 95.9636 166.169 95.8908 165.749 95.81C165.344 95.7129 164.819 95.6644 164.172 95.6644C163.751 95.6644 163.33 95.7129 162.91 95.81C162.506 95.8908 162.239 95.9474 162.109 95.9798V106.582H159.853V94.4998C160.387 94.3058 161.05 94.1278 161.842 93.9661C162.635 93.7882 163.525 93.6992 164.511 93.6992ZM168.508 100.298C168.508 99.1823 168.67 98.2118 168.993 97.387C169.317 96.5459 169.745 95.8504 170.279 95.3005C170.813 94.7505 171.428 94.3381 172.123 94.0631C172.819 93.7882 173.53 93.6507 174.258 93.6507C175.956 93.6507 177.258 94.1844 178.164 95.252C179.07 96.3033 179.523 97.9126 179.523 100.08C179.523 100.177 179.523 100.306 179.523 100.468C179.523 100.614 179.515 100.751 179.499 100.881H170.861C170.958 102.191 171.339 103.185 172.002 103.865C172.665 104.544 173.7 104.884 175.107 104.884C175.9 104.884 176.563 104.819 177.097 104.69C177.647 104.544 178.059 104.407 178.334 104.277L178.649 106.17C178.374 106.315 177.889 106.469 177.194 106.631C176.514 106.792 175.738 106.873 174.865 106.873C173.765 106.873 172.81 106.711 172.002 106.388C171.209 106.048 170.554 105.587 170.037 105.005C169.519 104.423 169.131 103.735 168.872 102.943C168.629 102.134 168.508 101.253 168.508 100.298ZM177.169 99.061C177.186 98.042 176.927 97.209 176.393 96.5621C175.875 95.8989 175.156 95.5673 174.234 95.5673C173.716 95.5673 173.255 95.6725 172.851 95.8827C172.463 96.0768 172.131 96.3356 171.856 96.6591C171.581 96.9826 171.363 97.3546 171.201 97.7751C171.056 98.1957 170.958 98.6243 170.91 99.061H177.169ZM190.916 96.6349C190.641 96.4084 190.245 96.1901 189.727 95.9798C189.209 95.7695 188.643 95.6644 188.029 95.6644C187.382 95.6644 186.824 95.7857 186.355 96.0283C185.902 96.2548 185.53 96.5782 185.239 96.9988C184.947 97.4031 184.737 97.8884 184.608 98.4545C184.478 99.0206 184.414 99.6271 184.414 100.274C184.414 101.746 184.778 102.886 185.505 103.695C186.233 104.487 187.204 104.884 188.417 104.884C189.031 104.884 189.541 104.859 189.945 104.811C190.366 104.746 190.689 104.682 190.916 104.617V96.6349ZM190.916 88.1434L193.172 87.7552V106.218C192.655 106.364 191.991 106.509 191.183 106.655C190.374 106.8 189.444 106.873 188.393 106.873C187.422 106.873 186.549 106.72 185.772 106.412C184.996 106.105 184.333 105.668 183.783 105.102C183.233 104.536 182.804 103.849 182.497 103.04C182.206 102.215 182.06 101.293 182.06 100.274C182.06 99.3036 182.182 98.414 182.424 97.6053C182.683 96.7966 183.055 96.1011 183.54 95.5188C184.026 94.9366 184.616 94.4837 185.311 94.1602C186.023 93.8367 186.832 93.675 187.738 93.675C188.465 93.675 189.104 93.772 189.654 93.9661C190.22 94.1602 190.641 94.3462 190.916 94.5241V88.1434ZM199.307 106.582H197.051V93.9661H199.307V106.582ZM198.167 91.6855C197.762 91.6855 197.415 91.5561 197.123 91.2973C196.849 91.0224 196.711 90.6585 196.711 90.2056C196.711 89.7527 196.849 89.3969 197.123 89.1381C197.415 88.8631 197.762 88.7256 198.167 88.7256C198.571 88.7256 198.911 88.8631 199.186 89.1381C199.477 89.3969 199.622 89.7527 199.622 90.2056C199.622 90.6585 199.477 91.0224 199.186 91.2973C198.911 91.5561 198.571 91.6855 198.167 91.6855ZM205.298 93.9661H210.077V95.8585H205.298V101.681C205.298 102.312 205.346 102.838 205.443 103.258C205.54 103.663 205.686 103.986 205.88 104.229C206.074 104.455 206.317 104.617 206.608 104.714C206.899 104.811 207.239 104.859 207.627 104.859C208.306 104.859 208.848 104.787 209.252 104.641C209.673 104.479 209.964 104.366 210.126 104.301L210.563 106.17C210.336 106.283 209.94 106.42 209.374 106.582C208.808 106.76 208.161 106.849 207.433 106.849C206.576 106.849 205.864 106.744 205.298 106.534C204.748 106.307 204.303 105.975 203.963 105.539C203.624 105.102 203.381 104.568 203.236 103.938C203.106 103.291 203.042 102.547 203.042 101.705V90.4482L205.298 90.06V93.9661Z" fill="white"/>
<g clip-path="url(#clip0_6382_26984)">
<path d="M532.907 80.3794L523.378 103.112H517.161L512.473 84.9679C512.188 83.8518 511.942 83.4424 511.075 82.9724C509.662 82.2051 507.327 81.4864 505.273 81.0375L505.413 80.3794H515.421C516.075 80.3788 516.707 80.6119 517.205 81.0368C517.702 81.4617 518.031 82.0503 518.132 82.6964L520.61 95.8521L526.729 80.3794H532.907ZM557.268 95.6913C557.293 89.6897 548.971 89.3591 549.029 86.6783C549.047 85.8625 549.823 84.9952 551.521 84.7738C553.512 84.5847 555.516 84.9368 557.323 85.7927L558.354 80.9708C556.595 80.3095 554.732 79.9675 552.853 79.9609C547.039 79.9609 542.948 83.0542 542.912 87.4789C542.875 90.7511 545.832 92.5738 548.061 93.6655C550.354 94.7785 551.124 95.4942 551.112 96.4889C551.097 98.0174 549.286 98.6876 547.594 98.7149C544.637 98.7604 542.924 97.9173 541.553 97.2805L540.489 102.26C541.862 102.891 544.398 103.443 547.027 103.467C553.205 103.467 557.247 100.416 557.268 95.6913ZM572.617 103.112H578.057L573.311 80.3794H568.289C567.752 80.3745 567.227 80.5308 566.78 80.8282C566.333 81.1257 565.986 81.5504 565.784 82.0474L556.962 103.112H563.137L564.365 99.7157H571.91L572.617 103.112ZM566.057 95.0575L569.15 86.5206L570.933 95.0575H566.057ZM541.311 80.3794L536.449 103.112H530.566L535.433 80.3794H541.311Z" fill="white"/>
</g>
</g>
<g filter="url(#filter4_d_6382_26984)">
<rect x="599.945" y="21.4609" width="105.312" height="72.2409" rx="9.03011" fill="white"/>
<path fill-rule="evenodd" clip-rule="evenodd" d="M653.359 73.104C649.773 76.1995 645.122 78.0682 640.04 78.0682C628.7 78.0682 619.508 68.7655 619.508 57.29C619.508 45.8145 628.7 36.5117 640.04 36.5117C645.122 36.5117 649.773 38.3804 653.359 41.4759C656.944 38.3804 661.595 36.5117 666.678 36.5117C678.017 36.5117 687.21 45.8145 687.21 57.29C687.21 68.7655 678.017 78.0682 666.678 78.0682C661.595 78.0682 656.944 76.1995 653.359 73.104Z" fill="#ED0006"/>
<path fill-rule="evenodd" clip-rule="evenodd" d="M653.359 73.104C657.774 69.2929 660.573 63.6222 660.573 57.29C660.573 50.9577 657.774 45.287 653.359 41.4759C656.945 38.3804 661.596 36.5117 666.678 36.5117C678.018 36.5117 687.21 45.8145 687.21 57.29C687.21 68.7655 678.018 78.0682 666.678 78.0682C661.596 78.0682 656.945 76.1995 653.359 73.104Z" fill="#F9A000"/>
<path fill-rule="evenodd" clip-rule="evenodd" d="M653.358 73.1046C657.772 69.2935 660.571 63.6228 660.571 57.2906C660.571 50.9583 657.772 45.2877 653.358 41.4766C648.944 45.2877 646.145 50.9583 646.145 57.2906C646.145 63.6228 648.944 69.2935 653.358 73.1046Z" fill="#FF5E00"/>
</g>
<g filter="url(#filter5_d_6382_26984)">
<rect x="11" y="301.594" width="119.354" height="81.873" rx="10.2341" fill="white"/>
<path fill-rule="evenodd" clip-rule="evenodd" d="M67.3705 355.351V345.045H72.6875C74.8662 345.045 76.7051 344.315 78.2043 342.875L78.5641 342.51C81.3025 339.528 81.1226 334.882 78.2043 332.123C76.7451 330.662 74.7463 329.871 72.6875 329.912H64.1523V355.351H67.3705ZM67.3705 341.921V333.035H72.7683C73.9278 333.035 75.0273 333.481 75.847 334.293C77.5863 335.997 77.6263 338.837 75.9469 340.602C75.1273 341.474 73.9678 341.961 72.7683 341.921H67.3705ZM93.5752 339.303C92.196 338.025 90.3171 337.376 87.9384 337.376C84.8802 337.376 82.5815 338.512 81.0624 340.763L83.9008 342.569C84.9402 341.027 86.3594 340.256 88.1583 340.256C89.2977 340.256 90.397 340.682 91.2565 341.453C92.0961 342.184 92.5758 343.238 92.5758 344.354V345.105C91.3365 344.415 89.7774 344.05 87.8585 344.05C85.6198 344.05 83.8208 344.577 82.4816 345.653C81.1423 346.728 80.4627 348.148 80.4627 349.953C80.4228 351.597 81.1224 353.159 82.3616 354.213C83.6209 355.35 85.22 355.918 87.0989 355.918C89.3177 355.918 91.0766 354.924 92.4159 352.935H92.5558V355.35H95.634V344.618C95.634 342.366 94.9544 340.581 93.5752 339.303ZM84.8388 352.141C84.179 351.655 83.7792 350.863 83.7792 350.011C83.7792 349.058 84.219 348.267 85.0787 347.638C85.9583 347.009 87.0578 346.684 88.3573 346.684C90.1566 346.664 91.556 347.07 92.5556 347.881C92.5556 349.261 92.0158 350.458 90.9562 351.472C89.9966 352.446 88.6972 352.993 87.3377 352.993C86.4381 353.014 85.5585 352.709 84.8388 352.141ZM102.549 362.998L113.303 337.944H109.805L104.828 350.44H104.768L99.6709 337.944H96.1729L103.229 354.234L99.2312 362.998H102.549Z" fill="#3C4043"/>
<path d="M56.2613 342.813C56.2613 341.819 56.1813 340.825 56.0214 339.852H42.4492V345.471H50.2248C49.9049 347.276 48.8655 348.899 47.3464 349.914V353.565H51.9838C54.7022 351.029 56.2613 347.276 56.2613 342.813Z" fill="#4285F4"/>
<path d="M42.4503 357.096C46.3281 357.096 49.6062 355.798 51.9848 353.566L47.3475 349.914C46.0482 350.807 44.3892 351.314 42.4503 351.314C38.6924 351.314 35.5143 348.738 34.3749 345.289H29.5977V349.062C32.0363 353.992 37.0134 357.096 42.4503 357.096Z" fill="#34A853"/>
<path d="M34.3732 345.286C33.7734 343.48 33.7734 341.512 34.3732 339.687V335.934H29.5951C27.536 340.052 27.536 344.921 29.5951 349.039L34.3732 345.286Z" fill="#FBBC04"/>
<path d="M42.4503 333.661C44.5091 333.621 46.488 334.412 47.9671 335.852L52.0848 331.673C49.4663 329.198 46.0282 327.839 42.4503 327.88C37.0134 327.88 32.0363 331.004 29.5977 335.934L34.3749 339.707C35.5143 336.238 38.6924 333.661 42.4503 333.661Z" fill="#EA4335"/>
</g>
<defs>
<filter id="filter0_d_6382_26984" x="9.14209" y="0.132485" width="127.286" height="95.0361" filterUnits="userSpaceOnUse" color-interpolation-filters="sRGB">
<feFlood flood-opacity="0" result="BackgroundImageFix"/>
<feColorMatrix in="SourceAlpha" type="matrix" values="0 0 0 0 0 0 0 0 0 0 0 0 0 0 0 0 0 0 127 0" result="hardAlpha"/>
<feMorphology radius="1.41388" operator="erode" in="SourceAlpha" result="effect1_dropShadow_6382_26984"/>
<feOffset dy="9.42399"/>
<feGaussianBlur stdDeviation="6.85269"/>
<feComposite in2="hardAlpha" operator="out"/>
<feColorMatrix type="matrix" values="0 0 0 0 0 0 0 0 0 0 0 0 0 0 0 0 0 0 0.06 0"/>
<feBlend mode="normal" in2="BackgroundImageFix" result="effect1_dropShadow_6382_26984"/>
<feBlend mode="normal" in="SourceGraphic" in2="effect1_dropShadow_6382_26984" result="shape"/>
</filter>
<filter id="filter1_d_6382_26984" x="590.313" y="241.557" width="150.32" height="109.163" filterUnits="userSpaceOnUse" color-interpolation-filters="sRGB">
<feFlood flood-opacity="0" result="BackgroundImageFix"/>
<feColorMatrix in="SourceAlpha" type="matrix" values="0 0 0 0 0 0 0 0 0 0 0 0 0 0 0 0 0 0 127 0" result="hardAlpha"/>
<feMorphology radius="1.10802" operator="erode" in="SourceAlpha" result="effect1_dropShadow_6382_26984"/>
<feOffset dy="7.38533"/>
<feGaussianBlur stdDeviation="5.37027"/>
<feComposite in2="hardAlpha" operator="out"/>
<feColorMatrix type="matrix" values="0 0 0 0 0 0 0 0 0 0 0 0 0 0 0 0 0 0 0.06 0"/>
<feBlend mode="normal" in2="BackgroundImageFix" result="effect1_dropShadow_6382_26984"/>
<feBlend mode="normal" in="SourceGraphic" in2="effect1_dropShadow_6382_26984" result="shape"/>
</filter>
<filter id="filter2_d_6382_26984" x="85.2512" y="32.1742" width="550.416" height="322.966" filterUnits="userSpaceOnUse" color-interpolation-filters="sRGB">
<feFlood flood-opacity="0" result="BackgroundImageFix"/>
<feColorMatrix in="SourceAlpha" type="matrix" values="0 0 0 0 0 0 0 0 0 0 0 0 0 0 0 0 0 0 127 0" result="hardAlpha"/>
<feMorphology radius="2.44108" operator="erode" in="SourceAlpha" result="effect1_dropShadow_6382_26984"/>
<feOffset dy="16.2707"/>
<feGaussianBlur stdDeviation="11.8313"/>
<feComposite in2="hardAlpha" operator="out"/>
<feColorMatrix type="matrix" values="0 0 0 0 0 0 0 0 0 0 0 0 0 0 0 0 0 0 0.06 0"/>
<feBlend mode="normal" in2="BackgroundImageFix" result="effect1_dropShadow_6382_26984"/>
<feBlend mode="normal" in="SourceGraphic" in2="effect1_dropShadow_6382_26984" result="shape"/>
</filter>
<filter id="filter3_b_6382_26984" x="-14.8344" y="-84.1821" width="750.587" height="523.138" filterUnits="userSpaceOnUse" color-interpolation-filters="sRGB">
<feFlood flood-opacity="0" result="BackgroundImageFix"/>
<feGaussianBlur in="BackgroundImageFix" stdDeviation="60.6535"/>
<feComposite in2="SourceAlpha" operator="in" result="effect1_backgroundBlur_6382_26984"/>
<feBlend mode="normal" in="SourceGraphic" in2="effect1_backgroundBlur_6382_26984" result="shape"/>
</filter>
<filter id="filter4_d_6382_26984" x="587.958" y="18.6644" width="129.287" height="96.2165" filterUnits="userSpaceOnUse" color-interpolation-filters="sRGB">
<feFlood flood-opacity="0" result="BackgroundImageFix"/>
<feColorMatrix in="SourceAlpha" type="matrix" values="0 0 0 0 0 0 0 0 0 0 0 0 0 0 0 0 0 0 127 0" result="hardAlpha"/>
<feMorphology radius="1.37887" operator="erode" in="SourceAlpha" result="effect1_dropShadow_6382_26984"/>
<feOffset dy="9.19063"/>
<feGaussianBlur stdDeviation="6.68301"/>
<feComposite in2="hardAlpha" operator="out"/>
<feColorMatrix type="matrix" values="0 0 0 0 0 0 0 0 0 0 0 0 0 0 0 0 0 0 0.06 0"/>
<feBlend mode="normal" in2="BackgroundImageFix" result="effect1_dropShadow_6382_26984"/>
<feBlend mode="normal" in="SourceGraphic" in2="effect1_dropShadow_6382_26984" result="shape"/>
</filter>
<filter id="filter5_d_6382_26984" x="0.42311" y="299.126" width="140.509" height="103.025" filterUnits="userSpaceOnUse" color-interpolation-filters="sRGB">
<feFlood flood-opacity="0" result="BackgroundImageFix"/>
<feColorMatrix in="SourceAlpha" type="matrix" values="0 0 0 0 0 0 0 0 0 0 0 0 0 0 0 0 0 0 127 0" result="hardAlpha"/>
<feMorphology radius="1.21665" operator="erode" in="SourceAlpha" result="effect1_dropShadow_6382_26984"/>
<feOffset dy="8.10938"/>
<feGaussianBlur stdDeviation="5.89677"/>
<feComposite in2="hardAlpha" operator="out"/>
<feColorMatrix type="matrix" values="0 0 0 0 0 0 0 0 0 0 0 0 0 0 0 0 0 0 0.06 0"/>
<feBlend mode="normal" in2="BackgroundImageFix" result="effect1_dropShadow_6382_26984"/>
<feBlend mode="normal" in="SourceGraphic" in2="effect1_dropShadow_6382_26984" result="shape"/>
</filter>
<clipPath id="clip0_6382_26984">
<rect width="72.7838" height="72.7838" fill="white" transform="translate(505.273 55.3203)"/>
</clipPath>
</defs>
</svg>
