<svg width="22" height="21" viewBox="0 0 22 21" fill="none" xmlns="http://www.w3.org/2000/svg">
<path d="M3 9.4998L2.51493 9.6211C1.62459 9.8437 1 10.6436 1 11.5614V13.4382C1 14.356 1.62459 15.1559 2.51493 15.3785L4.25448 15.8134C4.63317 15.9081 5 15.6217 5 15.2313V9.7683C5 9.3779 4.63317 9.0915 4.25448 9.1862L3 9.4998ZM3 9.4998V9C3 4.58172 6.58172 1 11 1C15.4183 1 19 4.58172 19 9V9.4998M19 9.4998L19.4851 9.6211C20.3754 9.8437 21 10.6436 21 11.5614V13.4382C21 14.356 20.3754 15.1559 19.4851 15.3785L19 15.4998M19 9.4998L17.7455 9.1862C17.3668 9.0915 17 9.3779 17 9.7683V15.2313C17 15.6217 17.3668 15.9081 17.7455 15.8134L19 15.4998M19 15.4998V16V16.5C19 17.6046 18.1046 18.5 17 18.5H14M14 18.5C14 17.6716 13.3284 17 12.5 17H9.5C8.67157 17 8 17.6716 8 18.5C8 19.3284 8.67157 20 9.5 20H12.5C13.3284 20 14 19.3284 14 18.5Z" stroke="white" stroke-width="1.8"/>
</svg>
