<svg width="40" height="41" viewBox="0 0 40 41" fill="none" xmlns="http://www.w3.org/2000/svg">
<rect y="0.5" width="40" height="40" rx="8" fill="#2E65F3"/>
<path d="M13.46 26.99V24.07C13.46 23.1 14.22 22.23 15.3 22.23C16.27 22.23 17.14 22.99 17.14 24.07V26.88C17.14 28.83 15.52 30.4501 13.57 30.4501C11.62 30.4501 10 28.82 10 26.88V20.72C9.89005 15.1 14.33 10.55 19.95 10.55C25.57 10.55 30 15.1 30 20.61V26.7701C30 28.7201 28.38 30.34 26.43 30.34C24.48 30.34 22.86 28.7201 22.86 26.7701V23.96C22.86 22.99 23.62 22.12 24.7 22.12C25.67 22.12 26.54 22.88 26.54 23.96V26.99" stroke="#102F82" stroke-width="1.5" stroke-linecap="round" stroke-linejoin="round"/>
</svg>
