<svg width="885" height="422" viewBox="0 0 885 422" fill="none" xmlns="http://www.w3.org/2000/svg">
<g filter="url(#filter0_d_6382_26519)">
<rect x="16" y="4" width="853" height="390.597" rx="11.4328" fill="white"/>
<path d="M51.085 56.5774V54.9575H60.7375V56.5774H56.8461V67.4297H54.9704V56.5774H51.085ZM62.7244 67.4297V58.0755H64.5453V67.4297H62.7244ZM63.644 56.6322C63.3273 56.6322 63.0553 56.5267 62.8279 56.3155C62.6046 56.1004 62.493 55.8446 62.493 55.5482C62.493 55.2478 62.6046 54.992 62.8279 54.7809C63.0553 54.5657 63.3273 54.4581 63.644 54.4581C63.9606 54.4581 64.2306 54.5657 64.4539 54.7809C64.6813 54.992 64.795 55.2478 64.795 55.5482C64.795 55.8446 64.6813 56.1004 64.4539 56.3155C64.2306 56.5267 63.9606 56.6322 63.644 56.6322ZM66.995 67.4297V58.0755H68.7428V59.598H68.8585C69.0534 59.0824 69.3721 58.6805 69.8146 58.3922C70.2571 58.0999 70.787 57.9537 71.4041 57.9537C72.0293 57.9537 72.553 58.0999 72.9753 58.3922C73.4016 58.6845 73.7162 59.0865 73.9192 59.598H74.0167C74.24 59.0986 74.5952 58.7008 75.0824 58.4044C75.5696 58.104 76.1502 57.9537 76.8241 57.9537C77.6727 57.9537 78.3649 58.2197 78.9008 58.7515C79.4408 59.2834 79.7108 60.0852 79.7108 61.157V67.4297H77.8899V61.3276C77.8899 60.6942 77.7173 60.2354 77.3722 59.9512C77.0271 59.667 76.615 59.5249 76.136 59.5249C75.5432 59.5249 75.0824 59.7076 74.7535 60.073C74.4247 60.4344 74.2603 60.8992 74.2603 61.4676V67.4297H72.4455V61.2119C72.4455 60.7044 72.2871 60.2963 71.9704 59.9878C71.6538 59.6792 71.2417 59.5249 70.7342 59.5249C70.3891 59.5249 70.0704 59.6163 69.7781 59.799C69.4898 59.9776 69.2564 60.2273 69.0777 60.5481C68.9031 60.8688 68.8158 61.2403 68.8158 61.6625V67.4297H66.995ZM86.1828 67.6185C85.2612 67.6185 84.4675 67.4216 83.8017 67.0278C83.1399 66.6299 82.6283 66.0716 82.267 65.353C81.9097 64.6303 81.7311 63.7838 81.7311 62.8135C81.7311 61.8554 81.9097 61.0109 82.267 60.2801C82.6283 59.5493 83.1318 58.9789 83.7773 58.5688C84.4269 58.1588 85.1861 57.9537 86.0549 57.9537C86.5827 57.9537 87.0943 58.041 87.5896 58.2156C88.0849 58.3902 88.5295 58.6642 88.9233 59.0377C89.3171 59.4113 89.6277 59.8964 89.8551 60.4932C90.0824 61.086 90.1961 61.8066 90.1961 62.6552V63.3007H82.7603V61.9366H88.4118C88.4118 61.4575 88.3143 61.0332 88.1194 60.6638C87.9246 60.2902 87.6505 59.9959 87.2973 59.7807C86.9481 59.5655 86.5381 59.458 86.0671 59.458C85.5556 59.458 85.109 59.5838 84.7273 59.8355C84.3498 60.0832 84.0574 60.408 83.8504 60.8099C83.6474 61.2078 83.5459 61.6402 83.5459 62.1071V63.1728C83.5459 63.7981 83.6555 64.3299 83.8748 64.7684C84.098 65.2069 84.4086 65.5418 84.8065 65.7732C85.2044 66.0006 85.6693 66.1143 86.2011 66.1143C86.5462 66.1143 86.8609 66.0655 87.145 65.9681C87.4292 65.8666 87.6749 65.7164 87.8819 65.5174C88.089 65.3185 88.2473 65.0729 88.3569 64.7806L90.0804 65.0912C89.9424 65.5986 89.6947 66.0432 89.3374 66.4248C88.9842 66.8024 88.5396 67.0968 88.0037 67.3079C87.4719 67.5149 86.8649 67.6185 86.1828 67.6185ZM96.286 56.5774V54.9575H105.939V56.5774H102.047V67.4297H100.171V56.5774H96.286ZM106.954 67.4297V58.0755H108.714V59.5615H108.812C108.982 59.058 109.282 58.6622 109.713 58.3739C110.147 58.0816 110.639 57.9355 111.187 57.9355C111.3 57.9355 111.434 57.9395 111.589 57.9476C111.747 57.9558 111.871 57.9659 111.96 57.9781V59.7198C111.887 59.6995 111.757 59.6772 111.57 59.6528C111.384 59.6244 111.197 59.6102 111.01 59.6102C110.58 59.6102 110.196 59.7016 109.859 59.8843C109.526 60.0629 109.262 60.3126 109.067 60.6333C108.872 60.95 108.775 61.3113 108.775 61.7173V67.4297H106.954ZM116.174 67.6367C115.582 67.6367 115.046 67.5271 114.567 67.3079C114.087 67.0846 113.708 66.7618 113.428 66.3396C113.152 65.9174 113.014 65.3997 113.014 64.7867C113.014 64.2589 113.115 63.8244 113.318 63.4834C113.521 63.1424 113.795 62.8724 114.14 62.6734C114.485 62.4745 114.871 62.3243 115.297 62.2228C115.724 62.1213 116.158 62.0441 116.601 61.9914C117.161 61.9264 117.616 61.8736 117.965 61.833C118.314 61.7884 118.568 61.7173 118.726 61.6199C118.884 61.5224 118.963 61.3641 118.963 61.1449V61.1022C118.963 60.5704 118.813 60.1583 118.513 59.866C118.216 59.5737 117.774 59.4275 117.185 59.4275C116.572 59.4275 116.089 59.5635 115.736 59.8355C115.387 60.1035 115.145 60.4019 115.011 60.7308L113.3 60.341C113.503 59.7726 113.799 59.3138 114.189 58.9647C114.583 58.6115 115.035 58.3557 115.547 58.1973C116.059 58.0349 116.597 57.9537 117.161 57.9537C117.534 57.9537 117.93 57.9984 118.348 58.0877C118.771 58.173 119.164 58.3313 119.53 58.5627C119.899 58.7942 120.202 59.125 120.437 59.5554C120.673 59.9817 120.79 60.5359 120.79 61.2179V67.4297H119.012V66.1508H118.939C118.821 66.3863 118.645 66.6177 118.409 66.8451C118.174 67.0724 117.871 67.2612 117.502 67.4114C117.132 67.5616 116.69 67.6367 116.174 67.6367ZM116.57 66.1752C117.074 66.1752 117.504 66.0757 117.861 65.8768C118.223 65.6778 118.497 65.418 118.683 65.0972C118.874 64.7724 118.97 64.4253 118.97 64.0559V62.8501C118.905 62.915 118.779 62.9759 118.592 63.0328C118.409 63.0855 118.2 63.1322 117.965 63.1728C117.729 63.2094 117.5 63.2439 117.277 63.2763C117.053 63.3048 116.866 63.3291 116.716 63.3494C116.363 63.3941 116.04 63.4692 115.748 63.5748C115.46 63.6803 115.228 63.8326 115.054 64.0315C114.883 64.2264 114.798 64.4862 114.798 64.811C114.798 65.2617 114.964 65.6027 115.297 65.8341C115.63 66.0615 116.055 66.1752 116.57 66.1752ZM127.156 67.6185C126.251 67.6185 125.471 67.4134 124.817 67.0034C124.168 66.5893 123.668 66.0189 123.319 65.2921C122.97 64.5654 122.796 63.7331 122.796 62.7952C122.796 61.8452 122.974 61.0068 123.331 60.2801C123.689 59.5493 124.192 58.9789 124.842 58.5688C125.491 58.1588 126.257 57.9537 127.138 57.9537C127.848 57.9537 128.482 58.0857 129.038 58.3496C129.594 58.6094 130.043 58.9748 130.384 59.4458C130.729 59.9167 130.934 60.4669 130.999 61.0961H129.227C129.129 60.6577 128.906 60.2801 128.557 59.9634C128.212 59.6467 127.749 59.4884 127.168 59.4884C126.661 59.4884 126.216 59.6224 125.834 59.8903C125.457 60.1542 125.163 60.5318 124.951 61.0231C124.74 61.5103 124.635 62.0868 124.635 62.7526C124.635 63.4347 124.738 64.0234 124.945 64.5187C125.152 65.014 125.445 65.3977 125.822 65.6697C126.204 65.9417 126.653 66.0777 127.168 66.0777C127.513 66.0777 127.826 66.0148 128.106 65.8889C128.39 65.759 128.628 65.5743 128.819 65.3347C129.013 65.0952 129.149 64.807 129.227 64.47H130.999C130.934 65.0749 130.737 65.6149 130.408 66.0899C130.079 66.5649 129.639 66.9384 129.086 67.2104C128.538 67.4825 127.895 67.6185 127.156 67.6185ZM134.621 64.2568L134.609 62.034H134.925L138.652 58.0755H140.832L136.582 62.5821H136.295L134.621 64.2568ZM132.946 67.4297V54.9575H134.767V67.4297H132.946ZM138.853 67.4297L135.504 62.984L136.758 61.7112L141.088 67.4297H138.853ZM146.138 67.6185C145.217 67.6185 144.423 67.4216 143.757 67.0278C143.095 66.6299 142.584 66.0716 142.222 65.353C141.865 64.6303 141.687 63.7838 141.687 62.8135C141.687 61.8554 141.865 61.0109 142.222 60.2801C142.584 59.5493 143.087 58.9789 143.733 58.5688C144.382 58.1588 145.142 57.9537 146.01 57.9537C146.538 57.9537 147.05 58.041 147.545 58.2156C148.04 58.3902 148.485 58.6642 148.879 59.0377C149.273 59.4113 149.583 59.8964 149.811 60.4932C150.038 61.086 150.152 61.8066 150.152 62.6552V63.3007H142.716V61.9366H148.367C148.367 61.4575 148.27 61.0332 148.075 60.6638C147.88 60.2902 147.606 59.9959 147.253 59.7807C146.904 59.5655 146.494 59.458 146.023 59.458C145.511 59.458 145.064 59.5838 144.683 59.8355C144.305 60.0832 144.013 60.408 143.806 60.8099C143.603 61.2078 143.501 61.6402 143.501 62.1071V63.1728C143.501 63.7981 143.611 64.3299 143.83 64.7684C144.054 65.2069 144.364 65.5418 144.762 65.7732C145.16 66.0006 145.625 66.1143 146.157 66.1143C146.502 66.1143 146.816 66.0655 147.101 65.9681C147.385 65.8666 147.63 65.7164 147.837 65.5174C148.044 65.3185 148.203 65.0729 148.312 64.7806L150.036 65.0912C149.898 65.5986 149.65 66.0432 149.293 66.4248C148.94 66.8024 148.495 67.0968 147.959 67.3079C147.427 67.5149 146.82 67.6185 146.138 67.6185ZM152.172 67.4297V58.0755H153.932V59.5615H154.029C154.2 59.058 154.5 58.6622 154.931 58.3739C155.365 58.0816 155.856 57.9355 156.404 57.9355C156.518 57.9355 156.652 57.9395 156.806 57.9476C156.965 57.9558 157.089 57.9659 157.178 57.9781V59.7198C157.105 59.6995 156.975 59.6772 156.788 59.6528C156.601 59.6244 156.415 59.6102 156.228 59.6102C155.797 59.6102 155.414 59.7016 155.077 59.8843C154.744 60.0629 154.48 60.3126 154.285 60.6333C154.09 60.95 153.993 61.3113 153.993 61.7173V67.4297H152.172Z" fill="black"/>
<rect x="49.9297" y="87.6445" width="111.261" height="6.31267" fill="#4C64D9"/>
<rect x="169.871" y="87.6445" width="110.472" height="6.31267" fill="#4C64D9"/>
<rect x="289.023" y="87.6445" width="110.472" height="6.31267" fill="#4C64D9"/>
<rect x="408.176" y="87.6445" width="111.261" height="6.31267" fill="#4C64D9"/>
<rect x="49.9297" y="112.105" width="612.329" height="30.7743" fill="#001166" fill-opacity="0.1"/>
<rect x="49.9297" y="112.105" width="411.902" height="30.7743" fill="#694EFB"/>
<rect x="689.09" y="112.105" width="122.308" height="30.7743" fill="#2E65F3"/>
<rect x="49.9297" y="166.551" width="4.73451" height="4.73451" fill="#2E65F3"/>
<rect x="64.1328" y="166.551" width="101.792" height="4.73451" fill="#001166" fill-opacity="0.1"/>
<rect x="175.395" y="166.551" width="52.8686" height="4.73451" fill="#001166" fill-opacity="0.1"/>
<rect x="237.73" y="166.551" width="82.8538" height="4.73451" fill="#001166" fill-opacity="0.1"/>
<rect x="49.9297" y="191.801" width="761.466" height="168.075" rx="12.6253" fill="#FF914B"/>
<rect x="319.008" y="250.984" width="14.2035" height="50.5014" rx="7.10176" fill="#9F450C"/>
<rect x="342.68" y="250.984" width="14.2035" height="50.5014" rx="7.10176" fill="#9F450C"/>
<path d="M395.346 290.34C393.033 290.331 391.042 289.761 389.374 288.631C387.715 287.502 386.437 285.865 385.541 283.722C384.653 281.579 384.214 279.001 384.223 275.988C384.223 272.984 384.666 270.424 385.554 268.308C386.451 266.192 387.729 264.582 389.388 263.479C391.055 262.367 393.042 261.812 395.346 261.812C397.651 261.812 399.632 262.367 401.291 263.479C402.959 264.591 404.241 266.205 405.138 268.321C406.035 270.429 406.478 272.984 406.469 275.988C406.469 279.01 406.021 281.592 405.124 283.736C404.237 285.879 402.963 287.515 401.304 288.645C399.646 289.775 397.659 290.34 395.346 290.34ZM395.346 285.511C396.924 285.511 398.184 284.717 399.126 283.13C400.067 281.543 400.533 279.162 400.524 275.988C400.524 273.899 400.309 272.159 399.879 270.769C399.457 269.38 398.857 268.335 398.076 267.636C397.305 266.936 396.395 266.586 395.346 266.586C393.777 266.586 392.521 267.371 391.58 268.94C390.638 270.509 390.163 272.859 390.154 275.988C390.154 278.104 390.365 279.871 390.786 281.288C391.217 282.695 391.822 283.753 392.602 284.462C393.382 285.161 394.297 285.511 395.346 285.511ZM421.423 290.34C419.109 290.331 417.119 289.761 415.451 288.631C413.792 287.502 412.514 285.865 411.618 283.722C410.73 281.579 410.29 279.001 410.299 275.988C410.299 272.984 410.743 270.424 411.631 268.308C412.528 266.192 413.805 264.582 415.464 263.479C417.132 262.367 419.118 261.812 421.423 261.812C423.727 261.812 425.709 262.367 427.368 263.479C429.036 264.591 430.318 266.205 431.215 268.321C432.111 270.429 432.555 272.984 432.546 275.988C432.546 279.01 432.098 281.592 431.201 283.736C430.313 285.879 429.04 287.515 427.381 288.645C425.722 289.775 423.736 290.34 421.423 290.34ZM421.423 285.511C423.001 285.511 424.261 284.717 425.202 283.13C426.144 281.543 426.61 279.162 426.601 275.988C426.601 273.899 426.386 272.159 425.956 270.769C425.534 269.38 424.933 268.335 424.153 267.636C423.382 266.936 422.472 266.586 421.423 266.586C419.854 266.586 418.598 267.371 417.657 268.94C416.715 270.509 416.24 272.859 416.231 275.988C416.231 278.104 416.442 279.871 416.863 281.288C417.294 282.695 417.899 283.753 418.679 284.462C419.459 285.161 420.374 285.511 421.423 285.511ZM440.102 286.533C439.214 286.533 438.452 286.219 437.815 285.592C437.188 284.964 436.874 284.202 436.874 283.305C436.874 282.426 437.188 281.673 437.815 281.045C438.452 280.418 439.214 280.104 440.102 280.104C440.963 280.104 441.716 280.418 442.362 281.045C443.007 281.673 443.33 282.426 443.33 283.305C443.33 283.897 443.178 284.439 442.873 284.933C442.577 285.417 442.187 285.807 441.702 286.103C441.218 286.39 440.685 286.533 440.102 286.533ZM440.102 273.016C439.214 273.016 438.452 272.702 437.815 272.074C437.188 271.446 436.874 270.684 436.874 269.788C436.874 268.909 437.188 268.16 437.815 267.541C438.452 266.914 439.214 266.6 440.102 266.6C440.963 266.6 441.716 266.914 442.362 267.541C443.007 268.16 443.33 268.909 443.33 269.788C443.33 270.388 443.178 270.935 442.873 271.429C442.577 271.913 442.187 272.298 441.702 272.585C441.218 272.872 440.685 273.016 440.102 273.016ZM459.965 262.188V289.734H454.141V267.716H453.979L447.671 271.671V266.506L454.49 262.188H459.965ZM477.083 290.111C475.667 290.102 474.299 289.864 472.981 289.398C471.672 288.932 470.497 288.174 469.457 287.125C468.417 286.076 467.592 284.686 466.982 282.955C466.382 281.225 466.081 279.1 466.081 276.58C466.09 274.267 466.355 272.2 466.875 270.379C467.404 268.55 468.157 266.999 469.134 265.726C470.121 264.452 471.3 263.484 472.672 262.82C474.044 262.148 475.582 261.812 477.285 261.812C479.123 261.812 480.746 262.17 482.154 262.888C483.562 263.596 484.692 264.56 485.544 265.779C486.405 266.999 486.925 268.366 487.104 269.882H481.361C481.137 268.922 480.666 268.169 479.948 267.622C479.231 267.075 478.343 266.802 477.285 266.802C475.492 266.802 474.129 267.582 473.196 269.142C472.273 270.702 471.802 272.823 471.784 275.504H471.972C472.385 274.688 472.941 273.993 473.64 273.419C474.349 272.836 475.151 272.392 476.048 272.088C476.953 271.774 477.908 271.617 478.913 271.617C480.545 271.617 481.997 272.002 483.271 272.774C484.544 273.536 485.548 274.585 486.283 275.921C487.019 277.257 487.386 278.786 487.386 280.507C487.386 282.373 486.952 284.031 486.082 285.484C485.221 286.937 484.015 288.076 482.464 288.9C480.921 289.716 479.128 290.12 477.083 290.111ZM477.057 285.538C477.953 285.538 478.756 285.323 479.464 284.892C480.173 284.462 480.729 283.879 481.132 283.144C481.536 282.408 481.737 281.583 481.737 280.669C481.737 279.754 481.536 278.934 481.132 278.207C480.737 277.481 480.19 276.903 479.491 276.472C478.792 276.042 477.994 275.827 477.097 275.827C476.424 275.827 475.801 275.952 475.227 276.203C474.662 276.454 474.165 276.804 473.734 277.252C473.313 277.701 472.981 278.221 472.739 278.813C472.497 279.396 472.376 280.019 472.376 280.682C472.376 281.57 472.578 282.382 472.981 283.117C473.394 283.852 473.95 284.439 474.649 284.879C475.357 285.318 476.16 285.538 477.057 285.538ZM494.919 286.533C494.031 286.533 493.269 286.219 492.632 285.592C492.004 284.964 491.691 284.202 491.691 283.305C491.691 282.426 492.004 281.673 492.632 281.045C493.269 280.418 494.031 280.104 494.919 280.104C495.779 280.104 496.533 280.418 497.178 281.045C497.824 281.673 498.147 282.426 498.147 283.305C498.147 283.897 497.994 284.439 497.689 284.933C497.393 285.417 497.003 285.807 496.519 286.103C496.035 286.39 495.501 286.533 494.919 286.533ZM494.919 273.016C494.031 273.016 493.269 272.702 492.632 272.074C492.004 271.446 491.691 270.684 491.691 269.788C491.691 268.909 492.004 268.16 492.632 267.541C493.269 266.914 494.031 266.6 494.919 266.6C495.779 266.6 496.533 266.914 497.178 267.541C497.824 268.16 498.147 268.909 498.147 269.788C498.147 270.388 497.994 270.935 497.689 271.429C497.393 271.913 497.003 272.298 496.519 272.585C496.035 272.872 495.501 273.016 494.919 273.016ZM502.797 289.734V285.538L512.602 276.459C513.436 275.652 514.136 274.926 514.701 274.28C515.274 273.634 515.709 273.002 516.005 272.383C516.301 271.756 516.449 271.079 516.449 270.352C516.449 269.545 516.265 268.851 515.898 268.268C515.53 267.676 515.028 267.223 514.391 266.909C513.755 266.586 513.033 266.425 512.226 266.425C511.383 266.425 510.648 266.595 510.02 266.936C509.392 267.277 508.908 267.766 508.567 268.402C508.227 269.039 508.056 269.797 508.056 270.675H502.528C502.528 268.873 502.936 267.308 503.752 265.981C504.568 264.654 505.711 263.627 507.182 262.901C508.652 262.175 510.347 261.812 512.266 261.812C514.239 261.812 515.956 262.161 517.418 262.861C518.888 263.551 520.031 264.511 520.847 265.739C521.663 266.968 522.071 268.375 522.071 269.962C522.071 271.003 521.865 272.029 521.453 273.043C521.049 274.056 520.327 275.181 519.287 276.419C518.247 277.647 516.781 279.122 514.889 280.844L510.867 284.785V284.973H522.435V289.734H502.797ZM538.639 262.188V289.734H532.815V267.716H532.653L526.345 271.671V266.506L533.165 262.188H538.639Z" fill="#9F450C"/>
</g>
<defs>
<filter id="filter0_d_6382_26519" x="0.555802" y="0.396985" width="883.888" height="421.486" filterUnits="userSpaceOnUse" color-interpolation-filters="sRGB">
<feFlood flood-opacity="0" result="BackgroundImageFix"/>
<feColorMatrix in="SourceAlpha" type="matrix" values="0 0 0 0 0 0 0 0 0 0 0 0 0 0 0 0 0 0 127 0" result="hardAlpha"/>
<feMorphology radius="1.77653" operator="erode" in="SourceAlpha" result="effect1_dropShadow_6382_26519"/>
<feOffset dy="11.8412"/>
<feGaussianBlur stdDeviation="8.61036"/>
<feComposite in2="hardAlpha" operator="out"/>
<feColorMatrix type="matrix" values="0 0 0 0 0 0 0 0 0 0 0 0 0 0 0 0 0 0 0.06 0"/>
<feBlend mode="normal" in2="BackgroundImageFix" result="effect1_dropShadow_6382_26519"/>
<feBlend mode="normal" in="SourceGraphic" in2="effect1_dropShadow_6382_26519" result="shape"/>
</filter>
</defs>
</svg>
