<svg width="52" height="35" viewBox="0 0 52 35" fill="none" xmlns="http://www.w3.org/2000/svg">
<rect x="0.5" y="1" width="51" height="33" rx="6.5" fill="white"/>
<rect x="0.5" y="1" width="51" height="33" rx="6.5" stroke="#D6DCE5"/>
<path fill-rule="evenodd" clip-rule="evenodd" d="M51.0189 7.5325H46.8804L44.7172 13.6996L42.4598 7.5325H38.2273V17.1351L33.9006 7.5325H30.4207L26.094 17.3436H29.1037L29.9502 15.3814H34.465L35.3115 17.3436H40.9549V10.5224L43.4944 17.3436H45.8458L48.3852 10.5224V17.3436H51.0189V18.8385H47.5387L44.7172 21.9221L41.8014 18.8385H29.8562V28.6496H41.7075L44.623 25.4727L47.5387 28.6496H51.0189V29.8641H46.8804L44.623 27.4348L42.3656 29.8641H28.3514V18.6516H23.8365L29.4799 6.03725H34.9352L36.9103 10.3355V6.03725H43.6825L44.8111 9.3077L45.94 6.03725H51.0189V7.5325ZM51.0189 20.9875L48.4795 23.6973L51.0189 26.407V28.6496L46.4102 23.6973L51.0189 18.8385V20.9875ZM38.2273 28.6496V26.3137H32.5839V24.8187H38.1331V22.5761H32.5839V21.0811H38.2273V18.8385L42.93 23.6973L38.2273 28.6496ZM30.7967 13.2322L32.1137 10.0553L33.4304 13.2322H30.7967Z" fill="#006FCF"/>
</svg>
