<svg width="32" height="32" viewBox="0 0 32 32" fill="none" xmlns="http://www.w3.org/2000/svg">
<path d="M29.2937 24.4413C29.2937 24.9213 29.187 25.4146 28.9603 25.8946C28.7337 26.3746 28.4403 26.828 28.0537 27.2546C27.4003 27.9746 26.6803 28.4946 25.867 28.828C25.067 29.1613 24.2003 29.3346 23.267 29.3346C21.907 29.3346 20.4537 29.0146 18.9203 28.3613C17.387 27.708 15.8537 26.828 14.3337 25.7213C12.8003 24.6013 11.347 23.3613 9.96032 21.988C8.58699 20.6013 7.34699 19.148 6.24033 17.628C5.14699 16.108 4.26699 14.588 3.62699 13.0813C2.98699 11.5613 2.66699 10.108 2.66699 8.7213C2.66699 7.81464 2.82699 6.94797 3.14699 6.14797C3.46699 5.33464 3.97366 4.58797 4.68033 3.9213C5.53366 3.0813 6.46699 2.66797 7.45366 2.66797C7.82699 2.66797 8.20033 2.74797 8.53366 2.90797C8.88033 3.06797 9.18699 3.30797 9.42699 3.65464L12.5203 8.01464C12.7603 8.34797 12.9337 8.65464 13.0537 8.94797C13.1737 9.22797 13.2403 9.50797 13.2403 9.7613C13.2403 10.0813 13.147 10.4013 12.9603 10.708C12.787 11.0146 12.5337 11.3346 12.2137 11.6546L11.2003 12.708C11.0537 12.8546 10.987 13.028 10.987 13.2413C10.987 13.348 11.0003 13.4413 11.027 13.548C11.067 13.6546 11.107 13.7346 11.1337 13.8146C11.3737 14.2546 11.787 14.828 12.3737 15.5213C12.9737 16.2146 13.6137 16.9213 14.307 17.628C15.027 18.3346 15.7203 18.988 16.427 19.588C17.1203 20.1746 17.6937 20.5746 18.147 20.8146C18.2137 20.8413 18.2937 20.8813 18.387 20.9213C18.4937 20.9613 18.6003 20.9746 18.7203 20.9746C18.947 20.9746 19.1203 20.8946 19.267 20.748L20.2803 19.748C20.6137 19.4146 20.9337 19.1613 21.2403 19.0013C21.547 18.8146 21.8537 18.7213 22.187 18.7213C22.4403 18.7213 22.707 18.7746 23.0003 18.8946C23.2937 19.0146 23.6003 19.188 23.9337 19.4146L28.347 22.548C28.6937 22.788 28.9337 23.068 29.0803 23.4013C29.2137 23.7346 29.2937 24.068 29.2937 24.4413Z" stroke="#2E65F3" stroke-width="1.5" stroke-miterlimit="10"/>
<path d="M24.6667 12.0026C24.6667 11.2026 24.04 9.97594 23.1067 8.97594C22.2533 8.05594 21.12 7.33594 20 7.33594" stroke="#2E65F3" stroke-width="1.5" stroke-linecap="round" stroke-linejoin="round"/>
<path d="M29.3333 12.0013C29.3333 6.8413 25.16 2.66797 20 2.66797" stroke="#2E65F3" stroke-width="1.5" stroke-linecap="round" stroke-linejoin="round"/>
</svg>
