<svg width="20" height="21" viewBox="0 0 20 21" fill="none" xmlns="http://www.w3.org/2000/svg">
<path d="M18.3337 6.79036C18.3337 7.34036 17.8837 7.79036 17.3337 7.79036H2.66699C2.11699 7.79036 1.66699 7.34036 1.66699 6.79036V6.78203C1.66699 4.8737 3.20866 3.33203 5.11699 3.33203H14.8753C16.7837 3.33203 18.3337 4.88203 18.3337 6.79036Z" fill="#585D78"/>
<path d="M1.66699 10.043V14.218C1.66699 16.1263 3.20866 17.668 5.11699 17.668H14.8753C16.7837 17.668 18.3337 16.118 18.3337 14.2096V10.043C18.3337 9.49297 17.8837 9.04297 17.3337 9.04297H2.66699C2.11699 9.04297 1.66699 9.49297 1.66699 10.043ZM6.66699 14.8763H5.00033C4.65866 14.8763 4.37533 14.593 4.37533 14.2513C4.37533 13.9096 4.65866 13.6263 5.00033 13.6263H6.66699C7.00866 13.6263 7.29199 13.9096 7.29199 14.2513C7.29199 14.593 7.00866 14.8763 6.66699 14.8763ZM12.0837 14.8763H8.75033C8.40866 14.8763 8.12533 14.593 8.12533 14.2513C8.12533 13.9096 8.40866 13.6263 8.75033 13.6263H12.0837C12.4253 13.6263 12.7087 13.9096 12.7087 14.2513C12.7087 14.593 12.4253 14.8763 12.0837 14.8763Z" fill="#585D78"/>
</svg>
