<svg width="52" height="35" viewBox="0 0 52 35" fill="none" xmlns="http://www.w3.org/2000/svg">
<rect x="0.5" y="1" width="51" height="33" rx="6.5" fill="white"/>
<rect x="0.5" y="1" width="51" height="33" rx="6.5" stroke="#D6DCE5"/>
<path d="M18.4827 17.5818C18.4827 19.3505 19.881 20.7216 21.6795 20.7216C22.1883 20.7216 22.6232 20.622 23.1604 20.3712V18.9899C22.6883 19.4589 22.27 19.6484 21.7343 19.6484C20.5444 19.6484 19.7 18.7916 19.7 17.5731C19.7 16.4183 20.5718 15.507 21.6795 15.507C22.2431 15.507 22.6697 15.7062 23.1604 16.1835V14.8027C22.6423 14.5417 22.2157 14.4333 21.7074 14.4333C19.9177 14.4333 18.4827 15.8326 18.4827 17.5818Z" fill="#251F1F"/>
<path d="M15.4509 16.1208C15.4509 16.4455 15.6593 16.6175 16.3682 16.8781C17.7122 17.3665 18.1104 17.7991 18.1104 18.7551C18.1104 19.9196 17.2488 20.7303 16.0213 20.7303C15.1226 20.7303 14.469 20.3789 13.9244 19.5853L14.6876 18.8552C14.9597 19.3777 15.4137 19.6577 15.9768 19.6577C16.5042 19.6577 16.8941 19.2966 16.8941 18.8091C16.8941 18.5563 16.7757 18.3391 16.5399 18.1865C16.421 18.114 16.1857 18.0056 15.7234 17.8438C14.6138 17.4472 14.2331 17.0229 14.2331 16.1937C14.2331 15.209 15.0507 14.4698 16.1221 14.4698C16.786 14.4698 17.3937 14.6953 17.902 15.1371L17.2836 15.941C16.9759 15.5983 16.6852 15.4535 16.331 15.4535C15.8217 15.4535 15.4509 15.7417 15.4509 16.1208Z" fill="#251F1F"/>
<path fill-rule="evenodd" clip-rule="evenodd" d="M8.50359 14.5694H6.76922V20.586H8.4943C9.41114 20.586 10.0741 20.3712 10.6553 19.8915C11.3461 19.3233 11.7546 18.4669 11.7546 17.5818C11.7546 15.8064 10.419 14.5694 8.50359 14.5694ZM9.88327 19.0895C9.51193 19.422 9.03002 19.5673 8.2668 19.5673H7.94977V15.5891H8.2668C9.03002 15.5891 9.49285 15.7242 9.88327 16.0756C10.2923 16.4367 10.5374 16.9967 10.5374 17.5731C10.5374 18.1505 10.2923 18.7284 9.88327 19.0895Z" fill="#251F1F"/>
<path d="M13.4797 14.5694H12.2982V20.586H13.4797V14.5694Z" fill="#251F1F"/>
<path d="M30.912 14.5694L32.5275 18.6103L34.1635 14.5694H35.4439L32.8274 20.7406H32.1919L29.6219 14.5694H30.912Z" fill="#251F1F"/>
<path d="M35.9781 20.586H39.3285V19.5673H37.1587V17.9434H39.2483V16.9242H37.1587V15.5891H39.3285V14.5694H35.9781V20.586Z" fill="#251F1F"/>
<path fill-rule="evenodd" clip-rule="evenodd" d="M41.8623 14.5694C43.2248 14.5694 44.0067 15.2192 44.0067 16.3454C44.0067 17.2669 43.5159 17.8715 42.626 18.0513L44.5326 20.586H43.08L41.445 18.169H41.2904V20.586H40.1108V14.5694H41.8623ZM41.2904 17.3393H41.6363C42.3907 17.3393 42.7904 17.0137 42.7904 16.409C42.7904 15.8234 42.3907 15.5167 41.6544 15.5167H41.2904V17.3393Z" fill="#251F1F"/>
<path fill-rule="evenodd" clip-rule="evenodd" d="M44.948 14.8849C44.948 14.7789 44.8741 14.7211 44.7454 14.7211H44.5742V15.2518H44.7014V15.0462L44.8506 15.2518H45.0067L44.8311 15.0331C44.9059 15.0127 44.948 14.9582 44.948 14.8849ZM44.7229 14.9573H44.7014V14.8183H44.7244C44.7875 14.8183 44.8203 14.8411 44.8203 14.8868C44.8203 14.9335 44.787 14.9573 44.7229 14.9573Z" fill="#251F1F"/>
<path fill-rule="evenodd" clip-rule="evenodd" d="M44.3056 14.9854C44.3056 14.7283 44.5121 14.5227 44.7709 14.5227C45.0233 14.5227 45.2308 14.7322 45.2308 14.9854C45.2308 15.2401 45.0233 15.4481 44.7709 15.4481C44.514 15.4481 44.3056 15.2421 44.3056 14.9854ZM44.3981 14.9859C44.3981 15.1969 44.5649 15.3655 44.7689 15.3655C44.9724 15.3655 45.1378 15.1949 45.1378 14.9859C45.1378 14.7789 44.9724 14.6058 44.7689 14.6058C44.5634 14.6058 44.3981 14.775 44.3981 14.9859Z" fill="#251F1F"/>
<g filter="url(#filter0_i_1_30)">
<path d="M26.7411 20.7688C24.971 20.7688 23.5356 19.3428 23.5356 17.5843V17.58C23.5356 16.7051 23.8922 15.909 24.469 15.336C24.469 15.3316 24.4735 15.3316 24.4735 15.3273C24.4778 15.3273 24.4778 15.3228 24.4823 15.3228C25.0591 14.7498 25.8605 14.3955 26.7411 14.3955H26.7456C28.5157 14.3955 29.9511 15.8215 29.9511 17.58V17.5843C29.9511 18.4592 29.5944 19.251 29.0176 19.8284C29.0176 19.8327 29.0132 19.8327 29.0132 19.8372C29.0088 19.8372 29.0088 19.8415 29.0044 19.8415C28.4231 20.4145 27.6262 20.7688 26.7456 20.7688H26.7411Z" fill="url(#paint0_linear_1_30)"/>
</g>
<defs>
<filter id="filter0_i_1_30" x="23.5356" y="14.3955" width="7.39244" height="7.83864" filterUnits="userSpaceOnUse" color-interpolation-filters="sRGB">
<feFlood flood-opacity="0" result="BackgroundImageFix"/>
<feBlend mode="normal" in="SourceGraphic" in2="BackgroundImageFix" result="shape"/>
<feColorMatrix in="SourceAlpha" type="matrix" values="0 0 0 0 0 0 0 0 0 0 0 0 0 0 0 0 0 0 127 0" result="hardAlpha"/>
<feOffset dx="0.976924" dy="1.46539"/>
<feGaussianBlur stdDeviation="0.976924"/>
<feComposite in2="hardAlpha" operator="arithmetic" k2="-1" k3="1"/>
<feColorMatrix type="matrix" values="0 0 0 0 0 0 0 0 0 0 0 0 0 0 0 0 0 0 0.35 0"/>
<feBlend mode="normal" in2="shape" result="effect1_innerShadow_1_30"/>
</filter>
<linearGradient id="paint0_linear_1_30" x1="25.062" y1="14.3955" x2="30.3045" y2="18.8609" gradientUnits="userSpaceOnUse">
<stop stop-color="#EF3823"/>
<stop offset="0.489583" stop-color="#F04D22"/>
<stop offset="1" stop-color="#F7911D"/>
</linearGradient>
</defs>
</svg>
