<svg width="100" height="100" viewBox="0 0 100 100" fill="none" xmlns="http://www.w3.org/2000/svg">
<path d="M50 0C22.45 0 0 22.45 0 50C0 77.55 22.45 100 50 100C77.55 100 100 77.55 100 50C100 22.45 77.55 0 50 0ZM46.25 30C46.25 27.95 47.95 26.25 50 26.25C52.05 26.25 53.75 27.95 53.75 30V55C53.75 57.05 52.05 58.75 50 58.75C47.95 58.75 46.25 57.05 46.25 55V30ZM54.6 71.9C54.35 72.55 54 73.05 53.55 73.55C53.05 74 52.5 74.35 51.9 74.6C51.3 74.85 50.65 75 50 75C49.35 75 48.7 74.85 48.1 74.6C47.5 74.35 46.95 74 46.45 73.55C46 73.05 45.65 72.55 45.4 71.9C45.15 71.3 45 70.65 45 70C45 69.35 45.15 68.7 45.4 68.1C45.65 67.5 46 66.95 46.45 66.45C46.95 66 47.5 65.65 48.1 65.4C49.3 64.9 50.7 64.9 51.9 65.4C52.5 65.65 53.05 66 53.55 66.45C54 66.95 54.35 67.5 54.6 68.1C54.85 68.7 55 69.35 55 70C55 70.65 54.85 71.3 54.6 71.9Z" fill="#CB0505"/>
</svg>
