<svg width="52" height="35" viewBox="0 0 52 35" fill="none" xmlns="http://www.w3.org/2000/svg">
<rect x="0.5" y="1" width="51" height="33" rx="6.5" fill="white"/>
<rect x="0.5" y="1" width="51" height="33" rx="6.5" stroke="#D6DCE5"/>
<path d="M21.2207 26.9468V25.6817C21.2281 25.5756 21.2127 25.4691 21.1754 25.3694C21.1382 25.2696 21.0799 25.179 21.0046 25.1033C20.9293 25.0277 20.8387 24.9689 20.7387 24.9309C20.6387 24.8928 20.5317 24.8763 20.4248 24.8826C20.2845 24.8735 20.1443 24.9019 20.0189 24.9649C19.8935 25.028 19.7874 25.1233 19.7117 25.241C19.6427 25.1269 19.5439 25.0333 19.4259 24.9702C19.3079 24.9072 19.1749 24.8769 19.041 24.8826C18.9243 24.8767 18.808 24.9013 18.7038 24.9538C18.5995 25.0063 18.5109 25.085 18.4467 25.182V24.9332H18.0053V26.9468H18.451V25.8314C18.4411 25.7624 18.4468 25.6921 18.4676 25.6255C18.4885 25.559 18.5239 25.4979 18.5715 25.4466C18.619 25.3954 18.6774 25.3553 18.7424 25.3292C18.8075 25.3031 18.8776 25.2917 18.9476 25.2958C19.2405 25.2958 19.3891 25.4856 19.3891 25.8272V26.9468H19.8348V25.8314C19.8257 25.7625 19.8319 25.6925 19.853 25.6263C19.8742 25.5601 19.9097 25.4993 19.957 25.4483C20.0044 25.3972 20.0625 25.3571 20.1272 25.3307C20.1919 25.3044 20.2616 25.2925 20.3314 25.2958C20.6328 25.2958 20.7771 25.4856 20.7771 25.8272V26.9468H21.2207ZM23.7039 25.941V24.9353H23.2582V25.1799C23.1833 25.0839 23.0865 25.0071 22.9758 24.9557C22.865 24.9044 22.7436 24.8801 22.6215 24.8847C22.34 24.8847 22.0701 24.9958 21.8711 25.1935C21.6721 25.3912 21.5603 25.6593 21.5603 25.9389C21.5603 26.2185 21.6721 26.4867 21.8711 26.6844C22.0701 26.8821 22.34 26.9931 22.6215 26.9931C22.7436 26.9978 22.865 26.9734 22.9758 26.9221C23.0865 26.8708 23.1833 26.7939 23.2582 26.698V26.9425H23.6996L23.7039 25.941ZM22.0633 25.941C22.0703 25.8224 22.1121 25.7084 22.1836 25.613C22.255 25.5177 22.3529 25.4452 22.4653 25.4045C22.5777 25.3637 22.6997 25.3565 22.8161 25.3838C22.9326 25.411 23.0385 25.4715 23.1208 25.5577C23.2031 25.644 23.2582 25.7523 23.2793 25.8693C23.3004 25.9863 23.2867 26.1068 23.2397 26.2161C23.1927 26.3255 23.1146 26.4187 23.0149 26.4845C22.9152 26.5502 22.7984 26.5856 22.6788 26.5862C22.5943 26.5882 22.5103 26.5726 22.4322 26.5405C22.3542 26.5084 22.2837 26.4604 22.2254 26.3997C22.167 26.3389 22.1221 26.2668 22.0935 26.1878C22.0648 26.1088 22.0531 26.0248 22.059 25.941H22.0633ZM33.1358 24.8868C33.2811 24.8864 33.4252 24.9136 33.5602 24.9669C33.6892 25.0182 33.8067 25.0942 33.9062 25.1904C34.0044 25.2858 34.0823 25.3998 34.1354 25.5257C34.2463 25.796 34.2463 26.0987 34.1354 26.369C34.0824 26.4949 34.0044 26.6089 33.9062 26.7043C33.8067 26.8006 33.6892 26.8765 33.5602 26.9278C33.2804 27.0358 32.9699 27.0358 32.6901 26.9278C32.5617 26.8765 32.4449 26.8006 32.3462 26.7043C32.249 26.6085 32.1718 26.4946 32.1191 26.369C32.0085 26.0987 32.0085 25.796 32.1191 25.5257C32.1718 25.4001 32.249 25.2862 32.3462 25.1904C32.4449 25.0941 32.5617 25.0182 32.6901 24.9669C32.83 24.9093 32.98 24.8799 33.1315 24.8805L33.1358 24.8868ZM33.1358 25.3085C33.0493 25.3073 32.9635 25.3231 32.8832 25.3549C32.8076 25.385 32.7389 25.4302 32.6816 25.4877C32.623 25.5482 32.5775 25.62 32.5479 25.6986C32.483 25.8669 32.483 26.0531 32.5479 26.2215C32.5775 26.3001 32.623 26.3718 32.6816 26.4323C32.7389 26.4898 32.8075 26.5351 32.8832 26.5651C33.0449 26.628 33.2245 26.628 33.3862 26.5651C33.4655 26.536 33.5378 26.4908 33.5984 26.4323C33.6571 26.3719 33.7026 26.3001 33.7322 26.2215C33.797 26.0531 33.797 25.8669 33.7322 25.6986C33.7026 25.6199 33.6571 25.5481 33.5984 25.4877C33.5378 25.4292 33.4655 25.384 33.3862 25.3549C33.3061 25.3185 33.2195 25.2984 33.1315 25.2958L33.1358 25.3085ZM26.1022 25.941C26.1022 25.3085 25.7074 24.8868 25.1407 24.8868C24.8593 24.8907 24.5909 25.0055 24.3947 25.206C24.1985 25.4065 24.0905 25.6762 24.0944 25.9558C24.0983 26.2354 24.2139 26.502 24.4157 26.6969C24.6175 26.8919 24.889 26.9992 25.1704 26.9953C25.4726 27.0055 25.768 26.9049 26.0003 26.7127L25.7881 26.388C25.6205 26.5215 25.4128 26.5957 25.198 26.5989C25.0521 26.6113 24.907 26.5668 24.7937 26.4746C24.6803 26.3825 24.6076 26.2501 24.591 26.1055H26.0958C26.1022 26.0528 26.1022 26.0001 26.1022 25.941ZM24.5932 25.7639C24.6014 25.6301 24.6614 25.5046 24.7607 25.4138C24.8601 25.323 24.9909 25.2739 25.1259 25.2769C25.1919 25.2755 25.2576 25.287 25.3192 25.3108C25.3808 25.3347 25.437 25.3703 25.4847 25.4157C25.5324 25.4612 25.5706 25.5155 25.5972 25.5756C25.6237 25.6357 25.6381 25.7004 25.6395 25.766L24.5932 25.7639ZM27.9593 25.4477C27.7654 25.3368 27.5462 25.2772 27.3225 25.2748C27.0806 25.2748 26.9363 25.3633 26.9363 25.5109C26.9363 25.6585 27.0891 25.6838 27.2801 25.7091L27.4923 25.7386C27.9338 25.8019 28.2012 25.9874 28.2012 26.3416C28.2012 26.6959 27.8616 26.9995 27.278 26.9995C26.9652 27.0077 26.6579 26.9161 26.4014 26.738L26.6137 26.3965C26.8084 26.54 27.0462 26.6143 27.2886 26.6073C27.59 26.6073 27.7513 26.5187 27.7513 26.3627C27.7513 26.2489 27.6367 26.1856 27.3947 26.1519L27.1825 26.1224C26.7283 26.0591 26.4821 25.8567 26.4821 25.5278C26.4821 25.1272 26.8132 24.8826 27.331 24.8826C27.6209 24.8729 27.9074 24.9461 28.1566 25.0934L27.9593 25.4477ZM30.0816 25.3338H29.3622V26.2425C29.3622 26.4534 29.4343 26.5799 29.655 26.5799C29.7928 26.5754 29.9272 26.5362 30.0456 26.466L30.1729 26.8413C30.0074 26.9439 29.8161 26.998 29.6211 26.9974C29.099 26.9974 28.9165 26.719 28.9165 26.251V25.3338H28.5047V24.9332H28.9165V24.3217H29.3622V24.9332H30.0816V25.3338ZM31.6076 24.8826C31.7147 24.883 31.8209 24.9015 31.9218 24.9374L31.7859 25.3591C31.6982 25.3244 31.6044 25.3072 31.51 25.3085C31.2214 25.3085 31.0855 25.494 31.0855 25.8272V26.9552H30.6441V24.9416H31.0813V25.1862C31.1355 25.0938 31.2137 25.0175 31.3079 24.9656C31.402 24.9136 31.5085 24.8879 31.6161 24.891L31.6076 24.8826ZM34.6596 26.6537C34.6872 26.6533 34.7146 26.6584 34.7403 26.6684C34.7647 26.6783 34.787 26.6926 34.8061 26.7106C34.8247 26.7288 34.8398 26.7502 34.8506 26.7739C34.8614 26.7985 34.8669 26.825 34.8669 26.8519C34.8669 26.8787 34.8614 26.9053 34.8506 26.9299C34.8398 26.9535 34.8247 26.975 34.8061 26.9931C34.787 27.0111 34.7647 27.0254 34.7403 27.0353C34.7149 27.0465 34.6874 27.0522 34.6596 27.0522C34.6194 27.0519 34.5801 27.0402 34.5463 27.0186C34.5124 26.9969 34.4855 26.9662 34.4686 26.9299C34.458 26.9052 34.4525 26.8787 34.4525 26.8519C34.4525 26.8251 34.458 26.7985 34.4686 26.7739C34.4794 26.7502 34.4945 26.7288 34.5132 26.7106C34.5323 26.6926 34.5546 26.6783 34.579 26.6684C34.6013 26.6596 34.625 26.6546 34.649 26.6537H34.6596ZM34.6596 27.01C34.6808 27.0101 34.7018 27.0058 34.7212 26.9974C34.7394 26.9893 34.756 26.9778 34.77 26.9636C34.788 26.9456 34.8013 26.9235 34.8088 26.8992C34.8162 26.875 34.8176 26.8492 34.8128 26.8243C34.808 26.7994 34.7971 26.776 34.7812 26.7562C34.7652 26.7364 34.7446 26.7207 34.7212 26.7106C34.7018 26.7022 34.6808 26.6979 34.6596 26.698C34.6385 26.6981 34.6175 26.7024 34.5981 26.7106C34.579 26.7184 34.5617 26.7298 34.5471 26.7443C34.5206 26.7731 34.5059 26.8107 34.5059 26.8498C34.5059 26.8888 34.5206 26.9264 34.5471 26.9552C34.5618 26.97 34.5794 26.9817 34.5987 26.9897C34.618 26.9976 34.6387 27.0017 34.6596 27.0016V27.01ZM34.6724 26.7591C34.6922 26.7582 34.7117 26.7641 34.7276 26.776C34.734 26.7813 34.7392 26.7881 34.7425 26.7958C34.7458 26.8035 34.7472 26.8119 34.7467 26.8203C34.747 26.8273 34.7458 26.8342 34.7432 26.8408C34.7407 26.8473 34.7368 26.8532 34.7318 26.8582C34.7195 26.8693 34.7038 26.876 34.6872 26.8772L34.7488 26.9468H34.7L34.6427 26.8772H34.6236V26.9468H34.5832V26.7528L34.6724 26.7591ZM34.6257 26.795V26.8456H34.6724C34.6807 26.848 34.6895 26.848 34.6978 26.8456C34.6993 26.8426 34.7001 26.8394 34.7001 26.8361C34.7001 26.8328 34.6993 26.8295 34.6978 26.8266C34.6993 26.8236 34.7001 26.8204 34.7001 26.8171C34.7001 26.8138 34.6993 26.8105 34.6978 26.8076C34.6895 26.8051 34.6807 26.8051 34.6724 26.8076L34.6257 26.795Z" fill="#000008"/>
<path d="M29.4449 9.57104H22.7594V21.507H29.4449V9.57104Z" fill="#7673C0"/>
<path d="M23.1839 15.5401C23.1827 14.3904 23.4448 13.2555 23.9504 12.2214C24.456 11.1872 25.1918 10.2809 26.1022 9.57106C24.975 8.69104 23.6213 8.1438 22.1959 7.9919C20.7705 7.84 19.3308 8.08956 18.0414 8.71205C16.752 9.33455 15.6648 10.3049 14.9043 11.5121C14.1437 12.7194 13.7404 14.1148 13.7404 15.539C13.7404 16.9632 14.1437 18.3587 14.9043 19.5659C15.6648 20.7732 16.752 21.7435 18.0414 22.366C19.3308 22.9885 20.7705 23.238 22.1959 23.0861C23.6213 22.9342 24.975 22.387 26.1022 21.507C25.1921 20.7974 24.4564 19.8914 23.9508 18.8576C23.4452 17.8239 23.183 16.6894 23.1839 15.5401Z" fill="#EB001B"/>
<path d="M37.735 20.2419V20.0057H37.8347V19.9551H37.5822V20.0057H37.6819V20.2503L37.735 20.2419ZM38.2252 20.2419V19.9467H38.1488L38.0597 20.1576L37.9706 19.9467H37.892V20.2419H37.9472V20.0205L38.03 20.2124H38.0873L38.1701 20.0205V20.244L38.2252 20.2419Z" fill="#00A1DF"/>
<path d="M38.4629 15.5401C38.4626 16.964 38.0591 18.3591 37.2985 19.566C36.5379 20.7729 35.4509 21.743 34.1617 22.3653C32.8725 22.9876 31.4331 23.2372 30.0079 23.0854C28.5827 22.9336 27.2293 22.3866 26.1022 21.507C27.0119 20.7967 27.7473 19.8905 28.2531 18.8567C28.7588 17.8229 29.0216 16.6884 29.0216 15.539C29.0216 14.3896 28.7588 13.2551 28.2531 12.2213C27.7473 11.1875 27.0119 10.2813 26.1022 9.57106C27.2293 8.69076 28.5829 8.14325 30.0084 7.99113C31.434 7.83901 32.8738 8.08841 34.1634 8.71082C35.4529 9.33323 36.5402 10.3035 37.3009 11.5108C38.0616 12.7181 38.465 14.1136 38.4651 15.5379L38.4629 15.5401Z" fill="#00A1DF"/>
</svg>
