<svg width="53" height="35" viewBox="0 0 53 35" fill="none" xmlns="http://www.w3.org/2000/svg">
<rect x="0.5" y="1" width="52" height="33" rx="6.5" fill="white"/>
<rect x="0.5" y="1" width="52" height="33" rx="6.5" stroke="#D6DCE5"/>
<path d="M30.1635 10.9287H22.6545V24.0712H30.1635V10.9287Z" fill="#FF5F00"/>
<path d="M23.1313 17.4999C23.1301 16.2342 23.4246 14.9848 23.9925 13.8464C24.5604 12.7079 25.3867 11.7102 26.409 10.9287C25.1431 9.95955 23.6227 9.35683 22.0216 9.18947C20.4205 9.0221 18.8034 9.29683 17.3551 9.98226C15.9068 10.6677 14.6857 11.7362 13.8314 13.0656C12.9771 14.395 12.524 15.9316 12.524 17.4999C12.524 19.0683 12.9771 20.6049 13.8314 21.9343C14.6857 23.2637 15.9068 24.3322 17.3551 25.0176C18.8034 25.7031 20.4205 25.9778 22.0216 25.8104C23.6227 25.643 25.1431 25.0403 26.409 24.0712C25.3867 23.2897 24.5604 22.292 23.9925 21.1535C23.4246 20.015 23.1302 18.7657 23.1313 17.4999Z" fill="#EB001B"/>
<path d="M40.2936 17.4999C40.2937 19.0682 39.8407 20.6049 38.9864 21.9343C38.1322 23.2637 36.9111 24.3322 35.4628 25.0176C34.0145 25.703 32.3974 25.9778 30.7964 25.8104C29.1954 25.643 27.675 25.0403 26.409 24.0712C27.4304 23.2889 28.2562 22.291 28.8239 21.1527C29.3917 20.0144 29.6867 18.7655 29.6867 17.4999C29.6867 16.2344 29.3917 14.9854 28.8239 13.8471C28.2562 12.7088 27.4304 11.711 26.409 10.9287C27.675 9.95955 29.1954 9.35683 30.7964 9.18947C32.3974 9.0221 34.0145 9.29684 35.4628 9.98228C36.9111 10.6677 38.1322 11.7362 38.9864 13.0656C39.8407 14.395 40.2937 15.9317 40.2936 17.4999Z" fill="#F79E1B"/>
<path d="M39.4749 22.6792V22.4101H39.5863V22.3553H39.3026V22.4101H39.414V22.6792H39.4749ZM40.0256 22.6792V22.3548H39.9387L39.8387 22.5779L39.7386 22.3548H39.6516V22.6792H39.713V22.4345L39.8068 22.6454H39.8705L39.9643 22.4339V22.6792H40.0256Z" fill="#F79E1B"/>
</svg>
