<svg width="108" height="108" viewBox="0 0 108 108" fill="none" xmlns="http://www.w3.org/2000/svg">
<path fill-rule="evenodd" clip-rule="evenodd" d="M53.9981 0.25C24.3127 0.25 0.248047 24.3147 0.248047 54C0.248047 83.6855 24.3127 107.75 53.9981 107.75C83.6836 107.75 107.748 83.6855 107.748 54C107.748 24.3147 83.6836 0.25 53.9981 0.25ZM31.6502 53.8485C30.1858 52.384 27.8114 52.384 26.3469 53.8485C24.8825 55.313 24.8825 57.687 26.3469 59.1515L41.347 74.1515C42.8115 75.616 45.1861 75.616 46.6501 74.1515L81.6501 39.1517C83.1145 37.6872 83.1145 35.3128 81.6501 33.8484C80.1856 32.3839 77.8116 32.3839 76.3471 33.8484L43.9986 66.1965L31.6502 53.8485Z" fill="#06B11C"/>
</svg>
