<svg width="53" height="35" viewBox="0 0 53 35" fill="none" xmlns="http://www.w3.org/2000/svg">
<rect x="0.5" y="1" width="52" height="33" rx="6.5" fill="white"/>
<rect x="0.5" y="1" width="52" height="33" rx="6.5" stroke="#D6DCE5"/>
<path d="M16.8897 7.94771H24.6515C25.7351 7.94771 26.4097 8.80812 26.1568 9.86771L22.5425 24.9783C22.2872 26.0347 21.2029 26.8951 20.119 26.8951H12.3567C11.2728 26.8951 10.599 26.0347 10.8518 24.9783L14.4679 9.86771C14.72 8.80812 15.8036 7.94771 16.8897 7.94771Z" fill="#ED171F"/>
<path d="M24.006 7.94771H32.9328C34.016 7.94771 33.5275 8.80812 33.2728 9.86771L29.6589 24.9783C29.4064 26.0347 29.4856 26.8951 28.3995 26.8951H19.4734C18.3884 26.8951 17.7164 26.0347 17.9714 24.9783L21.5839 9.86771C21.8393 8.80812 22.9225 7.94771 24.006 7.94771Z" fill="#082F67"/>
<path d="M32.5797 7.94771H40.3404C41.4247 7.94771 42.0985 8.80812 41.8446 9.86771L38.2311 24.9783C37.9771 26.0347 36.8932 26.8951 35.8057 26.8951H28.0471C26.9609 26.8951 26.2882 26.0347 26.5429 24.9783L30.1553 9.86771C30.4096 8.80812 31.4932 7.94771 32.5797 7.94771Z" fill="#006A65"/>
<path fill-rule="evenodd" clip-rule="evenodd" d="M31.7683 12.7788H32.093L32.1547 12.7801C32.7918 12.7935 33.3268 12.8048 33.5985 13.1669C33.7018 13.3107 33.7461 13.4976 33.7461 13.6845C33.7461 13.8426 33.7166 13.9863 33.6871 14.1013C33.569 14.5901 33.3181 15.007 32.9343 15.2801C32.3734 15.6826 31.6502 15.6826 31.0155 15.6826H30.9565C30.9122 15.7114 30.8679 15.7689 30.8679 15.7689C30.8679 15.7976 30.7203 16.387 30.7203 16.387C30.7203 16.387 30.5432 17.2064 30.5137 17.3358C30.3956 17.3214 30.0857 17.3214 29.3624 17.3358C29.3919 17.1921 30.1152 14.3026 30.1152 14.3026L30.4104 12.9369L30.4547 12.7644C30.5875 12.7788 30.927 12.7932 31.7683 12.7788ZM31.9897 14.8776C32.2554 14.7626 32.4472 14.5039 32.521 14.202C32.5948 13.8713 32.4915 13.6126 32.2406 13.5119C32.2258 13.5119 31.5617 13.4544 31.5617 13.4544L31.4288 13.4401V13.4976L31.414 13.5694L31.0893 14.9207L31.0746 14.9926H31.2517C31.5174 14.9926 31.783 14.9782 31.9897 14.8776Z" fill="white"/>
<path d="M17.7759 12.7931C17.7464 12.9225 17.2151 15.3376 17.2151 15.3376C17.097 15.8263 17.0084 16.1713 16.728 16.4013C16.5656 16.5307 16.3737 16.5882 16.1523 16.5882C15.7981 16.5882 15.5915 16.4157 15.5619 16.0995L15.5472 15.9844L15.6505 15.3232C15.6505 15.3232 16.2114 13.1237 16.3147 12.8362C16.3147 12.8219 16.3295 12.8075 16.3295 12.8075C15.2372 12.8219 15.0306 12.8075 15.0306 12.7931C15.0306 12.8219 15.0011 12.9512 15.0011 12.9512L14.4254 15.4238L14.3812 15.6394L14.2926 16.3295C14.2926 16.5307 14.3369 16.7032 14.4107 16.847C14.6764 17.2926 15.4143 17.3645 15.8424 17.3645C16.3885 17.3645 16.8903 17.2495 17.2446 17.0482C17.8249 16.7174 17.9845 16.2014 18.1267 15.7413L18.1449 15.6826L18.204 15.4382C18.204 15.4382 18.7796 13.1525 18.8829 12.8506V12.8219C18.7 12.8186 18.5467 12.816 18.418 12.8139C17.9861 12.8067 17.8328 12.8042 17.7759 12.7931Z" fill="white"/>
<path fill-rule="evenodd" clip-rule="evenodd" d="M33.7756 19.104L32.831 22.1372H33.0819L32.9884 22.4455L33.0081 22.3815H33.2738C33.3476 22.3815 33.4066 22.3528 33.4657 22.324C33.5099 22.3096 33.5542 22.2809 33.6133 22.209L34.307 21.2602H33.3771L33.5395 20.7427H34.6022L34.7498 20.2683H33.7018L33.8789 19.6789H36.8014L36.6243 20.2683H35.6501L35.4878 20.7427H36.4767L36.3143 21.2602H35.2516L35.0597 21.4759H35.4878L35.5911 22.1371C35.596 22.1611 35.5993 22.1803 35.602 22.1962C35.6075 22.2282 35.6108 22.2473 35.6206 22.2665C35.6354 22.2953 35.7682 22.3096 35.842 22.3096H35.9748L35.783 22.9422H35.2221C35.1552 22.9329 35.1068 22.9055 35.061 22.8795C35.0361 22.8654 35.0119 22.8517 34.9859 22.8415C34.9269 22.8128 34.8383 22.7409 34.8088 22.6115L34.7055 21.9503L34.2184 22.5971C34.0708 22.7984 33.8642 22.9565 33.5099 22.9565H32.831L32.8885 22.7697H32.6391L32.5801 22.9709H31.6797L31.7388 22.7697H29.9086L30.1004 22.1947H30.2776L31.4288 18.4858H32.3439L32.2406 18.8021C32.2406 18.8021 32.4915 18.6296 32.7129 18.5721C32.909 18.5243 33.8574 18.4964 34.1742 18.4883L34.1741 18.4858H35.1483L35.163 18.8452C35.163 18.9027 35.2073 18.9315 35.3254 18.9315H35.532L35.3549 19.5208H34.8236C34.366 19.5496 34.1889 19.3627 34.2036 19.1471L34.1871 18.777L34.0856 19.104H33.7756ZM31.2074 22.1515H31.9307L32.1521 21.4759H31.4141L31.2074 22.1515ZM31.7978 20.254L31.5469 21.059C31.5469 21.059 31.8273 20.9153 31.9749 20.8721C32.1225 20.8434 32.3587 20.8146 32.3587 20.8146L32.5358 20.254H31.7978ZM32.1521 19.104L31.9159 19.8802C31.9159 19.8802 32.1816 19.7652 32.3292 19.7221C32.4768 19.679 32.6982 19.6646 32.6982 19.6646L32.8753 19.104H32.1521Z" fill="white"/>
<path d="M24.1079 19.8371H26.5728L26.3957 20.4121H25.4068L25.2592 20.9009H26.2629L26.0858 21.4903H25.0821L24.8312 22.2809C24.8017 22.3672 25.0673 22.3816 25.1706 22.3816L25.6725 22.3097L25.4658 22.971H24.3293C24.2593 22.971 24.1984 22.962 24.1249 22.9511C24.1055 22.9482 24.0852 22.9452 24.0637 22.9422C23.9751 22.9278 23.9308 22.8703 23.8865 22.8128C23.8791 22.8008 23.8713 22.7896 23.8637 22.7786C23.8254 22.7237 23.7906 22.6738 23.8275 22.5541L24.1522 21.5047H23.5913L23.7685 20.9009H24.3293L24.4769 20.4121H23.9161L24.1079 19.8371Z" fill="white"/>
<path d="M26.7647 18.8021H25.761L25.9086 18.4858H24.9049L24.654 18.9315C24.595 19.0321 24.5507 19.0896 24.5064 19.1183C24.4769 19.1327 24.4031 19.1471 24.285 19.1471H24.1522L23.9751 19.7221H24.4179C24.6393 19.7221 24.8016 19.6502 24.8754 19.6071C24.9035 19.598 24.9256 19.5932 24.9446 19.5891C24.9856 19.5802 25.0122 19.5745 25.0525 19.5352L25.2001 19.4058H26.5876L26.7647 18.8021Z" fill="white"/>
<path fill-rule="evenodd" clip-rule="evenodd" d="M27.2075 18.4858H28.0636L27.9455 18.9027C27.9455 18.9027 28.2112 18.6871 28.4031 18.6152C28.5949 18.5433 29.023 18.4858 29.023 18.4858H30.4104L29.9381 20.024C29.8495 20.2827 29.761 20.4552 29.7019 20.5415C29.6429 20.6278 29.5839 20.6853 29.4658 20.7571C29.3477 20.8146 29.2444 20.8578 29.1411 20.8578C29.0525 20.8721 28.905 20.8721 28.7132 20.8721H27.3699L26.9861 22.094C26.9792 22.1209 26.9723 22.1446 26.9662 22.1657C26.946 22.2351 26.934 22.2766 26.9566 22.3097C26.9714 22.3384 27.0156 22.3672 27.0894 22.3672L27.6798 22.3097L27.4732 22.9853H26.809C26.6024 22.9853 26.44 22.9853 26.3367 22.9709C26.3077 22.9669 26.2787 22.9651 26.2503 22.9634C26.1777 22.959 26.1093 22.9548 26.0562 22.9134C26.0481 22.9055 26.0393 22.8973 26.0304 22.8888C25.9744 22.8361 25.9086 22.7741 25.9086 22.7122C25.9086 22.6446 25.9347 22.5517 25.9746 22.4094L25.9824 22.3816L27.2075 18.4858ZM27.7093 19.794C27.7093 19.794 27.9898 19.5496 28.4621 19.4633C28.5654 19.449 29.2444 19.449 29.2444 19.449L29.3477 19.1183H27.916L27.7093 19.794ZM29.0377 20.0384H27.6208L27.5322 20.3115H28.7573C28.8754 20.3 28.9179 20.3069 28.9377 20.3101C28.9427 20.3109 28.9462 20.3115 28.9492 20.3115L29.0377 20.0384Z" fill="white"/>
<path d="M29.6428 21.3465L29.7166 20.9727H29.0672L28.9786 21.2314C28.9638 21.2746 28.9491 21.3033 28.9196 21.3177C28.8901 21.3321 28.831 21.3465 28.772 21.3465H28.5653L28.5801 21.0158H27.7388L27.7093 22.6402C27.7093 22.7552 27.724 22.8271 27.8126 22.8846C27.9011 22.9565 28.1668 22.9709 28.5358 22.9709H29.0672L29.259 22.3527L28.8015 22.3815L28.6539 22.3959C28.6478 22.3899 28.6417 22.3864 28.6345 22.3823C28.6244 22.3765 28.6121 22.3696 28.5949 22.3527C28.5909 22.3451 28.586 22.3405 28.5808 22.3357C28.5665 22.3225 28.5506 22.3078 28.5506 22.2234V21.8065L29.0229 21.7777C29.2738 21.7777 29.3919 21.6915 29.4804 21.6196C29.5838 21.5477 29.6133 21.4615 29.6428 21.3465Z" fill="white"/>
<path d="M20.0047 17.3358C20.4622 17.3214 20.6098 17.3214 20.9936 17.3214L21.0379 17.2783C21.0847 16.9701 21.113 16.8341 21.1818 16.5033C21.1996 16.4175 21.2202 16.3186 21.2445 16.2001L21.3035 15.9414L21.3076 15.9231C21.423 15.4035 21.4796 15.1483 21.3921 14.9351C21.2888 14.6907 21.0526 14.6332 20.846 14.6332C20.6984 14.6332 20.4475 14.662 20.2113 14.777C20.1744 14.7985 20.1338 14.8201 20.0932 14.8417C20.0526 14.8632 20.0121 14.8848 19.9752 14.9064L20.049 14.6476L20.0047 14.6045C19.5297 14.7026 19.4056 14.7187 18.9892 14.7728L18.9567 14.777L18.9272 14.8057L18.926 14.8142C18.8676 15.2269 18.8226 15.5446 18.632 16.3726C18.5951 16.5236 18.5582 16.6781 18.5213 16.8327C18.4844 16.9871 18.4475 17.1418 18.4106 17.2927L18.4254 17.3358C18.8829 17.3214 19.0305 17.3214 19.429 17.3214L19.4586 17.2927C19.483 17.1855 19.4973 17.1128 19.5141 17.0277C19.5379 16.9074 19.5665 16.762 19.6357 16.4589C19.6546 16.3762 19.678 16.2655 19.703 16.1471C19.7563 15.8952 19.8169 15.6085 19.8571 15.4814C19.9604 15.4382 20.0637 15.3951 20.1523 15.3951C20.3737 15.3951 20.3589 15.5964 20.3442 15.6683C20.3294 15.7976 20.2556 16.2145 20.167 16.5739L20.108 16.8039C20.0834 16.9474 20.0487 17.0809 20.0122 17.221C20.0048 17.2494 19.9974 17.278 19.9899 17.307L20.0047 17.3358Z" fill="white"/>
<path d="M22.5728 17.3214H22.0415C21.9739 17.3214 21.9063 17.3244 21.833 17.3277C21.7463 17.3316 21.6516 17.3358 21.5396 17.3358L21.5101 17.307C21.5692 17.0914 21.5987 17.0051 21.6282 16.9333C21.6577 16.8614 21.6872 16.7751 21.7315 16.5595C21.8053 16.272 21.8496 16.0707 21.8791 15.8839C21.8939 15.7976 21.905 15.7185 21.916 15.6395C21.9271 15.5604 21.9382 15.4814 21.9529 15.3951L21.9824 15.3663C22.0952 15.3526 22.1877 15.3389 22.2698 15.3267C22.3595 15.3134 22.4367 15.302 22.5138 15.2945C22.6614 15.2801 22.8238 15.2513 23.0599 15.1938L23.0747 15.2082V15.2226C23.0525 15.316 23.0304 15.4059 23.0082 15.4958C22.9861 15.5856 22.964 15.6754 22.9418 15.7689C22.9197 15.8623 22.8976 15.9522 22.8754 16.042C22.8533 16.1319 22.8311 16.2217 22.809 16.3151C22.7204 16.7033 22.6909 16.8326 22.6614 16.9476C22.6545 16.9948 22.6476 17.0324 22.6391 17.0784C22.6296 17.1305 22.6181 17.1933 22.6024 17.2927L22.5728 17.3214Z" fill="white"/>
<path fill-rule="evenodd" clip-rule="evenodd" d="M25.9677 14.9926C26.1005 15.1651 26.2038 15.4382 26.071 16.0132C26.0267 16.1857 25.9086 16.617 25.6577 16.8901C25.3182 17.2495 24.8607 17.3645 24.4179 17.3645C24.2408 17.3645 23.9751 17.3358 23.7832 17.2639C23.1781 17.0195 23.2666 16.387 23.3552 16.0276C23.429 15.6826 23.5766 15.3232 23.8718 15.0501C24.2851 14.6763 24.8164 14.6619 25.0378 14.6619C25.4068 14.6619 25.761 14.7338 25.9677 14.9926ZM25.0341 16.0542C25.0415 16.0252 25.0477 16.0012 25.0526 15.9845C25.1559 15.5388 25.1411 15.2513 24.8902 15.2801C24.5803 15.2801 24.4622 15.6395 24.3589 16.0851C24.3546 16.1081 24.3503 16.1306 24.346 16.1525C24.3214 16.2812 24.2998 16.3936 24.2998 16.5164C24.2998 16.7895 24.4917 16.7895 24.5212 16.7895C24.6393 16.7895 24.7279 16.7176 24.8164 16.6026C24.9271 16.4708 24.9968 16.1993 25.0341 16.0542Z" fill="white"/>
<path fill-rule="evenodd" clip-rule="evenodd" d="M35.5763 17.3645C35.104 17.3645 34.9712 17.3645 34.5284 17.3789L34.4988 17.3502L34.5459 17.178C34.3853 17.3089 34.2122 17.3988 34.0266 17.4077C33.8642 17.4077 33.6871 17.3789 33.4952 17.307C32.8901 17.077 32.9786 16.4301 33.0672 16.0851C33.141 15.7401 33.2886 15.3807 33.5838 15.1076C34.0118 14.7482 34.4989 14.6476 34.7055 14.7195C34.8587 14.7775 34.9616 14.8689 35.0336 14.9769L35.045 14.892L35.0745 14.8632C35.1716 14.8484 35.2537 14.8361 35.3271 14.8251C35.6109 14.7824 35.7651 14.7592 36.1519 14.6907L36.1667 14.7338L35.901 15.812C35.7626 16.396 35.6963 16.7607 35.6388 17.0774L35.6386 17.0783C35.6225 17.1666 35.6072 17.2512 35.5911 17.3358L35.5763 17.3645ZM34.9138 15.6983C34.9101 15.4513 34.7982 15.3088 34.617 15.3088C34.307 15.3088 34.1889 15.6826 34.0856 16.1139L34.0775 16.157C34.0509 16.2983 34.0266 16.4276 34.0266 16.5451C34.0266 16.8183 34.2185 16.8183 34.248 16.8183C34.3661 16.8183 34.5579 16.7608 34.6317 16.6458C34.6764 16.5859 34.7169 16.4953 34.7515 16.401C34.7813 16.2822 34.8104 16.1626 34.8383 16.042C34.8683 15.9122 34.893 15.7992 34.9138 15.6983Z" fill="white"/>
<path d="M28.7277 17.3214C28.3292 17.3214 28.1964 17.3214 27.7536 17.3358L27.7388 17.307C27.7463 17.278 27.7537 17.2494 27.7611 17.2211C27.7976 17.0809 27.8323 16.9474 27.8569 16.8039L27.9159 16.5739C28.0045 16.2145 28.0783 15.7976 28.0931 15.6683C28.1078 15.5964 28.1226 15.3951 27.9012 15.3951C27.8126 15.3951 27.7093 15.4382 27.606 15.4814C27.5658 15.6085 27.5052 15.8952 27.4519 16.147C27.4269 16.2654 27.4035 16.3762 27.3846 16.4589C27.2915 16.8667 27.2718 16.9889 27.246 17.1489C27.239 17.192 27.2316 17.2378 27.2222 17.2927L27.1927 17.3214C26.7942 17.3214 26.6466 17.3214 26.189 17.3358L26.1743 17.2927C26.2112 17.1417 26.2481 16.9872 26.285 16.8327C26.3219 16.6781 26.3588 16.5236 26.3957 16.3726C26.5862 15.5446 26.6312 15.227 26.6897 14.8142L26.6909 14.8057L26.7204 14.777L26.7529 14.7728C27.1693 14.7187 27.2934 14.7026 27.7683 14.6045L27.8126 14.6476L27.7388 14.9064C27.7757 14.8848 27.8163 14.8632 27.8569 14.8417C27.8975 14.8201 27.9381 14.7985 27.975 14.777C28.2111 14.662 28.4621 14.6332 28.5949 14.6332C28.8015 14.6332 29.0377 14.6907 29.141 14.9351C29.2285 15.1483 29.1719 15.4035 29.0565 15.9231L29.0524 15.9414L28.9934 16.2001C28.8875 16.6586 28.8566 16.8246 28.8111 17.0698C28.7995 17.1322 28.787 17.1996 28.772 17.2783L28.7277 17.3214Z" fill="white"/>
<path d="M39.4286 14.6907L39.3843 14.6475C38.8973 14.7482 38.8235 14.7625 38.3807 14.8201L38.3512 14.8488V14.8632C38.1777 15.2548 38.0969 15.3921 38.0188 15.5249C37.9506 15.6407 37.8845 15.753 37.7608 16.0276V15.9557L37.7017 14.6907L37.6574 14.6475C37.5408 14.6709 37.4505 14.6897 37.3748 14.7054C37.1249 14.7572 37.0345 14.7759 36.6833 14.8201L36.6538 14.8488C36.6538 14.8632 36.6538 14.8776 36.639 14.8919C36.6834 15.108 36.6861 15.1292 36.7097 15.3155C36.7175 15.3771 36.7276 15.4568 36.7423 15.5676C36.7571 15.6826 36.7718 15.794 36.7866 15.9054C36.8014 16.0168 36.8161 16.1282 36.8309 16.2432C36.8465 16.3751 36.8603 16.4819 36.8742 16.5895C36.8997 16.787 36.9255 16.9873 36.9637 17.3501C36.8457 17.5417 36.7619 17.6895 36.6863 17.8229C36.5633 18.0399 36.4619 18.2187 36.27 18.4858L36.2848 18.5289C36.7423 18.5145 36.8456 18.5145 37.1851 18.5145L37.2589 18.4283C37.4951 17.9251 39.4286 14.6907 39.4286 14.6907Z" fill="white"/>
<path d="M23.0747 14.4606C23.2961 14.5756 23.2666 14.82 23.0009 14.9925C22.7353 15.165 22.3515 15.2082 22.1301 15.0932C21.9087 14.9638 21.9382 14.7194 22.2039 14.5469C22.4696 14.3744 22.8533 14.3313 23.0747 14.4606Z" fill="white"/>
</svg>
