<svg width="52" height="35" viewBox="0 0 52 35" fill="none" xmlns="http://www.w3.org/2000/svg">
<rect x="0.5" y="1" width="51" height="33" rx="6.5" fill="white"/>
<rect x="0.5" y="1" width="51" height="33" rx="6.5" stroke="#D6DCE5"/>
<path d="M25.6954 12.2841L23.3632 23.1142H20.5431L22.8756 12.2841H25.6954ZM37.5605 19.2771L39.0452 15.21L39.8995 19.2771H37.5605ZM40.707 23.1142H43.3155L41.0392 12.2841H38.6315C38.0905 12.2841 37.634 12.5967 37.4307 13.0786L33.1998 23.1142H36.1613L36.7493 21.497H40.3674L40.707 23.1142ZM33.3468 19.5781C33.3588 16.7196 29.3677 16.5623 29.3953 15.2855C29.4036 14.8964 29.7766 14.4837 30.5912 14.3778C30.996 14.3253 32.1087 14.2852 33.3723 14.8628L33.8671 12.5662C33.1884 12.3214 32.3151 12.0859 31.2289 12.0859C28.4416 12.0859 26.4797 13.5582 26.4631 15.6663C26.4455 17.2253 27.8636 18.0952 28.9322 18.6135C30.0309 19.1445 30.4001 19.4845 30.3952 19.9593C30.388 20.6863 29.5188 21.0065 28.708 21.0191C27.2898 21.0414 26.4669 20.639 25.811 20.3353L25.2999 22.7084C25.9586 23.009 27.1749 23.2702 28.4368 23.2836C31.399 23.2836 33.3371 21.8295 33.3468 19.5781ZM21.6656 12.2841L17.0965 23.1142H14.1149L11.8666 14.471C11.73 13.9387 11.6113 13.744 11.1962 13.5194C10.5188 13.1544 9.39917 12.8113 8.41406 12.5987L8.48135 12.2841H13.2799C13.8913 12.2841 14.4417 12.6885 14.5804 13.3882L15.768 19.6556L18.7027 12.2841H21.6656Z" fill="#1434CB"/>
</svg>
